<?xml version="1.0" encoding="UTF-8"?>
<svg version="1.1" xmlns="http://www.w3.org/2000/svg" width="580" height="430">
<path d="M0 0 C2.99067745 2.92919425 5.9543451 5.88524648 8.91546631 8.8442688 C9.99969612 9.92527662 11.08399721 11.00621297 12.16836548 12.08708191 C14.4172053 14.32999224 16.66402893 16.57489967 18.90960693 18.82107544 C21.79186783 21.70343911 24.68101843 24.57879309 27.57185555 27.45255184 C29.80221502 29.67183559 32.02805816 31.89560587 34.2526207 34.12069893 C35.31718658 35.18408357 36.38337713 36.2458443 37.45120621 37.30595207 C38.93250037 38.77751052 40.4073981 40.25519344 41.88079834 41.73464966 C42.72111603 42.57354233 43.56143372 43.412435 44.42721558 44.27674866 C46.22015381 46.31692505 46.22015381 46.31692505 46.22015381 48.31692505 C46.88015381 48.31692505 47.54015381 48.31692505 48.22015381 48.31692505 C56.80448043 57.68356716 60.03924323 69.33256364 59.59515381 81.8364563 C57.52189689 101.07887208 44.43180762 112.51437364 31.34515381 125.31692505 C29.20591379 127.42100871 27.06890442 129.52729375 24.93447876 131.63626099 C23.61551499 132.93833873 22.29347654 134.23731125 20.96798706 135.53274536 C20.37331635 136.11765747 19.77864563 136.70256958 19.16595459 137.3052063 C18.64381378 137.81607788 18.12167297 138.32694946 17.58370972 138.853302 C15.99546608 140.47920656 15.99546608 140.47920656 14.22015381 143.31692505 C13.56015381 143.31692505 12.90015381 143.31692505 12.22015381 143.31692505 C11.97644043 143.88298462 11.73272705 144.44904419 11.48162842 145.03225708 C8.86466442 149.77186403 4.57127752 153.37853909 0.78265381 157.19192505 C-0.07006104 158.07751099 -0.92277588 158.96309692 -1.80133057 159.8755188 C-10.54419469 168.69063799 -18.01199178 173.957839 -30.68293762 174.01821899 C-32.08779393 173.99981784 -33.49255507 173.97176842 -34.89703369 173.93435669 C-37.0413414 173.87912898 -39.18177139 173.87283244 -41.32672119 173.87356567 C-48.26795062 173.79973027 -53.50155282 173.3178733 -59.77984619 170.31692505 C-61.44405969 169.64415789 -63.10971201 168.97485669 -64.77984619 168.31692505 C-64.77984619 167.65692505 -64.77984619 166.99692505 -64.77984619 166.31692505 C-65.3767627 166.04598022 -65.9736792 165.7750354 -66.58868408 165.49588013 C-68.75079533 164.33255587 -70.13078605 163.19766051 -71.83843994 161.4536438 C-72.38951416 160.89612427 -72.94058838 160.33860474 -73.50836182 159.76419067 C-74.35430908 158.89310669 -74.35430908 158.89310669 -75.21734619 158.00442505 C-75.77744385 157.43530396 -76.3375415 156.86618286 -76.91461182 156.27981567 C-78.53940547 154.6284793 -80.1597289 152.97284744 -81.77984619 151.31692505 C-85.3087467 147.7288519 -85.3087467 147.7288519 -89.15484619 144.50442505 C-92.19201993 141.97344694 -94.6044713 139.1516506 -97.13140869 136.12161255 C-98.8461695 134.09920249 -98.8461695 134.09920249 -101.77984619 132.31692505 C-101.77984619 131.65692505 -101.77984619 130.99692505 -101.77984619 130.31692505 C-102.43984619 130.31692505 -103.09984619 130.31692505 -103.77984619 130.31692505 C-105.26031494 128.8130188 -105.26031494 128.8130188 -106.96734619 126.75442505 C-111.16116095 121.81949957 -115.71054096 117.33575942 -120.34234619 112.81692505 C-129.95592565 102.95684355 -135.49798885 92.20371287 -136.77984619 78.31692505 C-136.50034551 63.81213957 -129.9999342 52.90606741 -120.30328369 42.6880188 C-117.77984619 40.31692505 -117.77984619 40.31692505 -114.77984619 39.31692505 C-114.07057356 38.00575971 -113.40958611 36.66809116 -112.77984619 35.31692505 C-109.21658602 30.72148624 -105.35258315 26.90096213 -100.77984619 23.31692505 C-99.42156648 21.6705254 -98.08730368 20.00396697 -96.77984619 18.31692505 C-94.65484619 16.00442505 -94.65484619 16.00442505 -92.77984619 14.31692505 C-92.11984619 14.31692505 -91.45984619 14.31692505 -90.77984619 14.31692505 C-90.28484619 12.83192505 -90.28484619 12.83192505 -89.77984619 11.31692505 C-87.84234619 9.12942505 -87.84234619 9.12942505 -85.77984619 7.31692505 C-85.11984619 7.31692505 -84.45984619 7.31692505 -83.77984619 7.31692505 C-83.77984619 6.65692505 -83.77984619 5.99692505 -83.77984619 5.31692505 C-83.11984619 5.31692505 -82.45984619 5.31692505 -81.77984619 5.31692505 C-81.28484619 3.83192505 -81.28484619 3.83192505 -80.77984619 2.31692505 C-76.46166437 -2.45580222 -76.46166437 -2.45580222 -72.77984619 -3.68307495 C-72.44984619 -4.67307495 -72.11984619 -5.66307495 -71.77984619 -6.68307495 C-69.88922119 -8.4369812 -69.88922119 -8.4369812 -67.52984619 -10.24557495 C-66.76156494 -10.84498901 -65.99328369 -11.44440308 -65.20172119 -12.0619812 C-59.7497897 -15.71125792 -54.86819731 -16.11128613 -48.46734619 -16.37057495 C-47.58522461 -16.40819946 -46.70310303 -16.44582397 -45.79425049 -16.48458862 C-25.33983308 -17.21622244 -14.91460028 -14.39539732 0 0 Z M-38.77984619 29.31692505 C-39.04797119 29.95630005 -39.31609619 30.59567505 -39.59234619 31.25442505 C-40.77984619 33.31692505 -40.77984619 33.31692505 -43.77984619 34.31692505 C-46.18979985 36.95233523 -46.18979985 36.95233523 -46.77984619 40.31692505 C-47.43984619 40.31692505 -48.09984619 40.31692505 -48.77984619 40.31692505 C-52.41618158 43.79691012 -52.41618158 43.79691012 -53.77984619 48.31692505 C-54.43984619 48.31692505 -55.09984619 48.31692505 -55.77984619 48.31692505 C-58.80502529 51.37250928 -58.80502529 51.37250928 -59.77984619 55.31692505 C-60.43984619 55.31692505 -61.09984619 55.31692505 -61.77984619 55.31692505 C-64.17804924 57.95377252 -64.17804924 57.95377252 -64.77984619 61.31692505 C-66.26484619 61.81192505 -66.26484619 61.81192505 -67.77984619 62.31692505 C-71.41997686 65.79627977 -71.41997686 65.79627977 -72.77984619 70.31692505 C-73.43984619 70.31692505 -74.09984619 70.31692505 -74.77984619 70.31692505 C-76.16922696 72.27840379 -77.50588729 74.2785908 -78.77984619 76.31692505 C-78.03927979 77.04008911 -78.03927979 77.04008911 -77.28375244 77.77786255 C-76.64308838 78.40950317 -76.00242432 79.0411438 -75.34234619 79.69192505 C-74.70426025 80.31840942 -74.06617432 80.9448938 -73.40875244 81.59036255 C-71.77984619 83.31692505 -71.77984619 83.31692505 -70.77984619 85.31692505 C-70.11984619 85.31692505 -69.45984619 85.31692505 -68.77984619 85.31692505 C-68.11984619 86.63692505 -67.45984619 87.95692505 -66.77984619 89.31692505 C-66.11984619 89.31692505 -65.45984619 89.31692505 -64.77984619 89.31692505 C-64.53234619 89.87380005 -64.28484619 90.43067505 -64.02984619 91.00442505 C-62.05019505 94.66677966 -59.75028155 97.55631355 -56.46734619 100.12942505 C-52.03300665 103.73877119 -48.54810602 108.21029452 -44.88140869 112.5786438 C-44.27039307 113.29665161 -43.65937744 114.01465942 -43.02984619 114.75442505 C-42.47812744 115.41313599 -41.92640869 116.07184692 -41.35797119 116.7505188 C-39.75735365 118.57102103 -39.75735365 118.57102103 -36.77984619 119.31692505 C-36.17656494 118.5692688 -35.57328369 117.82161255 -34.95172119 117.05130005 C-34.15250244 116.0664563 -33.35328369 115.08161255 -32.52984619 114.06692505 C-31.74093994 113.0923938 -30.95203369 112.11786255 -30.13922119 111.11380005 C-28.11364684 108.7126225 -26.02248092 106.51122713 -23.77984619 104.31692505 C-21.38886869 101.64851421 -21.38886869 101.64851421 -20.77984619 98.31692505 C-20.11984619 98.31692505 -19.45984619 98.31692505 -18.77984619 98.31692505 C-16.96355843 96.37316551 -16.96355843 96.37316551 -15.15484619 93.94192505 C-14.20738525 92.72376099 -14.20738525 92.72376099 -13.24078369 91.48098755 C-11.59333811 89.47582626 -11.59333811 89.47582626 -11.77984619 87.31692505 C-11.11984619 87.31692505 -10.45984619 87.31692505 -9.77984619 87.31692505 C-8.19158397 85.60194733 -8.19158397 85.60194733 -6.65484619 83.44192505 C-6.11601807 82.72262817 -5.57718994 82.0033313 -5.02203369 81.26223755 C-3.60044987 79.42066499 -3.60044987 79.42066499 -3.77984619 77.31692505 C-3.11984619 77.31692505 -2.45984619 77.31692505 -1.77984619 77.31692505 C-2.36807187 74.26734127 -3.22054656 72.45137599 -5.22906494 70.0942688 C-5.74098389 69.48228638 -6.25290283 68.87030396 -6.78033447 68.23977661 C-7.61540527 67.25702759 -7.61540527 67.25702759 -8.46734619 66.25442505 C-15.4630745 57.85009473 -21.94376036 49.11196189 -28.3604126 40.26126099 C-28.82882568 39.61963013 -29.29723877 38.97799927 -29.77984619 38.31692505 C-30.29337646 37.57474731 -30.80690674 36.83256958 -31.33599854 36.06790161 C-31.81246826 35.49007935 -32.28893799 34.91225708 -32.77984619 34.31692505 C-33.43984619 34.31692505 -34.09984619 34.31692505 -34.77984619 34.31692505 C-35.21297119 33.35786255 -35.21297119 33.35786255 -35.65484619 32.37942505 C-36.6080807 30.16486426 -36.6080807 30.16486426 -38.77984619 29.31692505 Z " fill="#6CBDFD" transform="translate(336.77984619140625,133.68307495117188)"/>
<path d="M0 0 C5.45739342 -0.03328907 5.45739342 -0.03328907 7.67497253 1.07550049 C7.67497253 40.01550049 7.67497253 78.95550049 7.67497253 119.07550049 C11.30497253 119.07550049 14.93497253 119.07550049 18.67497253 119.07550049 C20.92106628 121.12237549 20.92106628 121.12237549 22.11247253 123.82550049 C23.86437413 127.72665031 23.86437413 127.72665031 26.72624207 130.80645752 C29.39234466 133.91078694 29.1772039 135.90695227 29.17106628 139.95831299 C29.17252151 140.6137912 29.17397675 141.26926941 29.17547607 141.9446106 C29.17382128 143.32471175 29.16230661 144.70483216 29.14152527 146.08477783 C29.11246613 148.20096679 29.12094181 150.31466491 29.13395691 152.43096924 C29.12772208 153.77342936 29.11933312 155.11588157 29.10856628 156.45831299 C29.09881775 157.67921631 29.08906921 158.90011963 29.07902527 160.15802002 C28.87901917 161.60217285 28.87901917 161.60217285 28.67497253 163.07550049 C25.57411683 165.14273763 24.94565572 165.32047472 21.44450378 165.27081299 C20.72109802 165.26581787 19.99769226 165.26082275 19.25236511 165.25567627 C18.33995056 165.23746826 17.42753601 165.21926025 16.48747253 165.20050049 C13.57934753 165.15925049 10.67122253 165.11800049 7.67497253 165.07550049 C7.67497253 176.29550049 7.67497253 187.51550049 7.67497253 199.07550049 C-1.32731963 200.20078701 -1.32731963 200.20078701 -5.14875793 200.20489502 C-6.00259064 200.20804718 -6.85642334 200.21119934 -7.73612976 200.21444702 C-8.62913788 200.21242279 -9.522146 200.21039856 -10.44221497 200.20831299 C-11.84976547 200.20974808 -11.84976547 200.20974808 -13.28575134 200.21121216 C-15.2539222 200.21188867 -17.22209535 200.21007154 -19.19026184 200.20587158 C-22.2117964 200.20047949 -25.23318476 200.20585297 -28.25471497 200.21221924 C-30.17138196 200.21155907 -32.08804887 200.21027918 -34.00471497 200.20831299 C-34.90986847 200.21033722 -35.81502197 200.21236145 -36.74760437 200.21444702 C-37.58252411 200.21129486 -38.41744385 200.2081427 -39.27766418 200.20489502 C-40.0129837 200.20409943 -40.74830322 200.20330383 -41.50590515 200.20248413 C-43.32502747 200.07550049 -43.32502747 200.07550049 -45.32502747 199.07550049 C-46.59144324 192.32662656 -46.47480411 185.5471138 -46.45002747 178.70050049 C-46.45389465 177.60866455 -46.45776184 176.51682861 -46.46174622 175.39190674 C-46.46045715 174.3516333 -46.45916809 173.31135986 -46.45783997 172.23956299 C-46.45671204 171.29548584 -46.45558411 170.35140869 -46.454422 169.37872314 C-46.32502747 167.07550049 -46.32502747 167.07550049 -45.32502747 165.07550049 C-47.11907768 165.07883141 -47.11907768 165.07883141 -48.94937134 165.08222961 C-60.20628679 165.10247802 -71.46319855 165.11748085 -82.72012806 165.12731266 C-88.50778778 165.13253715 -94.29543283 165.13962698 -100.08308411 165.15093994 C-105.66569857 165.16178416 -111.2482989 165.1677806 -116.83092308 165.17037773 C-118.96362722 165.1722292 -121.09633056 165.17584451 -123.2290287 165.18123055 C-126.21002007 165.18846129 -129.1909526 165.18949056 -132.17195129 165.18902588 C-133.05883636 165.19262115 -133.94572144 165.19621643 -134.85948181 165.19992065 C-135.67136459 165.19854599 -136.48324738 165.19717133 -137.31973267 165.195755 C-138.0249043 165.1966768 -138.73007593 165.19759859 -139.4566164 165.19854832 C-141.32502747 165.07550049 -141.32502747 165.07550049 -144.32502747 164.07550049 C-144.47416389 158.11654428 -144.58261455 152.15869149 -144.65461731 146.19830322 C-144.68465451 144.174022 -144.72549765 142.14986945 -144.77766418 140.1260376 C-144.85105892 137.20391994 -144.8846143 134.28353301 -144.91096497 131.36065674 C-144.94193268 130.4665358 -144.97290039 129.57241486 -145.00480652 128.65119934 C-145.00807282 122.4512795 -143.47288298 118.90121855 -139.71458435 113.97563171 C-138.13798283 112.02227642 -138.13798283 112.02227642 -137.32502747 109.07550049 C-136.66502747 109.07550049 -136.00502747 109.07550049 -135.32502747 109.07550049 C-135.07752747 108.39487549 -134.83002747 107.71425049 -134.57502747 107.01300049 C-133.08304839 103.50684966 -131.25667236 100.35929681 -129.32502747 97.07550049 C-128.66502747 97.07550049 -128.00502747 97.07550049 -127.32502747 97.07550049 C-127.06721497 96.35233643 -126.80940247 95.62917236 -126.54377747 94.88409424 C-125.26421707 91.9353637 -123.75471834 89.70433118 -121.82502747 87.13800049 C-121.11862122 86.1853833 -120.41221497 85.23276611 -119.68440247 84.25128174 C-118.90580872 83.20327393 -118.12721497 82.15526611 -117.32502747 81.07550049 C-115.5637985 78.66683947 -113.81737434 76.24784303 -112.07502747 73.82550049 C-111.663172 73.25968262 -111.25131653 72.69386475 -110.82698059 72.11090088 C-108.03802056 68.23200894 -105.65166278 64.24859319 -103.32502747 60.07550049 C-102.06454277 57.97057343 -100.77880187 56.0623255 -99.32502747 54.07550049 C-98.66502747 54.07550049 -98.00502747 54.07550049 -97.32502747 54.07550049 C-96.99825012 53.07003174 -96.99825012 53.07003174 -96.66487122 52.04425049 C-94.90220014 48.13862362 -92.47014639 44.97634157 -89.88752747 41.57550049 C-88.90761404 40.27495836 -87.92970055 38.97290659 -86.95393372 37.66925049 C-86.4951886 37.0569458 -86.03644348 36.44464111 -85.563797 35.81378174 C-84.17158151 33.91733778 -84.17158151 33.91733778 -82.60237122 31.10675049 C-82.18084778 30.43643799 -81.75932434 29.76612549 -81.32502747 29.07550049 C-80.66502747 29.07550049 -80.00502747 29.07550049 -79.32502747 29.07550049 C-79.06979309 28.35491455 -78.81455872 27.63432861 -78.55158997 26.89190674 C-77.24417898 23.88985794 -75.67458335 21.62083027 -73.70002747 19.01300049 C-72.75256653 17.75809814 -72.75256653 17.75809814 -71.78596497 16.47784424 C-71.39852112 15.9939624 -71.01107727 15.51008057 -70.6118927 15.01153564 C-69.17309576 12.98291274 -69.17309576 12.98291274 -68.08699036 10.07305908 C-66.21162532 6.16336535 -64.6850698 3.85502171 -61.32502747 1.07550049 C-53.87738515 -1.13897197 -45.68781526 -0.36968778 -38.01252747 -0.17449951 C-35.89731708 -0.1625043 -33.78206851 -0.15594883 -31.66682434 -0.15496826 C-27.52872514 -0.14421192 -23.39353659 -0.09884466 -19.25617981 -0.02020264 C-12.83664244 0.09867526 -6.42001236 0.07634878 0 0 Z M-46.32502747 57.07550049 C-46.75815247 58.03456299 -46.75815247 58.03456299 -47.20002747 59.01300049 C-48.32502747 61.07550049 -48.32502747 61.07550049 -50.32502747 62.07550049 C-53.15248027 66.46167727 -55.57902954 71.15496087 -57.32502747 76.07550049 C-57.98502747 76.07550049 -58.64502747 76.07550049 -59.32502747 76.07550049 C-60.57831773 77.58318186 -60.57831773 77.58318186 -61.82502747 79.63800049 C-64.09967802 83.17389795 -66.40487711 86.68171042 -68.76301575 90.16265869 C-73.15195583 96.66202893 -77.35472816 103.26224447 -81.45002747 109.95050049 C-82.17838806 111.1376062 -82.17838806 111.1376062 -82.92146301 112.34869385 C-83.5891571 113.44709595 -83.5891571 113.44709595 -84.27033997 114.56768799 C-84.66753235 115.22108154 -85.06472473 115.8744751 -85.47395325 116.54766846 C-86.40613384 117.92962029 -86.40613384 117.92962029 -86.32502747 119.07550049 C-72.79502747 119.07550049 -59.26502747 119.07550049 -45.32502747 119.07550049 C-45.32502747 98.61550049 -45.32502747 78.15550049 -45.32502747 57.07550049 C-45.65502747 57.07550049 -45.98502747 57.07550049 -46.32502747 57.07550049 Z " fill="#FD5361" transform="translate(183.3250274658203,109.92449951171875)"/>
<path d="M0 0 C1.05652771 -0.00725853 1.05652771 -0.00725853 2.13439941 -0.0146637 C6.8456471 -0.00200915 6.8456471 -0.00200915 7.96875 1.12109375 C8.11873952 3.80754428 8.20478291 6.47071472 8.25 9.15966797 C8.26804687 10.00401901 8.28609375 10.84837006 8.3046875 11.7183075 C8.36387185 14.53739255 8.41621077 17.35656516 8.46875 20.17578125 C8.50927755 22.1499226 8.55030096 24.12405382 8.59179688 26.09817505 C8.70076368 31.33207562 8.80425648 36.56606927 8.90625 41.80010986 C9.08755532 51.07129221 9.27708473 60.34230803 9.46875 69.61328125 C9.48904266 70.60358086 9.50933533 71.59388046 9.53024292 72.61418915 C9.85038699 88.12392637 10.28879683 103.6223703 10.96875 119.12109375 C11.89211655 119.06569176 11.89211655 119.06569176 12.83413696 119.00917053 C14.530466 118.90739079 16.22680638 118.80579996 17.92315674 118.70437622 C19.71374606 118.59653632 21.50414525 118.48552898 23.29443359 118.37280273 C24.44419678 118.30814819 24.44419678 118.30814819 25.6171875 118.2421875 C26.79547119 118.17149048 26.79547119 118.17149048 27.99755859 118.09936523 C29.96875 118.12109375 29.96875 118.12109375 31.96875 119.12109375 C32.29875 133.31109375 32.62875 147.50109375 32.96875 162.12109375 C27.34375 164.37109375 27.34375 164.37109375 23.76171875 164.31640625 C23.01083984 164.30996094 22.25996094 164.30351562 21.48632812 164.296875 C20.71740234 164.28011719 19.94847656 164.26335937 19.15625 164.24609375 C18.36798828 164.23707031 17.57972656 164.22804688 16.76757812 164.21875 C14.83450334 164.19531879 12.9015862 164.15945213 10.96875 164.12109375 C11.13246094 164.99894531 11.29617188 165.87679687 11.46484375 166.78125 C12.30630619 172.67148708 12.07334524 178.62316542 12.03125 184.55859375 C12.02673828 185.76708984 12.02222656 186.97558594 12.01757812 188.22070312 C12.00585145 191.18755164 11.98943896 194.15429645 11.96875 197.12109375 C8.90863961 198.88638862 6.64276939 199.38743427 3.12426758 199.45581055 C2.1668013 199.47890793 1.20933502 199.50200531 0.22285461 199.52580261 C-0.8033046 199.54049088 -1.82946381 199.55517914 -2.88671875 199.5703125 C-3.94409744 199.59205032 -5.00147614 199.61378815 -6.09089661 199.63618469 C-8.32247581 199.68005709 -10.55415086 199.71926693 -12.78588867 199.75415039 C-16.21629201 199.80855477 -19.64610761 199.87869362 -23.07617188 199.95117188 C-25.2421703 199.99181243 -27.40818577 200.03155706 -29.57421875 200.0703125 C-31.1225666 200.10145393 -31.1225666 200.10145393 -32.70219421 200.13322449 C-33.65020401 200.14686539 -34.59821381 200.16050629 -35.57495117 200.17456055 C-36.83259529 200.19549019 -36.83259529 200.19549019 -38.11564636 200.21684265 C-40.03125 200.12109375 -40.03125 200.12109375 -41.03125 199.12109375 C-41.18964157 197.29026801 -41.2824912 195.45369622 -41.34765625 193.6171875 C-41.38955078 192.48345703 -41.43144531 191.34972656 -41.47460938 190.18164062 C-41.51392578 188.98603516 -41.55324219 187.79042969 -41.59375 186.55859375 C-41.63693359 185.39005859 -41.68011719 184.22152344 -41.72460938 183.01757812 C-41.93671187 177.04840788 -42.08293067 171.09390314 -42.03125 165.12109375 C-42.72742432 165.28480469 -43.42359863 165.44851563 -44.14086914 165.6171875 C-47.25849419 166.16071129 -50.1128627 166.21707786 -53.27734375 166.18359375 C-54.56471436 166.17521484 -55.85208496 166.16683594 -57.1784668 166.15820312 C-57.87418793 166.15199951 -58.56990906 166.1457959 -59.28671265 166.1394043 C-76.60220001 165.99410154 -93.90693149 166.28146476 -111.21875 166.62109375 C-112.44874725 166.64510254 -113.67874451 166.66911133 -114.9460144 166.69384766 C-121.97451875 166.83186282 -129.00292889 166.97404612 -136.03125 167.12109375 C-136.03125 163.12109375 -136.03125 163.12109375 -133.97265625 160.83984375 C-133.5152002 160.41832031 -133.05774414 159.99679687 -132.58642578 159.5625 C-130.8491535 157.95231859 -129.23881487 156.25748813 -127.62109375 154.52734375 C-126.72487305 153.57021484 -126.72487305 153.57021484 -125.81054688 152.59375 C-125.20275391 151.94277344 -124.59496094 151.29179687 -123.96875 150.62109375 C-123.35708984 149.97011719 -122.74542969 149.31914062 -122.11523438 148.6484375 C-119.52927858 145.88076589 -117.05018682 143.14544567 -114.72265625 140.15234375 C-114.16449219 139.48203125 -113.60632813 138.81171875 -113.03125 138.12109375 C-112.37125 138.12109375 -111.71125 138.12109375 -111.03125 138.12109375 C-110.75925781 137.54359375 -110.48726563 136.96609375 -110.20703125 136.37109375 C-109.03304457 134.12452787 -107.69563933 132.17860712 -106.21875 130.12109375 C-100.11906576 120.81420454 -97.57858184 113.13099498 -97.46875 101.99609375 C-97.45408691 101.07803955 -97.43942383 100.15998535 -97.42431641 99.21411133 C-97.53621647 91.6878206 -99.60809484 85.61787533 -103.16186523 79.02294922 C-104.03125 77.12109375 -104.03125 77.12109375 -104.03125 74.12109375 C-104.69125 74.12109375 -105.35125 74.12109375 -106.03125 74.12109375 C-105.46822042 70.17988666 -104.3520555 67.37022145 -102.03125 64.12109375 C-101.37125 64.12109375 -100.71125 64.12109375 -100.03125 64.12109375 C-99.94875 63.56421875 -99.86625 63.00734375 -99.78125 62.43359375 C-98.7996838 59.40709796 -97.03824767 57.58683374 -95.03125 55.12109375 C-94.4640625 54.10917969 -93.896875 53.09726563 -93.3125 52.0546875 C-90.64529885 47.31141471 -87.48927633 42.930465 -84.34375 38.49609375 C-83.08702204 36.71239284 -81.83051157 34.92853867 -80.57421875 33.14453125 C-79.96626465 32.28311523 -79.35831055 31.42169922 -78.73193359 30.53417969 C-72.88276155 22.23483768 -67.15352569 13.86200372 -61.5625 5.38671875 C-60.03125 3.12109375 -60.03125 3.12109375 -59.03125 2.12109375 C-57.58855028 1.96942247 -56.13889937 1.88306986 -54.68945312 1.82397461 C-53.76338257 1.78400864 -52.83731201 1.74404266 -51.88317871 1.7028656 C-50.86985474 1.66427933 -49.85653076 1.62569305 -48.8125 1.5859375 C-47.2436908 1.52147179 -47.2436908 1.52147179 -45.64318848 1.45570374 C-43.41374797 1.36521782 -41.18420976 1.27711372 -38.95458984 1.19116211 C-35.60095866 1.06129321 -32.24776565 0.92290055 -28.89453125 0.78320312 C-19.26492556 0.39261251 -9.63837153 0.03705363 0 0 Z M-45.03125 61.12109375 C-49.33981378 66.73196353 -53.11099761 72.74966138 -56.87890625 78.73046875 C-59.74294909 83.26202098 -62.67198599 87.75164344 -65.59375 92.24609375 C-66.13596191 93.08124512 -66.67817383 93.91639648 -67.23681641 94.77685547 C-67.76839355 95.59428223 -68.2999707 96.41170898 -68.84765625 97.25390625 C-69.37633301 98.06762695 -69.90500977 98.88134766 -70.44970703 99.71972656 C-71.48181586 101.2868495 -72.52908896 102.84411964 -73.59326172 104.38964844 C-77.3601302 109.87201311 -79.98857358 115.03574092 -83.03125 121.12109375 C-69.50125 120.79109375 -55.97125 120.46109375 -42.03125 120.12109375 C-42.02035645 106.61923123 -42.02035645 106.61923123 -42.46875 93.15234375 C-42.51314209 92.22055298 -42.55753418 91.28876221 -42.60327148 90.32873535 C-42.74236409 87.42600218 -42.88668463 84.52355893 -43.03125 81.62109375 C-43.12795514 79.62241278 -43.22431149 77.62371491 -43.3203125 75.625 C-43.55328227 70.79016078 -43.79093215 65.95557307 -44.03125 61.12109375 C-44.36125 61.12109375 -44.69125 61.12109375 -45.03125 61.12109375 Z " fill="#6BBEFD" transform="translate(498.03125,108.87890625)"/>
<path d="M0 0 C2.39989817 -0.03897222 4.79915582 -0.06740544 7.19921875 -0.08984375 C7.87432495 -0.10188843 8.54943115 -0.11393311 9.24499512 -0.12634277 C22.20526224 -0.21713965 29.4364678 8.49064742 38.19452095 17.0686636 C40.70470149 19.54498672 43.20112644 22.03492561 45.6953125 24.52734375 C46.77954231 25.60835157 47.8638434 26.68928792 48.94821167 27.77015686 C51.19705149 30.01306719 53.44387512 32.25797462 55.68945312 34.50415039 C58.57171403 37.38651406 61.46086462 40.26186804 64.35170174 43.13562679 C66.58206121 45.35491055 68.80790435 47.57868082 71.03246689 49.80377388 C72.09703277 50.86715852 73.16322332 51.92891925 74.2310524 52.98902702 C75.71234656 54.46058547 77.18724429 55.9382684 78.66064453 57.41772461 C79.50096222 58.25661728 80.34127991 59.09550995 81.20706177 59.95982361 C83 62 83 62 83 64 C83.66 64 84.32 64 85 64 C93.58432663 73.36664211 96.81908942 85.01563859 96.375 97.51953125 C94.30174308 116.76194703 81.21165381 128.19744859 68.125 141 C65.98575998 143.10408366 63.84875061 145.2103687 61.71432495 147.31933594 C60.39536118 148.62141368 59.07332273 149.9203862 57.74783325 151.21582031 C57.15316254 151.80073242 56.55849182 152.38564453 55.94580078 152.98828125 C55.42365997 153.49915283 54.90151917 154.01002441 54.36355591 154.53637695 C52.77531227 156.16228151 52.77531227 156.16228151 51 159 C50.34 159 49.68 159 49 159 C48.63660522 159.84800171 48.63660522 159.84800171 48.26586914 160.71313477 C45.62519754 165.48365953 41.26262961 169.10687056 37.4375 172.9375 C36.56802734 173.83146484 35.69855469 174.72542969 34.80273438 175.64648438 C27.2261107 183.25700793 21.92827166 188.16710735 10.95213318 188.32945251 C7.29465674 188.30479547 3.65332209 188.17734573 0 188 C-0.22950786 180.51159051 -0.38634642 173.02409759 -0.49438477 165.53295898 C-0.53945218 162.98866894 -0.60072676 160.44460948 -0.67895508 157.90112305 C-1.39458452 134.02342188 -1.39458452 134.02342188 4.41015625 126.76953125 C8.35534427 123 8.35534427 123 11 123 C11.268125 122.2575 11.53625 121.515 11.8125 120.75 C12.95276751 118.10938051 14.09380306 116.14447156 16 114 C16.66 114 17.32 114 18 114 C18.226875 113.484375 18.45375 112.96875 18.6875 112.4375 C20.48217618 109.10452995 22.49965015 105.85296329 25 103 C25.66 103 26.32 103 27 103 C27.2475 102.46375 27.495 101.9275 27.75 101.375 C29.30652537 98.4176018 31.03435673 95.70275949 33 93 C33.66 93 34.32 93 35 93 C32.63369609 88.77389201 29.75151041 85.10446734 26.6875 81.375 C21.76233905 75.2989926 17.02110399 69.10433821 12.375 62.8125 C11.77131592 61.99894043 11.16763184 61.18538086 10.5456543 60.34716797 C9.98144775 59.57904785 9.41724121 58.81092773 8.8359375 58.01953125 C8.33626465 57.33995361 7.8365918 56.66037598 7.32177734 55.96020508 C6.0237723 54.03525448 4.98735632 52.0986449 4 50 C3.34 50 2.68 50 2 50 C-1.07405897 44.10131998 -1.34599808 39.49004417 -1.07421875 32.91015625 C-1.04777786 31.96563095 -1.02133698 31.02110565 -0.99409485 30.04795837 C-0.90681986 27.05212682 -0.79750153 24.05757451 -0.6875 21.0625 C-0.62419044 19.02283127 -0.56232616 16.98311714 -0.50195312 14.94335938 C-0.35135755 9.96155849 -0.18099843 4.9807852 0 0 Z " fill="#FC5562" transform="translate(300,118)"/>
<path d="M0 0 C0.6875 1.6875 0.6875 1.6875 1 4 C-0.3125 6.75 -0.3125 6.75 -2 9 C-2.66 9 -3.32 9 -4 9 C-4.309375 9.969375 -4.61875 10.93875 -4.9375 11.9375 C-6 15 -6 15 -7 16 C-7.14788218 18.50980451 -7.23506587 20.99553989 -7.28125 23.5078125 C-7.30886414 24.64607986 -7.30886414 24.64607986 -7.33703613 25.80734253 C-7.39595598 28.24648048 -7.44862088 30.68569229 -7.5 33.125 C-7.55159806 35.54287526 -7.60470917 37.96066289 -7.66296387 40.37838745 C-7.69922172 41.88425863 -7.7317385 43.39022618 -7.7598877 44.89627075 C-7.8667922 49.35322261 -8.28947098 53.60953478 -9 58 C-8.4211908 57.99777939 -7.84238159 57.99555878 -7.24603271 57.99327087 C24.85373674 57.87613984 56.9123603 58.09155317 89 59 C89 70.55 89 82.1 89 94 C105.5 94 122 94 139 94 C139 82.45 139 70.9 139 59 C146.26 59 153.52 59 161 59 C159 61 159 61 157.12060547 61.22705078 C156.37697754 61.21657715 155.63334961 61.20610352 154.8671875 61.1953125 C153.77833252 61.18781982 153.77833252 61.18781982 152.66748047 61.18017578 C151.74596191 61.16196777 150.82444336 61.14375977 149.875 61.125 C146.94625 61.08375 144.0175 61.0425 141 61 C141 72.22 141 83.44 141 95 C131.99770784 96.12528652 131.99770784 96.12528652 128.17626953 96.12939453 C127.32243683 96.13254669 126.46860413 96.13569885 125.58889771 96.13894653 C124.69588959 96.1369223 123.80288147 96.13489807 122.8828125 96.1328125 C121.47526199 96.13424759 121.47526199 96.13424759 120.03927612 96.13571167 C118.07110527 96.13638818 116.10293211 96.13457106 114.13476562 96.13037109 C111.11323106 96.124979 108.09184271 96.13035248 105.0703125 96.13671875 C103.1536455 96.13605858 101.2369786 96.13477869 99.3203125 96.1328125 C98.415159 96.13483673 97.51000549 96.13686096 96.5774231 96.13894653 C95.74250336 96.13579437 94.90758362 96.13264221 94.04736328 96.12939453 C93.31204376 96.12859894 92.57672424 96.12780334 91.81912231 96.12698364 C90 96 90 96 88 95 C86.73358423 88.25112607 86.85022335 81.47161331 86.875 74.625 C86.87113281 73.53316406 86.86726563 72.44132812 86.86328125 71.31640625 C86.86457031 70.27613281 86.86585938 69.23585938 86.8671875 68.1640625 C86.86831543 67.21998535 86.86944336 66.2759082 86.87060547 65.30322266 C87 63 87 63 88 61 C86.80396652 61.00222061 85.60793304 61.00444122 84.37565613 61.00672913 C73.11874068 61.02697753 61.86182892 61.04198036 50.60489941 61.05181217 C44.81723969 61.05703666 39.02959464 61.06412649 33.24194336 61.07543945 C27.6593289 61.08628368 22.07672857 61.09228011 16.49410439 61.09487724 C14.36140025 61.09672871 12.2286969 61.10034402 10.09599876 61.10573006 C7.11500739 61.11296081 4.13407486 61.11399007 1.15307617 61.11352539 C-0.17725143 61.1189183 -0.17725143 61.1189183 -1.53445435 61.12442017 C-2.34633713 61.1230455 -3.15821991 61.12167084 -3.9947052 61.12025452 C-4.69987683 61.12117631 -5.40504847 61.1220981 -6.13158894 61.12304783 C-8 61 -8 61 -11 60 C-11.14913643 54.04104379 -11.25758709 48.083191 -11.32958984 42.12280273 C-11.35962704 40.09852151 -11.40047018 38.07436896 -11.45263672 36.05053711 C-11.52603145 33.12841945 -11.55958684 30.20803252 -11.5859375 27.28515625 C-11.63238907 25.94397484 -11.63238907 25.94397484 -11.67977905 24.57569885 C-11.68304536 18.37577901 -10.14785551 14.82571806 -6.38955688 9.90013123 C-4.81295537 7.94677593 -4.81295537 7.94677593 -4 5 C-3.34 5 -2.68 5 -2 5 C-1.34 3.35 -0.68 1.7 0 0 Z " fill="#DD7D87" transform="translate(50,214)"/>
<path d="M0 0 C0 0.99 0 1.98 0 3 C-0.99 3.33 -1.98 3.66 -3 4 C-3 4.99 -3 5.98 -3 7 C27.36 7 57.72 7 89 7 C89.6857609 11.80032627 90.12041732 15.83277983 90.09765625 20.58984375 C90.09515869 21.6687085 90.09266113 22.74757324 90.09008789 23.85913086 C90.08098389 25.20499268 90.07187988 26.55085449 90.0625 27.9375 C90.041875 32.248125 90.02125 36.55875 90 41 C106.5 40.67 123 40.34 140 40 C140 29.77 140 19.54 140 9 C140.99 9.495 140.99 9.495 142 10 C142 19.9 142 29.8 142 40 C138.29624667 41.85187667 137.05076125 42.25901917 133.15551758 42.3347168 C131.71931816 42.36936287 131.71931816 42.36936287 130.25410461 42.40470886 C129.2279454 42.41939713 128.20178619 42.43408539 127.14453125 42.44921875 C126.08715256 42.47095657 125.02977386 42.4926944 123.94035339 42.51509094 C121.70877419 42.55896334 119.47709914 42.59817318 117.24536133 42.63305664 C113.81495799 42.68746102 110.38514239 42.75759987 106.95507812 42.83007812 C104.7890797 42.87071868 102.62306423 42.91046331 100.45703125 42.94921875 C99.42479935 42.96997971 98.39256744 42.99074066 97.32905579 43.01213074 C96.38104599 43.02577164 95.43303619 43.03941254 94.45629883 43.0534668 C93.61786942 43.06741989 92.77944 43.08137299 91.91560364 43.0957489 C90 43 90 43 89 42 C88.84160843 40.16917426 88.7487588 38.33260247 88.68359375 36.49609375 C88.64169922 35.36236328 88.59980469 34.22863281 88.55664062 33.06054688 C88.51732422 31.86494141 88.47800781 30.66933594 88.4375 29.4375 C88.39431641 28.26896484 88.35113281 27.10042969 88.30664062 25.89648438 C88.09453813 19.92731413 87.94831933 13.97280939 88 8 C87.30382568 8.16371094 86.60765137 8.32742188 85.89038086 8.49609375 C82.77275581 9.03961754 79.9183873 9.09598411 76.75390625 9.0625 C75.46653564 9.05412109 74.17916504 9.04574219 72.8527832 9.03710938 C72.15706207 9.03090576 71.46134094 9.02470215 70.74453735 9.01831055 C53.42904999 8.87300779 36.12431851 9.16037101 18.8125 9.5 C17.58250275 9.52400879 16.35250549 9.54801758 15.0852356 9.57275391 C8.05673125 9.71076907 1.02832111 9.85295237 -6 10 C-6 6 -6 6 -3.5625 3.3125 C-2.716875 2.549375 -1.87125 1.78625 -1 1 C-0.67 0.67 -0.34 0.34 0 0 Z " fill="#AFC8E3" transform="translate(368,266)"/>
<path d="M0 0 C0.33 0 0.66 0 1 0 C1 38.94 1 77.88 1 118 C4.63 118 8.26 118 12 118 C14.24609375 120.046875 14.24609375 120.046875 15.4375 122.75 C17.18879661 126.65292734 17.18879661 126.65292734 20.05786133 129.7265625 C22.73630099 132.86190255 22.45975825 134.8742633 22.390625 138.953125 C22.38496521 139.61334656 22.37930542 140.27356812 22.37347412 140.95379639 C22.3511623 143.05328263 22.30098314 145.1510337 22.25 147.25 C22.22992794 148.6770586 22.21167839 150.10414408 22.1953125 151.53125 C22.15131693 155.02139293 22.08232876 158.51052699 22 162 C21.34 161.67 20.68 161.34 20 161 C19.97101903 156.89584811 19.9532078 152.79172247 19.9375 148.6875 C19.92912109 147.52025391 19.92074219 146.35300781 19.91210938 145.15039062 C19.90727539 143.47299805 19.90727539 143.47299805 19.90234375 141.76171875 C19.89448853 140.2142395 19.89448853 140.2142395 19.88647461 138.63549805 C20 136 20 136 21 133 C19.68 133 18.36 133 17 133 C17 131.68 17 130.36 17 129 C15.68 128.34 14.36 127.68 13 127 C13 125.68 13 124.36 13 123 C12.34 123 11.68 123 11 123 C10.67 122.34 10.34 121.68 10 121 C7.41394668 120.5316735 7.41394668 120.5316735 4.4375 120.375 C3.42558594 120.30023438 2.41367188 120.22546875 1.37109375 120.1484375 C0.19740234 120.07496094 0.19740234 120.07496094 -1 120 C-1.13741418 90.80688663 -0.93263866 61.62696796 -0.5 32.4375 C-0.48206327 31.22690981 -0.48206327 31.22690981 -0.46376419 29.99186325 C-0.31509417 19.99448104 -0.16043083 9.99720062 0 0 Z " fill="#E18E9A" transform="translate(190,111)"/>
<path d="M0 0 C1.20110161 -0.00972839 1.20110161 -0.00972839 2.4264679 -0.01965332 C4.28079037 -0.02120131 6.13504228 0.03035007 7.98828125 0.09375 C8.98828125 1.09375 8.98828125 1.09375 9.10853577 3.90943909 C9.10631516 5.16852585 9.10409454 6.42761261 9.10180664 7.72485352 C9.10195267 8.41750305 9.10209869 9.11015259 9.10224915 9.8237915 C9.10154999 12.12344446 9.09375753 14.42301737 9.0859375 16.72265625 C9.08407333 18.31306412 9.08264942 19.90347257 9.08164978 21.49388123 C9.07782454 25.6877093 9.0679942 29.88150295 9.0569458 34.07531738 C9.04673182 38.35163914 9.04215219 42.62796644 9.03710938 46.90429688 C9.02637194 55.30079708 9.00929544 63.69726926 8.98828125 72.09375 C8.65828125 72.09375 8.32828125 72.09375 7.98828125 72.09375 C7.98828125 49.32375 7.98828125 26.55375 7.98828125 3.09375 C-6.71379193 3.42077066 -6.71379193 3.42077066 -21.41577148 3.75195312 C-23.30061529 3.79311543 -25.18546219 3.83413649 -27.0703125 3.875 C-28.08113388 3.89840454 -29.09195526 3.92180908 -30.13340759 3.94592285 C-34.83754129 4.04638307 -39.53017114 4.10731929 -44.23486328 4.01953125 C-45.41714256 4.00061829 -45.41714256 4.00061829 -46.62330627 3.98132324 C-48.0671086 3.95302711 -49.51074366 3.91202518 -50.95372009 3.85559082 C-54.74133501 3.77787763 -54.74133501 3.77787763 -57.95874023 5.60351562 C-58.30622314 6.09529297 -58.65370605 6.58707031 -59.01171875 7.09375 C-59.67171875 6.76375 -60.33171875 6.43375 -61.01171875 6.09375 C-60.35171875 4.44375 -59.69171875 2.79375 -59.01171875 1.09375 C-52.52374448 0.94838479 -46.03570231 0.8063807 -39.54760742 0.66650391 C-37.34934906 0.61874007 -35.1511061 0.57026067 -32.95288086 0.52099609 C-21.96945361 0.27530427 -10.98635286 0.04691728 0 0 Z " fill="#E06573" transform="translate(181.01171875,109.90625)"/>
<path d="M0 0 C0.66 0 1.32 0 2 0 C2.71425975 22.00907823 3.16011579 43.97792001 3 66 C-19.67907837 67.08379937 -19.67907837 67.08379937 -29.47265625 66.96875 C-33.67639041 67.02072817 -37.83096808 67.48348277 -42 68 C-42.75 65.75 -42.75 65.75 -43 63 C-41.1875 60.6875 -41.1875 60.6875 -39 59 C-38.34 59 -37.68 59 -37 59 C-37.33 56.69 -37.66 54.38 -38 52 C-37.34 52 -36.68 52 -36 52 C-36 52.66 -36 53.32 -36 54 C-35.01 54.33 -34.02 54.66 -33 55 C-35.475 59.455 -35.475 59.455 -38 64 C-24.8 64 -11.6 64 2 64 C1.77183594 59.63136719 1.54367187 55.26273438 1.30859375 50.76171875 C1.12999071 47.28015912 0.95254054 43.79854499 0.77587128 40.3168869 C0.58900529 36.64053827 0.40010553 32.9643199 0.20629883 29.28833008 C0.01974254 25.74837492 -0.16123426 22.2081747 -0.33833122 18.66773415 C-0.40691045 17.31643232 -0.47750617 15.96523129 -0.55014229 14.61414146 C-0.6514629 12.72310052 -0.74497784 10.83164623 -0.83813477 8.94018555 C-0.89365005 7.86318893 -0.94916534 6.78619232 -1.00636292 5.67655945 C-1 3 -1 3 0 0 Z " fill="#8ABBE5" transform="translate(454,165)"/>
<path d="M0 0 C0.66 0 1.32 0 2 0 C2 21.45 2 42.9 2 65 C-4.27 65.33 -10.54 65.66 -17 66 C-17.99 66.99 -17.99 66.99 -19 68 C-21.33837891 68.13525391 -21.33837891 68.13525391 -24.2265625 67.9765625 C-25.2578125 67.925 -26.2890625 67.8734375 -27.3515625 67.8203125 C-28.97191406 67.72363281 -28.97191406 67.72363281 -30.625 67.625 C-31.71296875 67.56828125 -32.8009375 67.5115625 -33.921875 67.453125 C-36.61522387 67.3113698 -39.3076793 67.15993358 -42 67 C-42 64.69 -42 62.38 -42 60 C-41.34 60 -40.68 60 -40 60 C-39.7834375 58.824375 -39.7834375 58.824375 -39.5625 57.625 C-38.74090833 53.79090554 -38.38248701 53.25499134 -35 51 C-33.515 50.505 -33.515 50.505 -32 50 C-33.71946982 55.00209402 -36.01818626 58.22909802 -39 63 C-19.2 63.495 -19.2 63.495 1 64 C0.67 44.2 0.34 24.4 0 4 C-0.66 4.99 -1.32 5.98 -2 7 C-2.66 7 -3.32 7 -4 7 C-4.185625 7.928125 -4.185625 7.928125 -4.375 8.875 C-5 11 -5 11 -7 13 C-7.495 9.535 -7.495 9.535 -8 6 C-7.05125 5.7525 -6.1025 5.505 -5.125 5.25 C-1.91306809 4.3142923 -1.91306809 4.3142923 -0.625 1.875 C-0.41875 1.25625 -0.2125 0.6375 0 0 Z " fill="#D66C75" transform="translate(137,165)"/>
<path d="M0 0 C2.1109704 3.1664556 2.23811616 3.78974598 2.13525391 7.37963867 C2.11508209 8.26032516 2.09491028 9.14101166 2.0741272 10.04838562 C2.02583267 11.46882927 2.02583267 11.46882927 1.9765625 12.91796875 C1.93902359 14.37654045 1.93902359 14.37654045 1.90072632 15.86457825 C1.81850631 18.97257239 1.72192404 22.079933 1.625 25.1875 C1.56676252 27.29359385 1.5094592 29.39971376 1.453125 31.50585938 C1.31292434 36.67093777 1.15984098 41.83549359 1 47 C0.01 46.505 0.01 46.505 -1 46 C-1 31.81 -1 17.62 -1 3 C-6.94 3.495 -6.94 3.495 -13 4 C-15.99978744 4.03571176 -19.00041658 4.04999306 -22 4 C-22 4.66 -22 5.32 -22 6 C-24.62450977 7.88426342 -27.2899347 9.58911952 -30.0859375 11.20703125 C-36.03195075 14.82679721 -39.87550961 19.15726276 -44.0546875 24.70703125 C-46 27 -46 27 -49 28 C-49.73323796 30.01508358 -49.73323796 30.01508358 -50 32 C-50.66 32 -51.32 32 -52 32 C-52 32.66 -52 33.32 -52 34 C-54.31 34.99 -56.62 35.98 -59 37 C-59 35 -59 35 -57.125 32.875 C-55 31 -55 31 -53 31 C-52.67 30.01 -52.34 29.02 -52 28 C-50.0625 25.8125 -50.0625 25.8125 -48 24 C-47.34 24 -46.68 24 -46 24 C-46 23.34 -46 22.68 -46 22 C-45.34 22 -44.68 22 -44 22 C-43.67 21.01 -43.34 20.02 -43 19 C-38.68181818 14.22727273 -38.68181818 14.22727273 -35 13 C-34.67 12.01 -34.34 11.02 -34 10 C-32.109375 8.24609375 -32.109375 8.24609375 -29.75 6.4375 C-28.59757812 5.53837891 -28.59757812 5.53837891 -27.421875 4.62109375 C-21.74652686 0.82227201 -16.48034061 0.51589472 -9.8125 0.1875 C-8.89791016 0.12369141 -7.98332031 0.05988281 -7.04101562 -0.00585938 C-6.16767578 -0.05162109 -5.29433594 -0.09738281 -4.39453125 -0.14453125 C-3.20114136 -0.21184448 -3.20114136 -0.21184448 -1.98364258 -0.28051758 C-1.0017395 -0.14166138 -1.0017395 -0.14166138 0 0 Z " fill="#9DBCE4" transform="translate(299,117)"/>
<path d="M0 0 C7.26 0 14.52 0 22 0 C20 2 20 2 18.12060547 2.22705078 C17.00516357 2.21134033 17.00516357 2.21134033 15.8671875 2.1953125 C14.77833252 2.18781982 14.77833252 2.18781982 13.66748047 2.18017578 C12.74596191 2.16196777 11.82444336 2.14375977 10.875 2.125 C7.94625 2.08375 5.0175 2.0425 2 2 C2 13.22 2 24.44 2 36 C-7 37.125 -7 37.125 -10.85546875 37.11352539 C-11.71575684 37.11344986 -12.57604492 37.11337433 -13.46240234 37.11329651 C-14.36168457 37.10813522 -15.2609668 37.10297394 -16.1875 37.09765625 C-17.13061035 37.0962413 -18.0737207 37.09482635 -19.04541016 37.09336853 C-22.03030697 37.0878124 -25.01512621 37.07526823 -28 37.0625 C-30.03515516 37.05747932 -32.07031151 37.05291741 -34.10546875 37.04882812 C-39.07034197 37.03785737 -44.03515787 37.02062339 -49 37 C-49.33 36.34 -49.66 35.68 -50 35 C-33.5 35 -17 35 0 35 C0 23.45 0 11.9 0 0 Z " fill="#DDA7AF" transform="translate(189,273)"/>
<path d="M0 0 C1.32 0.33 2.64 0.66 4 1 C4 18.49 4 35.98 4 54 C9.28 54 14.56 54 20 54 C20 54.33 20 54.66 20 55 C15.57091622 55.07460234 11.1421731 55.12881371 6.71264648 55.16479492 C5.20834983 55.17980722 3.70409639 55.20022353 2.19995117 55.22631836 C0.02772304 55.26303816 -2.14392251 55.27980161 -4.31640625 55.29296875 C-6.27235718 55.31653442 -6.27235718 55.31653442 -8.26782227 55.34057617 C-12.56306989 54.94861762 -15.14507985 53.872373 -19 52 C-20.6642135 51.32723284 -22.32986582 50.65793165 -24 50 C-24 49.34 -24 48.68 -24 48 C-25.32 47.34 -26.64 46.68 -28 46 C-26.375 45.25 -26.375 45.25 -24 45 C-20.75 46.8125 -20.75 46.8125 -18 49 C-18 49.66 -18 50.32 -18 51 C-16.02 51 -14.04 51 -12 51 C-12 51.66 -12 52.32 -12 53 C-10.80375 52.814375 -9.6075 52.62875 -8.375 52.4375 C-4.71093645 51.86893841 -1.63830029 52.35294899 2 53 C1.88247989 45.93403858 1.75764691 38.86823371 1.62768555 31.80249023 C1.58432591 29.39789777 1.5426516 26.99327431 1.50268555 24.58862305 C1.44500811 21.13580984 1.38130615 17.68315281 1.31640625 14.23046875 C1.29969376 13.15226364 1.28298126 12.07405853 1.26576233 10.96318054 C1.24581711 9.96236954 1.22587189 8.96155853 1.20532227 7.93041992 C1.18200584 6.60804573 1.18200584 6.60804573 1.15821838 5.25895691 C1.0825248 2.8322892 1.0825248 2.8322892 0 0 Z " fill="#9CB6DE" transform="translate(296,252)"/>
<path d="M0 0 C1.05689781 -0.00762863 1.05689781 -0.00762863 2.13514709 -0.01541138 C6.8503497 -0.00511905 6.8503497 -0.00511905 7.97265625 1.1171875 C8.05917236 2.53288873 8.07970529 3.9527825 8.0703125 5.37109375 C8.06547852 6.65209961 8.06547852 6.65209961 8.06054688 7.95898438 C8.04797852 9.30573242 8.04797852 9.30573242 8.03515625 10.6796875 C8.03064453 11.58138672 8.02613281 12.48308594 8.02148438 13.41210938 C8.0096585 15.64720064 7.99317845 17.88216187 7.97265625 20.1171875 C5.1208918 17.26542305 5.60003287 15.02593678 5.41015625 11.0546875 C5.58448727 6.76492385 5.58448727 6.76492385 3.97265625 3.1171875 C-7.63455923 2.48230278 -19.44976675 3.3508503 -31.05419922 3.80688477 C-33.22421993 3.88956318 -35.39448882 3.96594121 -37.56494141 4.03637695 C-40.72497422 4.13922106 -43.88378213 4.26079037 -47.04296875 4.38671875 C-48.01679504 4.41498245 -48.99062134 4.44324615 -49.99395752 4.47236633 C-51.33741241 4.5320887 -51.33741241 4.5320887 -52.70800781 4.59301758 C-53.49628967 4.62188553 -54.28457153 4.65075348 -55.09674072 4.68049622 C-57.43046864 4.97527407 -57.43046864 4.97527407 -59.02734375 8.1171875 C-61.15234375 8.8046875 -61.15234375 8.8046875 -63.02734375 9.1171875 C-61.95333267 6.20201458 -61.24924199 4.33908574 -59.02734375 2.1171875 C-57.04100037 1.80075073 -57.04100037 1.80075073 -54.57202148 1.70654297 C-53.18302895 1.64670731 -53.18302895 1.64670731 -51.76597595 1.58566284 C-50.25373192 1.53552536 -50.25373192 1.53552536 -48.7109375 1.484375 C-47.66647964 1.44281281 -46.62202179 1.40125061 -45.5459137 1.35842896 C-43.32252716 1.27174887 -41.09895675 1.189684 -38.87524414 1.11181641 C-35.53031067 0.99448393 -32.18612446 0.86385508 -28.84179688 0.73046875 C-19.23000294 0.35893172 -9.61958416 0.03963516 0 0 Z " fill="#97BFE4" transform="translate(498.02734375,108.8828125)"/>
<path d="M0 0 C0.33 0 0.66 0 1 0 C1 2.31 1 4.62 1 7 C1.56509277 6.96447021 2.13018555 6.92894043 2.71240234 6.89233398 C5.26628572 6.73498198 7.8205954 6.58613992 10.375 6.4375 C11.70917969 6.35338867 11.70917969 6.35338867 13.0703125 6.26757812 C14.34648438 6.19506836 14.34648438 6.19506836 15.6484375 6.12109375 C16.43395996 6.0739624 17.21948242 6.02683105 18.02880859 5.97827148 C20 6 20 6 22 7 C22.33 21.19 22.66 35.38 23 50 C17.375 52.25 17.375 52.25 13.79296875 52.1953125 C13.04208984 52.18886719 12.29121094 52.18242187 11.51757812 52.17578125 C10.36418945 52.15064453 10.36418945 52.15064453 9.1875 52.125 C8.00510742 52.11146484 8.00510742 52.11146484 6.79882812 52.09765625 C4.86575334 52.07422504 2.9328362 52.03835838 1 52 C1 51.34 1 50.68 1 50 C7.6 50 14.2 50 21 50 C20.67 48.02 20.34 46.04 20 44 C19.77674896 41.43399117 19.58456 38.88257731 19.4375 36.3125 C19.3950415 35.59006104 19.35258301 34.86762207 19.30883789 34.12329102 C18.84683412 25.41400873 18.93541062 16.71956648 19 8 C12.73 8 6.46 8 0 8 C0 5.36 0 2.72 0 0 Z " fill="#96C0E5" transform="translate(508,221)"/>
<path d="M0 0 C0.66 0 1.32 0 2 0 C1.54625 1.19625 1.0925 2.3925 0.625 3.625 C-0.7997347 9.74069791 1.88877657 14.30411881 4.51953125 19.66796875 C8.80635404 29.31614775 9.3283336 45.92487362 5.8828125 55.953125 C4.72789684 58.44565483 3.55026602 60.73550428 2 63 C1.01 63 0.02 63 -1 63 C-0.54363464 61.603522 -0.08480512 60.2078492 0.375 58.8125 C0.63023437 58.03519531 0.88546875 57.25789063 1.1484375 56.45703125 C2 54 2 54 3.078125 51.8671875 C4.51648642 47.3936397 4.36874445 42.98226826 4.375 38.3125 C4.39949219 37.36955078 4.42398437 36.42660156 4.44921875 35.45507812 C4.48117233 27.70633465 2.52986513 21.68794818 -1.13134766 14.90356445 C-2 13 -2 13 -2 10 C-2.66 10 -3.32 10 -4 10 C-3.43697042 6.05879291 -2.3208055 3.2491277 0 0 Z " fill="#93BDE3" transform="translate(396,173)"/>
<path d="M0 0 C0 0.99 0 1.98 0 3 C-0.99 3.33 -1.98 3.66 -3 4 C-3 4.99 -3 5.98 -3 7 C17.46 7 37.92 7 59 7 C59 7.33 59 7.66 59 8 C51.03093237 8.84711615 43.12383236 9.19734266 35.11328125 9.31640625 C33.93025925 9.33718735 32.74723724 9.35796844 31.52836609 9.37937927 C27.78979689 9.44419315 24.05116406 9.50343928 20.3125 9.5625 C17.76106142 9.60575021 15.20962901 9.64936645 12.65820312 9.69335938 C6.4388672 9.79980353 0.21946954 9.90168992 -6 10 C-6 6 -6 6 -3.5625 3.3125 C-2.716875 2.549375 -1.87125 1.78625 -1 1 C-0.67 0.67 -0.34 0.34 0 0 Z " fill="#82B8E5" transform="translate(368,266)"/>
<path d="M0 0 C1.24405721 2.94049886 0.97118726 4.08643821 -0.0625 7.1875 C-2 10 -2 10 -5.1875 10.875 C-6.5796875 10.936875 -6.5796875 10.936875 -8 11 C-8.144375 11.78375 -8.28875 12.5675 -8.4375 13.375 C-9 16 -9 16 -10 18 C-10.11822971 19.54142175 -10.17699811 21.08761097 -10.20532227 22.63330078 C-10.22526749 23.59414581 -10.24521271 24.55499084 -10.26576233 25.54495239 C-10.28247482 26.58457123 -10.29918732 27.62419006 -10.31640625 28.6953125 C-10.33718735 29.75789276 -10.35796844 30.82047302 -10.37937927 31.91525269 C-10.44490261 35.31843438 -10.50377273 38.72169489 -10.5625 42.125 C-10.60568257 44.42839366 -10.64929677 46.73177926 -10.69335938 49.03515625 C-10.80058687 54.69002284 -10.90184649 60.34496892 -11 66 C-4.73 66 1.54 66 8 66 C6 68 6 68 4.12060547 68.22705078 C3.00516357 68.21134033 3.00516357 68.21134033 1.8671875 68.1953125 C1.06152344 68.18886719 0.25585938 68.18242187 -0.57421875 68.17578125 C-1.41597656 68.15902344 -2.25773437 68.14226562 -3.125 68.125 C-3.97449219 68.11597656 -4.82398438 68.10695313 -5.69921875 68.09765625 C-7.79959884 68.07405647 -9.89983444 68.03818483 -12 68 C-12.22950786 60.51159051 -12.38634642 53.02409759 -12.49438477 45.53295898 C-12.53945218 42.98866894 -12.60072676 40.44460948 -12.67895508 37.90112305 C-13.39458452 14.02342188 -13.39458452 14.02342188 -7.58984375 6.76953125 C-3.64465573 3 -3.64465573 3 -1 3 C-0.67 2.01 -0.34 1.02 0 0 Z " fill="#D97386" transform="translate(312,238)"/>
<path d="M0 0 C6.93 0 13.86 0 21 0 C21.06058594 2.29839844 21.12117188 4.59679687 21.18359375 6.96484375 C21.24534005 9.18224524 21.30874554 11.39959346 21.37231445 13.61694336 C21.41571985 15.16214289 21.45739071 16.70739214 21.49731445 18.25268555 C21.55488199 20.46939096 21.61861424 22.6858448 21.68359375 24.90234375 C21.70030624 25.5971434 21.71701874 26.29194305 21.73423767 27.00779724 C21.56502856 30.28762029 21.56502856 30.28762029 23 33 C25.73701178 33.16010481 28.4516759 33.25946828 31.19140625 33.31640625 C32.01124496 33.33718735 32.83108368 33.35796844 33.67576599 33.37937927 C36.30458901 33.44496494 38.93351504 33.50380126 41.5625 33.5625 C43.34050561 33.60567667 45.11850065 33.64929067 46.89648438 33.69335938 C51.26421634 33.80065543 55.63205227 33.90189704 60 34 C60 34.33 60 34.66 60 35 C46.8 35 33.6 35 20 35 C19.67 23.78 19.34 12.56 19 1 C12.73 1 6.46 1 0 1 C0 0.67 0 0.34 0 0 Z " fill="#76B6E9" transform="translate(438,272)"/>
<path d="M0 0 C1.72447904 0.00031742 3.44897767 0.01165954 5.17333984 0.03173828 C6.53415176 0.03598312 6.53415176 0.03598312 7.92245483 0.04031372 C10.82652857 0.05152926 13.73029646 0.07663615 16.63427734 0.10205078 C18.60041873 0.11207881 20.56656494 0.12120497 22.53271484 0.12939453 C27.35835393 0.15147306 32.18376374 0.18601213 37.00927734 0.22705078 C37.00927734 0.55705078 37.00927734 0.88705078 37.00927734 1.22705078 C28.19445655 2.41534706 19.36659218 2.5162717 10.4831543 2.62841797 C8.47210665 2.65588547 6.46135514 2.70287494 4.45068359 2.75048828 C3.261604 2.77030762 2.07252441 2.79012695 0.84741211 2.81054688 C-0.08917236 2.94799316 -1.02575684 3.08543945 -1.99072266 3.22705078 C-2.98072266 4.71205078 -2.98072266 4.71205078 -3.99072266 6.22705078 C-6.11572266 6.91455078 -6.11572266 6.91455078 -7.99072266 7.22705078 C-5.44219998 0.30963208 -5.44219998 0.30963208 0 0 Z " fill="#76B6E7" transform="translate(442.99072265625,110.77294921875)"/>
<path d="M0 0 C0.99 0.33 1.98 0.66 3 1 C2.50628906 1.55429688 2.01257813 2.10859375 1.50390625 2.6796875 C0.54291016 3.76636719 0.54291016 3.76636719 -0.4375 4.875 C-1.07558594 5.59429687 -1.71367187 6.31359375 -2.37109375 7.0546875 C-4.05014465 8.90750491 -4.05014465 8.90750491 -5 11 C-5.66 11 -6.32 11 -7 11 C-7.268125 11.5775 -7.53625 12.155 -7.8125 12.75 C-9.02929189 15.05550043 -10.30333879 17.02056192 -12 19 C-12.66 19 -13.32 19 -14 19 C-14.433125 19.8971875 -14.433125 19.8971875 -14.875 20.8125 C-16 23 -16 23 -18 26 C-18.66 26 -19.32 26 -20 26 C-20.309375 26.61875 -20.61875 27.2375 -20.9375 27.875 C-21.625 29.25 -22.3125 30.625 -23 32 C-23.66 32 -24.32 32 -25 32 C-25.33 31.01 -25.66 30.02 -26 29 C-25.01 29 -24.02 29 -23 29 C-23 28.01 -23 27.02 -23 26 C-22.34 25.67 -21.68 25.34 -21 25 C-20.67 24.01 -20.34 23.02 -20 22 C-19.01 22 -18.02 22 -17 22 C-16.34 20.68 -15.68 19.36 -15 18 C-14.34 18 -13.68 18 -13 18 C-12.67 16.35 -12.34 14.7 -12 13 C-11.01 13 -10.02 13 -9 13 C-8.67 11.35 -8.34 9.7 -8 8 C-7.01 8 -6.02 8 -5 8 C-5 7.34 -5 6.68 -5 6 C-4.34 6 -3.68 6 -3 6 C-2.690625 5.195625 -2.38125 4.39125 -2.0625 3.5625 C-1 1 -1 1 0 0 Z " fill="#97C0E6" transform="translate(295,163)"/>
<path d="M0 0 C7.26 0 14.52 0 22 0 C20 2 20 2 18.12060547 2.22705078 C17.37697754 2.21657715 16.63334961 2.20610352 15.8671875 2.1953125 C14.65869141 2.18564453 14.65869141 2.18564453 13.42578125 2.17578125 C12.58402344 2.15902344 11.74226562 2.14226562 10.875 2.125 C9.60076172 2.11146484 9.60076172 2.11146484 8.30078125 2.09765625 C6.20040116 2.07405647 4.10016556 2.03818483 2 2 C2.01160156 2.79019531 2.02320313 3.58039063 2.03515625 4.39453125 C2.11702393 14.6279908 1.60968637 24.78775328 1 35 C0.67 35 0.34 35 0 35 C0 23.45 0 11.9 0 0 Z " fill="#DA7D87" transform="translate(189,273)"/>
<path d="M0 0 C0.99 0.33 1.98 0.66 3 1 C-0.6779637 11.10120175 -9.24513191 18.82205117 -17 26 C-17.33 26 -17.66 26 -18 26 C-18.125 23.625 -18.125 23.625 -18 21 C-17.34 20.34 -16.68 19.68 -16 19 C-14.68 19 -13.36 19 -12 19 C-12 18.01 -12 17.02 -12 16 C-11.01 16 -10.02 16 -9 16 C-8.67 14.68 -8.34 13.36 -8 12 C-7.34 12 -6.68 12 -6 12 C-6 11.34 -6 10.68 -6 10 C-5.34 10 -4.68 10 -4 10 C-4 9.01 -4 8.02 -4 7 C-3.01 7 -2.02 7 -1 7 C-1.020625 6.030625 -1.04125 5.06125 -1.0625 4.0625 C-1 1 -1 1 0 0 Z " fill="#E07C8A" transform="translate(389,229)"/>
<path d="M0 0 C0.66 0 1.32 0 2 0 C0.39516194 4.66861981 -1.97490194 9.09258167 -5 13 C-5.66 13 -6.32 13 -7 13 C-7 13.66 -7 14.32 -7 15 C0.92 15.33 8.84 15.66 17 16 C15 18 15 18 12.66162109 18.13525391 C11.70852051 18.08288574 10.75541992 18.03051758 9.7734375 17.9765625 C8.7421875 17.925 7.7109375 17.8734375 6.6484375 17.8203125 C5.02808594 17.72363281 5.02808594 17.72363281 3.375 17.625 C2.28703125 17.56828125 1.1990625 17.5115625 0.078125 17.453125 C-2.61522387 17.3113698 -5.3076793 17.15993358 -8 17 C-8 14.69 -8 12.38 -8 10 C-7.34 10 -6.68 10 -6 10 C-5.7834375 8.824375 -5.7834375 8.824375 -5.5625 7.625 C-4.74090833 3.79090554 -4.38248701 3.25499134 -1 1 C-0.67 0.67 -0.34 0.34 0 0 Z " fill="#EC5767" transform="translate(103,215)"/>
<path d="M0 0 C1.1875 1.6875 1.1875 1.6875 2 4 C0.52952624 7.17312759 -1.29639373 9.76658613 -4 12 C-4.66 12 -5.32 12 -6 12 C-6.33 13.65 -6.66 15.3 -7 17 C-8.32 17.33 -9.64 17.66 -11 18 C-11.33 19.32 -11.66 20.64 -12 22 C-12.66 22 -13.32 22 -14 22 C-13.35952602 18.55251042 -12.00294981 16.15355815 -10.0625 13.25 C-9.53785156 12.45078125 -9.01320313 11.6515625 -8.47265625 10.828125 C-7.74369141 9.92320312 -7.74369141 9.92320312 -7 9 C-6.34 9 -5.68 9 -5 9 C-4.731875 8.2575 -4.46375 7.515 -4.1875 6.75 C-3.05770579 4.13363446 -1.79106798 2.19812889 0 0 Z " fill="#E3707D" transform="translate(91,155)"/>
<path d="M0 0 C0.66 0 1.32 0 2 0 C2 15.84 2 31.68 2 48 C1.67 48 1.34 48 1 48 C0.68892553 41.6466039 0.38666668 35.29283263 0.09057617 28.9387207 C-0.01122629 26.77651438 -0.11505756 24.61440259 -0.22094727 22.45239258 C-0.37267124 19.34739349 -0.517131 16.24212916 -0.66015625 13.13671875 C-0.70906509 12.16788254 -0.75797394 11.19904633 -0.80836487 10.20085144 C-0.8484819 9.3001442 -0.88859894 8.39943695 -0.92993164 7.47143555 C-0.98655724 6.28229805 -0.98655724 6.28229805 -1.04432678 5.06913757 C-1 3 -1 3 0 0 Z " fill="#B0C3DF" transform="translate(454,165)"/>
<path d="M0 0 C2 1 2 1 3.0703125 3.44921875 C6.9416457 15.33564549 7.55650241 26.22903544 3 38 C2.67 38 2.34 38 2 38 C1.957279 36.33388095 1.95936168 34.66617115 2 33 C2.495 32.505 2.495 32.505 3 32 C3.57680215 22.46057985 3.15650834 13.69004705 0.65625 4.44140625 C0 2 0 2 0 0 Z " fill="#E17F8B" transform="translate(390,191)"/>
<path d="M0 0 C0.33 0.66 0.66 1.32 1 2 C18.49 2 35.98 2 54 2 C54 2.33 54 2.66 54 3 C36.18 3.33 18.36 3.66 0 4 C0 2.68 0 1.36 0 0 Z " fill="#C4CBE1" transform="translate(362,272)"/>
<path d="M0 0 C0.98291016 0.00322266 1.96582031 0.00644531 2.97851562 0.00976562 C4.51475586 0.02233398 4.51475586 0.02233398 6.08203125 0.03515625 C7.63567383 0.04192383 7.63567383 0.04192383 9.22070312 0.04882812 C11.77870391 0.06061615 14.33658858 0.0770711 16.89453125 0.09765625 C16.56453125 1.08765625 16.23453125 2.07765625 15.89453125 3.09765625 C15.89453125 2.43765625 15.89453125 1.77765625 15.89453125 1.09765625 C15.13269531 1.16984375 14.37085938 1.24203125 13.5859375 1.31640625 C7.32409493 1.8792685 1.18069592 2.20242566 -5.10546875 2.09765625 C-5.10546875 2.75765625 -5.10546875 3.41765625 -5.10546875 4.09765625 C-8.60202262 6.69974285 -11.99707811 8.64763602 -16.10546875 10.09765625 C-12.39704678 3.07117252 -7.91453758 -0.04574877 0 0 Z " fill="#82BAE9" transform="translate(282.10546875,118.90234375)"/>
<path d="M0 0 C0.66 0 1.32 0 2 0 C4.22583166 23.99516389 4.22583166 23.99516389 -2 33 C-2.99 33 -3.98 33 -5 33 C-4.54363464 31.603522 -4.08480512 30.2078492 -3.625 28.8125 C-3.36976563 28.03519531 -3.11453125 27.25789063 -2.8515625 26.45703125 C-2 24 -2 24 -0.90625 21.8125 C0.44549997 17.61741389 0.20983452 13.56300365 0.125 9.1875 C0.11597656 8.30384766 0.10695313 7.42019531 0.09765625 6.50976562 C0.07419637 4.33972641 0.03832865 2.16982753 0 0 Z " fill="#AAC5E4" transform="translate(400,203)"/>
<path d="M0 0 C0.33 0 0.66 0 1 0 C0.38909774 6.47556391 0.38909774 6.47556391 -1.4375 8.9375 C-3 10 -3 10 -5 10 C-5.226875 10.53625 -5.45375 11.0725 -5.6875 11.625 C-7.97015874 15.75552534 -10.17414901 19.43195747 -14.8125 20.875 C-15.534375 20.91625 -16.25625 20.9575 -17 21 C-16.38511719 20.29423828 -16.38511719 20.29423828 -15.7578125 19.57421875 C-15.21898437 18.95160156 -14.68015625 18.32898438 -14.125 17.6875 C-13.32449219 16.76517578 -13.32449219 16.76517578 -12.5078125 15.82421875 C-10.8359553 13.86501788 -10.8359553 13.86501788 -9 11 C-8.34 11 -7.68 11 -7 11 C-6.773125 10.484375 -6.54625 9.96875 -6.3125 9.4375 C-4.51018245 6.09033884 -2.38717496 2.96109508 0 0 Z " fill="#93BCE4" transform="translate(394,236)"/>
<path d="M0 0 C1.231394 2.46278801 1.07159196 4.2795055 1 7 C-2.75 9 -2.75 9 -5 9 C-5.12375 9.804375 -5.2475 10.60875 -5.375 11.4375 C-5.58125 12.283125 -5.7875 13.12875 -6 14 C-6.99 14.495 -6.99 14.495 -8 15 C-8 15.66 -8 16.32 -8 17 C-8.66 17.33 -9.32 17.66 -10 18 C-11.13350534 20.01669827 -11.13350534 20.01669827 -12 22 C-12.99 21.67 -13.98 21.34 -15 21 C-14.29423828 20.00419922 -14.29423828 20.00419922 -13.57421875 18.98828125 C-12.95160156 18.10527344 -12.32898438 17.22226563 -11.6875 16.3125 C-10.76517578 15.00732422 -10.76517578 15.00732422 -9.82421875 13.67578125 C-7.96054957 11.02123774 -7.96054957 11.02123774 -6.39453125 8.16796875 C-5.93433594 7.45253906 -5.47414063 6.73710937 -5 6 C-4.34 6 -3.68 6 -3 6 C-2.690625 5.195625 -2.38125 4.39125 -2.0625 3.5625 C-1 1 -1 1 0 0 Z " fill="#DD7F8B" transform="translate(107,133)"/>
<path d="M0 0 C0.66 0 1.32 0 2 0 C0.32090514 5.00747816 -2.5443365 9.13196436 -5.4375 13.5 C-6.41609187 14.98910564 -7.3939752 16.47867718 -8.37109375 17.96875 C-8.82726074 18.66355469 -9.28342773 19.35835937 -9.75341797 20.07421875 C-11.22637928 22.34972185 -12.63077915 24.66072099 -14 27 C-14.93065133 24.39417629 -15.14917407 23.35801776 -14.0625 20.75 C-13.711875 20.1725 -13.36125 19.595 -13 19 C-12.34 19 -11.68 19 -11 19 C-11 18.01 -11 17.02 -11 16 C-10.34 16 -9.68 16 -9 16 C-9 15.01 -9 14.02 -9 13 C-8.34 13 -7.68 13 -7 13 C-6.67 11.68 -6.34 10.36 -6 9 C-5.34 9 -4.68 9 -4 9 C-4 8.01 -4 7.02 -4 6 C-3.34 6 -2.68 6 -2 6 C-2 5.01 -2 4.02 -2 3 C-1.34 3 -0.68 3 0 3 C0 2.01 0 1.02 0 0 Z " fill="#9CBBDE" transform="translate(436,192)"/>
<path d="M0 0 C0.33 0.66 0.66 1.32 1 2 C-1.22877511 8.56902139 -1.22877511 8.56902139 -4.125 10.1875 C-4.74375 10.455625 -5.3625 10.72375 -6 11 C-6.62092718 12.81296615 -6.62092718 12.81296615 -7 15 C-7.96887581 17.01526169 -8.9641321 19.01833966 -10 21 C-10.66 21 -11.32 21 -12 21 C-12 21.66 -12 22.32 -12 23 C-12.66 23 -13.32 23 -14 23 C-13.41941783 19.08107037 -11.46083989 17.02331757 -9 14 C-8.01733418 12.28825954 -7.03540456 10.57588276 -6.08203125 8.84765625 C-4.26470623 5.74442616 -2.12806634 2.89653474 0 0 Z " fill="#A0C0E2" transform="translate(412,150)"/>
<path d="M0 0 C1.32 0 2.64 0 4 0 C5.04115841 1.30144802 6.03886134 2.63838689 7 4 C7.680625 4.33 8.36125 4.66 9.0625 5 C11.54377752 6.28065937 11.82866101 7.51090465 13 10 C14.29470975 11.37086915 15.62150897 12.71340837 17 14 C16.67 14.99 16.34 15.98 16 17 C12.66666667 13.66666667 9.33333333 10.33333333 6 7 C5.08605469 6.10667969 4.17210937 5.21335937 3.23046875 4.29296875 C1 2 1 2 0 0 Z " fill="#8BBDE9" transform="translate(249,278)"/>
<path d="M0 0 C1.9375 0.6875 1.9375 0.6875 4 2 C4.9375 4.4375 4.9375 4.4375 5 7 C3.75 8.5 3.75 8.5 2 10 C1.2265625 11.3303125 1.2265625 11.3303125 0.4375 12.6875 C-0.036875 13.450625 -0.51125 14.21375 -1 15 C-1.66 15 -2.32 15 -3 15 C-3 15.66 -3 16.32 -3 17 C-3.99 17 -4.98 17 -6 17 C-6 17.66 -6 18.32 -6 19 C-6.66 18.67 -7.32 18.34 -8 18 C-7.67 17.34 -7.34 16.68 -7 16 C-6.34 16 -5.68 16 -5 16 C-4.7525 15.46375 -4.505 14.9275 -4.25 14.375 C-2.69347463 11.4176018 -0.96564327 8.70275949 1 6 C1.66 6 2.32 6 3 6 C1.515 3.03 1.515 3.03 0 0 Z " fill="#E37C86" transform="translate(332,205)"/>
<path d="M0 0 C-1.875 4.75 -1.875 4.75 -3 7 C-3.66 7 -4.32 7 -5 7 C-5.2475 7.7425 -5.495 8.485 -5.75 9.25 C-7.09147301 12.20124062 -8.60905526 13.84814974 -11 16 C-10.75 12.6875 -10.75 12.6875 -10 9 C-8.69084721 7.96854629 -7.35917857 6.96457834 -6 6 C-5.66574265 3.37374861 -5.66574265 3.37374861 -6 1 C-4 0 -4 0 0 0 Z " fill="#DD818D" transform="translate(129,179)"/>
<path d="M0 0 C1.1055189 0.93590504 2.20935453 1.87379858 3.3125 2.8125 C3.92738281 3.33457031 4.54226563 3.85664063 5.17578125 4.39453125 C8.51952278 7.3373102 8.51952278 7.3373102 10 9 C10 9.66 10 10.32 10 11 C10.66 11 11.32 11 12 11 C12.66 12.32 13.32 13.64 14 15 C12.68 14.67 11.36 14.34 10 14 C10 13.34 10 12.68 10 12 C9.01 11.67 8.02 11.34 7 11 C7 10.34 7 9.68 7 9 C6.01 9 5.02 9 4 9 C3.67 8.01 3.34 7.02 3 6 C2.01 5.67 1.02 5.34 0 5 C0 3.35 0 1.7 0 0 Z " fill="#E17783" transform="translate(373,171)"/>
<path d="M0 0 C1 2 1 2 0.546875 4.05859375 C0.28390625 4.84363281 0.0209375 5.62867188 -0.25 6.4375 C-0.62898437 7.61119141 -0.62898437 7.61119141 -1.015625 8.80859375 C-2.05104991 11.11364682 -3.22433484 12.24852646 -5 14 C-5.7269226 17.10839021 -5.7269226 17.10839021 -6 20 C-6.66 20 -7.32 20 -8 20 C-7.5887581 12.59764573 -5.36444702 5.36444702 0 0 Z " fill="#9AC2E7" transform="translate(210,184)"/>
<path d="M0 0 C10.56 0 21.12 0 32 0 C32 0.33 32 0.66 32 1 C22.1 1 12.2 1 2 1 C2.33 1.99 2.66 2.98 3 4 C2.01 4.66 1.02 5.32 0 6 C-0.66 5.67 -1.32 5.34 -2 5 C-1.34 3.35 -0.68 1.7 0 0 Z " fill="#D66875" transform="translate(122,111)"/>
<path d="M0 0 C1.32 0.33 2.64 0.66 4 1 C3.67 12.88 3.34 24.76 3 37 C2.67 37 2.34 37 2 37 C1.97494385 35.98574951 1.9498877 34.97149902 1.92407227 33.92651367 C1.82990355 30.16368973 1.72970595 26.40104631 1.62768555 22.63842773 C1.58437251 21.00988996 1.54269482 19.38130784 1.50268555 17.75268555 C1.44489497 15.41181065 1.38122602 13.07115824 1.31640625 10.73046875 C1.29969376 10.00224411 1.28298126 9.27401947 1.26576233 8.52372742 C1.17532762 5.43833061 0.98276007 2.94828022 0 0 Z " fill="#84B9EC" transform="translate(296,252)"/>
<path d="M0 0 C0.6875 1.6875 0.6875 1.6875 1 4 C-0.3125 6.75 -0.3125 6.75 -2 9 C-2.66 9 -3.32 9 -4 9 C-4.2475 9.94875 -4.495 10.8975 -4.75 11.875 C-6 15 -6 15 -8.125 16.375 C-8.74375 16.58125 -9.3625 16.7875 -10 17 C-8.43358249 12.69235185 -6.31663844 8.93828536 -4 5 C-3.34 5 -2.68 5 -2 5 C-1.34 3.35 -0.68 1.7 0 0 Z " fill="#DA7D8A" transform="translate(50,214)"/>
<path d="M0 0 C0.33 0.66 0.66 1.32 1 2 C0.328125 3.875 0.328125 3.875 -0.75 6 C-1.26820313 7.051875 -1.26820313 7.051875 -1.796875 8.125 C-3 10 -3 10 -6 12 C-7.20450304 14.55183404 -7.20450304 14.55183404 -8 17 C-8.99 17 -9.98 17 -11 17 C-9.3189585 13.3650778 -7.16668 10.13401865 -4.9375 6.8125 C-4.22464844 5.74644531 -3.51179688 4.68039063 -2.77734375 3.58203125 C-1 1 -1 1 0 0 Z " fill="#92BEE6" transform="translate(424,133)"/>
<path d="M0 0 C0.66 0 1.32 0 2 0 C2 2.64 2 5.28 2 8 C1.34 6.68 0.68 5.36 0 4 C-0.99 5.485 -0.99 5.485 -2 7 C-2.66 7 -3.32 7 -4 7 C-4.12375 7.61875 -4.2475 8.2375 -4.375 8.875 C-5 11 -5 11 -7 13 C-7.33 10.69 -7.66 8.38 -8 6 C-7.05125 5.7525 -6.1025 5.505 -5.125 5.25 C-1.91306809 4.3142923 -1.91306809 4.3142923 -0.625 1.875 C-0.41875 1.25625 -0.2125 0.6375 0 0 Z " fill="#DD7F88" transform="translate(137,165)"/>
<path d="M0 0 C1.32 0.33 2.64 0.66 4 1 C-0.62 5.62 -5.24 10.24 -10 15 C-10 11.06830895 -8.60580385 9.83572772 -6 7 C-5.34 7 -4.68 7 -4 7 C-4.33 6.01 -4.66 5.02 -5 4 C-3.35 3.67 -1.7 3.34 0 3 C0 2.01 0 1.02 0 0 Z " fill="#E0717E" transform="translate(367,255)"/>
<path d="M0 0 C0.66 0.33 1.32 0.66 2 1 C0.90073597 2.77388086 -0.20460502 4.54399684 -1.3125 6.3125 C-2.23482422 7.79169922 -2.23482422 7.79169922 -3.17578125 9.30078125 C-4.66324661 11.50172035 -6.0403386 13.23328988 -8 15 C-7.67 12.69 -7.34 10.38 -7 8 C-6.34 8 -5.68 8 -5 8 C-5 7.34 -5 6.68 -5 6 C-4.34 6 -3.68 6 -3 6 C-3 4.68 -3 3.36 -3 2 C-2.01 1.34 -1.02 0.68 0 0 Z " fill="#DD6877" transform="translate(116,195)"/>
<path d="M0 0 C1 3 1 3 0.14453125 5.0078125 C-0.51482422 6.05582031 -0.51482422 6.05582031 -1.1875 7.125 C-1.61417969 7.82882813 -2.04085938 8.53265625 -2.48046875 9.2578125 C-4.25479631 11.2921315 -5.36997598 11.62830496 -8 12 C-8 12.66 -8 13.32 -8 14 C-8.66 14 -9.32 14 -10 14 C-8.5 11 -8.5 11 -7 8 C-6.34 8 -5.68 8 -5 8 C-4.731875 7.4225 -4.46375 6.845 -4.1875 6.25 C-2.98280141 3.9674132 -1.59201885 2.0262058 0 0 Z " fill="#E07D88" transform="translate(323,224)"/>
<path d="M0 0 C1 2 1 2 0.546875 3.83984375 C0.28390625 4.53207031 0.0209375 5.22429687 -0.25 5.9375 C-0.62898438 6.97197266 -0.62898438 6.97197266 -1.015625 8.02734375 C-2.06854763 10.13736727 -3.25352136 11.4350374 -5 13 C-5.99 12.67 -6.98 12.34 -8 12 C-7.01 10.02 -6.02 8.04 -5 6 C-4.34 6 -3.68 6 -3 6 C-2.690625 5.195625 -2.38125 4.39125 -2.0625 3.5625 C-1 1 -1 1 0 0 Z " fill="#DB7885" transform="translate(59,201)"/>
<path d="M0 0 C0.66 0.33 1.32 0.66 2 1 C1.55269531 1.50789062 1.10539062 2.01578125 0.64453125 2.5390625 C-2.96286942 6.64642275 -6.52114925 10.78321121 -10 15 C-11.32 14.67 -12.64 14.34 -14 14 C-13.34 14 -12.68 14 -12 14 C-12 13.34 -12 12.68 -12 12 C-11.34 12 -10.68 12 -10 12 C-9.67 11.01 -9.34 10.02 -9 9 C-4.68181818 4.22727273 -4.68181818 4.22727273 -1 3 C-0.67 2.01 -0.34 1.02 0 0 Z " fill="#9ABFE2" transform="translate(265,127)"/>
<path d="M0 0 C0.99773437 0.02320312 1.99546875 0.04640625 3.0234375 0.0703125 C4.52777344 0.09738281 4.52777344 0.09738281 6.0625 0.125 C6.83335937 0.14820312 7.60421875 0.17140625 8.3984375 0.1953125 C8.0684375 0.8553125 7.7384375 1.5153125 7.3984375 2.1953125 C5.37243575 2.42042381 3.34384474 2.6394003 1.30859375 2.75390625 C-1.00581062 3.05873954 -1.00581062 3.05873954 -2.6015625 6.1953125 C-4.7265625 6.8828125 -4.7265625 6.8828125 -6.6015625 7.1953125 C-4.06303844 0.30503292 -4.06303844 0.30503292 0 0 Z " fill="#90BFE7" transform="translate(441.6015625,110.8046875)"/>
<path d="M0 0 C-1.3094668 1.33631236 -2.62265485 2.66897925 -3.9375 4 C-4.66839844 4.7425 -5.39929688 5.485 -6.15234375 6.25 C-8 8 -8 8 -9 8 C-9 5.69 -9 3.38 -9 1 C-5.47051709 -0.66670026 -3.71727674 -1.13583456 0 0 Z " fill="#DE818C" transform="translate(346,282)"/>
<path d="M0 0 C0.66 0 1.32 0 2 0 C0.37621488 4.72373854 -2.10993018 8.94181834 -5 13 C-5.33 13 -5.66 13 -6 13 C-6.17758833 9.09305679 -6.23513741 6.29388671 -4 3 C-3.01 2.34 -2.02 1.68 -1 1 C-0.67 0.67 -0.34 0.34 0 0 Z " fill="#E27D8A" transform="translate(103,215)"/>
<path d="M0 0 C1.65 0 3.3 0 5 0 C4.67 0.99 4.34 1.98 4 3 C4.66 3 5.32 3 6 3 C6 3.66 6 4.32 6 5 C6.66 5 7.32 5 8 5 C8 5.66 8 6.32 8 7 C9.32 7.66 10.64 8.32 12 9 C11.67 9.99 11.34 10.98 11 12 C10.01 11.34 9.02 10.68 8 10 C8 9.34 8 8.68 8 8 C7.34 8 6.68 8 6 8 C4.4921875 6.50390625 4.4921875 6.50390625 2.875 4.5625 C2.33617187 3.92441406 1.79734375 3.28632813 1.2421875 2.62890625 C0 1 0 1 0 0 Z " fill="#9DBCE0" transform="translate(227,256)"/>
<path d="M0 0 C0.66 0.33 1.32 0.66 2 1 C-1.38318015 6.6146394 -4.19066623 10.81869817 -10 14 C-10.66 13.67 -11.32 13.34 -12 13 C-11.01 12.67 -10.02 12.34 -9 12 C-8.29700569 10.68545779 -7.63589178 9.34828182 -7 8 C-5.83102663 6.5506846 -4.62060692 5.13400769 -3.375 3.75 C-2.74335938 3.04359375 -2.11171875 2.3371875 -1.4609375 1.609375 C-0.97882813 1.07828125 -0.49671875 0.5471875 0 0 Z " fill="#95C2E8" transform="translate(231,161)"/>
<path d="M0 0 C0.33 0.66 0.66 1.32 1 2 C1.66 2 2.32 2 3 2 C2.91253716 3.43861294 2.80434652 4.87597508 2.6875 6.3125 C2.62949219 7.11300781 2.57148437 7.91351563 2.51171875 8.73828125 C1.91793306 11.36272334 1.04219706 12.30820672 -1 14 C-1.02705729 12.22925083 -1.04642195 10.45838289 -1.0625 8.6875 C-1.07410156 7.70136719 -1.08570312 6.71523437 -1.09765625 5.69921875 C-1 3 -1 3 0 0 Z " fill="#F36272" transform="translate(106,201)"/>
<path d="M0 0 C2.2601949 2.2601949 3.48809716 4.55617914 5 7.34375 C6.0156448 9.17554302 6.0156448 9.17554302 8 11 C8 11.99 8 12.98 8 14 C7.01 14 6.02 14 5 14 C5 12.68 5 11.36 5 10 C4.360625 9.835 3.72125 9.67 3.0625 9.5 C1 8 1 8 0.51171875 6.0859375 C0.2724022 4.06424845 0.13106972 2.03158061 0 0 Z " fill="#DD7380" transform="translate(202,230)"/>
<path d="M0 0 C1.32 0.33 2.64 0.66 4 1 C3.67 1.66 3.34 2.32 3 3 C2.34 3 1.68 3 1 3 C-0.4606285 5.64738916 -1 6.89448334 -1 10 C-0.01 11.485 -0.01 11.485 1 13 C0.01 13 -0.98 13 -2 13 C-4 10 -4 10 -3.625 7.3125 C-3.41875 6.549375 -3.2125 5.78625 -3 5 C-2.34 5 -1.68 5 -1 5 C-0.67 3.35 -0.34 1.7 0 0 Z " fill="#96C0E6" transform="translate(261,201)"/>
<path d="M0 0 C0.33 1.32 0.66 2.64 1 4 C0.01 4.66 -0.98 5.32 -2 6 C-2.33 6.845625 -2.66 7.69125 -3 8.5625 C-3.33 9.366875 -3.66 10.17125 -4 11 C-4.99 11.33 -5.98 11.66 -7 12 C-7 12.66 -7 13.32 -7 14 C-7.66 13.67 -8.32 13.34 -9 13 C-6.03 8.71 -3.06 4.42 0 0 Z " fill="#DC8691" transform="translate(73,181)"/>
<path d="M0 0 C0.66 0 1.32 0 2 0 C1.66275164 3.11954738 1.3790035 4.6209965 -0.875 6.875 C-1.57625 7.24625 -2.2775 7.6175 -3 8 C-3.99 7.67 -4.98 7.34 -6 7 C-4.6875 4.5 -4.6875 4.5 -3 2 C-2.01 2 -1.02 2 0 2 C0 1.34 0 0.68 0 0 Z " fill="#E56270" transform="translate(66,193)"/>
<path d="M0 0 C0.66 0 1.32 0 2 0 C2 0.66 2 1.32 2 2 C2.99 2.33 3.98 2.66 5 3 C3.35 5.97 1.7 8.94 0 12 C-0.33 12 -0.66 12 -1 12 C-1 10.35 -1 8.7 -1 7 C-0.34 7 0.32 7 1 7 C0.67 4.69 0.34 2.38 0 0 Z " fill="#8EC1EC" transform="translate(416,217)"/>
<path d="M0 0 C0.66 0.33 1.32 0.66 2 1 C0.68 3.31 -0.64 5.62 -2 8 C-2.66 8 -3.32 8 -4 8 C-4 8.66 -4 9.32 -4 10 C-4.66 10 -5.32 10 -6 10 C-5.49477778 5.62140745 -2.82172778 3.18348776 0 0 Z " fill="#8FC0E9" transform="translate(404,163)"/>
<path d="M0 0 C2.475 0.495 2.475 0.495 5 1 C5.0825 1.61875 5.165 2.2375 5.25 2.875 C5.81258459 5.18437567 5.81258459 5.18437567 8.0625 6.25 C8.701875 6.4975 9.34125 6.745 10 7 C9.67 7.99 9.34 8.98 9 10 C5.73991357 6.83047153 2.77762123 3.60062011 0 0 Z " fill="#9FBFE1" transform="translate(239,268)"/>
<path d="M0 0 C0.6875 1.625 0.6875 1.625 1 4 C-0.4375 7.25 -0.4375 7.25 -2 10 C-2.99 10 -3.98 10 -5 10 C-4.55090939 8.51800098 -4.09043436 7.03944764 -3.625 5.5625 C-3.36976563 4.73878906 -3.11453125 3.91507813 -2.8515625 3.06640625 C-2 1 -2 1 0 0 Z " fill="#90BDE5" transform="translate(400,226)"/>
<path d="M0 0 C0.99 0.33 1.98 0.66 3 1 C1.85845641 2.83600745 0.71165684 4.66874805 -0.4375 6.5 C-1.07558594 7.5209375 -1.71367187 8.541875 -2.37109375 9.59375 C-2.90863281 10.3878125 -3.44617188 11.181875 -4 12 C-4.33 12 -4.66 12 -5 12 C-5.25532751 8.93606987 -5.21861333 7.36766788 -3.625 4.6875 C-3.08875 4.130625 -2.5525 3.57375 -2 3 C-1.34 3 -0.68 3 0 3 C0 2.01 0 1.02 0 0 Z " fill="#97BBE0" transform="translate(450,170)"/>
<path d="M0 0 C0.6875 1.625 0.6875 1.625 1 4 C-0.4375 7.25 -0.4375 7.25 -2 10 C-2.66 9.67 -3.32 9.34 -4 9 C-4 7.35 -4 5.7 -4 4 C-3.01 3.67 -2.02 3.34 -1 3 C-0.67 2.01 -0.34 1.02 0 0 Z " fill="#EB6C7A" transform="translate(312,238)"/>
<path d="M0 0 C2.52259061 1.97420135 2.9929808 2.96745642 3.6875 6.1875 C3.790625 7.115625 3.89375 8.04375 4 9 C-1.875 4.375 -1.875 4.375 -3 1 C-2.01 0.67 -1.02 0.34 0 0 Z " fill="#98BFE6" transform="translate(212,236)"/>
<path d="M0 0 C0.66 0 1.32 0 2 0 C1.46884894 4.51478398 -0.36620292 7.34666857 -3 11 C-3.93065133 8.39417629 -4.14917407 7.35801776 -3.0625 4.75 C-2.5365625 3.88375 -2.5365625 3.88375 -2 3 C-1.34 3 -0.68 3 0 3 C0 2.01 0 1.02 0 0 Z " fill="#92BFE7" transform="translate(425,208)"/>
<path d="M0 0 C0.33 1.32 0.66 2.64 1 4 C0.01 4.33 -0.98 4.66 -2 5 C-2.165 5.66 -2.33 6.32 -2.5 7 C-2.665 7.66 -2.83 8.32 -3 9 C-3.99 9.33 -4.98 9.66 -6 10 C-4.6302836 6.00499382 -2.74277578 3.19990508 0 0 Z " fill="#94BEE4" transform="translate(431,123)"/>
<path d="M0 0 C1.32 0 2.64 0 4 0 C6.3125 2.3125 6.3125 2.3125 8 5 C7.67 5.99 7.34 6.98 7 8 C4.35247996 5.42215154 2.05567935 3.08351902 0 0 Z " fill="#98BEE3" transform="translate(249,278)"/>
<path d="M0 0 C0.66 0.33 1.32 0.66 2 1 C1.01 2.485 1.01 2.485 0 4 C-0.66 4 -1.32 4 -2 4 C-2.66 5.32 -3.32 6.64 -4 8 C-4.33 8 -4.66 8 -5 8 C-5.3125 5.6875 -5.3125 5.6875 -5 3 C-2.625 1.125 -2.625 1.125 0 0 Z " fill="#E5808A" transform="translate(351,273)"/>
<path d="M0 0 C1.231394 2.46278801 1.07159196 4.2795055 1 7 C-0.98 7.99 -0.98 7.99 -3 9 C-3.33 8.34 -3.66 7.68 -4 7 C-1.55555556 1.55555556 -1.55555556 1.55555556 0 0 Z " fill="#E06C79" transform="translate(107,133)"/>
<path d="M0 0 C2.86724686 0.57344937 3.8614515 0.8614515 6 3 C6.625 5.125 6.625 5.125 7 7 C6.01 7 5.02 7 4 7 C2.02 3.535 2.02 3.535 0 0 Z " fill="#E0818B" transform="translate(319,188)"/>
<path d="M0 0 C-0.8125 2.4375 -0.8125 2.4375 -2 5 C-2.99 5.33 -3.98 5.66 -5 6 C-5.33 4.35 -5.66 2.7 -6 1 C-4 0 -4 0 0 0 Z " fill="#E96E7C" transform="translate(129,179)"/>
<path d="M0 0 C1.14926266 0.95421808 2.29430541 1.91352045 3.4375 2.875 C4.07558594 3.40867188 4.71367187 3.94234375 5.37109375 4.4921875 C7 6 7 6 8 8 C6.68 8 5.36 8 4 8 C3.67 6.68 3.34 5.36 3 4 C2.01 4 1.02 4 0 4 C0 2.68 0 1.36 0 0 Z " fill="#DE7B8A" transform="translate(345,143)"/>
<path d="M0 0 C0.33 0.66 0.66 1.32 1 2 C3.97 2 6.94 2 10 2 C6.3558226 4.4294516 4.28758728 4.16179575 0 4 C0 2.68 0 1.36 0 0 Z " fill="#ADC5E1" transform="translate(362,272)"/>
<path d="M0 0 C0.33 0.66 0.66 1.32 1 2 C-0.21480305 5.42353587 -2.01771223 7.01180815 -5 9 C-5.66 8.67 -6.32 8.34 -7 8 C-4.69 5.36 -2.38 2.72 0 0 Z " fill="#9BC3E7" transform="translate(376,257)"/>
<path d="M0 0 C0.99 0.33 1.98 0.66 3 1 C2.60196439 3.88575819 2.20990931 4.82189513 -0.0625 6.75 C-0.701875 7.1625 -1.34125 7.575 -2 8 C-1.34 5.36 -0.68 2.72 0 0 Z " fill="#F1515F" transform="translate(60,201)"/>
<path d="M0 0 C1 2 2 4 3 6 C1.35 6.66 -0.3 7.32 -2 8 C-2.125 5.125 -2.125 5.125 -2 2 C-1.34 1.34 -0.68 0.68 0 0 Z " fill="#E5606D" transform="translate(76,177)"/>
<path d="M0 0 C0.66 1.32 1.32 2.64 2 4 C1.01 4 0.02 4 -1 4 C-1.66 5.65 -2.32 7.3 -3 9 C-3.66 9 -4.32 9 -5 9 C-3.7508258 5.54074837 -2.32472205 2.85306797 0 0 Z " fill="#DE8691" transform="translate(91,155)"/>
<path d="M0 0 C0.66 1.32 1.32 2.64 2 4 C1.01 4.33 0.02 4.66 -1 5 C-2.20882096 7.00016466 -2.20882096 7.00016466 -3 9 C-3.66 9 -4.32 9 -5 9 C-3.7508258 5.54074837 -2.32472205 2.85306797 0 0 Z " fill="#DB808D" transform="translate(119,116)"/>
<path d="M0 0 C0.33 0.66 0.66 1.32 1 2 C0.06553465 4.03144641 -0.93224776 6.03533587 -2 8 C-2.99 8 -3.98 8 -5 8 C-3.62845496 5.04590299 -2.01136276 2.55991624 0 0 Z " fill="#DB7A87" transform="translate(113,125)"/>
<path d="M0 0 C0.66 0.33 1.32 0.66 2 1 C0.79618552 3.49361571 -0.45428722 5.68143083 -2 8 C-2.99 7.67 -3.98 7.34 -5 7 C-4.67 6.34 -4.34 5.68 -4 5 C-3.34 5 -2.68 5 -2 5 C-1.34 3.35 -0.68 1.7 0 0 Z " fill="#EE5161" transform="translate(118,120)"/>
<path d="M0 0 C2.31 0 4.62 0 7 0 C7 0.99 7 1.98 7 3 C5.02 3 3.04 3 1 3 C0.67 2.01 0.34 1.02 0 0 Z " fill="#E98E95" transform="translate(88,272)"/>
<path d="M0 0 C0.6875 1.6875 0.6875 1.6875 1 4 C-0.4375 6.75 -0.4375 6.75 -2 9 C-2.6875 7.3125 -2.6875 7.3125 -3 5 C-1.5625 2.25 -1.5625 2.25 0 0 Z " fill="#E26F7C" transform="translate(50,214)"/>
<path d="M0 0 C2 1 2 1 3.125 3.125 C4.15945114 6.52391089 4.1385722 9.46640886 4 13 C2.42445965 10.11371599 1.53723627 7.46657616 0.875 4.25 C0.70742188 3.45078125 0.53984375 2.6515625 0.3671875 1.828125 C0.24601562 1.22484375 0.12484375 0.6215625 0 0 Z " fill="#92BDE5" transform="translate(397,187)"/>
<path d="M0 0 C-1.20381448 2.49361571 -2.45428722 4.68143083 -4 7 C-4.99 7 -5.98 7 -7 7 C-7 6.34 -7 5.68 -7 5 C-6.34 4.67 -5.68 4.34 -5 4 C-4.67 3.01 -4.34 2.02 -4 1 C-2 0 -2 0 0 0 Z " fill="#EF505D" transform="translate(84,172)"/>
<path d="M0 0 C0.36923077 4.55384615 0.36923077 4.55384615 -1.5 6.8125 C-1.995 7.204375 -2.49 7.59625 -3 8 C-3.33 5.69 -3.66 3.38 -4 1 C-2 0 -2 0 0 0 Z " fill="#E96E7B" transform="translate(133,170)"/>
<path d="M0 0 C-2.76223278 2.76223278 -5.20706617 2.57856291 -9 3 C-9 2.34 -9 1.68 -9 1 C-5.57367167 -0.61798838 -3.61944899 -1.34053666 0 0 Z " fill="#E86E7C" transform="translate(346,282)"/>
<path d="M0 0 C2.97 0.495 2.97 0.495 6 1 C6 2.65 6 4.3 6 6 C3.97945196 4.35830472 1.97956942 2.69088222 0 1 C0 0.67 0 0.34 0 0 Z " fill="#97BCE3" transform="translate(221,250)"/>
<path d="M0 0 C0.66 0.33 1.32 0.66 2 1 C1.67 1.66 1.34 2.32 1 3 C1.66 3.33 2.32 3.66 3 4 C2.01 4.99 1.02 5.98 0 7 C-0.99 6.67 -1.98 6.34 -3 6 C-2.01 4.02 -1.02 2.04 0 0 Z " fill="#DE8190" transform="translate(54,207)"/>
<path d="M0 0 C0.66 0.33 1.32 0.66 2 1 C0.68 3.31 -0.64 5.62 -2 8 C-2.33 8 -2.66 8 -3 8 C-3.1875 5.125 -3.1875 5.125 -3 2 C-2.01 1.34 -1.02 0.68 0 0 Z " fill="#E1828E" transform="translate(116,195)"/>
<path d="M0 0 C1.98 1.65 3.96 3.3 6 5 C3 6 3 6 0 5 C0 3.35 0 1.7 0 0 Z " fill="#E0818F" transform="translate(373,171)"/>
<path d="M0 0 C2.31 1.98 4.62 3.96 7 6 C6.34 6.66 5.68 7.32 5 8 C0 2.25 0 2.25 0 0 Z " fill="#E17D8B" transform="translate(336,134)"/>
<path d="M0 0 C0.66 0 1.32 0 2 0 C2 0.66 2 1.32 2 2 C2.99 2.33 3.98 2.66 5 3 C5.33 4.65 5.66 6.3 6 8 C1.125 3.375 1.125 3.375 0 0 Z " fill="#DF8790" transform="translate(313,180)"/>
<path d="M0 0 C4.875 2.75 4.875 2.75 6 5 C5.01 5.33 4.02 5.66 3 6 C3 5.34 3 4.68 3 4 C2.01 4 1.02 4 0 4 C0 2.68 0 1.36 0 0 Z " fill="#E27F8B" transform="translate(324,123)"/>
</svg>
