<?xml version="1.0" encoding="UTF-8"?>
<svg version="1.1" xmlns="http://www.w3.org/2000/svg" width="400" height="400">
<path d="M0 0 C0.92490234 -0.01611328 1.84980469 -0.03222656 2.80273438 -0.04882812 C13.17729368 -0.05609831 21.21016924 2.98846589 30.0625 8.1875 C31.62820232 9.07936191 33.19460378 9.96999763 34.76171875 10.859375 C35.50212402 11.28283203 36.2425293 11.70628906 37.00537109 12.14257812 C39.60522332 13.62115537 42.22330103 15.05400489 44.875 16.4375 C45.93654297 16.99824219 45.93654297 16.99824219 47.01953125 17.5703125 C49.52348126 18.47996929 51.41699795 18.57575551 54.0625 18.3125 C55.74954193 17.00504251 57.41610035 15.67077971 59.0625 14.3125 C61.5 13.3125 61.5 13.3125 64.0625 13.3125 C70.96648643 16.83793988 75.53270929 22.26644527 78.4375 29.375 C82.80552617 43.94732259 81.28916714 60.54285446 74.70703125 74.10546875 C72.33974562 78.40212391 70.27441029 81.32963676 66.1875 84.0625 C64.32022402 85.37799071 64.32022402 85.37799071 63.0625 87.3125 C62.63525425 90.78893124 62.75935383 94.04722043 62.94921875 97.54296875 C63.12099948 103.25912065 62.10492345 108.70947396 61.0625 114.3125 C61.77792969 114.56902344 62.49335938 114.82554687 63.23046875 115.08984375 C75.21170462 120.26243248 84.2797216 130.29298384 89.74609375 141.92578125 C94.94152117 155.29205891 96.27930456 168.91282618 96.35766602 183.13623047 C96.36910873 184.57285471 96.38943648 186.00943909 96.41918945 187.44580078 C96.75543846 203.76233087 94.34597435 220.64171012 82.8125 233.125 C76.88208209 238.59620413 67.39175756 245.3125 59.0625 245.3125 C58.96453125 246.25609375 58.8665625 247.1996875 58.765625 248.171875 C57.17976416 261.78840425 54.28715739 276.02949782 43.6875 285.6875 C28.45314001 297.47006601 8.51156427 296.45659804 -9.77880859 296.86474609 C-14.83329446 296.98036812 -19.88490959 297.13151169 -24.9375 297.3125 C-25.97519531 297.33828125 -27.01289063 297.3640625 -28.08203125 297.390625 C-32.04421841 297.60194165 -34.33382096 297.91547813 -37.6875 300.12109375 C-41.74858748 305.88135151 -44.50477878 312.30410388 -47.4765625 318.67382812 C-48.23066406 320.24487305 -48.23066406 320.24487305 -49 321.84765625 C-49.44472656 322.800354 -49.88945312 323.75305176 -50.34765625 324.73461914 C-52.549592 328.30498763 -55.12486003 330.83937024 -59.2421875 331.9140625 C-83.97687077 332.13960672 -111.22529132 319.19996628 -133.5625 309.4375 C-134.3671167 309.09291748 -135.1717334 308.74833496 -136.00073242 308.39331055 C-141.17419545 306.04462529 -144.33064496 303.52621009 -146.9375 298.3125 C-147.34149154 293.06060993 -146.82740343 289.74368526 -143.9375 285.3125 C-138.67397405 279.47994422 -131.28691788 277.52674769 -123.9375 275.3125 C-123.2775 275.3125 -122.6175 275.3125 -121.9375 275.3125 C-121.76444336 274.77520264 -121.59138672 274.23790527 -121.41308594 273.68432617 C-112.49913297 246.42865245 -103.06642692 225.27263589 -76.9375 211.3125 C-77.09758545 210.73089111 -77.2576709 210.14928223 -77.42260742 209.55004883 C-81.48510083 191.89582785 -75.02172054 171.82435838 -65.84375 156.91015625 C-64.47781573 154.8686784 -63.08967599 152.84174123 -61.671875 150.8359375 C-60.20683709 148.70437333 -59.01576768 146.6560818 -57.9375 144.3125 C-58.9275 143.4875 -59.9175 142.6625 -60.9375 141.8125 C-66.65244739 136.14401559 -69.65860265 128.550684 -72.9375 121.3125 C-73.23462891 120.66796875 -73.53175781 120.0234375 -73.83789062 119.359375 C-75.12347258 116.4931595 -75.9375 114.49126909 -75.9375 111.3125 C-77.67 111.8075 -77.67 111.8075 -79.4375 112.3125 C-83.79135345 113.37969676 -87.45954189 113.76788557 -91.9375 113.3125 C-93.9375 111.4375 -93.9375 111.4375 -94.9375 109.3125 C-94.9375 108.6525 -94.9375 107.9925 -94.9375 107.3125 C-98.26950185 106.89478196 -98.26950185 106.89478196 -101.9375 107.3125 C-104.79237056 109.92946468 -105.8611061 112.09135976 -107.125 115.75 C-109.02881899 119.49198906 -109.87900551 120.16152732 -113.3125 122.25 C-120.20868361 126.51533434 -122.64454197 131.60865818 -124.75 139.3125 C-126.90286226 149.06154102 -126.58603773 158.29253319 -121.4375 167.0625 C-117.86984315 171.99502315 -113.74338714 174.57491075 -107.9375 176.3125 C-101.55715925 177.30637784 -96.32842349 176.62816612 -90.59375 173.67578125 C-88.4054678 171.87457727 -87.28161172 169.78353466 -85.9375 167.3125 C-87.20207031 167.02246094 -87.20207031 167.02246094 -88.4921875 166.7265625 C-89.58789062 166.46617187 -90.68359375 166.20578125 -91.8125 165.9375 C-92.90304688 165.68226563 -93.99359375 165.42703125 -95.1171875 165.1640625 C-97.9375 164.3125 -97.9375 164.3125 -99.9375 162.3125 C-99.5625 160.1875 -99.5625 160.1875 -98.9375 158.3125 C-93.1450276 158.94440608 -87.61151601 159.9826525 -81.9375 161.3125 C-81.2775 158.0125 -80.6175 154.7125 -79.9375 151.3125 C-80.92492187 151.21453125 -81.91234375 151.1165625 -82.9296875 151.015625 C-84.21101563 150.86609375 -85.49234375 150.7165625 -86.8125 150.5625 C-88.08867187 150.42328125 -89.36484375 150.2840625 -90.6796875 150.140625 C-93.9375 149.3125 -93.9375 149.3125 -95.4453125 147.359375 C-95.9375 145.3125 -95.9375 145.3125 -94.9375 143.3125 C-92.99965735 143.45370714 -91.06223045 143.60062873 -89.125 143.75 C-87.50658203 143.87181641 -87.50658203 143.87181641 -85.85546875 143.99609375 C-82.9375 144.3125 -82.9375 144.3125 -79.9375 145.3125 C-80.91375591 139.53203736 -81.95182809 134.82260243 -85.9375 130.3125 C-87.99346968 129.13422498 -90.03551926 128.16135674 -92.23046875 127.26953125 C-93.9375 126.3125 -93.9375 126.3125 -94.9375 123.3125 C-94.6075 122.6525 -94.2775 121.9925 -93.9375 121.3125 C-87.70076562 121.42387026 -84.21020298 122.73928628 -79.703125 127.11328125 C-73.41378815 134.94712339 -72.89874745 144.65634108 -73.9375 154.3125 C-76.13038895 165.23998593 -80.58892168 174.8853524 -89.9375 181.3125 C-97.68282863 184.41282249 -107.04301831 184.88548408 -114.875 181.75 C-124.61330505 176.52853403 -128.24866521 168.63589943 -131.55078125 158.4140625 C-133.6404352 147.05816529 -132.26770758 134.62240487 -126.359375 124.6484375 C-123.69222684 120.96008397 -121.29577855 118.26505417 -117.1875 116.25 C-113.22489761 113.88767935 -113.02582595 112.46387851 -111.72265625 108.28125 C-110.30917852 104.73700734 -108.12486651 103.26033509 -104.9375 101.3125 C-100.59220452 100.07865067 -97.21892028 99.79447904 -93 101.5 C-90.9375 103.3125 -90.9375 103.3125 -88.9375 107.3125 C-83.9875 106.8175 -83.9875 106.8175 -78.9375 106.3125 C-80.64256217 102.15641095 -82.72646542 99.34068391 -85.8125 96.0625 C-93.86200779 87.31625765 -96.52857852 78.16754832 -96.26953125 66.52734375 C-95.66295003 55.44163515 -89.62946555 47.79586987 -81.9375 40.3125 C-81.32132812 39.67570312 -80.70515625 39.03890625 -80.0703125 38.3828125 C-73.80262858 32.33032803 -65.8548012 29.05320916 -58.04833984 25.4375 C-51.40920371 22.34808636 -45.57278695 19.54356277 -40.6328125 14.0078125 C-30.03667314 3.41167314 -14.38105639 -0.04989957 0 0 Z M-23.9375 10.3125 C-24.78828125 10.73660156 -25.6390625 11.16070312 -26.515625 11.59765625 C-31.11720042 14.13134579 -34.75433881 17.01763634 -38.5 20.6875 C-44.49762018 26.3161814 -51.52597229 29.15614696 -58.95751953 32.43212891 C-71.71829082 38.10603042 -83.10167872 46.21339036 -88.9375 59.3125 C-92.11310596 68.09735387 -90.96370408 75.80576447 -87.16796875 84.171875 C-85.66998622 86.77788905 -83.85986869 89.00726962 -81.9375 91.3125 C-81.72996094 90.35730469 -81.52242187 89.40210937 -81.30859375 88.41796875 C-79.08994969 78.88423015 -76.04652778 70.42152778 -68.9375 63.3125 C-68.52307431 61.96987432 -68.15385986 60.61303551 -67.8125 59.25 C-65.40044934 51.79784349 -60.2610596 46.2627386 -53.4375 42.5 C-49.09237374 40.5182475 -44.64198102 39.51640099 -40 38.5 C-32.21164685 36.77763692 -27.10046118 33.39132697 -20.9375 28.3125 C-19.32870783 27.16444174 -17.70449074 26.03755291 -16.0625 24.9375 C-15.38445312 24.47601563 -14.70640625 24.01453125 -14.0078125 23.5390625 C-6.62965138 19.16785006 1.05993074 19.23880708 9.3203125 21.01171875 C21.66436312 24.9367183 32.83148018 32.3603711 43.46875 39.62109375 C47.781156 42.43325007 51.00284871 42.47839021 56.0625 42.3125 C56.74183594 42.168125 57.42117188 42.02375 58.12109375 41.875 C60.1875 41.4375 60.1875 41.4375 64.0625 41.3125 C69.07826921 45.53030592 70.9160356 51.24484086 73.0625 57.3125 C73.3925 57.3125 73.7225 57.3125 74.0625 57.3125 C75.77012031 44.92710934 75.03700597 33.44966581 67.66015625 22.984375 C65.92961688 21.17344382 64.3559448 20.28337512 62.0625 19.3125 C60.8559375 20.55 60.8559375 20.55 59.625 21.8125 C56.35570058 24.45221276 53.91827098 25.17459355 49.734375 24.921875 C40.21096119 22.74986834 31.27871045 16.38574442 23.1953125 11.109375 C15.53963369 6.71833728 9.12236253 5.78818296 0.3125 5.875 C-0.75500488 5.88257324 -1.82250977 5.89014648 -2.92236328 5.89794922 C-10.52408239 6.05711711 -17.08402339 6.80936944 -23.9375 10.3125 Z M9.0625 55.3125 C8.7325 55.6425 8.4025 55.9725 8.0625 56.3125 C5.55443151 56.84737482 3.03442079 57.27655456 0.5078125 57.71484375 C-2.17215769 58.2224485 -2.17215769 58.2224485 -4.9375 60.3125 C-6.60552428 59.98602814 -8.272084 59.65202677 -9.9375 59.3125 C-12.4208611 59.83673113 -12.4208611 59.83673113 -14.9375 60.75 C-24.49855956 63.53864237 -33.08658299 62.84095116 -42.51953125 59.99609375 C-48.7357885 58.23867046 -53.74020402 59.4173163 -59.515625 61.9375 C-67.47722856 66.45763621 -71.57075457 75.12159249 -74.9375 83.3125 C-78.98038853 99.87609178 -68.80478239 117.83260672 -60.9375 132.0625 C-55.80971043 140.1066335 -47.53241032 144.4097062 -38.5546875 147 C-13.91968942 152.42421976 15.69319648 146.34829763 37.0625 133.3125 C46.17083475 126.46273606 54.44491733 117.69457296 57.0625 106.3125 C58.0718917 95.86838585 58.15180522 83.45649366 51.8046875 74.546875 C49.32592743 72.79062347 46.9767299 72.48388427 44 71.9375 C38.41982357 70.7765237 33.92772847 69.01642718 28.98828125 66.203125 C28.35277344 65.90921875 27.71726562 65.6153125 27.0625 65.3125 C26.4025 65.6425 25.7425 65.9725 25.0625 66.3125 C26.0525 67.983125 26.0525 67.983125 27.0625 69.6875 C29.4575223 74.44357265 29.90205797 79.06038153 29.0625 84.3125 C26.62624083 86.74875917 24.78764159 87.13828764 21.5 88.125 C17.4138445 89.42180384 13.86030053 90.85381416 10.1875 93.0625 C6.63594078 95.12676366 4.24065868 96.26208152 0.0625 95.3125 C-3.21927848 93.22409551 -4.59849483 91.35879322 -5.796875 87.66015625 C-7.5877529 79.1753262 -6.47571218 72.90080664 -2.3125 65.375 C1.95808714 61.66633222 6.44745625 60.27543108 12.09375 60.35546875 C14.76921853 60.59336479 17.40867341 60.90078485 20.0625 61.3125 C15.15342486 56.8728092 15.15342486 56.8728092 9.0625 55.3125 Z M2.0625 69.3125 C-1.77052955 73.75881427 -2.33044004 77.51663441 -1.9375 83.3125 C-0.76285799 86.66455607 -0.76285799 86.66455607 1.0625 89.3125 C2.0525 89.6425 3.0425 89.9725 4.0625 90.3125 C6.3725 88.9925 8.6825 87.6725 11.0625 86.3125 C8.7525 80.7025 6.4425 75.0925 4.0625 69.3125 C3.4025 69.3125 2.7425 69.3125 2.0625 69.3125 Z M58.0625 119.3125 C56.55655319 120.93199042 55.05789332 122.55825974 53.5625 124.1875 C52.7271875 125.09242188 51.891875 125.99734375 51.03125 126.9296875 C48.85018441 129.05431632 48.85018441 129.05431632 49.0625 131.3125 C48.20785156 131.70888672 48.20785156 131.70888672 47.3359375 132.11328125 C44.92267869 133.38625454 42.87403763 134.86942501 40.6875 136.5 C29.86844189 144.10343762 18.96667122 148.55425073 6.0625 151.3125 C5.01707031 151.53808594 3.97164063 151.76367188 2.89453125 151.99609375 C-12.55780655 154.835877 -27.69764771 153.59764166 -42.9375 150.3125 C-43.94683594 150.09980469 -44.95617187 149.88710937 -45.99609375 149.66796875 C-47.98130854 149.23747756 -49.96061722 148.7797632 -51.9375 148.3125 C-62.20879083 160.15658224 -71.9375 177.17121188 -71.9375 193.3125 C-71.1640625 193.24289063 -70.390625 193.17328125 -69.59375 193.1015625 C-62.88233839 192.752702 -58.60636554 193.04875326 -53.49609375 197.6171875 C-49.1510994 202.3433217 -48.40704492 206.73881587 -48.56640625 212.97265625 C-49.08605882 216.24920248 -50.63050408 218.00550408 -52.9375 220.3125 C-52.9375 220.9725 -52.9375 221.6325 -52.9375 222.3125 C-48.3175 223.6325 -43.6975 224.9525 -38.9375 226.3125 C-39.2675 224.78625 -39.5975 223.26 -39.9375 221.6875 C-41.66275955 212.05583517 -42.68797331 201.24110044 -37.9375 192.3125 C-33.26518617 186.47210771 -28.04010035 183.48265886 -20.75 182.625 C-18.18070308 182.29960254 -18.18070308 182.29960254 -15.9375 181.3125 C-14.37462672 179.09699832 -13.56571921 177.08385635 -12.75390625 174.50390625 C-11.84512893 172.0645566 -10.95478706 170.93326872 -8.9375 169.3125 C-3.73441428 167.57813809 0.39455856 167.54268088 5.3125 169.8125 C7.936291 172.19776454 8.69667425 173.38211089 10.0625 176.5 C11.47178309 179.78915907 11.47178309 179.78915907 14.6875 181.3125 C15.80125 181.3125 16.915 181.3125 18.0625 181.3125 C18.92359375 181.32410156 19.7846875 181.33570313 20.671875 181.34765625 C23.13532414 181.37201239 25.59915537 181.34578844 28.0625 181.3125 C27.0725 173.3925 27.0725 173.3925 26.0625 165.3125 C27.7125 165.3125 29.3625 165.3125 31.0625 165.3125 C31.19527344 166.28832031 31.32804687 167.26414063 31.46484375 168.26953125 C31.72974609 170.17798828 31.72974609 170.17798828 32 172.125 C32.26103516 174.02185547 32.26103516 174.02185547 32.52734375 175.95703125 C32.96642455 179.29571703 32.96642455 179.29571703 34.0625 182.3125 C38.0225 182.6425 41.9825 182.9725 46.0625 183.3125 C46.0625 184.9625 46.0625 186.6125 46.0625 188.3125 C45.30630371 188.25191406 44.55010742 188.19132812 43.77099609 188.12890625 C40.32668672 187.85433307 36.88210151 187.58338258 33.4375 187.3125 C32.24769531 187.21710938 31.05789063 187.12171875 29.83203125 187.0234375 C28.67832031 186.93320313 27.52460938 186.84296875 26.3359375 186.75 C24.74918213 186.62431641 24.74918213 186.62431641 23.13037109 186.49609375 C20.09942697 186.31470986 17.09804529 186.28067253 14.0625 186.3125 C14.19527344 186.98152344 14.32804687 187.65054688 14.46484375 188.33984375 C18.04821587 207.82606438 17.72278197 225.53227046 11.0625 244.3125 C46.15512405 245.34980261 46.15512405 245.34980261 77.0625 230.3125 C81.76848106 225.33217923 84.57178308 219.64185122 87.0625 213.3125 C86.19238281 213.18294922 86.19238281 213.18294922 85.3046875 213.05078125 C79.4582119 211.99918745 76.14511959 210.68673527 72.0625 206.3125 C68.82408757 200.80719888 68.17901902 195.55710418 69.0625 189.3125 C70.36471787 185.23531784 72.67696016 182.25244968 76.1875 179.8125 C80.70822574 177.48811814 85.23273518 178.41845903 90.0625 179.3125 C90.59065003 171.83037451 89.80451668 164.96990215 88.1875 157.6875 C87.92694824 156.49664795 87.92694824 156.49664795 87.66113281 155.28173828 C86.69683671 150.86884178 86.69683671 150.86884178 84.0625 147.3125 C82.12404506 147.29818349 80.18438152 147.37358542 78.25 147.5 C72.47220815 147.61777274 72.47220815 147.61777274 68.875 144.9375 C65.77498727 140.44782639 65.94386239 137.00761789 66 131.6875 C66.00451172 130.88570312 66.00902344 130.08390625 66.01367188 129.2578125 C66.02546832 127.27600994 66.04340395 125.29424567 66.0625 123.3125 C63.4225 121.9925 60.7825 120.6725 58.0625 119.3125 Z M70.0625 128.3125 C69.67317733 135.32083025 69.67317733 135.32083025 73.0625 141.3125 C75.62805038 143.19390361 76.63098415 143.37134307 79.8125 142.9375 C80.555 142.73125 81.2975 142.525 82.0625 142.3125 C80.52354655 137.38784897 77.65820593 132.9942276 74.0625 129.3125 C71.96057201 128.53785837 71.96057201 128.53785837 70.0625 128.3125 Z M-9.9375 178.3125 C-10.33896415 180.63508091 -10.68084547 182.96949253 -10.9375 185.3125 C-12.03449219 185.56644531 -13.13148438 185.82039062 -14.26171875 186.08203125 C-15.71625214 186.42924245 -17.17067342 186.77692358 -18.625 187.125 C-19.34623047 187.29064453 -20.06746094 187.45628906 -20.81054688 187.62695312 C-26.13780465 188.91619816 -30.45671036 190.21896981 -33.75 194.875 C-35.08348981 197.16026721 -35.08348981 197.16026721 -34.9375 199.3125 C-30.6475 200.3025 -26.3575 201.2925 -21.9375 202.3125 C-21.9375 203.3025 -21.9375 204.2925 -21.9375 205.3125 C-26.96046004 206.44266601 -30.91624074 206.09166092 -35.9375 205.3125 C-35.96458567 206.91657328 -35.98393483 208.5207785 -36 210.125 C-36.01160156 211.01832031 -36.02320313 211.91164062 -36.03515625 212.83203125 C-36.04759967 215.44663791 -36.04759967 215.44663791 -34.9375 218.3125 C-30.9775 218.9725 -27.0175 219.6325 -22.9375 220.3125 C-22.9375 221.6325 -22.9375 222.9525 -22.9375 224.3125 C-26.2375 224.3125 -29.5375 224.3125 -32.9375 224.3125 C-28.74865037 233.03927007 -22.42392927 237.19786346 -13.453125 240.5 C-7.21058495 242.51622412 -1.49925471 243.5917236 5.0625 243.3125 C14.97695791 226.56048491 13.36421511 205.58690649 9.0625 187.3125 C6.68675323 179.23925316 6.68675323 179.23925316 1.0625 173.3125 C-4.39167164 172.26808415 -6.70098039 173.96631653 -9.9375 178.3125 Z M76.0625 187.3125 C73.58024611 191.03588083 73.53155772 193.99961504 74.0625 198.3125 C75.60514078 202.40049807 77.11057892 205.28008345 81.0625 207.3125 C84.17439466 207.56145157 86.25334526 207.71707737 89.0625 206.3125 C89.7608657 203.47755259 89.7608657 203.47755259 90.1875 200.125 C90.35507812 198.99707031 90.52265625 197.86914062 90.6953125 196.70703125 C91.04120612 193.50935514 91.29271155 190.52164896 91.0625 187.3125 C88.91579312 184.82841299 88.91579312 184.82841299 86.0625 183.3125 C81.29298505 183.3125 79.79049996 184.47597829 76.0625 187.3125 Z M-70.9375 200.3125 C-72.1535905 201.29980177 -72.1535905 201.29980177 -71.9921875 203.203125 C-71.67110324 207.41910093 -71.36666285 209.7484574 -68.75 213.1875 C-65.92321736 215.32329133 -63.17397727 216.88242865 -59.9375 218.3125 C-55.99587651 216.21589176 -54.22105004 215.22986777 -52.875 210.875 C-52.94539374 206.86255669 -53.4342792 205.39980566 -55.9375 202.3125 C-61.19937882 197.32756217 -64.84862282 195.91497759 -70.9375 200.3125 Z M-93.4375 229.25 C-101.11284665 237.1224874 -104.72666513 246.27779215 -108.5625 256.4375 C-109.50886039 258.92089781 -110.46092119 261.40199748 -111.4140625 263.8828125 C-111.82736816 264.97352051 -112.24067383 266.06422852 -112.66650391 267.18798828 C-113.9375 270.3125 -113.9375 270.3125 -115.62451172 273.58374023 C-117.20273292 276.14169643 -117.20273292 276.14169643 -116.46875 278.40234375 C-102.93311613 295.28735641 -74.2570046 308.44242089 -53.9375 314.3125 C-53.2775 314.3125 -52.6175 314.3125 -51.9375 314.3125 C-51.41800781 313.21550781 -50.89851563 312.11851562 -50.36328125 310.98828125 C-49.65939866 309.53359057 -48.95494098 308.07917807 -48.25 306.625 C-47.91033203 305.90376953 -47.57066406 305.18253906 -47.22070312 304.43945312 C-45.03868848 299.97346054 -43.01710764 296.32058279 -38.9375 293.3125 C-32.19212097 291.27611836 -25.34857127 291.02028354 -18.35546875 291.00390625 C-16.35090856 290.97874519 -14.34635134 290.95334718 -12.34179688 290.92773438 C-9.23527815 290.89909046 -6.12881071 290.87502309 -3.0222168 290.85620117 C20.64026967 290.99585558 20.64026967 290.99585558 40.76953125 279.75390625 C49.28639927 270.76268103 51.24659328 259.07898498 53.0625 247.3125 C52.08796875 247.456875 51.1134375 247.60125 50.109375 247.75 C25.26144527 251.11819501 -7.2876022 253.49054223 -28.9375 238.3125 C-29.43660889 237.84545654 -29.93571777 237.37841309 -30.44995117 236.8972168 C-34.90790971 232.7358191 -38.59114769 231.15241689 -44.5 229.875 C-53.64736472 227.62639084 -62.60766654 224.46635597 -70.1328125 218.6015625 C-76.67683516 213.9272606 -88.83361937 224.77073569 -93.4375 229.25 Z M-130.9375 284.5625 C-131.88109375 285.01302734 -131.88109375 285.01302734 -132.84375 285.47265625 C-136.41208513 287.24926378 -139.0118252 288.76225591 -140.9375 292.3125 C-141.34052902 295.83061407 -141.34052902 295.83061407 -139.9375 299.3125 C-134.52940242 304.00047567 -127.25427476 306.47983236 -120.6875 309.0625 C-119.61064941 309.48861572 -118.53379883 309.91473145 -117.42431641 310.35375977 C-88.92781655 323.31442915 -88.92781655 323.31442915 -58.9375 325.3125 C-56.62142126 322.85616927 -56.62142126 322.85616927 -54.9375 320.3125 C-58.16980149 318.15763234 -61.46615246 316.83034862 -65.0625 315.4375 C-70.210664 313.41839343 -75.29107034 311.3239699 -80.30078125 308.9765625 C-81.95199451 308.18717941 -81.95199451 308.18717941 -83.9375 308.3125 C-84.35 309.446875 -84.7625 310.58125 -85.1875 311.75 C-86.05375 313.5134375 -86.05375 313.5134375 -86.9375 315.3125 C-88.9175 315.8075 -88.9175 315.8075 -90.9375 316.3125 C-90.6075 312.3525 -90.2775 308.3925 -89.9375 304.3125 C-93.60730204 301.40078211 -93.60730204 301.40078211 -97.9375 300.3125 C-98.9275 303.2825 -99.9175 306.2525 -100.9375 309.3125 C-102.2575 309.3125 -103.5775 309.3125 -104.9375 309.3125 C-104.793125 308.6525 -104.64875 307.9925 -104.5 307.3125 C-104.2215625 305.8275 -104.2215625 305.8275 -103.9375 304.3125 C-103.59976563 303.07242187 -103.26203125 301.83234375 -102.9140625 300.5546875 C-102.57455454 297.77371319 -102.61458638 296.73956648 -104.32495117 294.47753906 C-106.38654114 292.65433257 -108.5097145 291.0358102 -110.75 289.4375 C-112.23575772 288.31521091 -113.72143827 287.19281964 -115.20703125 286.0703125 C-115.87323486 285.5870752 -116.53943848 285.10383789 -117.22583008 284.60595703 C-118.9375 283.3125 -118.9375 283.3125 -120.9375 281.3125 C-124.82084866 281.3125 -127.54702084 282.86031272 -130.9375 284.5625 Z " fill="#001535" transform="translate(293.9375,28.6875)"/>
<path d="M0 0 C3.28289059 6.44384525 4.14665553 12.94606921 5.125 20.0625 C5.38265137 21.88503296 5.38265137 21.88503296 5.64550781 23.74438477 C6.76306466 31.82931184 7.7872947 39.83396627 8 48 C8.02046387 48.7636084 8.04092773 49.5272168 8.06201172 50.31396484 C8.76924867 80.73684367 -3.12291412 95.04594369 -23.36474609 116.29443359 C-29.64733596 122.84716169 -36.08149754 129.11987662 -43 135 C-44.43279297 136.26650391 -44.43279297 136.26650391 -45.89453125 137.55859375 C-67.50847759 156.51113374 -67.50847759 156.51113374 -80.1875 158.5 C-83 158 -83 158 -85.046875 155.875 C-96.51918645 138.98775755 -95.18732294 108.90365362 -95.18530273 89.26318359 C-95.18750286 86.87189265 -95.20577131 84.48105447 -95.22460938 82.08984375 C-95.28074009 67.52656788 -94.38135143 58.45852778 -83.87890625 47.859375 C-65.23042387 30.37445729 -26.90415779 -2.63766253 0 0 Z M-30.7265625 37.59375 C-35.06332579 42.56454301 -35.41614105 46.54981372 -35 53 C-34.14974532 56.38618868 -33.1177564 59.69330398 -32 63 C-29.05615938 63.88107906 -27.56514089 64.25741006 -24.71875 62.9609375 C-16.32744948 57.49306515 -16.32744948 57.49306515 -12 49 C-11.37863996 42.08139494 -12.39784167 36.41246161 -15 30 C-21.20388306 30 -26.20700215 33.42184814 -30.7265625 37.59375 Z M-69.0625 64.1875 C-69.89910156 64.59355469 -70.73570313 64.99960938 -71.59765625 65.41796875 C-74.52609302 67.3464515 -76.1545637 69.00536019 -78 72 C-78.59441015 75.6001931 -78.59441015 75.6001931 -78.4375 79.4375 C-78.43621094 80.71496094 -78.43492188 81.99242188 -78.43359375 83.30859375 C-77.98030154 87.16770308 -76.94314225 89.66521741 -75 93 C-67.66164487 92.5413528 -61.96084183 89.46433025 -57 84 C-54.36614244 77.53507689 -56.06547741 69.4531155 -58 63 C-59.03096328 61.75508016 -59.03096328 61.75508016 -61.24609375 61.80078125 C-64.34525539 62.02497592 -66.29426072 62.7969625 -69.0625 64.1875 Z M-17.31640625 70.2578125 C-25.03080064 76.11025909 -25.03080064 76.11025909 -28.4375 84.6875 C-28.19917774 89.67320173 -26.61438771 94.31058809 -25 99 C-21.38571156 100.08105376 -21.38571156 100.08105376 -17.90234375 98.9609375 C-11.0332355 93.54866604 -11.0332355 93.54866604 -7.0625 85.9375 C-6.97371624 80.34412318 -8.44708046 75.34309603 -10 70 C-13.07697074 69.0340374 -14.42295652 68.68666442 -17.31640625 70.2578125 Z M-58.3046875 103.8203125 C-66.48478606 107.91702139 -66.48478606 107.91702139 -72 115 C-72.67052559 123.37607379 -72.58162858 129.84120535 -68 137 C-61.17912789 135.97747067 -56.18584875 132.23916213 -51.4375 127.375 C-48.70922999 120.9694965 -49.09165662 113.86871316 -51.3125 107.3125 C-53.20793281 103.59183559 -54.18783233 102.35499117 -58.3046875 103.8203125 Z " fill="#3C9AF9" transform="translate(131,37)"/>
<path d="M0 0 C9.44863908 6.65121591 11.1551976 20.83896026 13.00830078 31.50292969 C15.42687586 46.45065076 16.7412828 61.28699884 16.75 76.4375 C16.76224609 77.55769531 16.77449219 78.67789063 16.78710938 79.83203125 C16.82790738 103.4132766 8.02496787 115.07163148 -7.4375 131.9375 C-8.73880859 133.37802734 -8.73880859 133.37802734 -10.06640625 134.84765625 C-18.08025567 143.70136628 -26.26683726 152.38896961 -35.3671875 160.14453125 C-37.8202411 162.26896824 -40.18453147 164.47938637 -42.5625 166.6875 C-79.60066534 200.40500224 -79.60066534 200.40500224 -98.578125 200.15234375 C-106.8616083 199.52995088 -113.42140557 197.88646924 -119.4375 191.9375 C-129.60837187 172.86381302 -130.38549044 146.06822822 -132.4375 124.9375 C-132.53321289 123.968125 -132.62892578 122.99875 -132.72753906 122 C-133.51555114 113.07484531 -133.65683843 104.169734 -133.67773438 95.21582031 C-133.68753896 92.67741297 -133.71872426 90.13978462 -133.75 87.6015625 C-133.85568404 71.63681985 -130.15613439 62.8858981 -119.0625 51.1875 C-94.41518227 27.17121299 -35.94370544 -19.08874752 0 0 Z M-106.4375 48.9375 C-106.93620605 49.3691748 -107.43491211 49.80084961 -107.94873047 50.24560547 C-122.1041874 62.39326211 -122.1041874 62.39326211 -127.7121582 79.62084961 C-127.72077881 80.93061768 -127.72939941 82.24038574 -127.73828125 83.58984375 C-127.7438353 84.3142868 -127.74938934 85.03872986 -127.75511169 85.78512573 C-127.76692838 88.14862071 -127.7605849 90.51150454 -127.75 92.875 C-127.74850952 93.68995941 -127.74701904 94.50491882 -127.7454834 95.34457397 C-128.30927206 144.49332302 -128.30927206 144.49332302 -113.4375 189.9375 C-110.84233397 191.53352848 -110.84233397 191.53352848 -107.875 192.375 C-106.41900391 192.86806641 -106.41900391 192.86806641 -104.93359375 193.37109375 C-102.45561682 194.21074804 -102.45561682 194.21074804 -100.4375 192.9375 C-101.1490625 191.761875 -101.1490625 191.761875 -101.875 190.5625 C-103.83486749 186.01560742 -104.15660872 181.83856856 -104.4375 176.9375 C-103.4475 177.2675 -102.4575 177.5975 -101.4375 177.9375 C-100.15625 180.5546875 -100.15625 180.5546875 -98.9375 183.8125 C-97.10451332 189.01253416 -97.10451332 189.01253416 -93.4375 192.9375 C-80.3977245 193.49238406 -67.70652283 179.7845575 -58.4375 171.9375 C-57.51203369 171.16067871 -57.51203369 171.16067871 -56.56787109 170.36816406 C-44.12853287 159.92302091 -32.31634973 148.90853454 -20.79193115 137.46716309 C-19.73962218 136.42290045 -18.68583779 135.38012206 -17.63043213 134.33898926 C-1.72928434 118.63024784 10.61460343 105.09796205 10.80371094 81.94555664 C10.80823832 80.50537523 10.81113209 79.06518788 10.8125 77.625 C10.81350708 76.89296356 10.81451416 76.16092712 10.81555176 75.40670776 C11.05858325 40.31276801 11.05858325 40.31276801 -0.4375 7.9375 C-4.20576754 5.42532164 -5.78119609 5.87082615 -10.08984375 6.4453125 C-12.32387081 6.91367757 -14.17715937 7.5598347 -16.25 8.5 C-19.4375 9.9375 -19.4375 9.9375 -23.4375 9.9375 C-23.19140625 8.078125 -23.19140625 8.078125 -22.4375 5.9375 C-20.58984375 4.671875 -20.58984375 4.671875 -18.375 3.6875 C-17.64152344 3.35234375 -16.90804687 3.0171875 -16.15234375 2.671875 C-15.58644531 2.42953125 -15.02054687 2.1871875 -14.4375 1.9375 C-35.1014645 -11.83847633 -91.27210539 35.7610096 -106.4375 48.9375 Z " fill="#001434" transform="translate(143.4375,23.0625)"/>
<path d="M0 0 C8.02121247 4.38053574 15.85719821 9.15580809 23.40625 14.30859375 C27.718656 17.12075007 30.94034871 17.16589021 36 17 C36.66773438 16.84402344 37.33546875 16.68804687 38.0234375 16.52734375 C40.0625 16.0625 40.0625 16.0625 44 16 C49.52738594 19.71033723 52.35018206 26.78534835 54 33 C54.26878976 40.25732359 49.97892235 48.28020577 45.4921875 53.8828125 C44.125 55.25 44.125 55.25 42 57 C41.01 56.67 40.02 56.34 39 56 C37.90387497 53.33350808 37.15257865 50.628677 36.35546875 47.859375 C33.94679754 42.77825879 30.47174411 40.57715455 25.4140625 38.59375 C24.16367187 38.2328125 22.91328125 37.871875 21.625 37.5 C11.14181152 34.23003791 5.19110362 29.53121195 -2.19140625 21.5234375 C-6.97330706 17.22704261 -12.04835726 15.34565908 -18.4921875 15.5859375 C-24.74385322 16.61814399 -30.51347432 19.62289693 -36.01171875 22.66796875 C-43.16932529 26.60699143 -48.81195831 28.24781477 -57 27 C-59.47043007 26.18572417 -61.64425388 25.13075814 -64 24 C-68.35685677 23.1475715 -70.69285104 24.19772761 -74.3125 26.5 C-79.19326188 29.96965725 -83.62256973 33.92267725 -88 38 C-89.12864861 34.61405417 -89.00116807 34.27654852 -87.5 31.25 C-83.10796379 23.10830023 -76.62169506 18.16577866 -68 15 C-65.35672344 14.36626361 -62.71777592 13.76390889 -60.0625 13.1875 C-52.27408641 11.46674056 -47.1623546 8.07832708 -41 3 C-39.39120783 1.85194174 -37.76699074 0.72505291 -36.125 -0.375 C-35.44695312 -0.83648437 -34.76890625 -1.29796875 -34.0703125 -1.7734375 C-23.23630771 -8.1920743 -10.72283639 -5.35514166 0 0 Z " fill="#3C9BF9" transform="translate(314,53)"/>
<path d="M0 0 C1.67542976 0.28604898 3.34385343 0.61781233 5 1 C4.57235652 6.20947514 2.70081092 9.22115325 -0.5625 13.125 C-1.48870508 14.28013068 -2.41183913 15.43772987 -3.33203125 16.59765625 C-3.78916504 17.17273926 -4.24629883 17.74782227 -4.71728516 18.34033203 C-6.51818651 20.67046667 -8.13867542 23.09832684 -9.75 25.5625 C-44.13054606 78.07477421 -44.13054606 78.07477421 -58.24609375 85.76953125 C-61.38850601 87.80678084 -61.38850601 87.80678084 -61.5859375 91.671875 C-61.54630793 93.0324902 -61.47508093 94.39249197 -61.375 95.75 C-61.34792969 96.44738281 -61.32085937 97.14476562 -61.29296875 97.86328125 C-61.22254783 99.57685705 -61.11492913 101.28883302 -61 103 C-40.47818559 87.11956792 -24.64774834 64.69833443 -12.359375 41.96484375 C-11.91078125 41.31644531 -11.4621875 40.66804688 -11 40 C-10.01 40 -9.02 40 -8 40 C-7.05086884 42.52515759 -6.91842114 43.74727373 -7.7578125 46.34765625 C-19.31046816 69.28792962 -38.55193193 98.03836163 -61.4375 110.9375 C-64.66817128 111.90103354 -67.38384558 112.29208502 -70.72265625 112.56640625 C-71.71144775 112.64963135 -72.70023926 112.73285645 -73.71899414 112.81860352 C-74.47172607 112.87846436 -75.22445801 112.9383252 -76 113 C-75.98952637 114.26183105 -75.97905273 115.52366211 -75.96826172 116.82373047 C-75.93213101 121.49394914 -75.90912484 126.16415539 -75.89013672 130.83447266 C-75.88006329 132.85793127 -75.86640405 134.88137528 -75.84912109 136.90478516 C-75.82493153 139.80895589 -75.81353051 142.71293461 -75.8046875 145.6171875 C-75.79436493 146.52556366 -75.78404236 147.43393982 -75.77340698 148.36984253 C-75.77325592 149.21056305 -75.77310486 150.05128357 -75.77294922 150.91748047 C-75.768508 151.65916473 -75.76406677 152.400849 -75.75949097 153.16500854 C-76 155 -76 155 -78 157 C-78.99 157 -79.98 157 -81 157 C-82.1666372 154.66672559 -82.08993787 153.41763902 -82.02172852 150.82568359 C-82.00163223 149.96494232 -81.98153595 149.10420105 -81.96083069 148.21737671 C-81.93379562 147.28712677 -81.90676056 146.35687683 -81.87890625 145.3984375 C-81.84348976 143.97103745 -81.84348976 143.97103745 -81.80735779 142.51480103 C-81.73063367 139.4680522 -81.64664697 136.42155199 -81.5625 133.375 C-81.50928808 131.31251227 -81.45654762 129.25001231 -81.40429688 127.1875 C-81.27500668 122.12484184 -81.13920166 117.06239495 -81 112 C-81.79341797 112.01595215 -82.58683594 112.0319043 -83.40429688 112.04833984 C-91.218359 112.13697903 -98.75780108 111.64941309 -106.5 110.625 C-107.54414062 110.49867188 -108.58828125 110.37234375 -109.6640625 110.2421875 C-118.71043509 109.08536236 -118.71043509 109.08536236 -123 107 C-123.8125 104.875 -123.8125 104.875 -124 103 C-116.65943962 102.78087879 -109.53476703 103.65840933 -102.25 104.5 C-90.43727646 105.80605307 -78.87347924 106.37320598 -67 106 C-67.33 100.72 -67.66 95.44 -68 90 C-70.00320312 90.05220703 -70.00320312 90.05220703 -72.046875 90.10546875 C-92.03832222 90.45882105 -111.69056566 88.4494882 -131.375 85 C-132.71123413 84.76941895 -132.71123413 84.76941895 -134.07446289 84.53417969 C-138.83332262 83.64041892 -142.74756914 82.43787567 -147 80 C-146.67 78.68 -146.34 77.36 -146 76 C-136.55406778 76.68511768 -127.23107722 78.08094449 -117.875 79.5 C-105.05271342 81.43559533 -92.48951787 83.21193352 -79.5 83.4375 C-78.42363281 83.48326172 -77.34726563 83.52902344 -76.23828125 83.57617188 C-68.43013326 83.68554301 -63.92447161 82.06738979 -58 77 C-57.11570312 76.2471875 -56.23140625 75.494375 -55.3203125 74.71875 C-39.66256248 58.89383539 -27.16561309 39.94751022 -14.94140625 21.43359375 C-11.9460785 16.90194301 -8.88994443 12.41369094 -5.8125 7.9375 C-5.34247559 7.25220215 -4.87245117 6.5669043 -4.38818359 5.86083984 C-1.12712774 1.12712774 -1.12712774 1.12712774 0 0 Z " fill="#001434" transform="translate(175,221)"/>
<path d="M0 0 C1.59714844 0.04060547 1.59714844 0.04060547 3.2265625 0.08203125 C12.88199284 0.44528166 23.22226194 1.33824649 30.875 7.75 C32.68003436 11.36006871 32.54388324 14.87722227 31.875 18.75 C28.66022118 26.25786903 23.82094769 32.23542638 18.26171875 38.125 C15.626589 41.02321144 13.23603637 44.06684173 10.875 47.1875 C3.62021966 56.74680578 -3.97584054 65.93560304 -12.125 74.75 C-12.68574219 75.38808594 -13.24648437 76.02617187 -13.82421875 76.68359375 C-21.98896254 85.56003434 -32.07242615 90.19043156 -43.96875 90.92578125 C-58.40829028 91.27218436 -78.76781482 91.21964904 -90.375 81.625 C-93.82280957 78.02047181 -94.61957504 76.0620066 -94.51953125 71.0234375 C-93.18933398 63.35834038 -86.56469331 58.08107117 -80.97265625 53.2734375 C-77.67465642 50.3509301 -74.59061402 47.26338171 -71.5 44.125 C-67.42665609 40.00265079 -63.30280649 36.04328334 -58.8828125 32.2890625 C-57.04572976 30.6805945 -55.33592213 28.99161132 -53.625 27.25 C-37.89580659 11.34486483 -23.12020139 -0.90398892 0 0 Z M-49.43261719 32.15478516 C-51.72638267 34.31685436 -54.07781617 36.41031134 -56.4375 38.5 C-60.70913239 42.3111745 -64.72826645 46.33424478 -68.75 50.40625 C-70.85672924 52.48525911 -73.00615218 54.44669328 -75.25 56.375 C-84.2938118 63.62993217 -84.2938118 63.62993217 -89.125 73.75 C-80.79745844 83.37871993 -66.56339574 83.91046615 -54.58886719 84.97558594 C-42.27127963 85.82623479 -33.45876125 84.56042805 -23.4921875 76.6640625 C-20.94206106 74.44147524 -18.52852885 72.12965273 -16.125 69.75 C-15.38765625 69.06164062 -14.6503125 68.37328125 -13.890625 67.6640625 C-8.36450799 62.39269557 -3.7323235 56.6058579 0.91015625 50.5703125 C4.04585948 46.49991835 7.30238953 42.53340134 10.5625 38.5625 C20.61253338 27.71774128 20.61253338 27.71774128 26.1875 14.8125 C26.16990339 11.75738635 26.16990339 11.75738635 24.375 10 C16.72232553 6.17366276 8.26908843 6.12795372 -0.125 5.75 C-1.34574219 5.68425781 -2.56648438 5.61851562 -3.82421875 5.55078125 C-23.50123165 4.93388031 -36.05909866 19.41792956 -49.43261719 32.15478516 Z " fill="#001434" transform="translate(136.125,197.25)"/>
<path d="M0 0 C1.67542976 0.28604898 3.34385343 0.61781233 5 1 C2.06590616 19.89144628 -3.39789261 45.79340545 -18.9296875 58.58984375 C-20.57878617 59.78527471 -22.28445595 60.90205181 -24 62 C-22.39643394 67.30472611 -20.02004221 72.03026941 -17.390625 76.87695312 C-15.54862036 80.41004186 -14.59204458 83.00354786 -15 87 C-17.3190918 86.79321289 -17.3190918 86.79321289 -20 86 C-21.57739258 83.95874023 -21.57739258 83.95874023 -22.89453125 81.30859375 C-23.37470703 80.36435547 -23.85488281 79.42011719 -24.34960938 78.44726562 C-25.07374023 76.95743164 -25.07374023 76.95743164 -25.8125 75.4375 C-26.31458984 74.44041016 -26.81667969 73.44332031 -27.33398438 72.41601562 C-28.57191388 69.95194642 -29.78805479 67.47695282 -31 65 C-35.29 65.33 -39.58 65.66 -44 66 C-43.54560547 67.01425049 -43.09121094 68.02850098 -42.62304688 69.07348633 C-40.94019284 72.83369444 -39.2646503 76.59712258 -37.59130859 80.36157227 C-36.86576484 81.9910429 -36.13823568 83.619631 -35.40869141 85.24731445 C-34.36098583 87.5857648 -33.32043873 89.92728597 -32.28125 92.26953125 C-31.78908997 93.36186821 -31.78908997 93.36186821 -31.2869873 94.47627258 C-29.9608859 97.48110186 -29 99.67785451 -29 103 C-30.32 103.33 -31.64 103.66 -33 104 C-37.27814821 97.63436945 -40.43247982 90.99059188 -43.50415039 83.97070312 C-44.32141163 82.1046521 -45.14926789 80.24356352 -45.97851562 78.3828125 C-50 69.27077834 -50 69.27077834 -50 67 C-50.59468582 67.00222061 -51.18937164 67.00444122 -51.80207825 67.00672913 C-57.98238526 67.02882444 -64.16268108 67.04392442 -70.34301758 67.05493164 C-72.6506394 67.05996551 -74.95825803 67.06679305 -77.26586914 67.07543945 C-80.57959786 67.08754635 -83.89328448 67.09323773 -87.20703125 67.09765625 C-88.2414888 67.10281754 -89.27594635 67.10797882 -90.3417511 67.11329651 C-91.3025206 67.11337204 -92.2632901 67.11344757 -93.25317383 67.11352539 C-94.09922684 67.115746 -94.94527985 67.11796661 -95.81697083 67.12025452 C-98 67 -98 67 -101 66 C-101.13124268 66.7326709 -101.26248535 67.4653418 -101.39770508 68.22021484 C-103.77474426 79.19101669 -109.23556106 92.96835899 -116 102 C-118.171875 103.2734375 -118.171875 103.2734375 -120 104 C-120.66 103.34 -121.32 102.68 -122 102 C-121.62230593 97.68425436 -119.79427225 93.86824538 -118.05859375 89.94921875 C-117.77146011 89.29041214 -117.48432648 88.63160553 -117.18849182 87.95283508 C-116.27611147 85.86233508 -115.35692318 83.77491066 -114.4375 81.6875 C-113.81530233 80.26517199 -113.19355266 78.8426479 -112.57226562 77.41992188 C-111.05335398 73.94432338 -109.52833217 70.47146568 -108 67 C-109.98 66.34 -111.96 65.68 -114 65 C-114 63.68 -114 62.36 -114 61 C-111.05097162 60.01699054 -109.32236644 59.9108789 -106.26342773 59.99414062 C-105.30069443 60.0174646 -104.33796112 60.04078857 -103.34605408 60.06481934 C-102.30244217 60.09499146 -101.25883026 60.12516357 -100.18359375 60.15625 C-97.95117359 60.209707 -95.71875165 60.26308987 -93.48632812 60.31640625 C-89.98504246 60.4064261 -86.48383325 60.49874925 -82.98266602 60.59326172 C-50.37500703 63.07578381 -50.37500703 63.07578381 -21.26953125 51.4921875 C-9.02498745 39.00437462 -5.92355633 19.88503221 -1.73681641 3.53759766 C-1 1 -1 1 0 0 Z " fill="#001434" transform="translate(369,275)"/>
<path d="M0 0 C1.65 0.33 3.3 0.66 5 1 C10.68433712 19.84199054 12.24472287 39.45405556 12.3125 59.0625 C12.31797852 60.20879883 12.32345703 61.35509766 12.32910156 62.53613281 C12.12861659 85.97904854 -1.05155412 98.65294296 -16.25 114.9375 C-17.22332275 115.98369507 -17.22332275 115.98369507 -18.21630859 117.05102539 C-22.00968623 121.07011911 -25.94265248 124.79775345 -30.13818359 128.39428711 C-31.77851494 129.80898148 -33.3725738 131.253493 -34.94921875 132.73828125 C-64.65121015 160.66069541 -64.65121015 160.66069541 -78.8125 161.125 C-79.864375 161.08375 -80.91625 161.0425 -82 161 C-82 159.68 -82 158.36 -82 157 C-81.41734375 156.87625 -80.8346875 156.7525 -80.234375 156.625 C-64.96114075 152.78267692 -52.81885158 140.59687889 -41.4609375 130.2421875 C-39.83064445 128.75680939 -38.1900692 127.28263272 -36.5390625 125.8203125 C-27.46032413 117.77259805 -18.76531241 109.33390552 -11 100 C-10.53916016 99.46358887 -10.07832031 98.92717773 -9.60351562 98.37451172 C-7.98998432 96.49222724 -6.40015787 94.59163849 -4.8125 92.6875 C-4.04498413 91.79949707 -4.04498413 91.79949707 -3.26196289 90.89355469 C4.80546523 81.05902592 5.67398843 70.54060504 5.5 58.25 C5.49612274 57.5194339 5.49224548 56.7888678 5.48825073 56.03616333 C5.3968102 41.20129391 3.701105 26.75136834 1.45751953 12.10107422 C0.8635947 8.07544283 0.41392337 4.04773488 0 0 Z " fill="#001434" transform="translate(138,39)"/>
<path d="M0 0 C5.26181719 5.54623974 6.21669464 10.27577477 6.36328125 17.6953125 C6 20 6 20 4.83203125 21.6875 C2.45401504 23.3911534 0.18121466 24.05561432 -2.625 24.875 C-6.70117934 26.14511385 -10.21794478 27.54830349 -13.875 29.75 C-17.42799801 31.82151328 -19.81244499 32.85654534 -24 32 C-27.949042 29.57672423 -29.8094566 27.46453774 -31 23 C-32.6956969 15.43689168 -31.68101043 8.98500377 -28 2.140625 C-21.01966021 -7.65124054 -8.73446164 -6.04693498 0 0 Z M-22 5 C-25.83302955 9.44631427 -26.39294004 13.20413441 -26 19 C-24.82535799 22.35205607 -24.82535799 22.35205607 -23 25 C-22.01 25.33 -21.02 25.66 -20 26 C-17.69 24.68 -15.38 23.36 -13 22 C-15.31 16.39 -17.62 10.78 -20 5 C-20.66 5 -21.32 5 -22 5 Z " fill="#001434" transform="translate(318,93)"/>
<path d="M0 0 C5.59096051 4.92536997 7.02741555 9.71971313 7.83984375 16.8828125 C7.55333351 20.12298282 6.65074509 21.77390805 4.625 24.3125 C2.05859375 25.5 2.05859375 25.5 -0.9375 26.3125 C-5.15839758 27.55784342 -8.8776396 28.97060273 -12.75 31.0625 C-16.45884291 32.9823017 -19.12985979 34.2221729 -23.375 33.3125 C-27.9336502 30.31681558 -29.18247134 25.39370907 -30.375 20.3125 C-31.12800043 13.15899591 -29.05150217 7.92587103 -25.25 2 C-17.57401831 -5.17537419 -8.99871895 -4.49935948 0 0 Z M-18.375 4.3125 C-19.179375 5.26125 -19.98375 6.21 -20.8125 7.1875 C-21.49119141 7.98800781 -21.49119141 7.98800781 -22.18359375 8.8046875 C-24.93102141 12.28175988 -24.69440064 15.53555296 -24.67578125 19.82421875 C-24.26373743 23.23294492 -22.84282052 24.99891826 -20.375 27.3125 C-17.2918649 26.11350302 -14.31220508 24.83549523 -11.375 23.3125 C-11.99542389 19.04628623 -12.96175617 15.09300867 -14.3125 11 C-14.65152344 9.95199219 -14.99054688 8.90398437 -15.33984375 7.82421875 C-16.11202807 5.17042563 -16.11202807 5.17042563 -18.375 4.3125 Z " fill="#001434" transform="translate(256.375,113.6875)"/>
<path d="M0 0 C2.42580035 2.02150029 4.5131568 4.04112729 6.6875 6.3125 C13.41525858 13.23432854 21.87247959 18.77006275 31.5 20.3125 C35.91723741 21.23429412 38.18837616 22.87209827 41 26.5 C41 27.16 41 27.82 41 28.5 C28.65629698 26.71649918 17.58440911 22.64806969 7.79296875 14.7109375 C4.44968143 12.07245129 2.29718123 10.5149292 -2.0546875 10.46484375 C-6.36648362 11.10265222 -9.8620168 11.75821647 -13.546875 14.16015625 C-16.6096399 15.83297211 -17.69556473 15.28996656 -21 14.5 C-23.4833611 15.02423113 -23.4833611 15.02423113 -26 15.9375 C-35.55741679 18.7250799 -44.15421129 18.03660264 -53.58203125 15.1796875 C-60.52452946 13.22816135 -66.41319276 15.27347361 -73 17.5 C-71.83752017 16.30332958 -70.66951528 15.11160711 -69.4765625 13.9453125 C-68.04744838 12.54644418 -66.64809539 11.11737029 -65.25 9.6875 C-61.00708225 6.83168997 -57.97677825 6.66033267 -53 7.5 C-50.66666667 8.5 -48.33333333 9.5 -46 10.5 C-39.29089427 11.42820152 -34.38561376 9.82322943 -28.5 6.75 C-27.0117707 6.01551973 -25.52348998 5.28114364 -24.03515625 4.546875 C-22.68922607 3.86631716 -21.34407821 3.18420814 -20 2.5 C-13.14340868 -0.96158008 -7.45396079 -3.72698039 0 0 Z " fill="#3B98F6" transform="translate(305,74.5)"/>
<path d="M0 0 C-0.31407304 3.04098878 -0.54218471 4.57364377 -2.8190918 6.6940918 C-3.60453369 7.19078369 -4.38997559 7.68747559 -5.19921875 8.19921875 C-6.50789917 9.04528687 -6.50789917 9.04528687 -7.84301758 9.90844727 C-8.78169678 10.49553467 -9.72037598 11.08262207 -10.6875 11.6875 C-12.62341806 12.93852372 -14.55831325 14.19113171 -16.4921875 15.4453125 C-17.43932617 16.05407227 -18.38646484 16.66283203 -19.36230469 17.29003906 C-28.09627461 22.95208324 -36.37826092 29.1839707 -44.5 35.6875 C-45.15911377 36.21029541 -45.81822754 36.73309082 -46.49731445 37.27172852 C-54.68215971 43.92826144 -60.39381158 50.47295653 -61.5625 61.23828125 C-62.00672692 65.60480462 -62.1914223 69.92491719 -62.1875 74.3125 C-62.18814453 75.09214111 -62.18878906 75.87178223 -62.18945312 76.67504883 C-62.08730339 88.80649069 -60.97800631 100.91407891 -60 113 C-61.98 113.495 -61.98 113.495 -64 114 C-70.17373582 103.88337407 -68.22281101 87.24170245 -68.29754639 75.71246338 C-68.30742584 74.20945527 -68.32186732 72.70646944 -68.34112549 71.20355225 C-68.47762934 59.01541772 -67.84374855 48.20089993 -59 39 C-46.65992936 27.56415868 -32.82830654 17.78131864 -18.875 8.4375 C-17.98619141 7.84155029 -17.09738281 7.24560059 -16.18164062 6.6315918 C-4.10134881 -1.36711627 -4.10134881 -1.36711627 0 0 Z " fill="#001434" transform="translate(93,43)"/>
<path d="M0 0 C-0.1015625 1.78515625 -0.1015625 1.78515625 -1 4 C-3.12118927 5.317338 -5.12827865 6.38072366 -7.375 7.4375 C-21.97104286 14.76222802 -35.3475262 24.72034576 -48 35 C-48.5971582 35.48355957 -49.19431641 35.96711914 -49.80957031 36.46533203 C-62.53343348 46.11493485 -62.53343348 46.11493485 -69 60 C-69.15538343 63.16009821 -69.16396906 66.3169711 -69.16796875 69.48046875 C-69.17129715 70.40732986 -69.17462555 71.33419098 -69.17805481 72.28913879 C-69.18311301 74.25517279 -69.18546348 76.22121536 -69.18530273 78.18725586 C-69.18745947 81.13215246 -69.20554338 84.0766555 -69.22460938 87.02148438 C-69.25503759 97.55275763 -68.82187225 107.82225159 -67.44311523 118.26635742 C-66.89359628 122.89654665 -66.84984886 127.3453147 -67 132 C-68.875 131.875 -68.875 131.875 -71 131 C-73.04537092 126.18302708 -73.61141722 121.36286272 -74.10546875 116.20703125 C-74.18935349 115.3427803 -74.27323822 114.47852936 -74.35966492 113.58808899 C-75.26023375 103.38380678 -75.33659744 93.17851758 -75.31567383 82.94067383 C-75.3124592 79.64567533 -75.33628024 76.35153247 -75.36132812 73.05664062 C-75.36359683 70.93750111 -75.36430662 68.81835923 -75.36328125 66.69921875 C-75.372491 65.72627365 -75.38170074 64.75332855 -75.39118958 63.75090027 C-75.34515996 56.98231411 -74.47390196 52.08206952 -70.125 46.6640625 C-64.33371158 41.10698059 -58.30604551 35.9643337 -52 31 C-50.989375 30.195625 -49.97875 29.39125 -48.9375 28.5625 C-36.05727212 18.405748 -22.43224511 9.7776559 -8 2 C-6.90751953 1.38125 -6.90751953 1.38125 -5.79296875 0.75 C-4 0 -4 0 0 0 Z " fill="#031B3E" transform="translate(118,46)"/>
<path d="M0 0 C0.78375 0.04125 1.5675 0.0825 2.375 0.125 C2.87 1.115 2.87 1.115 3.375 2.125 C2.4375 4.25 2.4375 4.25 1.375 6.125 C3.355 6.455 5.335 6.785 7.375 7.125 C7.045 8.445 6.715 9.765 6.375 11.125 C5.72015625 11.10695312 5.0653125 11.08890625 4.390625 11.0703125 C-1.97187526 11.48369528 -5.35770871 13.30875335 -9.49511719 17.97998047 C-13.51399776 22.8389448 -17.19326402 27.83542114 -20.625 33.125 C-19.305 33.785 -17.985 34.445 -16.625 35.125 C-16.625 36.115 -16.625 37.105 -16.625 38.125 C-17.24246094 38.06957031 -17.85992187 38.01414063 -18.49609375 37.95703125 C-21.51951857 37.93402193 -23.74688321 38.14820897 -26.625 39.125 C-29.23194947 41.79502083 -31.2622381 44.54926557 -33.32421875 47.65625 C-36.28823316 50.83665255 -38.37625918 50.91949863 -42.625 51.125 C-42.10618887 46.9525894 -40.91348726 44.87083179 -38.0625 41.8125 C-37.42183594 41.11511719 -36.78117187 40.41773438 -36.12109375 39.69921875 C-35.38052734 38.91998047 -35.38052734 38.91998047 -34.625 38.125 C-37.595 37.135 -40.565 36.145 -43.625 35.125 C-43.625 33.805 -43.625 32.485 -43.625 31.125 C-40.18616143 29.96800759 -37.88553205 30.40283341 -34.375 31.125 C-30.88603731 31.48177308 -29.29604171 31.6043155 -26.41015625 29.54296875 C-24.30880932 27.16699034 -22.46532414 24.70817304 -20.625 22.125 C-19.13232232 20.2649335 -17.63250025 18.41057387 -16.125 16.5625 C-14.95583611 15.0853064 -13.78822516 13.60687461 -12.625 12.125 C-13.945 11.465 -15.265 10.805 -16.625 10.125 C-16.295 8.805 -15.965 7.485 -15.625 6.125 C-8.875 5 -8.875 5 -6.625 6.125 C-6.191875 5.196875 -6.191875 5.196875 -5.75 4.25 C-4.16515329 1.25640067 -3.47581022 0.16551477 0 0 Z " fill="#001434" transform="translate(147.625,210.875)"/>
<path d="M0 0 C3.3125 0.625 3.3125 0.625 5.6875 2.9375 C8.40870051 7.437947 8.80730369 11.46762311 8.3125 16.625 C6.49660233 23.20762904 2.97560513 26.23579942 -2.6875 29.625 C-7.48295445 31.82291662 -11.4965583 32.0369795 -16.6875 31.625 C-20.66714703 29.89471868 -21.85562785 28.40323631 -23.6875 24.625 C-24.533125 24.00625 -25.37875 23.3875 -26.25 22.75 C-28.6875 20.625 -28.6875 20.625 -29.8125 17.6875 C-29.6875 14.625 -29.6875 14.625 -27.609375 12.05859375 C-24.30404185 9.30562242 -21.977533 8.57284121 -17.8125 7.625 C-13.54387916 6.53892754 -10.18822589 5.66317407 -6.75 2.875 C-3.6875 0.625 -3.6875 0.625 0 0 Z M-1.6875 6.625 C-2.51636719 7.23214844 -3.34523438 7.83929688 -4.19921875 8.46484375 C-8.34565395 11.23197697 -12.81208077 12.41551941 -17.56054688 13.77929688 C-19.29736403 14.31090492 -20.99720485 14.96013668 -22.6875 15.625 C-23.0175 16.615 -23.3475 17.605 -23.6875 18.625 C-21.3775 19.285 -19.0675 19.945 -16.6875 20.625 C-16.6875 22.275 -16.6875 23.925 -16.6875 25.625 C-13.2259907 26.77883643 -11.70764381 26.63183451 -8.1875 25.4375 C-4.23790483 23.39217393 -1.00879987 21.4496522 1.625 17.8125 C2.59628195 14.72205745 2.43612319 11.83920305 2.3125 8.625 C0.9925 7.965 -0.3275 7.305 -1.6875 6.625 Z " fill="#001434" transform="translate(296.6875,130.375)"/>
<path d="M0 0 C4.95759294 2.79327065 7.52129468 5.86875567 9.65625 11.1171875 C10.43475723 15.30166388 9.95794118 18.46352327 8.15625 22.3671875 C4.39742153 26.50189882 0.70712245 28.69816335 -4.875 29.46484375 C-10.07605665 29.64500083 -13.97427795 29.16565637 -18.34375 26.1171875 C-22.04978038 22.34066198 -24.48314853 19.22422256 -24.65625 13.8671875 C-24.58116009 9.18908625 -23.55250482 6.65504538 -20.34375 3.1171875 C-14.27466134 -1.58945268 -7.33025244 -2.76106175 0 0 Z M-17.28125 8.3671875 C-19.11257526 11.38348792 -18.81632466 13.69102123 -18.34375 17.1171875 C-16.1710078 19.74734911 -14.39701212 21.59055644 -11.34375 23.1171875 C-6.66993637 23.50667197 -4.2033294 23.50790541 0.09375 21.5546875 C2.89266742 19.2622331 2.89266742 19.2622331 3.84375 15.7421875 C3.64585697 11.91625556 2.92544904 10.10894728 0.2421875 7.3515625 C-6.02621649 2.47270619 -11.16575031 4.42170383 -17.28125 8.3671875 Z " fill="#3D9CFB" transform="translate(341.34375,232.8828125)"/>
<path d="M0 0 C3.43361601 3.69113721 4.31307724 6.036349 4.875 11 C4.35132865 16.14943494 2.94963946 20.57741452 -1.078125 24.046875 C-5.54184953 26.82162268 -10.26202842 28.33137962 -15.54296875 27.28125 C-20.81546045 25.61937644 -23.35094724 23.17251453 -26.5 18.6875 C-28.23045446 15.22659109 -27.84579074 11.47839112 -27.5 7.6875 C-25.67614658 2.41859013 -22.96204714 -0.189067 -18.5 -3.3125 C-12.20786131 -5.09407118 -5.22236612 -4.06754315 0 0 Z M-20.5 5.6875 C-22.43886856 8.21645899 -22.50575405 9.41705988 -22.4375 12.625 C-21.22780689 16.57666417 -19.78213651 18.19022222 -16.5 20.6875 C-13.09471004 21.93588381 -13.09471004 21.93588381 -9.5 21.6875 C-5.75330759 19.70811533 -3.85322631 18.21733947 -1.5 14.6875 C-1.00945422 10.92664899 -1.18733529 9.19702767 -3.1875 5.9375 C-9.02398132 0.25876142 -14.28665592 0.82488289 -20.5 5.6875 Z " fill="#3D9CFB" transform="translate(357.5,180.3125)"/>
<path d="M0 0 C3.9439993 1.97199965 6.83491548 4.12563823 9 8 C10.45441876 12.57103038 9.88210811 15.79021691 8.08984375 20.1015625 C5.76370994 24.15353752 2.42591161 26.52469613 -2 28 C-8.52093209 28.77088538 -12.69731531 27.89584998 -18 24 C-20.61051468 19.81793802 -20.65572522 15.79246089 -20 11 C-16.44168486 1.15212243 -9.81847718 -1.44177345 0 0 Z M-12 8 C-14.22285073 11.26926446 -14.22285073 11.26926446 -15 15 C-13.72140667 18.02824735 -12.30989225 19.69010775 -10 22 C-5.01528338 22.47025629 -1.99141294 22.07908998 2 19 C4.34522935 16.11487022 4.34522935 16.11487022 3.875 12.5 C3.30659326 9.02487222 3.30659326 9.02487222 1.25 7.125 C-4.01269621 4.49365189 -7.05168638 4.55769487 -12 8 Z " fill="#3D9CFB" transform="translate(260,185)"/>
<path d="M0 0 C-0.33 1.65 -0.66 3.3 -1 5 C-1.9178125 5.03738281 -2.835625 5.07476562 -3.78125 5.11328125 C-15.2721328 5.48012343 -15.2721328 5.48012343 -25.0625 10.875 C-26.27404876 13.62117719 -25.8624524 15.17742852 -25 18 C-18.45980079 20.12936719 -11.79759451 21.03913702 -5 22 C-4.4375 23.9375 -4.4375 23.9375 -4 26 C-5.86898409 27.86898409 -8.87501818 27.21746228 -11.375 27.25 C-17.79469835 27.19754077 -24.1219748 26.78816063 -30 24 C-32.44489736 21.38315381 -32.96382799 20.3195194 -33.375 16.6875 C-32.75577109 10.59841573 -31.12219478 6.58360408 -26.375 2.6875 C-18.92663371 -2.42813619 -8.25322502 -4.12661251 0 0 Z " fill="#001434" transform="translate(158,165)"/>
<path d="M0 0 C0.66 0.33 1.32 0.66 2 1 C2 3.64 2 6.28 2 9 C1.29875 8.484375 0.5975 7.96875 -0.125 7.4375 C-2.91148898 5.7763932 -2.91148898 5.7763932 -6 6 C-9.91240083 7.30413361 -11.57902228 8.65335433 -14 12 C-14.71450114 17.62669648 -14.13011438 21.13093319 -11 26 C-7.91111478 28.05925681 -7.29064073 28.2390374 -3.8125 28.125 C-2.554375 28.08375 -1.29625 28.0425 0 28 C-0.875 33.875 -0.875 33.875 -2 35 C-6.13719492 35.40560735 -8.4806198 35.27496599 -12.1875 33.3125 C-17.11231214 29.26321002 -20.53089227 25.17221569 -21.2578125 18.70703125 C-21.5226201 12.87243714 -20.98810853 8.43747288 -17 4 C-11.60874298 -0.9044618 -7.00860095 -1.8321239 0 0 Z " fill="#3D9BFA" transform="translate(383,207)"/>
<path d="M0 0 C7.7255357 -0.23767977 14.96264626 0.38212841 22.5625 1.75 C23.52607422 1.90726562 24.48964844 2.06453125 25.48242188 2.2265625 C38.65789984 4.53649121 38.65789984 4.53649121 44 8 C45.27563477 10.63574219 45.27563477 10.63574219 46 13 C41.75383118 14.21319109 39.25451085 13.70005725 35.125 12.25 C23.69779953 8.50971994 11.87735647 6.70248786 0 5 C0 3.35 0 1.7 0 0 Z " fill="#001434" transform="translate(51,265)"/>
<path d="M0 0 C4.89053676 2.41518599 8.93986047 6.09474022 11.37109375 11.01171875 C12.84532182 15.67247706 13.14304594 20.49989101 11.08203125 25.0078125 C9.875 26.6875 9.875 26.6875 7 29 C3.6875 28.875 3.6875 28.875 1 28 C0.67 27.01 0.34 26.02 0 25 C0.804375 24.649375 1.60875 24.29875 2.4375 23.9375 C5.31585761 22.15953364 5.31585761 22.15953364 6 18.625 C6 14.58455961 5.50501917 13.10967897 3 10 C0.20235595 7.38886556 -2.15022816 6.18779375 -6 6 C-8.69519712 7.30027975 -8.69519712 7.30027975 -11 9 C-11.99 9.495 -11.99 9.495 -13 10 C-13 7.36 -13 4.72 -13 2 C-8.6375738 -0.43667049 -4.91451659 -0.91188896 0 0 Z " fill="#3C9BF9" transform="translate(234,221)"/>
<path d="M0 0 C1.0828125 0.37125 1.0828125 0.37125 2.1875 0.75 C1.878125 1.348125 1.56875 1.94625 1.25 2.5625 C0.08540296 4.83956772 0.08540296 4.83956772 -0.8125 7.75 C0.8375 7.75 2.4875 7.75 4.1875 7.75 C4.1875 9.07 4.1875 10.39 4.1875 11.75 C3.8575 12.08 3.5275 12.41 3.1875 12.75 C1.47828945 12.63762976 -0.22992237 12.5099312 -1.9375 12.375 C-6.24763881 12.28737527 -6.24763881 12.28737527 -9.921875 14.3046875 C-11.07678596 15.57713364 -12.20718873 16.87237422 -13.30859375 18.19140625 C-14.8125 19.75 -14.8125 19.75 -17.75 20.1875 C-18.7709375 19.9709375 -18.7709375 19.9709375 -19.8125 19.75 C-19.3145163 16.01512223 -18.93758244 13.93762365 -16.8125 10.75 C-17.4725 10.42 -18.1325 10.09 -18.8125 9.75 C-18.4825 8.43 -18.1525 7.11 -17.8125 5.75 C-16.905 5.605625 -15.9975 5.46125 -15.0625 5.3125 C-13.99 5.126875 -12.9175 4.94125 -11.8125 4.75 C-11.131875 4.646875 -10.45125 4.54375 -9.75 4.4375 C-7.5628486 3.79493101 -7.5628486 3.79493101 -5.375 1.625 C-2.8125 -0.25 -2.8125 -0.25 0 0 Z " fill="#001434" transform="translate(108.8125,221.25)"/>
<path d="M0 0 C0.99 0.33 1.98 0.66 3 1 C-0.28308824 23.28308824 -0.28308824 23.28308824 -2 25 C-5.13353265 25.39564806 -6.51023736 25.37523639 -9.0546875 23.42578125 C-9.65539062 22.72839844 -10.25609375 22.03101562 -10.875 21.3125 C-11.49117188 20.62800781 -12.10734375 19.94351563 -12.7421875 19.23828125 C-14 17 -14 17 -13.6953125 14.23046875 C-13.46585937 13.49441406 -13.23640625 12.75835937 -13 12 C-9.31245243 12.49831724 -7.39509338 13.10067643 -5 16 C-5.061875 15.01 -5.12375 14.02 -5.1875 13 C-5.19669363 8.49512291 -3.83436565 5.09204644 -2 1 C-1.34 0.67 -0.68 0.34 0 0 Z " fill="#001434" transform="translate(113,70)"/>
<path d="M0 0 C1.65 0.33 3.3 0.66 5 1 C3.09938633 16.92043451 3.09938633 16.92043451 0 23 C-1.90625 23.83984375 -1.90625 23.83984375 -4 24 C-7.36307715 21.57858445 -9.69809507 19.4528574 -12 16 C-11.625 13.3125 -11.625 13.3125 -11 11 C-9.68 11 -8.36 11 -7 11 C-6.34 12.32 -5.68 13.64 -5 15 C-2.85408135 12.85408135 -3.05366875 8.56874718 -2.59765625 5.6640625 C-2 3 -2 3 0 0 Z " fill="#001434" transform="translate(116,109)"/>
<path d="M0 0 C1.67542976 0.28604898 3.34385343 0.61781233 5 1 C4.70854884 9.35007584 3.25803064 16.30195552 0 24 C-3.13595379 24.32553153 -4.52487 24.37215505 -7.0546875 22.390625 C-7.65539063 21.68421875 -8.25609375 20.9778125 -8.875 20.25 C-9.49117187 19.55390625 -10.10734375 18.8578125 -10.7421875 18.140625 C-12 16 -12 16 -11.6953125 13.734375 C-11.46585938 13.16203125 -11.23640625 12.5896875 -11 12 C-9.68 12 -8.36 12 -7 12 C-5.25 14 -5.25 14 -4 16 C-3.79503906 14.92878906 -3.59007812 13.85757813 -3.37890625 12.75390625 C-3.10697291 11.35673149 -2.83482648 9.95959819 -2.5625 8.5625 C-2.42779297 7.85544922 -2.29308594 7.14839844 -2.15429688 6.41992188 C-1.11328125 1.11328125 -1.11328125 1.11328125 0 0 Z " fill="#001434" transform="translate(67,102)"/>
<path d="M0 0 C2.5 0.875 2.5 0.875 5 3 C5.29465175 5.57270561 5.18665685 7.94804738 4.98046875 10.52734375 C5.00225892 13.28597982 5.53052394 14.69082333 7 17 C10.23162551 19.30830393 13.1189265 19.17641243 17 19 C17.66 20.65 18.32 22.3 19 24 C17.21066124 25.78933876 14.6698379 25.25643059 12.25 25.3125 C8.26881262 25.27940224 6.39258938 25.21985005 2.875 23.25 C-0.88420727 18.73895127 -1.29280607 15.16129118 -1.1875 9.375 C-1.18685547 8.694375 -1.18621094 8.01375 -1.18554688 7.3125 C-1.14080577 2.28161154 -1.14080577 2.28161154 0 0 Z " fill="#3C9BF9" transform="translate(360,152)"/>
<path d="M0 0 C0.99 0.33 1.98 0.66 3 1 C2.67 2.98 2.34 4.96 2 7 C4.475 7.495 4.475 7.495 7 8 C6.67 9.32 6.34 10.64 6 12 C3.11851388 12.74095357 1.34740778 13.09320696 -1.5625 12.3125 C-2.7690625 12.1578125 -2.7690625 12.1578125 -4 12 C-5.35432675 13.31200404 -6.68733482 14.64631404 -8 16 C-10.75 16.25 -10.75 16.25 -13 16 C-12.814375 14.948125 -12.62875 13.89625 -12.4375 12.8125 C-12.04920669 9.42880118 -12.11752515 7.23574112 -13 4 C-11.783125 3.896875 -10.56625 3.79375 -9.3125 3.6875 C-5.54442696 3.24145602 -3.21936368 2.02360002 0 0 Z " fill="#001434" transform="translate(91,246)"/>
<path d="M0 0 C0.66 0.33 1.32 0.66 2 1 C1.54315719 6.39074513 0.77161222 11.63477719 -0.3125 16.9375 C-0.53550781 18.03964844 -0.75851563 19.14179688 -0.98828125 20.27734375 C-2 23 -2 23 -4.10546875 24.37890625 C-4.73066406 24.58386719 -5.35585937 24.78882813 -6 25 C-12.70459519 20.06345733 -12.70459519 20.06345733 -13.9375 15.625 C-13.9684375 14.325625 -13.9684375 14.325625 -14 13 C-12.1875 12.3125 -12.1875 12.3125 -10 12 C-8.25 13.4375 -8.25 13.4375 -7 15 C-5.39507663 13.39507663 -5.53284952 11.39192733 -5.1875 9.1875 C-4.39863281 4.97820101 -3.58013889 2.62543518 0 0 Z " fill="#001434" transform="translate(75,143)"/>
<path d="M0 0 C1 1 1 1 1.2890625 3.32421875 C0.83132927 7.56134392 -1.65959474 9.02511273 -4.828125 11.609375 C-7.72454333 13.46391623 -9.64866603 13.71814299 -13 13 C-15 11 -15 11 -15.125 8.1875 C-13.67799257 4.08764561 -11.84453536 2.9847033 -8.140625 0.90625 C-5.29907396 -0.29674241 -3.03958746 -0.44481768 0 0 Z " fill="#3D9CFB" transform="translate(258,143)"/>
<path d="M0 0 C2 2 2 2 2.4375 4.375 C2 7 2 7 -0.3125 9.25 C-3.73429569 11.47814603 -6.18781929 12.12806854 -10.1875 12.0625 C-12.0746875 12.0315625 -12.0746875 12.0315625 -14 12 C-14.75 10.3125 -14.75 10.3125 -15 8 C-11.27679865 2.12879786 -7.03657972 -0.78184219 0 0 Z " fill="#3D9CFB" transform="translate(319,121)"/>
<path d="M0 0 C0.9796875 -0.01417969 1.959375 -0.02835937 2.96875 -0.04296875 C5.5 0.1875 5.5 0.1875 7.5 2.1875 C7.5 3.8375 7.5 5.4875 7.5 7.1875 C4.2 6.8575 0.9 6.5275 -2.5 6.1875 C-3.82 8.8275 -5.14 11.4675 -6.5 14.1875 C-8.15 13.8575 -9.8 13.5275 -11.5 13.1875 C-12.00341475 7.9016451 -10.76910671 5.32195849 -7.5 1.1875 C-4.89820337 -0.11339831 -2.9030812 0.01909922 0 0 Z " fill="#001434" transform="translate(278.5,119.8125)"/>
<path d="M0 0 C-0.32007271 5.2811997 -3.28133721 8.52269273 -7 12 C-9.75 13.5 -9.75 13.5 -12 14 C-12.66 13.67 -13.32 13.34 -14 13 C-13.47616397 8.89542181 -12.34834816 6.78489488 -9.5625 3.75 C-8.94503906 3.06421875 -8.32757813 2.3784375 -7.69140625 1.671875 C-4.88477309 -1.102349 -3.65442403 -1.09632721 0 0 Z " fill="#001434" transform="translate(131,208)"/>
<path d="M0 0 C0.33 0.99 0.66 1.98 1 3 C0 5 0 5 -1.9609375 5.74609375 C-3.56481003 6.2054553 -5.16897534 6.6637959 -6.7734375 7.12109375 C-9.16806887 8.06634298 -10.21274248 9.20767943 -12 11 C-14.6875 10.6875 -14.6875 10.6875 -17 10 C-16.75006984 6.62594278 -15.76721161 5.7777929 -13.25 3.375 C-8.80093645 -0.06532599 -5.60231058 -1.60066017 0 0 Z " fill="#001434" transform="translate(246,100)"/>
<path d="M0 0 C1.32 0 2.64 0 4 0 C3.61493609 6.03266797 1.80899782 11.21565233 -2 16 C-4.16796875 16.7578125 -4.16796875 16.7578125 -6 17 C-7.02994024 13.75628017 -7.13942821 12.33795183 -5.8203125 9.140625 C-5.26085937 8.18671875 -4.70140625 7.2328125 -4.125 6.25 C-3.29355469 4.80367188 -3.29355469 4.80367188 -2.4453125 3.328125 C-1 1 -1 1 0 0 Z " fill="#001535" transform="translate(230,365)"/>
<path d="M0 0 C0.66 0.268125 1.32 0.53625 2 0.8125 C1.6414456 3.567393 1.22678745 4.61242099 -0.890625 6.48046875 C-1.66921875 6.98191406 -2.4478125 7.48335937 -3.25 8 C-4.01828125 8.50917969 -4.7865625 9.01835937 -5.578125 9.54296875 C-8.08166046 10.85530589 -10.2163903 11.40285531 -13 11.8125 C-13.6875 10 -13.6875 10 -14 7.8125 C-10.55166257 3.73323648 -5.44945939 -0.34059121 0 0 Z " fill="#021A3D" transform="translate(96,128.1875)"/>
<path d="M0 0 C0.5625 1.9375 0.5625 1.9375 1 4 C-1.03458258 6.03458258 -4.80174748 5.92479293 -7.5546875 6.40234375 C-10.23465769 6.9099485 -10.23465769 6.9099485 -13 9 C-15.1875 8.625 -15.1875 8.625 -17 8 C-14.16620553 0.06537548 -7.32659771 -0.58612782 0 0 Z " fill="#011738" transform="translate(302,81)"/>
<path d="M0 0 C-1.46063747 4.3819124 -5.01202704 6.94711941 -9 9 C-10.32 9 -11.64 9 -13 9 C-13 6.8125 -13 6.8125 -12 4 C-8.22276114 0.72408804 -4.99070122 -1.81683954 0 0 Z " fill="#041E43" transform="translate(93,101)"/>
<path d="M0 0 C-0.22228864 3.89005129 -0.98755638 4.98755638 -3.8125 7.8125 C-7 10 -7 10 -11 10 C-10.77771136 6.10994871 -10.01244362 5.01244362 -7.1875 2.1875 C-4 0 -4 0 0 0 Z " fill="#02193B" transform="translate(98,141)"/>
<path d="M0 0 C0.8353125 0.37125 0.8353125 0.37125 1.6875 0.75 C1.6875 4.75 1.6875 4.75 -1 7.5625 C-4.3125 9.75 -4.3125 9.75 -7.1875 9.5625 C-7.88875 9.294375 -8.59 9.02625 -9.3125 8.75 C-7.925165 4.2096309 -5.3700603 -0.58054706 0 0 Z " fill="#041E42" transform="translate(134.3125,99.25)"/>
<path d="M0 0 C0 0.99 0 1.98 0 3 C-2.046875 4.60546875 -2.046875 4.60546875 -4.75 6.1875 C-5.63171875 6.71730469 -6.5134375 7.24710937 -7.421875 7.79296875 C-10 9 -10 9 -14 9 C-13.60799155 6.6174032 -13.27060945 5.28328262 -11.58203125 3.515625 C-7.59698882 0.66539598 -5.08155144 -0.61970139 0 0 Z " fill="#031A3D" transform="translate(91,90)"/>
<path d="M0 0 C0.680625 0.28875 1.36125 0.5775 2.0625 0.875 C2.0625 1.865 2.0625 2.855 2.0625 3.875 C-0.01953125 5.48046875 -0.01953125 5.48046875 -2.75 7.0625 C-3.64332031 7.59230469 -4.53664062 8.12210938 -5.45703125 8.66796875 C-7.9375 9.875 -7.9375 9.875 -10.9375 9.875 C-10.21313567 5.5002207 -8.1153082 3.73712984 -4.79296875 1.00390625 C-2.9375 -0.125 -2.9375 -0.125 0 0 Z " fill="#041D42" transform="translate(132.9375,63.125)"/>
<path d="M0 0 C0.86625 0.37125 0.86625 0.37125 1.75 0.75 C1.41410006 3.88506611 0.72334828 4.775249 -1.625 7 C-4.25 8.75 -4.25 8.75 -7.25 8.75 C-6.89947365 5.59526281 -6.38480924 3.9266466 -4.4375 1.375 C-2.25 -0.25 -2.25 -0.25 0 0 Z " fill="#031C3F" transform="translate(132.25,73.25)"/>
<path d="M0 0 C1.1446875 0.3403125 1.1446875 0.3403125 2.3125 0.6875 C1.02950242 3.54957152 -0.218136 5.7120088 -2.6875 7.6875 C-3.6775 7.6875 -4.6675 7.6875 -5.6875 7.6875 C-5.91482116 4.88387237 -6.02831872 3.22563483 -4.5 0.8125 C-2.6875 -0.3125 -2.6875 -0.3125 0 0 Z " fill="#031B3F" transform="translate(133.6875,111.3125)"/>
</svg>
