<?xml version="1.0" encoding="UTF-8"?>
<svg version="1.1" xmlns="http://www.w3.org/2000/svg" width="400" height="400">
<path d="M0 0 C2.35143998 0.29356667 4.70628228 0.56013234 7.0625 0.8125 C19.28795249 2.31726046 28.17250141 7.25915896 36.1875 16.625 C46.75078179 30.54367719 48.50150179 47.1978991 47.9777832 64.11083984 C47.83868845 69.58725629 48.33756098 74.45621136 49.53051758 79.80322266 C51.1650945 87.45164862 50.56166376 95.98387975 47 103 C43.56392003 107.33656989 40.07368293 110.20490224 34.5 110.9375 C32.7675 110.9684375 32.7675 110.9684375 31 111 C30.855625 112.2375 30.71125 113.475 30.5625 114.75 C30.23305718 117.57379563 29.73620111 120.25316561 29 123 C30.16015625 123.72703125 30.16015625 123.72703125 31.34375 124.46875 C47.89081456 135.11785095 47.89081456 135.11785095 50 142.5 C50 143.325 50 144.15 50 145 C44.64847115 144.67566492 41.71719957 141.50295176 38 138 C37.55269531 138.60328125 37.10539062 139.2065625 36.64453125 139.828125 C30.2452094 148.28778288 30.2452094 148.28778288 26 151 C25.01 151 24.02 151 23 151 C23.4995183 146.58238502 24.94723155 144.54769864 28 141.375 C31.16332434 138.10245546 31.16332434 138.10245546 33 134 C29.535 131.525 29.535 131.525 26 129 C25.34 129.99 24.68 130.98 24 132 C24.680625 132.5775 25.36125 133.155 26.0625 133.75 C27.0215625 134.86375 27.0215625 134.86375 28 136 C27.75 138.25 27.75 138.25 27 140 C26.4225 139.690625 25.845 139.38125 25.25 139.0625 C23.15705816 138.07416636 21.25464725 137.4831387 19 137 C19 139.83967231 19.40267181 142.23735711 20 145 C19.34 145.33 18.68 145.66 18 146 C17.4225 145.484375 16.845 144.96875 16.25 144.4375 C14.15847908 142.76394481 14.15847908 142.76394481 12 143.25 C11.34 143.4975 10.68 143.745 10 144 C8.66666667 144.33333333 7.33333333 144.66666667 6 145 C6 145.66 6 146.32 6 147 C6.70125 147.2475 7.4025 147.495 8.125 147.75 C11.47683203 149.20731827 14.1635396 150.67925967 17 153 C17.875 156.25 17.875 156.25 18 159 C13.33856811 157.62982154 9.3847766 155.62085957 5.25 153.125 C-0.31815874 149.84315424 -5.88358121 147.14215589 -12 145 C-11.9278125 145.58265625 -11.855625 146.1653125 -11.78125 146.765625 C-9.34080284 168.32290825 -12.12806649 190.4147391 -25.25 208.3125 C-31.20019771 214.12746594 -37.86278373 217.4931081 -46 219 C-43.4109967 221.5890033 -40.49515192 222.53897179 -37.140625 223.828125 C-36.44767334 224.09798218 -35.75472168 224.36783936 -35.04077148 224.64587402 C-32.78008112 225.52167438 -30.51561978 226.38703721 -28.25 227.25 C-27.10017639 227.6901947 -27.10017639 227.6901947 -25.92712402 228.13928223 C4.71625674 241.06418961 4.71625674 241.06418961 36.4375 239.5 C40.18544338 237.27214525 42.79490894 234.1153066 45.45703125 230.70703125 C47 229 47 229 50 228 C50.33 228.33 50.66 228.66 51 229 C50.88765022 234.61748898 49.33477773 237.55730436 45.58984375 241.49609375 C40.11384898 246.6760888 33.49049594 248.0510423 26.05664062 247.98193359 C17.38570184 247.58352807 9.1342761 245.96712432 0.859375 243.3984375 C0.0067659 243.1377951 -0.8458432 242.87715271 -1.72428894 242.60861206 C-11.32424886 239.6418125 -20.84342799 236.43711677 -30.33813477 233.15087891 C-33.32367739 232.12114484 -36.3149744 231.10943928 -39.30664062 230.09765625 C-61.50061128 222.49000886 -81.85038126 213.07977915 -92.73828125 191.125 C-95.47602701 184.34420554 -96.30834735 178.35337603 -96.1875 171.125 C-96.18395508 170.33778564 -96.18041016 169.55057129 -96.17675781 168.73950195 C-96.13297558 164.49218779 -95.86398614 160.39678644 -95.25 156.1875 C-94.91587436 153.09551193 -94.95804623 152.10157229 -96.1875 149.125 C-99.85331182 146.35527551 -103.56356382 145.29372165 -107.9375 143.98046875 C-111.89567264 142.71324766 -115.34696811 140.96701717 -119 139 C-122.78657711 144.25370108 -125.21617851 148.4065553 -125 155 C-121.04310346 161.00356716 -113.84778708 163.07339005 -107.12890625 164.69140625 C-104.75747485 165.17242 -102.38851375 165.61377225 -100 166 C-100 167.32 -100 168.64 -100 170 C-101 171 -101 171 -104.4375 171.25 C-112.41465495 171.13563219 -119.34488463 168.19561621 -126 164 C-144.09508464 189.63470324 -142.21312793 232.81193543 -143 263 C-144.9375 262.6875 -144.9375 262.6875 -147 262 C-148.04435616 258.86693152 -148.12914145 256.65799223 -148.1328125 253.37109375 C-148.13410156 252.25283203 -148.13539063 251.13457031 -148.13671875 249.98242188 C-148.13285156 248.81259766 -148.12898438 247.64277344 -148.125 246.4375 C-148.12886719 245.29474609 -148.13273437 244.15199219 -148.13671875 242.97460938 C-148.12903364 236.25397994 -147.83365423 229.67018335 -147 223 C-147.886875 223.103125 -148.77375 223.20625 -149.6875 223.3125 C-164.89599399 223.19009763 -178.46789897 211.13604556 -188.58862305 200.89111328 C-199 189.91665395 -199 189.91665395 -199 183 C-199.73476562 182.87753906 -200.46953125 182.75507813 -201.2265625 182.62890625 C-209.31672336 180.79437681 -215.36807326 175.72821879 -220 169 C-224.24566853 161.62673936 -223.99865515 153.0653897 -221.9375 145 C-218.95148978 136.18215763 -213.31907785 127.80658432 -206 122 C-203.0625 120.5625 -203.0625 120.5625 -201 120 C-201.04640625 119.443125 -201.0928125 118.88625 -201.140625 118.3125 C-201.42366778 112.32816684 -200.66853561 107.84697582 -197 103 C-193.56736509 99.83759379 -189.78245737 97.45141771 -185.75 95.125 C-182.1460725 92.34014693 -180.25221911 89.38276688 -179 85 C-179.27922173 82.04511917 -179.27922173 82.04511917 -181 80 C-182.76780636 78.662135 -182.76780636 78.662135 -185 79 C-186.2375 80.2375 -186.2375 80.2375 -187.5 81.5 C-188.7375 82.7375 -188.7375 82.7375 -190 84 C-192.3125 83.8125 -192.3125 83.8125 -194 83 C-193.71827807 79.83062828 -193.51665615 77.64582019 -191.5 75.125 C-187.68021123 73.40609505 -184.11850681 73.45576874 -180 74 C-177.06961838 75.2469709 -175.58240759 76.22345655 -173.6875 78.75 C-172.26394537 83.40890607 -172.56244097 86.99726056 -174.5 91.4375 C-174.995 92.283125 -175.49 93.12875 -176 94 C-175.48050781 94.21914062 -174.96101563 94.43828125 -174.42578125 94.6640625 C-168.64485371 97.29272826 -164.90968052 100.18063897 -162 106 C-161.47277344 105.83886719 -160.94554687 105.67773438 -160.40234375 105.51171875 C-157.4169595 104.87580763 -154.61434327 104.83014071 -151.5625 104.8125 C-149.89380859 104.79123047 -149.89380859 104.79123047 -148.19140625 104.76953125 C-145.03432812 104.99752098 -142.84292253 105.65558991 -140 107 C-140.33 106.01 -140.66 105.02 -141 104 C-140.89406184 97.66000849 -140.51238708 91.35814901 -138.75 85.25 C-137.61567853 80.79551132 -138.71525524 77.59538204 -140.1953125 73.33203125 C-143.57253993 63.54462942 -142.86290737 52.49779059 -139 43 C-138.34 42.01 -137.68 41.02 -137 40 C-136.64322332 37.61299409 -136.36109899 35.21444589 -136.125 32.8125 C-135.17828826 24.86789997 -133.84747972 19.07865142 -127.5625 13.8125 C-119.70837135 8.43555478 -110.11689106 6.0047534 -101.1484375 3.09765625 C-98.26151296 2.09117263 -95.44987354 0.96609213 -92.63037109 -0.21435547 C-63.95269891 -12.19627563 -28.2868424 -14.1434212 0 0 Z M-111 19 C-116.88036681 25.77708807 -116.88036681 25.77708807 -120 34 C-118.68 34 -117.36 34 -116 34 C-115.773125 32.741875 -115.54625 31.48375 -115.3125 30.1875 C-114.76567791 27.15512298 -114.27926368 26.2243183 -111.8359375 24.26171875 C-104.3180834 20.91699854 -94.61867079 22.43464568 -87.06640625 25.171875 C-86.04353516 25.58179688 -86.04353516 25.58179688 -85 26 C-83.453125 26.5259375 -83.453125 26.5259375 -81.875 27.0625 C-79.50101656 29.51561622 -79.65501364 30.6451634 -79.5625 34 C-79.65590605 37.69228613 -79.8822556 38.8233834 -82 42 C-81.83639043 44.61980048 -81.83639043 44.61980048 -81.1875 47.5 C-80.08401102 53.33781267 -79.46749316 59.07841997 -79 65 C-74.05 64.01 -74.05 64.01 -69 63 C-68.81824219 61.33710938 -68.81824219 61.33710938 -68.6328125 59.640625 C-68.46393704 58.17703766 -68.29464428 56.71349843 -68.125 55.25 C-68.04636719 54.52039063 -67.96773437 53.79078125 -67.88671875 53.0390625 C-67.44256939 49.28087561 -66.84985976 46.30104284 -65 43 C-65.29537827 41.32618981 -65.63893903 39.66088045 -66 38 C-66.0973321 34.66509473 -66.05829027 31.33549903 -66 28 C-63.7941576 26.86988348 -61.58554973 25.74584212 -59.375 24.625 C-58.75753906 24.30789062 -58.14007813 23.99078125 -57.50390625 23.6640625 C-49.73081718 19.73660697 -42.78611567 17.83097901 -34 19 C-30.8125 21 -30.8125 21 -29 24 C-28.48489932 26.65907617 -28.27382213 29.30050098 -28 32 C-26.84242188 32.18175781 -25.68484375 32.36351562 -24.4921875 32.55078125 C-22.95304092 32.80417733 -21.41398298 33.05811219 -19.875 33.3125 C-19.11445313 33.43044922 -18.35390625 33.54839844 -17.5703125 33.66992188 C-12.88249288 34.45796052 -9.20522128 35.67277814 -5 38 C-3.515 38.495 -3.515 38.495 -2 39 C-1.67 39.99 -1.34 40.98 -1 42 C-0.34 41.67 0.32 41.34 1 41 C0.94779297 39.04707031 0.94779297 39.04707031 0.89453125 37.0546875 C0.86638099 35.32813796 0.83908216 33.60157439 0.8125 31.875 C0.78736328 31.0190625 0.76222656 30.163125 0.73632812 29.28125 C0.65362168 22.11335815 2.4639022 17.61612109 7 12 C-5.80491425 1.32312308 -22.47266055 -3.35712132 -39 -4 C-39.90878906 -4.0515625 -40.81757813 -4.103125 -41.75390625 -4.15625 C-66.18699458 -4.90515692 -93.11936676 1.48427765 -111 19 Z M12 8 C12.12375 8.825 12.2475 9.65 12.375 10.5 C11.96082577 14.36562614 11.51959217 14.74851568 9.02734375 17.44921875 C4.92118181 22.73186529 5.14478092 27.83085077 5.1875 34.3125 C5.16284995 36.45445978 5.13552579 38.59639052 5.10546875 40.73828125 C5.09692871 41.7742041 5.08838867 42.81012695 5.07958984 43.87744141 C4.95899468 48.60876701 4.50906739 53.29654536 4 58 C4.98097656 58.4846875 5.96195313 58.969375 6.97265625 59.46875 C9.80734777 60.87265114 12.63392278 62.2917114 15.45703125 63.71875 C18.37537737 65.19386177 21.30831717 66.62781668 24.26171875 68.03125 C36.69217812 74.07150811 36.69217812 74.07150811 38.76171875 79.91015625 C39.2065434 83.81148722 38.48510633 87.38474115 37 91 C36.34 91.66 35.68 92.32 35 93 C33.68 93 32.36 93 31 93 C31.4770795 90.77362902 31.9748492 89.04331527 33.125 87.0625 C34.14482312 85.00875284 34.14482312 85.00875284 34.0625 82.625 C31.32229509 75.85508198 23.75731322 72.55880588 17.4375 69.75 C16.70853516 69.41226563 15.97957031 69.07453125 15.22851562 68.7265625 C11.2180111 66.89277645 7.21946391 65.30650067 3 64 C2.27112798 67.0997134 1.57050898 70.20514535 0.875 73.3125 C0.66746094 74.19357422 0.45992187 75.07464844 0.24609375 75.98242188 C0.05917969 76.82998047 -0.12773437 77.67753906 -0.3203125 78.55078125 C-0.58739014 79.72120972 -0.58739014 79.72120972 -0.85986328 80.9152832 C-1.23347092 83.30982147 -1.23347092 83.30982147 1 86 C5.3161165 85.61916619 7.21397784 83.96887306 10.39453125 81.15625 C13.17520727 79.15362202 15.64634484 79 19 79 C22.28244358 80.26821684 23.68628787 81.58892893 25.8125 84.375 C27.33773375 89.03097671 27.08438434 93.11662994 26.8125 97.9765625 C27.02367497 101.38175891 27.58819273 102.63327324 30 105 C33.20293894 105.72794067 35.06810737 105.58437434 37.875 103.82421875 C42.61815681 100.00004858 44.67849936 96.86981628 45.37109375 90.6875 C45.53916291 81.35471863 43.7980325 74.63189204 40 66 C39.23595264 63.67714246 38.60614785 61.36948706 38 59 C39.32 59.33 40.64 59.66 42 60 C42.87228264 44.27468249 39.77252927 30.22608147 29.75 17.75 C24.85562748 12.39611216 19.14701904 9.19116984 12 8 Z M-125.75 20.3125 C-129.71283571 25.0458871 -130.29415091 29.9699063 -130 36 C-126.78138869 35.28667806 -126.78138869 35.28667806 -125.38671875 32.33984375 C-124.82597656 31.21707031 -124.26523438 30.09429687 -123.6875 28.9375 C-120.88566437 23.52459202 -117.87455049 18.69771506 -114 14 C-118.98444386 14 -122.05157781 17.20246315 -125.75 20.3125 Z M-62 32 C-61.67 33.65 -61.34 35.3 -61 37 C-60.46705322 36.79721436 -59.93410645 36.59442871 -59.38500977 36.38549805 C-53.56688277 34.29333962 -48.0818903 33.33207994 -41.9375 32.8125 C-41.07189453 32.73064453 -40.20628906 32.64878906 -39.31445312 32.56445312 C-37.21050226 32.36684448 -35.10535418 32.18204995 -33 32 C-32.69154438 28.38984361 -32.69154438 28.38984361 -34.22265625 25.21875 C-42.30612732 19.67579841 -55.46314599 26.7178502 -62 32 Z M-111 32 C-111 32.66 -111 33.32 -111 34 C-109.96552734 33.96519531 -109.96552734 33.96519531 -108.91015625 33.9296875 C-100.08223422 33.76015265 -92.79173293 34.60466348 -85 39 C-84.34 37.35 -83.68 35.7 -83 34 C-87.03874749 28.90766621 -92.40965528 27.49007673 -98.6328125 26.640625 C-104.47346619 26.32679883 -107.40821762 26.97150467 -111 32 Z M-58.43359375 43.421875 C-64.14845486 49.96239593 -63.4971884 56.69872945 -63 65 C-61.77950038 71.73967071 -59.56547098 78.41678757 -53.81640625 82.58203125 C-42.52197905 88.26840722 -23.47559761 87.28015495 -11.5625 83.625 C-7.63602372 81.83397573 -5.73634939 80.73936028 -4.05078125 76.7578125 C-0.89108456 65.48989942 -0.4121208 54.58756059 -6 44 C-10.62053801 38.58736977 -18.08697576 38.06904238 -24.8671875 37.515625 C-26.53577453 37.4150166 -28.20514355 37.32670833 -29.875 37.25 C-30.74979004 37.20907227 -31.62458008 37.16814453 -32.52587891 37.12597656 C-41.30685063 36.80975074 -51.76458216 36.80737849 -58.43359375 43.421875 Z M-123 40 C-123.33 40.99 -123.66 41.98 -124 43 C-123.24976563 42.855625 -122.49953125 42.71125 -121.7265625 42.5625 C-111.83010825 40.76767706 -102.94625073 40.71661281 -93 42 C-96.01724817 38.98275183 -98.97730231 38.87390653 -103.1171875 38.8671875 C-103.88933594 38.86589844 -104.66148437 38.86460937 -105.45703125 38.86328125 C-106.65392578 38.86908203 -106.65392578 38.86908203 -107.875 38.875 C-108.66519531 38.87113281 -109.45539063 38.86726563 -110.26953125 38.86328125 C-114.6251962 38.87052861 -118.71160502 39.13128976 -123 40 Z M-131 43 C-136.56058323 49.42942436 -136.43640732 54.77930397 -136 63 C-135.50346384 66.08284188 -134.80606177 68.97726838 -134 72 C-130.19867232 66.29800848 -130.72764093 59.29348493 -130.4375 52.625 C-130.39431641 51.69816406 -130.35113281 50.77132812 -130.30664062 49.81640625 C-130.20123814 47.54439706 -130.09911394 45.27229075 -130 43 C-130.33 43 -130.66 43 -131 43 Z M-98 47 C-98.37809814 47.6705542 -98.75619629 48.3411084 -99.14575195 49.03198242 C-100.86730184 52.08421674 -102.58989058 55.13586354 -104.3125 58.1875 C-104.90740234 59.24259766 -105.50230469 60.29769531 -106.11523438 61.38476562 C-106.69208984 62.40634766 -107.26894531 63.42792969 -107.86328125 64.48046875 C-108.39219971 65.41785889 -108.92111816 66.35524902 -109.46606445 67.32104492 C-110.50811609 69.14094507 -111.58642678 70.94046073 -112.69604492 72.7199707 C-114.16548307 74.85159478 -114.16548307 74.85159478 -114 77 C-109.91354717 78.06735708 -106.66047067 77.89156791 -102.5 77.25 C-101.3965625 77.09015625 -100.293125 76.9303125 -99.15625 76.765625 C-95.1103112 75.7841844 -92.23912583 74.19487134 -89.25 71.3125 C-87.07849994 67.29522489 -86.48737727 63.30044746 -87.47265625 58.87890625 C-88.93333771 54.65649919 -90.80730808 51.19269192 -94 48 C-96.07089598 47.35299858 -96.07089598 47.35299858 -98 47 Z M-81.5625 73.1875 C-83.65258982 77.27680617 -83.02112711 79.5508033 -82 84 C-81.34 84.66 -80.68 85.32 -80 86 C-78.04095707 85.90428734 -78.04095707 85.90428734 -75.8671875 85.3203125 C-75.06152344 85.13339844 -74.25585938 84.94648438 -73.42578125 84.75390625 C-72.58402344 84.54636719 -71.74226562 84.33882812 -70.875 84.125 C-70.02550781 83.92519531 -69.17601562 83.72539062 -68.30078125 83.51953125 C-66.19804932 83.02338102 -64.09868201 82.51301116 -62 82 C-62.41572266 80.98679687 -62.41572266 80.98679687 -62.83984375 79.953125 C-63.20207031 79.06109375 -63.56429687 78.1690625 -63.9375 77.25 C-64.29714844 76.36828125 -64.65679687 75.4865625 -65.02734375 74.578125 C-65.85356576 72.38813896 -66.49369943 70.28101729 -67 68 C-72.79006949 68 -77.13393225 69.40701534 -81.5625 73.1875 Z M-90.80078125 78.875 C-102.08057174 83.92722342 -116.93970902 83.96728078 -128.515625 79.65625 C-129.00546875 79.4396875 -129.4953125 79.223125 -130 79 C-130.33 79.66 -130.66 80.32 -131 81 C-123.62111557 85.04124722 -116.57040926 85.41130313 -108.3125 85.4375 C-106.83414673 85.45200195 -106.83414673 85.45200195 -105.32592773 85.46679688 C-99.25473652 85.39728917 -94.44062135 84.79314787 -89 82 C-88.24465898 79.95631226 -88.24465898 79.95631226 -88 78 C-89.18377767 77.92716012 -89.18377767 77.92716012 -90.80078125 78.875 Z M-71.5 88.625 C-72.62136353 88.90077881 -72.62136353 88.90077881 -73.76538086 89.18212891 C-79.2104141 90.60640706 -83.58257454 92.45590463 -88 96 C-89.41572054 97.06376033 -90.8324043 98.12623983 -92.25 99.1875 C-92.87390625 99.67605469 -93.4978125 100.16460937 -94.140625 100.66796875 C-96.02029378 102.01453819 -97.90789314 103.02337489 -100 104 C-97.15772022 107.22183889 -94.97306225 108.01424416 -90.75 108.41015625 C-85.76842529 107.6671657 -81.90926711 104.65711504 -77.8203125 101.8828125 C-72.47742048 98.31595107 -67.24428511 98.27891548 -61 99 C-57.57139135 100.13756621 -54.28235412 101.48661472 -50.9453125 102.8671875 C-47.32140968 104.26099628 -44.83018395 104.76603679 -41 104 C-38.42318976 102.52024758 -36.31809144 100.89231954 -34 99 C-36.16611719 96.83388281 -37.12937029 96.54967542 -40 95.75 C-44.65398762 94.30076469 -48.34507391 92.05517998 -52.34765625 89.3046875 C-58.79197246 86.1347293 -64.80393005 86.93261169 -71.5 88.625 Z M13.23828125 85.53125 C12.60277344 86.1809375 11.96726562 86.830625 11.3125 87.5 C8.49766311 90.05094593 6.66563868 91.53425017 2.8125 91.6875 C-1.29495276 90.9468118 -3.08075729 89.91924271 -6 87 C-6.70125 87.309375 -7.4025 87.61875 -8.125 87.9375 C-14.65307405 90.3500491 -21.49506371 90.29174122 -28.375 90.5625 C-29.39722656 90.60568359 -30.41945313 90.64886719 -31.47265625 90.69335938 C-33.98165288 90.79887792 -36.49073943 90.90099213 -39 91 C-37.18806994 93.24324836 -37.18806994 93.24324836 -34.6171875 93.1953125 C-33.25980469 93.16050781 -33.25980469 93.16050781 -31.875 93.125 C-30.50988281 93.09792969 -30.50988281 93.09792969 -29.1171875 93.0703125 C-28.41851562 93.04710937 -27.71984375 93.02390625 -27 93 C-28.09539085 98.87527818 -29.00880794 102.28315485 -34 106 C-39.96180789 108.97511578 -45.54487344 109.76154262 -52 108 C-53.31136492 107.35086128 -54.6039188 106.66235282 -55.875 105.9375 C-60.75639398 103.27225889 -65.56327463 103.16486553 -71 104 C-74.35026165 105.62205784 -74.35026165 105.62205784 -77 108 C-83.54962557 112.49484108 -88.12002031 113.72417259 -96 113 C-99.4375 111.5625 -99.4375 111.5625 -102 110 C-102.99 109.67 -103.98 109.34 -105 109 C-106.4477922 106.10441559 -107 104.25811062 -107 101 C-105.96552734 100.70609375 -105.96552734 100.70609375 -104.91015625 100.40625 C-97.3978724 98.01550946 -92.50515643 94.60030728 -87 89 C-89.16872321 87.63918974 -89.16872321 87.63918974 -92.42578125 88.91796875 C-97.67531868 90.32234128 -102.77945226 90.34101735 -108.1875 90.3125 C-109.70355835 90.31056641 -109.70355835 90.31056641 -111.25024414 90.30859375 C-118.8601719 90.21102276 -125.72341505 89.3463844 -133 87 C-136.43885457 96.45685008 -135.81011138 105.8105866 -132.32421875 115.1796875 C-126.59995774 127.37118145 -116.09236552 134.85210725 -104 140 C-102.67703421 140.37235792 -101.34643214 140.72430199 -100 141 C-99.91363281 140.19175781 -99.82726562 139.38351563 -99.73828125 138.55078125 C-99.11878025 133.83916354 -98.589477 129.98246167 -96.125 125.875 C-87.34912327 120.60947396 -77.58496482 121.83603248 -68 124 C-65.1251097 124.78505222 -62.27448425 125.59921314 -59.4375 126.51171875 C-56.55688325 127.08876537 -54.78295373 126.93224358 -52 126 C-50.38522618 124.50666625 -50.38522618 124.50666625 -49.125 122.625 C-46.14716579 118.94248746 -43.67348536 117.26738586 -39 116 C-33.00804901 115.75906491 -28.55345139 116.95248765 -24 121 C-20.71613138 125.18096556 -18.18276264 129.48330109 -16.125 134.375 C-14.67627474 137.33158216 -13.44440905 138.7343808 -10.4375 140.125 C-3.93286939 141.94388745 2.05611851 140.59674864 7.90234375 137.42578125 C16.90491846 131.3376203 22.98633336 123.45919598 26 113 C26.50241322 110.3295947 26.50241322 110.3295947 26 108 C25.50628906 107.45859375 25.01257813 106.9171875 24.50390625 106.359375 C22.06740893 102.53692206 22.56453526 98.24692308 22.56054688 93.84375 C22.46597789 90.34795847 22.25778911 88.34880556 20.15234375 85.5 C17.34727183 83.54510414 15.89212908 83.2245796 13.23828125 85.53125 Z M-192.25 106.625 C-195.75307915 112.46346525 -195.39738675 118.37688748 -195 125 C-191.99582238 123.60568438 -189.51799427 121.92218389 -186.875 119.9375 C-182.56378836 116.97798838 -179.37384619 116.53558771 -174.2421875 116.34375 C-170.56105615 115.77939537 -169.21118931 113.8745461 -167 111 C-167.85346584 107.2447503 -168.68078254 105.30325659 -171.5 102.625 C-179.05712184 99.11633629 -186.91102097 99.68432726 -192.25 106.625 Z M-169.93359375 121.20703125 C-171.72201435 124.21393622 -172.12850708 126.53030889 -172 130 C-170.23358828 132.80189446 -168.96950178 134.51524911 -166 136 C-159.64418336 136.54791523 -155.34191836 135.5415379 -150 132 C-149.49082031 131.45988281 -148.98164063 130.91976562 -148.45703125 130.36328125 C-147 129 -147 129 -144 129 C-144.57205042 132.07477098 -145.23103987 134.3062438 -147.59765625 136.44140625 C-151.89215522 139.30155964 -155.8164227 140.67733607 -160.921875 141.34765625 C-163.86663118 142.272044 -165.16602061 143.5350644 -167 146 C-167.11523731 148.69458676 -167.11523731 148.69458676 -166.5 151.5625 C-165.53612936 159.71068476 -167.66339356 166.42267458 -172.75 172.875 C-176.72691169 177.08465716 -181.51596819 180.1719894 -187 182 C-187 182.66 -187 183.32 -187 184 C-175.68897249 185.05218861 -164.68851366 179.87640653 -156 173 C-145.79147116 164.13647241 -134.93385605 153.38100448 -133.6640625 139.265625 C-133.44402362 129.48477587 -134.0094809 120.91264493 -141.0625 113.4375 C-144.81695392 110.32210206 -147.80247928 109.52183671 -152.68359375 109.59375 C-159.53672952 110.79564902 -165.74980891 115.80744569 -169.93359375 121.20703125 Z M-45 125 C-48.06021256 128.05535465 -48.06021256 128.05535465 -49 132 C-55.09652034 132.26866022 -59.90637575 131.43787811 -65.6875 129.5625 C-77.18398301 125.51162988 -77.18398301 125.51162988 -88.75 127.3125 C-92.55003788 130.04588481 -92.55003788 130.04588481 -94.6171875 134.0859375 C-95.03447313 137.79092806 -95.27983796 140.30040509 -93.875 143.8125 C-89.56046716 148.84612165 -84.91160264 151.08633644 -78.8125 153.25 C-78.08869141 153.518125 -77.36488281 153.78625 -76.61914062 154.0625 C-72.9064495 155.49877574 -72.9064495 155.49877574 -69 156 C-69 156.99 -69 157.98 -69 159 C-74.42078873 159.3535297 -78.62174385 158.38152691 -83.765625 156.65625 C-86.09161045 155.85909848 -86.09161045 155.85909848 -89 156 C-90.12862175 161.36095333 -90.09688221 166.55306686 -90 172 C-84.39473306 174.32330984 -78.87475032 176.46745644 -73 178 C-73 178.66 -73 179.32 -73 180 C-76.87186448 181.44715727 -79.8232328 180.5441918 -83.75 179.5625 C-85.50570312 179.13130859 -85.50570312 179.13130859 -87.296875 178.69140625 C-88.18890625 178.46324219 -89.0809375 178.23507812 -90 178 C-87.71927234 189.19629943 -82.69813737 198.43470388 -74 206 C-64.02901445 212.17549733 -55.67439587 213.93651747 -44 213 C-34.87121418 210.4902341 -29.46795231 204.89821867 -24.640625 196.99609375 C-15.56634869 180.42473678 -14.39363331 159.29289414 -18.95703125 141.125 C-21.52220807 133.43907694 -24.94423909 126.31985362 -32 122 C-37.80112291 120.23894483 -40.41998132 121.13242867 -45 125 Z M-182.5625 123.375 C-183.77099609 124.03628906 -183.77099609 124.03628906 -185.00390625 124.7109375 C-187.1359625 125.84796327 -187.1359625 125.84796327 -188 128 C-184.37 127.01 -180.74 126.02 -177 125 C-176.67 123.68 -176.34 122.36 -176 121 C-178.70563238 121 -180.2054717 122.06596021 -182.5625 123.375 Z M-202 127 C-209.42171167 133.74358573 -216.33533234 141.37266625 -217.23828125 151.734375 C-217.42824696 159.45298194 -216.75382664 164.92096561 -211.421875 170.71484375 C-205.92494027 175.77846155 -199.97518665 178.67262207 -192.4140625 178.42578125 C-187.87069961 177.62444378 -183.81188216 175.55806837 -180 173 C-179.34 172.01 -178.68 171.02 -178 170 C-179.423125 169.4121875 -179.423125 169.4121875 -180.875 168.8125 C-184 167 -184 167 -186 162 C-182.04 163.32 -178.08 164.64 -174 166 C-171.31780178 160.63560356 -170.6847405 156.98993047 -171 151 C-174.79014425 151.64665968 -177.43862719 153.40438014 -180.625 155.5 C-185.93045217 158.97059069 -188.50520726 160.44032493 -195 160 C-201.12847689 157.07024224 -204.09785012 151.95918979 -207 146 C-208.00800909 141.45632265 -207.37025397 137.02943175 -205 133 C-202.9375 131.8125 -202.9375 131.8125 -201 131 C-200.67 130.34 -200.34 129.68 -200 129 C-200.66 128.34 -201.32 127.68 -202 127 Z M-190 128 C-190.33 128.66 -190.66 129.32 -191 130 C-190.01 129.67 -189.02 129.34 -188 129 C-188.66 128.67 -189.32 128.34 -190 128 Z M-128 132 C-128.33 135.63 -128.66 139.26 -129 143 C-125.53028623 138.97652412 -125.53028623 138.97652412 -124 134 C-125.32 133.34 -126.64 132.68 -128 132 Z M-201.125 137.6875 C-203.24929661 139.81127809 -203.24929661 139.81127809 -203 142.375 C-201.13145337 147.2799349 -198.13746995 151.74017519 -194 155 C-191.33165034 155.33498301 -191.33165034 155.33498301 -189 155 C-190.28965176 153.62437146 -191.62689293 152.29233607 -193 151 C-193.66 151 -194.32 151 -195 151 C-196.92952974 147.14094051 -198.12483821 144.73867465 -198.0625 140.375 C-198.05347656 139.55773437 -198.04445312 138.74046875 -198.03515625 137.8984375 C-198.02355469 137.27195313 -198.01195312 136.64546875 -198 136 C-199.32173764 135.89635298 -199.32173764 135.89635298 -201.125 137.6875 Z M-133 153 C-133.85964692 154.44297877 -134.68621615 155.90566804 -135.5 157.375 C-143.74853029 171.24663763 -157.10700628 182.71577796 -172.8125 187.25 C-178.44130254 188.48021251 -184.26264102 188.66765299 -190 189 C-186.77494066 194.25565226 -183.81651071 197.68562834 -178.1875 200.3125 C-170.01895842 202.0743423 -164.79799657 199.10179868 -158 195 C-156.67313378 194.32055299 -155.34168703 193.64969079 -154 193 C-154 195.1875 -154 195.1875 -155 198 C-159.85958995 202.25214121 -165.88538037 204.25903191 -172 206 C-168.86428249 209.51603968 -165.42474207 211.62262219 -161.25 213.6875 C-160.07953125 214.28949219 -158.9090625 214.89148438 -157.703125 215.51171875 C-153.61717899 217.15385528 -150.36189578 217.63971125 -146 218 C-145.91363281 217.01644531 -145.82726562 216.03289062 -145.73828125 215.01953125 C-143.93824441 196.52844934 -140.0466091 177.2819833 -131.26953125 160.73828125 C-129.65375433 158.03233843 -129.65375433 158.03233843 -130.8125 155.125 C-131.4003125 154.073125 -131.4003125 154.073125 -132 153 C-132.33 153 -132.66 153 -133 153 Z " fill="#001434" transform="translate(339,110)"/>
<path d="M0 0 C3.51006282 0.00258709 7.02012345 0.00016932 10.53018641 -0.00138617 C16.40710882 -0.00318762 22.28401852 -0.00085321 28.16093898 0.00395441 C34.91454526 0.00941606 41.66812142 0.00761242 48.421727 0.00212801 C54.27883926 -0.00243408 60.13594254 -0.00303929 65.993056 -0.00043333 C69.46625389 0.00110959 72.93943768 0.00137823 76.41263461 -0.00196981 C80.2797568 -0.00543998 84.1468461 -0.00060845 88.01396632 0.00493097 C89.1337437 0.00290674 90.25352107 0.00088251 91.40723109 -0.00120306 C119.01726468 0.07146175 119.01726468 0.07146175 125.63090968 6.68510675 C134.15971417 18.43422681 132.97210735 36.88430203 133.69804835 50.66972589 C133.89425789 54.35240906 134.11407495 58.03318923 134.33598781 61.71440363 C134.46694587 64.05612259 134.59655311 66.39791757 134.72465968 68.73979425 C134.79119243 69.83970194 134.85772517 70.93960962 134.92627406 72.07284784 C134.9768043 73.08853342 135.02733455 74.104219 135.07939601 75.15068293 C135.15242694 76.48965883 135.15242694 76.48965883 135.22693324 77.85568476 C135.08012843 80.1343255 135.08012843 80.1343255 133.08012843 83.1343255 C132.42012843 83.1343255 131.76012843 83.1343255 131.08012843 83.1343255 C130.19926233 80.4917272 129.8883037 78.64993616 129.7229507 75.91679621 C129.66941936 75.06773203 129.61588801 74.21866785 129.56073451 73.34387445 C129.50654857 72.42523111 129.45236262 71.50658777 129.39653468 70.56010675 C129.2722108 68.59200621 129.14786096 66.62390731 129.02348781 64.65580988 C128.83347111 61.57150553 128.64507406 58.48710896 128.45781398 55.40263605 C128.4879925 31.7227564 128.4879925 31.7227564 121.08012843 10.1343255 C114.43927136 5.30461127 104.86871086 5.92232027 96.91777492 5.58012629 C95.95791147 5.53801586 94.99804803 5.49590544 94.00909781 5.45251894 C83.89795852 5.03998675 73.79587745 4.9889301 63.67778468 5.001513 C61.69840936 5.00083543 59.71903412 4.99986168 57.73965907 4.99861383 C53.62291606 4.99715503 49.50619502 4.99922987 45.3894546 5.00395441 C40.21300221 5.00961748 35.03660162 5.00628771 29.86015105 5.00051546 C-20.86302802 1.00902751 -20.86302802 1.00902751 -67.91987157 11.1343255 C-71.10111384 15.5274696 -71.06348273 21.39147828 -70.87664342 26.63220453 C-70.83986265 27.72222867 -70.80308188 28.81225281 -70.76518655 29.93530798 C-70.71753876 31.13640613 -70.66989097 32.33750427 -70.6207993 33.57499933 C-70.57305332 34.87641021 -70.52530734 36.17782108 -70.47611451 37.51866865 C-69.75871401 56.62048295 -68.79743269 75.7132769 -67.86504984 94.80550218 C-67.70330983 98.11873724 -67.54210727 101.43199806 -67.3810513 104.74526644 C-66.87490719 115.15437483 -66.36690553 125.56339001 -65.85612804 135.9722721 C-65.26998824 147.91727279 -64.69022606 159.86256119 -64.1158126 171.8081314 C-63.66825615 181.10759899 -63.21509864 190.40678319 -62.75770777 199.70577222 C-62.48587041 205.23484598 -62.21635586 210.76400872 -61.95272565 216.2934804 C-61.70549531 221.47579921 -61.45128845 226.65772996 -61.19180799 231.83944941 C-61.09818373 233.73271007 -61.00702033 235.62609438 -60.91857839 237.51960421 C-61.01581272 253.6408873 -61.01581272 253.6408873 -55.73237157 268.1968255 C-42.26588156 277.24001587 -15.36664755 271.8893692 0.01762843 271.1968255 C2.02347551 271.10865462 4.02933486 271.02076267 6.03520656 270.93315363 C7.0276739 270.88951685 8.02014125 270.84588007 9.04268336 270.80092096 C11.03838919 270.71354962 13.0341373 270.62713852 15.02992702 270.54170465 C20.20007742 270.31778244 25.36698462 270.0669312 30.53374171 269.77446222 C32.10292102 269.69124971 32.10292102 269.69124971 33.70380092 269.60635614 C35.69864336 269.50007872 37.69304885 269.38512174 39.68680263 269.26007318 C47.9000058 268.83831024 47.9000058 268.83831024 52.08012843 271.1343255 C51.75012843 272.1243255 51.42012843 273.1143255 51.08012843 274.1343255 C43.37221182 274.8242794 35.67934486 275.35387277 27.94731593 275.66948175 C26.41137782 275.73421938 26.41137782 275.73421938 24.84441066 275.80026484 C21.54814193 275.9368104 18.25170276 276.06787675 14.95512843 276.1968255 C13.82939418 276.24101618 12.70365993 276.28520685 11.54381251 276.33073664 C-2.81773433 276.88505537 -17.17195986 277.34137405 -31.54487157 277.3843255 C-32.23035069 277.38941126 -32.91582982 277.39449701 -33.62208104 277.39973688 C-53.24890446 277.51891361 -53.24890446 277.51891361 -58.85737157 272.3218255 C-59.40264501 271.84100519 -59.94791844 271.36018488 -60.50971532 270.86479425 C-64.29734334 266.21681859 -64.47049085 260.67935341 -64.95942235 254.94121027 C-65.04190787 254.02160548 -65.1243934 253.10200069 -65.20937848 252.15452909 C-66.20665538 240.52874958 -66.73888187 228.87792487 -67.28705907 217.22416925 C-67.40743987 214.74782607 -67.528343 212.27150824 -67.64972997 209.79521418 C-67.93746596 203.9092412 -68.22137853 198.02309407 -68.5035243 192.13685071 C-69.0893824 179.92292995 -69.68732379 167.70959422 -70.2891767 155.49645209 C-70.35550496 154.15022481 -70.42177096 152.80399445 -70.48797488 151.45776105 C-71.52628908 130.34835619 -72.70241324 109.25241674 -74.03708959 88.15986872 C-75.22219134 69.40457981 -76.28879769 50.68197049 -76.35737157 31.8843255 C-76.36363561 31.09532862 -76.36989964 30.30633173 -76.3763535 29.49342585 C-76.46241107 12.94205769 -76.46241107 12.94205769 -71.16987157 5.7593255 C-55.23935973 -5.74604415 -18.46687185 -0.01795723 0 0 Z " fill="#001434" transform="translate(85.91987156867981,25.86567449569702)"/>
<path d="M0 0 C6.49047852 0.00010292 12.98085082 -0.01372848 19.47130394 -0.03077221 C24.53818246 -0.04191795 29.60503507 -0.04391868 34.67192459 -0.04339027 C37.06627403 -0.04455956 39.46062438 -0.04892124 41.8549614 -0.05672264 C74.67751605 -0.15397775 74.67751605 -0.15397775 80.1289978 4.62287903 C84.25329518 9.38725533 84.84728769 14.31815632 85.53466797 20.43530273 C85.62216309 21.18803467 85.7096582 21.9407666 85.79980469 22.71630859 C86.36359105 28.05729087 86.31215718 32.87786209 85.34716797 38.18530273 C84.68716797 38.18530273 84.02716797 38.18530273 83.34716797 38.18530273 C80.51830715 32.44222754 80.26923007 26.02480877 79.49169922 19.75756836 C79.37181641 18.84555664 79.25193359 17.93354492 79.12841797 16.99389648 C79.0259375 16.16688232 78.92345703 15.33986816 78.81787109 14.48779297 C78.28868501 11.89922765 77.9586325 10.30247475 76.34716797 8.18530273 C69.44675364 5.35722283 62.15865016 5.90385935 54.81811523 5.92651367 C53.3423953 5.92380079 51.86667672 5.92023818 50.39096069 5.91589355 C46.39712979 5.90680188 42.40340261 5.91030069 38.40956998 5.91665173 C34.22128099 5.92172938 30.03300065 5.91701528 25.8447113 5.91387939 C18.81125298 5.91024449 11.7778367 5.91502595 4.74438477 5.92456055 C-3.37459258 5.93543995 -11.49346943 5.93192135 -19.61244434 5.92090774 C-26.59525168 5.91181625 -33.57802885 5.91055881 -40.56084019 5.91578507 C-44.72603155 5.91889509 -48.89117577 5.9193409 -53.05636406 5.9127121 C-56.97409237 5.9069123 -60.89169181 5.91098349 -64.80940628 5.92250061 C-66.24283828 5.92513334 -67.67628122 5.92440595 -69.10970879 5.91997528 C-79.55291333 5.87060662 -79.55291333 5.87060662 -89.65283203 8.18530273 C-92.6220467 11.15451741 -92.62131901 13.35260522 -92.77877808 17.51329041 C-92.74665139 27.09229707 -92.41457656 36.62666563 -91.84814453 46.18920898 C-91.76289218 47.68389355 -91.67801205 49.17859938 -91.59347534 50.67332458 C-91.4162877 53.79035605 -91.23622603 56.90720179 -91.05371094 60.02392578 C-90.82581055 63.91570137 -90.60267943 67.80772906 -90.38148689 71.69989109 C-89.65661577 84.4476376 -88.92720216 97.19489143 -88.078125 109.93505859 C-88.03159349 110.63699876 -87.98506199 111.33893892 -87.93712044 112.06215 C-87.71872226 115.34976779 -87.49630509 118.63696835 -87.26687622 121.92384338 C-86.56387326 132.35405411 -86.44315802 142.73654805 -86.65283203 153.18530273 C-87.64283203 153.51530273 -88.63283203 153.84530273 -89.65283203 154.18530273 C-90.80985205 149.3403716 -91.07237097 144.47201265 -91.40893555 139.51855469 C-91.47735657 138.5483136 -91.54577759 137.57807251 -91.61627197 136.57843018 C-91.84191637 133.36040079 -92.06231411 130.14204319 -92.28173828 126.92358398 C-92.35804914 125.8121874 -92.43436001 124.70079082 -92.51298332 123.55571556 C-92.9187806 117.64237674 -93.32051089 111.72877742 -93.71899414 105.81494141 C-94.04484467 100.98827046 -94.37757299 96.16215782 -94.71704102 91.33642578 C-97.95219792 45.28917859 -97.95219792 45.28917859 -98.11767578 24.16577148 C-98.12898592 23.46984705 -98.14029606 22.77392262 -98.15194893 22.05690956 C-98.3120666 10.45151742 -98.3120666 10.45151742 -96.0612793 6.49902344 C-89.14013803 -0.14990264 -80.96584096 0.6431669 -71.86376953 0.50952148 C-70.29892858 0.47691917 -68.73409933 0.44375088 -67.16928101 0.41007996 C-44.78423032 -0.02957715 -22.38837686 -0.00168189 0 0 Z " fill="#3D9BFB" transform="translate(119.65283203125,36.814697265625)"/>
<path d="M0 0 C1.29744141 -0.04350586 1.29744141 -0.04350586 2.62109375 -0.08789062 C9.44853413 -0.1544249 15.75747461 1.09384667 21.00244141 5.76049805 C25.39060096 10.72234976 25.66883935 15.28461508 25.59375 21.6484375 C25.07934312 27.91317849 23.07475604 33.99380526 18.375 38.3125 C8.20900311 43.39549844 -3.80206205 43.28437231 -14.625 40.3125 C-19.06811274 38.13333974 -21.15562526 34.79909338 -23.00976562 30.2722168 C-24.04073513 26.98825162 -24.11402792 23.71902289 -24.0625 20.3125 C-24.05420166 19.60770508 -24.04590332 18.90291016 -24.03735352 18.17675781 C-23.85579365 12.62270575 -23.30607502 9.46550772 -19.625 5.3125 C-13.26858647 0.66076101 -7.58273868 0.0825407 0 0 Z M10.375 6.3125 C8.07405781 10.18206269 5.78591721 14.05904555 3.5 17.9375 C2.84902344 19.03191406 2.19804687 20.12632812 1.52734375 21.25390625 C0.90214844 22.31738281 0.27695312 23.38085938 -0.3671875 24.4765625 C-1.23126221 25.93763428 -1.23126221 25.93763428 -2.11279297 27.42822266 C-3.63665503 30.33472998 -4.67707847 33.17581545 -5.625 36.3125 C5.27433142 36.88511417 5.27433142 36.88511417 15.375 33.3125 C19.05575754 29.53972352 20.10402158 24.65362457 20.48046875 19.5234375 C20.27297288 15.17370935 18.58502747 11.89079669 15.9375 8.4375 C14.11880675 7.12804086 12.54307131 6.8022081 10.375 6.3125 Z " fill="#001434" transform="translate(302.625,150.6875)"/>
<path d="M0 0 C0.721875 0.103125 1.44375 0.20625 2.1875 0.3125 C1.77743922 3.18292547 1.44279742 4.11228551 -0.89453125 5.9453125 C-3.20730408 8.29134441 -3.20730408 8.29134441 -2.80859375 12.0703125 C-2.63305923 13.52736593 -2.44632157 14.98310153 -2.25 16.4375 C-1.53856999 24.13100314 -2.16688446 28.90580145 -6.8125 35.3125 C-7.18938965 35.83859863 -7.5662793 36.36469727 -7.95458984 36.90673828 C-12.15922057 42.72460119 -16.45567506 48.49578468 -21.8125 53.3125 C-26.76123271 53.64241551 -30.06337513 51.1617999 -33.78125 48.1875 C-38.95668687 43.41017366 -43.48364612 38.61305616 -43.8125 31.3125 C-41.06388894 24.65634858 -35.8220204 18.83547888 -31.3125 13.25 C-30.87454102 12.68982178 -30.43658203 12.12964355 -29.98535156 11.55249023 C-26.65605522 7.57555891 -23.8809461 6.20427559 -18.8125 5.3125 C-15.8984375 5.29296875 -15.8984375 5.29296875 -13.1875 5.5 C-8.61598455 5.65447795 -8.61598455 5.65447795 -4.9375 2.8125 C-2.8125 0.3125 -2.8125 0.3125 0 0 Z M-33.1875 23.3125 C-34.02474609 24.36050781 -34.02474609 24.36050781 -34.87890625 25.4296875 C-37.95172913 29.31378902 -37.95172913 29.31378902 -38.90625 34.01953125 C-37.5851111 36.78920459 -36.02410509 38.74906521 -33.9375 41 C-32.88949219 42.15048828 -32.88949219 42.15048828 -31.8203125 43.32421875 C-28.67638331 46.47456245 -28.67638331 46.47456245 -24.47265625 47.3515625 C-20.51982426 45.8075782 -18.72774993 43.03469616 -16.25 39.6875 C-15.78142578 39.08292969 -15.31285156 38.47835937 -14.83007812 37.85546875 C-8.03327894 29.05249701 -8.03327894 29.05249701 -6.8125 18.3125 C-7.4725 17.3225 -8.1325 16.3325 -8.8125 15.3125 C-9.4725 16.9625 -10.1325 18.6125 -10.8125 20.3125 C-12.4625 20.3125 -14.1125 20.3125 -15.8125 20.3125 C-16.4725 18.0025 -17.1325 15.6925 -17.8125 13.3125 C-15.5025 12.6525 -13.1925 11.9925 -10.8125 11.3125 C-10.8125 10.9825 -10.8125 10.6525 -10.8125 10.3125 C-12.53944675 10.17640087 -14.26954722 10.08000772 -16 10 C-16.96292969 9.94199219 -17.92585938 9.88398438 -18.91796875 9.82421875 C-25.32838406 10.90559785 -29.40623148 18.3740722 -33.1875 23.3125 Z " fill="#3D9CFB" transform="translate(83.8125,185.6875)"/>
<path d="M0 0 C0 0.99 0 1.98 0 3 C-5.21954837 4.64875411 -10.18493325 5.50982194 -15.625 6.03515625 C-16.44838867 6.11873886 -17.27177734 6.20232147 -18.12011719 6.28843689 C-19.86459373 6.46376607 -21.60939714 6.63586951 -23.35449219 6.80493164 C-25.93790074 7.05645398 -28.5196691 7.3213198 -31.1015625 7.58789062 C-53.39173852 9.83150353 -75.73666074 10.18491837 -98.12133789 10.55224609 C-110.44178917 10.75861247 -122.71033197 11.06846781 -135 12 C-135.33 10.68 -135.66 9.36 -136 8 C-130.97044711 5.09833487 -125.69184751 4.87759596 -119.99023438 4.8581543 C-118.81620056 4.85096375 -117.64216675 4.84377319 -116.43255615 4.83636475 C-115.16575012 4.83235657 -113.89894409 4.82834839 -112.59375 4.82421875 C-109.84079673 4.80549848 -107.0878834 4.78228246 -104.33496094 4.75952148 C-103.61857075 4.75398569 -102.90218056 4.7484499 -102.16408157 4.74274635 C-76.51771683 4.54246364 -51.15751283 3.7486596 -25.62451172 1.10054016 C-24.7945166 1.01451035 -23.96452148 0.92848053 -23.109375 0.83984375 C-22.31805176 0.75691574 -21.52672852 0.67398773 -20.71142578 0.58854675 C-13.7915788 -0.10028008 -6.95477507 -0.20003941 0 0 Z " fill="#3D9CFB" transform="translate(182,171)"/>
<path d="M0 0 C0.15855469 0.65226563 0.31710938 1.30453125 0.48046875 1.9765625 C2.05148985 7.86138187 3.74423023 11.62920943 8 16 C-5.92261002 28.82245827 -5.92261002 28.82245827 -12.25 29.1875 C-16.81233817 27.21739943 -19.28950409 24.06574387 -22 20 C-22.41925264 16.22672622 -22.47188421 13.8579713 -20.625 10.5 C-14.64399493 4.8038047 -8.5100812 -0.23000219 0 0 Z " fill="#3B98F5" transform="translate(162,235)"/>
<path d="M0 0 C3.581146 0.86284858 5.09200189 2.5521746 7.15625 5.51953125 C8.3201755 9.51013295 8.21474042 12.52078967 7.15625 16.51953125 C8.105 17.13828125 9.05375 17.75703125 10.03125 18.39453125 C13.15625 20.51953125 13.15625 20.51953125 15.15625 22.51953125 C15.59375 25.89453125 15.59375 25.89453125 15.15625 29.51953125 C10.89907621 34.2927261 5.8804978 35.34042845 -0.23046875 35.7421875 C-11.17894834 36.0053171 -11.17894834 36.0053171 -15.84375 32.51953125 C-16.84375 30.70703125 -16.84375 30.70703125 -16.84375 28.51953125 C-15.13276641 24.28709817 -12.7955385 20.9802488 -9.84375 17.51953125 C-10.50375 16.52953125 -11.16375 15.53953125 -11.84375 14.51953125 C-12.36228954 10.00082956 -12.53735888 6.83917553 -9.90625 3.01953125 C-6.32537712 0.09636972 -4.50723971 -0.32301885 0 0 Z M-3.84375 4.51953125 C-6.0124689 6.70853711 -6.0124689 6.70853711 -7.84375 9.51953125 C-7.71225174 12.27077378 -7.71225174 12.27077378 -6.84375 14.51953125 C-2.20873163 15.67962524 -2.20873163 15.67962524 2.15625 14.39453125 C3.39257418 12.49339696 3.39257418 12.49339696 2.90625 9.95703125 C2.236737 7.5435061 2.236737 7.5435061 1.15625 5.51953125 C-1.37108235 4.86398006 -1.37108235 4.86398006 -3.84375 4.51953125 Z M-8.84375 24.51953125 C-10.17673974 27.13771581 -10.17673974 27.13771581 -10.84375 29.51953125 C-5.99588383 32.47387793 -1.22845305 31.52318892 4.15625 30.51953125 C7.22639777 29.15497024 7.22639777 29.15497024 9.15625 27.51953125 C8.80603759 24.98049129 8.31613127 23.69859827 6.59375 21.76953125 C0.69682757 18.74546846 -4.46783214 19.75750299 -8.84375 24.51953125 Z " fill="#3D9CFB" transform="translate(167.84375,47.48046875)"/>
<path d="M0 0 C5.10169136 2.59832335 10.14371528 5.93658617 13 11 C12.75 13.8125 12.75 13.8125 12 16 C11.34 16 10.68 16 10 16 C10.04640625 16.61488281 10.0928125 17.22976562 10.140625 17.86328125 C10.19476563 19.07564453 10.19476563 19.07564453 10.25 20.3125 C10.29640625 21.11300781 10.3428125 21.91351563 10.390625 22.73828125 C10 25 10 25 8.4921875 26.7734375 C4.9889171 28.4976176 1.68980178 28.39780415 -2.125 28.3125 C-2.85332031 28.31572266 -3.58164063 28.31894531 -4.33203125 28.32226562 C-9.73263889 28.26736111 -9.73263889 28.26736111 -12 26 C-12.56520003 23.34462628 -12.73788198 20.70855287 -13 18 C-14.32 17.67 -15.64 17.34 -17 17 C-17.6640625 15.28125 -17.6640625 15.28125 -18 13 C-14.38727994 5.28562032 -9.13303088 -1.52217181 0 0 Z M-6.921875 6.75 C-7.82679688 7.86375 -7.82679688 7.86375 -8.75 9 C-9.67039063 10.11375 -9.67039063 10.11375 -10.609375 11.25 C-11.29773438 12.11625 -11.29773438 12.11625 -12 13 C-11.52949219 13.58265625 -11.05898437 14.1653125 -10.57421875 14.765625 C-8.52898578 17.66853632 -7.85510475 20.57958099 -7 24 C-5.20866022 24.05391993 -3.41686101 24.09275571 -1.625 24.125 C-0.62726563 24.14820312 0.37046875 24.17140625 1.3984375 24.1953125 C4.16262173 24.27216848 4.16262173 24.27216848 6 22 C6.16706799 19.85449027 6.16706799 19.85449027 6 17.5 C5.875 15.09375 5.875 15.09375 6 13 C6.66 12.34 7.32 11.68 8 11 C6.59138651 9.98868775 5.17274547 8.99133233 3.75 8 C2.96109375 7.443125 2.1721875 6.88625 1.359375 6.3125 C-1.92692908 4.48435733 -4.04814444 4.13326974 -6.921875 6.75 Z " fill="#3D9CFB" transform="translate(173,90)"/>
<path d="M0 0 C3 2 3 2 5 5 C5.42044782 7.80662574 5.23163505 10.12772539 5 13 C5 13.99 5 14.98 5 16 C6.63631892 17.04892238 8.30485863 18.04906703 10 19 C11.73591152 22.47182303 11.46571673 26.20408964 11 30 C9.39285226 33.15689734 8.02561766 35.19415756 5.25 37.375 C0.16589865 38.78725038 -3.74323564 38.5386133 -8.5 36.5 C-9.325 36.005 -10.15 35.51 -11 35 C-10.67 33.68 -10.34 32.36 -10 31 C-9.319375 31.165 -8.63875 31.33 -7.9375 31.5 C-3.41822288 32.26923866 0.62962405 32.45679198 5 31 C5.67673447 27.59679066 5.67673447 27.59679066 6 24 C3.50494038 21.50494038 2.32671112 21.64051624 -1.125 21.375 C-2.03507812 21.30023438 -2.94515625 21.22546875 -3.8828125 21.1484375 C-4.58148438 21.09945312 -5.28015625 21.05046875 -6 21 C-6.33 19.68 -6.66 18.36 -7 17 C-6.030625 16.484375 -5.06125 15.96875 -4.0625 15.4375 C-0.64608309 13.23561704 -0.64608309 13.23561704 -0.125 9.25 C-0.08375 8.1775 -0.0425 7.105 0 6 C-4.7897321 5.76571687 -4.7897321 5.76571687 -9 8 C-11.1875 7.625 -11.1875 7.625 -13 7 C-10.73290176 0.37309746 -6.84267069 -1.26469594 0 0 Z " fill="#3D9CFB" transform="translate(129,49)"/>
<path d="M0 0 C0 1.65 0 3.3 0 5 C-4.26616316 6.13764351 -7.56486311 7 -12 7 C-11.81535634 11.34184202 -11.81535634 11.34184202 -10 15 C-8.9275 14.95875 -7.855 14.9175 -6.75 14.875 C-2.73359876 15.00888004 -1.13497005 15.58159453 2 18 C4.68408645 22.02612967 4.80610406 25.26816918 4 30 C2.07643127 33.57339883 -0.0882254 35.69607513 -4 37 C-9.03415457 37.37290034 -11.89042374 36.98878273 -16 34 C-15.67 32.68 -15.34 31.36 -15 30 C-14.32453125 30.11859375 -13.6490625 30.2371875 -12.953125 30.359375 C-7.39323582 31.29923023 -7.39323582 31.29923023 -2.3125 29.375 C-0.75134606 27.05817121 -0.75134606 27.05817121 -1.1875 24.3125 C-1.78926899 22.06648733 -1.78926899 22.06648733 -3 21 C-5.80927959 20.75649904 -8.61734162 20.61608999 -11.43359375 20.4765625 C-12.70396484 20.24066406 -12.70396484 20.24066406 -14 20 C-16.11819479 16.82270782 -16.43397025 15.28218568 -16.8125 11.5625 C-16.97685547 10.14130859 -16.97685547 10.14130859 -17.14453125 8.69140625 C-16.967668 5.39792565 -16.40433811 4.24236165 -14 2 C-11.40625 1.171875 -11.40625 1.171875 -8.5 0.75 C-7.5409375 0.60046875 -6.581875 0.4509375 -5.59375 0.296875 C-3 0 -3 0 0 0 Z " fill="#3D9CFB" transform="translate(110,132)"/>
<path d="M0 0 C-0.375 2.4375 -0.375 2.4375 -1 5 C-3.40545638 6.20272819 -4.94996953 6.10071472 -7.625 6.0625 C-8.85089844 6.04896484 -8.85089844 6.04896484 -10.1015625 6.03515625 C-11.04128906 6.01775391 -11.04128906 6.01775391 -12 6 C-11.34 8.31 -10.68 10.62 -10 13 C-8.98679688 13.12955078 -8.98679688 13.12955078 -7.953125 13.26171875 C-3.75581451 13.92285581 -0.76015851 14.4027326 2.625 17.0625 C4.53046855 21.13327372 4.67378661 24.5802807 4 29 C2.37599816 32.63467079 1.33886956 33.77408696 -2 36 C-4.41015625 36.265625 -4.41015625 36.265625 -7.0625 36.25 C-7.94035156 36.25515625 -8.81820312 36.2603125 -9.72265625 36.265625 C-12 36 -12 36 -14 34 C-14 32.68 -14 31.36 -14 30 C-13.38511719 30.10699219 -12.77023438 30.21398437 -12.13671875 30.32421875 C-11.32847656 30.44410156 -10.52023438 30.56398437 -9.6875 30.6875 C-8.88699219 30.81511719 -8.08648437 30.94273437 -7.26171875 31.07421875 C-4.93957413 31.20943165 -4.93957413 31.20943165 -3.22265625 29.7109375 C-1.3944296 27.15258838 -1.73977682 25.05762235 -2 22 C-2.33 21.34 -2.66 20.68 -3 20 C-5.51963422 19.64327759 -8.01333243 19.55624883 -10.5546875 19.44140625 C-13.42603494 18.92309593 -14.30331804 18.34227479 -16 16 C-17.00955361 13.1474241 -17.18953291 10.38827664 -17.25 7.375 C-17.27578125 6.59898437 -17.3015625 5.82296875 -17.328125 5.0234375 C-17.21984375 4.35570312 -17.1115625 3.68796875 -17 3 C-13.32561113 0.55040742 -11.33163807 0.92264932 -7 1 C-4 0 -4 0 0 0 Z " fill="#3D9CFB" transform="translate(140,129)"/>
<path d="M0 0 C0.99 0 1.98 0 3 0 C8.23989835 10.47979669 3.77242156 29.1598405 1.50219727 40.14990234 C-0.18981061 48.42581369 -0.77636986 56.56914357 -1 65 C-2.9375 64.625 -2.9375 64.625 -5 64 C-9.44767289 55.10465421 -5.18963882 40.40425622 -3.5 31.17871094 C-1.98998706 22.68219168 -1.41388903 14.34157153 -1.17578125 5.7265625 C-1 2 -1 2 0 0 Z " fill="#001434" transform="translate(218,297)"/>
<path d="M0 0 C1.32 0 2.64 0 4 0 C3.35286863 4.01025347 1.27408479 7.07941792 -0.875 10.4375 C-1.50474731 11.43317993 -1.50474731 11.43317993 -2.1472168 12.44897461 C-6.96967033 20.02901209 -11.89555573 27.54355233 -16.8125 35.0625 C-17.22796082 35.69823944 -17.64342163 36.33397888 -18.07147217 36.98898315 C-20.69762542 41.00391893 -23.34310199 45.00534517 -26 49 C-26.52126465 49.80034668 -27.0425293 50.60069336 -27.57958984 51.42529297 C-28.88671875 53.37109375 -28.88671875 53.37109375 -31 56 C-31.99 56 -32.98 56 -34 56 C-33.79228751 48.81908244 -30.27406331 44.18150734 -26.3125 38.375 C-25.64565186 37.37678223 -24.97880371 36.37856445 -24.29174805 35.35009766 C-22.90015494 33.26901777 -21.50334772 31.19141581 -20.1015625 29.1171875 C-18.06035005 26.08951549 -16.04184866 23.04806757 -14.03125 20 C-2.55821553 2.63900128 -2.55821553 2.63900128 0 0 Z " fill="#001434" transform="translate(72,307)"/>
<path d="M0 0 C2.5625 2.125 2.5625 2.125 4 5 C4.25 8.125 4.25 8.125 4 11 C4 11.99 4 12.98 4 14 C4.48339844 14.46921875 4.96679688 14.9384375 5.46484375 15.421875 C7.41289758 17.42445451 7.49010817 18.48945803 7.5625 21.25 C7.43102606 25.98306173 5.71456826 28.34132008 2.5078125 31.6875 C-0.50887547 34.31342528 -3.11351009 34.1499974 -7.02734375 34.23046875 C-9 34 -9 34 -12 32 C-12 31.01 -12 30.02 -12 29 C-9 28 -9 28 -6.5625 28.5625 C-4.03661609 29.19422091 -4.03661609 29.19422091 -1.8125 28.3125 C0.39203122 26.71611533 1.16328358 25.58621439 2 23 C1.70194993 20.80252869 1.70194993 20.80252869 1 19 C-1.31 18.67 -3.62 18.34 -6 18 C-6.8125 16.3125 -6.8125 16.3125 -7 14 C-5.37550757 12.29220027 -3.70779973 10.62449243 -2 9 C-2 8.01 -2 7.02 -2 6 C-5.05263664 5.01879536 -6.94736336 5.01879536 -10 6 C-10.33 7.32 -10.66 8.64 -11 10 C-12.32 9.67 -13.64 9.34 -15 9 C-14.18820936 5.95578511 -13.47032662 3.56439194 -11.4375 1.125 C-7.65325906 -0.62157274 -4.08245304 -0.79401839 0 0 Z " fill="#3D9CFB" transform="translate(76,53)"/>
<path d="M0 0 C2.5 1.4375 2.5 1.4375 4 4 C3.8609457 6.57250449 3.48117619 9.06250471 3.09765625 11.609375 C2.95497273 15.10226749 4.74483748 16.47148444 7 19 C7.64382155 23.42627318 7.3076673 25.44619886 5.125 29.375 C3 32 3 32 1 33 C-0.64142541 33.14640501 -2.2898141 33.22096589 -3.9375 33.25 C-4.81277344 33.27578125 -5.68804687 33.3015625 -6.58984375 33.328125 C-9.4193869 32.94290357 -10.25132925 32.19305243 -12 30 C-11.67 29.01 -11.34 28.02 -11 27 C-10.38511719 27.10699219 -9.77023438 27.21398437 -9.13671875 27.32421875 C-8.32847656 27.44410156 -7.52023438 27.56398438 -6.6875 27.6875 C-5.88699219 27.81511719 -5.08648437 27.94273438 -4.26171875 28.07421875 C-1.93506681 28.21163406 -1.93506681 28.21163406 -0.21875 26.6875 C1.43115106 24.40302161 1.22293357 22.749514 1 20 C-1.97 19.01 -4.94 18.02 -8 17 C-6 13 -6 13 -3.9375 11 C-1.92392778 8.92147384 -1.40175906 7.81231342 -1 5 C-3.91652174 4.83318891 -3.91652174 4.83318891 -7 5 C-7.66 5.66 -8.32 6.32 -9 7 C-10.32 7 -11.64 7 -13 7 C-12.73136414 3.68682445 -12.40940132 2.36123646 -9.875 0.125 C-6.09009484 -1.35604984 -3.89942866 -1.06348054 0 0 Z " fill="#3D9CFB" transform="translate(102,53)"/>
<path d="M0 0 C-0.33 0.99 -0.66 1.98 -1 3 C-18.31270086 5.31817636 -35.75273648 5.13199255 -53.1875 5.0625 C-55.41341044 5.05746878 -57.63932199 5.05290877 -59.86523438 5.04882812 C-65.24351454 5.03796529 -70.62175179 5.02135898 -76 5 C-76 3.68 -76 2.36 -76 1 C-50.65945317 0.19376835 -25.3529872 -0.13944357 0 0 Z " fill="#3D9CFB" transform="translate(117,284)"/>
<path d="M0 0 C0.99 0.33 1.98 0.66 3 1 C8.32631926 14.04948219 3.4772215 31.25260124 -1 44 C-3.56168177 49.89843648 -6.31301621 54.57508412 -11 59 C-11.99 58.67 -12.98 58.34 -14 58 C-12.91131504 54.23908834 -11.46657035 50.93382042 -9.625 47.5 C-2.72510024 33.88338365 -0.56342278 18.32317033 -1.02734375 3.1953125 C-1 1 -1 1 0 0 Z " fill="#001434" transform="translate(348,275)"/>
<path d="M0 0 C2.27319336 -0.06982422 2.27319336 -0.06982422 5 1 C6.69873376 3.85407972 7.61557188 6.9665053 8.62890625 10.1171875 C8.94528549 11.04411407 9.26166473 11.97104065 9.58763123 12.92605591 C10.59889452 15.90282419 11.58111003 18.88826552 12.5625 21.875 C13.2265837 23.84960911 13.8925782 25.8235767 14.56054688 27.796875 C15.83231141 31.55844849 17.09267562 35.32353853 18.34521484 39.09155273 C19.9096958 43.77325893 21.58064837 48.40762709 23.36206055 53.01147461 C24.23027125 55.71778008 24.30398626 58.18812709 24 61 C22.12548828 60.78637695 22.12548828 60.78637695 20 60 C18.87841797 58.03588867 18.87841797 58.03588867 17.9921875 55.41796875 C17.47881836 53.94529541 17.47881836 53.94529541 16.95507812 52.44287109 C16.59865234 51.36859863 16.24222656 50.29432617 15.875 49.1875 C15.09175039 46.91255218 14.30787149 44.63782095 13.5234375 42.36328125 C13.11577148 41.16525879 12.70810547 39.96723633 12.28808594 38.73291016 C10.97407031 34.92485502 9.6108482 31.13834008 8.2265625 27.35546875 C7.76698732 26.09419425 7.30751375 24.83288273 6.84814453 23.5715332 C5.96437809 21.14829749 5.07744527 18.72621371 4.18701172 16.30541992 C2.21995296 10.85481441 0.47005203 5.7917125 0 0 Z " fill="#001434" transform="translate(111,305)"/>
<path d="M0 0 C3.5442914 0.80009747 4.97740702 2.51479019 6.97265625 5.4453125 C7.28515625 9.0078125 7.28515625 9.0078125 6.97265625 12.4453125 C6.67451385 16.2217057 6.67451385 16.2217057 7.97265625 18.4453125 C8.61957385 23.1493276 8.61099302 26.43632857 6.03515625 30.5078125 C1.92227701 33.10983814 -1.28214715 33.25978654 -6.02734375 32.4453125 C-8.58984375 31.1953125 -8.58984375 31.1953125 -10.02734375 29.4453125 C-10.02734375 28.1253125 -10.02734375 26.8053125 -10.02734375 25.4453125 C-9.30546875 25.5896875 -8.58359375 25.7340625 -7.83984375 25.8828125 C-6.91171875 26.0684375 -5.98359375 26.2540625 -5.02734375 26.4453125 C-4.14046875 26.6721875 -3.25359375 26.8990625 -2.33984375 27.1328125 C-1.57671875 27.2359375 -0.81359375 27.3390625 -0.02734375 27.4453125 C2.32239443 25.54776106 2.32239443 25.54776106 2.09765625 22.3203125 C2.05640625 21.3715625 2.01515625 20.4228125 1.97265625 19.4453125 C-0.33734375 18.4553125 -2.64734375 17.4653125 -5.02734375 16.4453125 C-3.7818797 12.70892034 -2.39329422 12.25774737 0.97265625 10.4453125 C0.64265625 8.7953125 0.31265625 7.1453125 -0.02734375 5.4453125 C-3.051539 6.03335047 -6.04492828 6.67209368 -9.02734375 7.4453125 C-9.35734375 6.4553125 -9.68734375 5.4653125 -10.02734375 4.4453125 C-7.17602927 0.64355986 -4.78271338 -0.26818954 0 0 Z " fill="#3D9CFB" transform="translate(131.02734375,187.5546875)"/>
<path d="M0 0 C1.65 0 3.3 0 5 0 C3.33333333 5 1.66666667 10 0 15 C2.64 14.67 5.28 14.34 8 14 C8.33 11.36 8.66 8.72 9 6 C10.65 5.67 12.3 5.34 14 5 C13.67 7.64 13.34 10.28 13 13 C15.475 13.495 15.475 13.495 18 14 C17.67 15.32 17.34 16.64 17 18 C15.35 18 13.7 18 12 18 C12 21.96 12 25.92 12 30 C11.01 30.33 10.02 30.66 9 31 C6.55423173 27.33134759 6.76392746 25.32799657 7 21 C7.33 20.34 7.66 19.68 8 19 C6.96939453 19.05220703 6.96939453 19.05220703 5.91796875 19.10546875 C5.01691406 19.13253906 4.11585937 19.15960938 3.1875 19.1875 C1.84751953 19.23970703 1.84751953 19.23970703 0.48046875 19.29296875 C-2 19 -2 19 -3.828125 17.71875 C-5.52782591 15.22585533 -5.06331199 13.08309846 -4.59375 10.20703125 C-3.60467041 6.5305183 -1.88241825 3.29204309 0 0 Z " fill="#3D9CFB" transform="translate(90,93)"/>
<path d="M0 0 C0.99 0 1.98 0 3 0 C2.50130596 5.36891879 1.97772468 10.69235173 1 16 C4.63 16 8.26 16 12 16 C11.95875 15.05125 11.9175 14.1025 11.875 13.125 C12 10 12 10 14 8 C14.99 8 15.98 8 17 8 C17.125 13.75 17.125 13.75 16 16 C16.99 16 17.98 16 19 16 C18.67 17.32 18.34 18.64 18 20 C17.34 20 16.68 20 16 20 C16 23.63 16 27.26 16 31 C14.68 31.33 13.36 31.66 12 32 C11 31 11 31 10.90234375 28.71484375 C10.91394531 27.79832031 10.92554687 26.88179687 10.9375 25.9375 C10.94652344 25.01839844 10.95554687 24.09929687 10.96484375 23.15234375 C10.97644531 22.44207031 10.98804687 21.73179687 11 21 C10.16855469 21.03480469 9.33710937 21.06960937 8.48046875 21.10546875 C6.85044922 21.14607422 6.85044922 21.14607422 5.1875 21.1875 C4.10855469 21.22230469 3.02960938 21.25710937 1.91796875 21.29296875 C-1 21 -1 21 -2.8671875 19.68359375 C-5.13022123 16.32025742 -4.23310036 12.43862947 -3.61328125 8.61328125 C-2.3532006 2.3532006 -2.3532006 2.3532006 0 0 Z " fill="#3D9CFB" transform="translate(98,188)"/>
<path d="M0 0 C1.32 0.33 2.64 0.66 4 1 C3.01 4.96 2.02 8.92 1 13 C4.465 12.505 4.465 12.505 8 12 C8.66 8.37 9.32 4.74 10 1 C11.65 0.67 13.3 0.34 15 0 C14.67 3.96 14.34 7.92 14 12 C15.65 12 17.3 12 19 12 C19.33 13.32 19.66 14.64 20 16 C17.69 16.66 15.38 17.32 13 18 C12.67 20.97 12.34 23.94 12 27 C10.68 27 9.36 27 8 27 C6.875 21.375 6.875 21.375 8 18 C6.741875 18.061875 5.48375 18.12375 4.1875 18.1875 C1.62294156 18.16934383 0.28536227 18.1515987 -2 16.9375 C-3.89876345 13.25864581 -3.50281885 9.65294472 -2.3203125 5.765625 C-1.59743007 3.82416934 -0.80392534 1.90932269 0 0 Z " fill="#3D9CFB" transform="translate(121,94)"/>
<path d="M0 0 C0.39967565 4.42519291 -0.6359498 6.53305302 -3.1484375 10.140625 C-4.15559814 11.61184814 -4.15559814 11.61184814 -5.18310547 13.11279297 C-5.90643066 14.14807129 -6.62975586 15.18334961 -7.375 16.25 C-12.91613506 24.34499302 -18.23638271 32.46501592 -23.07958984 40.99707031 C-24.56518717 43.60692128 -25.86486677 45.86486677 -28 48 C-29.32 48 -30.64 48 -32 48 C-31.53985941 42.62812613 -28.55916592 38.76148424 -25.6875 34.375 C-24.59588618 32.68259343 -23.50475482 30.98987559 -22.4140625 29.296875 C-21.85106445 28.42740234 -21.28806641 27.55792969 -20.70800781 26.66210938 C-19.01585195 24.02470693 -17.35801185 21.36887581 -15.7109375 18.703125 C-15.18282471 17.85186035 -14.65471191 17.0005957 -14.1105957 16.12353516 C-13.10203416 14.49577632 -12.09774263 12.86536155 -11.09838867 11.23193359 C-4.09150046 0 -4.09150046 0 0 0 Z " fill="#001434" transform="translate(90,305)"/>
<path d="M0 0 C1.32 0 2.64 0 4 0 C6.95747011 7.80076462 9.48418331 15.65989623 11.75 23.6875 C12.22373047 25.30108398 12.22373047 25.30108398 12.70703125 26.94726562 C14.37120614 32.82951149 15.38440235 37.88652414 15 44 C13.14306641 43.40478516 13.14306641 43.40478516 11 42 C9.75146484 39.14599609 9.75146484 39.14599609 8.7109375 35.5234375 C8.52157623 34.87935944 8.33221497 34.23528137 8.13711548 33.57168579 C7.53498493 31.51007124 6.95496879 29.44294519 6.375 27.375 C5.97796479 26.00610292 5.57954145 24.63760764 5.1796875 23.26953125 C0 5.44818751 0 5.44818751 0 0 Z " fill="#001434" transform="translate(100,305)"/>
<path d="M0 0 C1.32 0 2.64 0 4 0 C5.4783226 2.95664519 5.06032783 5.74229737 5 9 C2.36 9.33 -0.28 9.66 -3 10 C-3.33 8.68 -3.66 7.36 -4 6 C-8.05590453 7.80262424 -10.7417089 9.12864383 -13 13 C-13.36100534 15.81829883 -13.36100534 15.81829883 -13.1875 18.75 C-13.16042969 19.73484375 -13.13335937 20.7196875 -13.10546875 21.734375 C-13.07066406 22.48203125 -13.03585938 23.2296875 -13 24 C-14.32 24 -15.64 24 -17 24 C-19.34515209 20.33569986 -19.36881381 17.27824017 -19 13 C-17.01155883 7.66260527 -14.09332352 4.54666176 -9 2 C-7.45976004 1.93049459 -5.91665012 1.91547643 -4.375 1.9375 C-3.14910156 1.95103516 -3.14910156 1.95103516 -1.8984375 1.96484375 C-0.95871094 1.98224609 -0.95871094 1.98224609 0 2 C0 1.34 0 0.68 0 0 Z " fill="#3D9CFB" transform="translate(174,126)"/>
<path d="M0 0 C3.79693103 2.00592583 7.00240025 4.12230637 9 8 C8.6875 10.75 8.6875 10.75 8 13 C1.95641015 13.32248404 -2.80745507 13.54612824 -8 10 C-9.9375 8.125 -9.9375 8.125 -11 6 C-10.8125 3.3125 -10.8125 3.3125 -10 1 C-6.78548618 -0.60725691 -3.48666924 -0.47397924 0 0 Z " fill="#001434" transform="translate(276,215)"/>
<path d="M0 0 C2.93038162 1.2469709 4.41759241 2.22345655 6.3125 4.75 C7.73381604 9.40157975 7.53928374 13.48061423 5.5 17.875 C4.13554991 20.0848159 3.44747354 20.85568124 0.953125 21.66015625 C-1.25 21.9375 -1.25 21.9375 -5 22 C-4.65066406 21.48050781 -4.30132812 20.96101563 -3.94140625 20.42578125 C-0.34015152 15.1357953 -0.34015152 15.1357953 1 9 C-0.66522058 6.00322742 -0.66522058 6.00322742 -2.8125 5 C-3.534375 5 -4.25625 5 -5 5 C-5.825 5.825 -6.65 6.65 -7.5 7.5 C-8.325 8.325 -9.15 9.15 -10 10 C-12.3125 9.8125 -12.3125 9.8125 -14 9 C-13.71827807 5.83062828 -13.51665615 3.64582019 -11.5 1.125 C-7.68021123 -0.59390495 -4.11850681 -0.54423126 0 0 Z " fill="#3D9CFB" transform="translate(159,184)"/>
<path d="M0 0 C1.32 0.33 2.64 0.66 4 1 C4.45858928 6.73236598 3.65645061 9.55296547 0 14 C-3.22827752 17.06272483 -5.56120611 18.49270927 -10 19 C-10.33 19.99 -10.66 20.98 -11 22 C-13.31998359 21.60000283 -14.86323424 21.09432121 -16.8125 19.75 C-18 18 -18 18 -17.9375 15.5 C-16.8144738 12.50526347 -15.81073584 11.48803662 -13 10 C-10 11 -10 11 -9 13 C-4.29715771 10.40106084 -2.48195205 8.5797317 -0.875 3.3125 C-0.441875 1.6728125 -0.441875 1.6728125 0 0 Z " fill="#3D9CFB" transform="translate(183,139)"/>
<path d="M0 0 C9.29414867 2.94733363 18.95146458 14.88473247 24 23 C24 24.32 24 25.64 24 27 C19.5789722 26.74089214 17.57414939 24.9558746 14.64746094 21.74584961 C14.14504883 21.16971924 13.64263672 20.59358887 13.125 20 C12.60196289 19.41420166 12.07892578 18.82840332 11.54003906 18.22485352 C10.01006273 16.4968886 8.50113827 14.7530381 7 13 C6.22914063 12.10152344 5.45828125 11.20304687 4.6640625 10.27734375 C0 4.57576531 0 4.57576531 0 0 Z " fill="#001434" transform="translate(125,303)"/>
<path d="M0 0 C1.32 0.33 2.64 0.66 4 1 C4.02721176 2.89575251 4.04649136 4.79161979 4.0625 6.6875 C4.07410156 7.74324219 4.08570313 8.79898437 4.09765625 9.88671875 C4.00779577 12.75147075 3.5638832 15.20146858 3 18 C2.75159873 21.46036773 2.56113736 24.91606926 2.39453125 28.38085938 C2.10240974 33.79518053 2.10240974 33.79518053 1 36 C-0.32 35.67 -1.64 35.34 -3 35 C-3.44751509 22.98339112 -2.15622741 11.80791199 0 0 Z " fill="#001434" transform="translate(242,327)"/>
<path d="M0 0 C1.32 0 2.64 0 4 0 C4.33 2.64 4.66 5.28 5 8 C5.7425 7.649375 6.485 7.29875 7.25 6.9375 C10.1322726 5.95490707 11.21176345 5.9673198 14 7 C14 7.99 14 8.98 14 10 C11.69 10.66 9.38 11.32 7 12 C7.33 14.64 7.66 17.28 8 20 C7.34 20.33 6.68 20.66 6 21 C3.7522025 18.94766315 2.9977758 17.99332739 2 15 C-0.64 15 -3.28 15 -6 15 C-5.67 13.68 -5.34 12.36 -5 11 C-3.02 10.67 -1.04 10.34 1 10 C0.67 9.34 0.34 8.68 0 8 C-0.13415472 5.3276379 -0.04318541 2.67749512 0 0 Z " fill="#3D9CFB" transform="translate(60,137)"/>
<path d="M0 0 C1.32 0 2.64 0 4 0 C4 0.66 4 1.32 4 2 C5.32 2.66 6.64 3.32 8 4 C8 4.99 8 5.98 8 7 C6.68 7.33 5.36 7.66 4 8 C4.825 8.556875 5.65 9.11375 6.5 9.6875 C9 12 9 12 9.5625 14.375 C8.79853362 17.94017644 7.288344 20.18860594 5 23 C4.01 23 3.02 23 2 23 C2 22.01 2 21.02 2 20 C0.68 19.67 -0.64 19.34 -2 19 C-2.33 17.68 -2.66 16.36 -3 15 C-1.02 15 0.96 15 3 15 C3.33 14.34 3.66 13.68 4 13 C3.38125 12.87625 2.7625 12.7525 2.125 12.625 C0 12 0 12 -2 10 C-2.41465662 6.16442626 -1.58969234 3.47745199 0 0 Z " fill="#3D9CFB" transform="translate(56,206)"/>
<path d="M0 0 C0.99 0.33 1.98 0.66 3 1 C3 2.98 3 4.96 3 7 C5.64 7 8.28 7 11 7 C10.67 8.32 10.34 9.64 10 11 C8.35 11.33 6.7 11.66 5 12 C5 13.98 5 15.96 5 18 C3.35 18.33 1.7 18.66 0 19 C-0.33 16.69 -0.66 14.38 -1 12 C-1.78375 12.185625 -2.5675 12.37125 -3.375 12.5625 C-6 13 -6 13 -8 12 C-7.67 10.68 -7.34 9.36 -7 8 C-5.02 8 -3.04 8 -1 8 C-1.020625 6.865625 -1.04125 5.73125 -1.0625 4.5625 C-1 1 -1 1 0 0 Z " fill="#3D9CFB" transform="translate(57,98)"/>
<path d="M0 0 C0.99 0.33 1.98 0.66 3 1 C3 8.92 3 16.84 3 25 C1.02 25.99 1.02 25.99 -1 27 C-2 26 -2 26 -2.03759766 23.71508789 C-1.99683105 22.72758545 -1.95606445 21.74008301 -1.9140625 20.72265625 C-1.84832031 19.11680664 -1.84832031 19.11680664 -1.78125 17.47851562 C-1.7296875 16.35123047 -1.678125 15.22394531 -1.625 14.0625 C-1.58117187 12.93908203 -1.53734375 11.81566406 -1.4921875 10.65820312 C-1.12845108 2.25690216 -1.12845108 2.25690216 0 0 Z " fill="#001434" transform="translate(269,338)"/>
<path d="M0 0 C5.79626107 0.39974214 9.41472463 1.10251593 14 5 C14 5.99 14 6.98 14 8 C7.92671312 8.50610724 4.22771463 7.04157942 -1 4 C-0.67 2.68 -0.34 1.36 0 0 Z " fill="#001434" transform="translate(323,309)"/>
<path d="M0 0 C2.8125 1.625 2.8125 1.625 5 4 C5.8125 7.25 5.8125 7.25 6 10 C4.1875 9.75 4.1875 9.75 2 9 C1.608125 8.29875 1.21625 7.5975 0.8125 6.875 C-0.81886469 4.74558719 -0.81886469 4.74558719 -3.1875 4.9609375 C-5.48100318 5.22612381 -7.73335217 5.56282683 -10 6 C-10 3 -10 3 -8.375 1.3125 C-5.27571098 -0.40026498 -3.49981139 -0.49997306 0 0 Z " fill="#02193C" transform="translate(152,245)"/>
<path d="M0 0 C4.66989808 0.26685132 8.09833692 2.62840087 12 5 C12 5.99 12 6.98 12 8 C8.62422775 9.12525742 7.72141708 8.87828528 4.4375 7.8125 C3.25994141 7.45091797 3.25994141 7.45091797 2.05859375 7.08203125 C-0.44293474 5.7671861 -1.00629727 4.59436983 -2 2 C-1.34 1.34 -0.68 0.68 0 0 Z " fill="#001434" transform="translate(312,323)"/>
<path d="M0 0 C0.66 0 1.32 0 2 0 C2.22245975 2.24864725 2.42746557 4.49902623 2.625 6.75 C2.74101562 8.00296875 2.85703125 9.2559375 2.9765625 10.546875 C2.99888599 13.83586903 2.77961002 15.31020776 1 18 C0.01 17.67 -0.98 17.34 -2 17 C-2.05383848 14.54137599 -2.09359038 12.0839245 -2.125 9.625 C-2.14175781 8.92632812 -2.15851563 8.22765625 -2.17578125 7.5078125 C-2.19344267 5.67102514 -2.10303261 3.83398037 -2 2 C-1.34 1.34 -0.68 0.68 0 0 Z " fill="#001434" transform="translate(299,349)"/>
<path d="M0 0 C1.44096586 0.42594588 2.87768712 0.86626633 4.3125 1.3125 C5.11300781 1.55613281 5.91351563 1.79976563 6.73828125 2.05078125 C9.12757893 3.05354349 10.39589507 3.98059282 12 6 C12 6.66 12 7.32 12 8 C2.40546697 7.40546697 2.40546697 7.40546697 -1 4 C-0.67 2.68 -0.34 1.36 0 0 Z " fill="#001434" transform="translate(331,289)"/>
<path d="M0 0 C1.32 0 2.64 0 4 0 C3.88490339 1.41750563 3.75746342 2.83401169 3.625 4.25 C3.55539063 5.03890625 3.48578125 5.8278125 3.4140625 6.640625 C2.98492887 9.085877 2.21399362 10.84836903 1 13 C0.01 13 -0.98 13 -2 13 C-2.05416188 11.39620659 -2.09286638 9.79188594 -2.125 8.1875 C-2.14820313 7.29417969 -2.17140625 6.40085937 -2.1953125 5.48046875 C-2 3 -2 3 0 0 Z " fill="#001535" transform="translate(233,259)"/>
<path d="M0 0 C1.32 0 2.64 0 4 0 C3.53898164 4.70238725 2.96823597 8.23262357 0 12 C-0.99 12 -1.98 12 -3 12 C-3.28855285 7.0946016 -3.26204794 3.8445565 0 0 Z " fill="#001434" transform="translate(221,254)"/>
<path d="M0 0 C1.46366342 0.39753821 2.9208935 0.81881384 4.375 1.25 C5.18710937 1.48203125 5.99921875 1.7140625 6.8359375 1.953125 C9.45785454 3.2214892 9.99382318 4.32423308 11 7 C7.60729875 8.09763864 6.16152318 8.05901808 2.75 6.8125 C0 5 0 5 -0.9375 2.875 C-0.958125 2.25625 -0.97875 1.6375 -1 1 C-0.67 0.67 -0.34 0.34 0 0 Z " fill="#001434" transform="translate(332,270)"/>
<path d="M0 0 C2.76262553 0.3810518 3.84143894 0.83597132 5.8125 2.875 C6.204375 3.57625 6.59625 4.2775 7 5 C6.67 5.99 6.34 6.98 6 8 C3.08482708 6.92598892 1.22189824 6.22189824 -1 4 C-0.625 1.875 -0.625 1.875 0 0 Z " fill="#001535" transform="translate(166,299)"/>
<path d="M0 0 C4.75 0.75 4.75 0.75 7 3 C7 3.99 7 4.98 7 6 C4.03 5.505 4.03 5.505 1 5 C0.67 3.35 0.34 1.7 0 0 Z " fill="#001434" transform="translate(182,292)"/>
</svg>
