<?xml version="1.0" standalone="no"?>
<!DOCTYPE svg PUBLIC "-//W3C//DTD SVG 20010904//EN"
 "http://www.w3.org/TR/2001/REC-SVG-20010904/DTD/svg10.dtd">
<svg version="1.0" xmlns="http://www.w3.org/2000/svg"
 width="48.000000pt" height="48.000000pt" viewBox="0 0 48.000000 48.000000"
 preserveAspectRatio="xMidYMid meet">

<g transform="translate(0.000000,48.000000) scale(0.100000,-0.100000)"
fill="#000000" stroke="none">
<path d="M100 440 c-42 -7 -60 -15 -79 -36 -23 -28 -24 -31 -18 -172 7 -163
15 -187 72 -198 57 -10 337 0 362 14 36 20 46 80 39 225 -4 70 -9 133 -12 141
-11 27 -55 36 -182 35 -70 -1 -152 -5 -182 -9z m333 -28 c13 -14 17 -45 19
-152 3 -144 -3 -184 -28 -194 -8 -3 -93 -9 -187 -12 -225 -8 -211 -18 -215
161 -4 137 -4 137 18 130 34 -11 400 6 400 18 0 7 -68 8 -210 4 -170 -5 -210
-4 -210 7 0 20 32 44 65 49 17 2 98 5 181 6 134 1 153 -1 167 -17z"/>
<path d="M122 396 c1 -10 8 -17 13 -17 15 1 12 24 -3 29 -9 3 -13 -2 -10 -12z"/>
<path d="M70 384 c0 -17 22 -14 28 4 2 7 -3 12 -12 12 -9 0 -16 -7 -16 -16z"/>
<path d="M172 269 c-61 -36 -74 -56 -66 -98 10 -49 28 -51 22 -4 -5 36 -4 40
13 36 14 -4 19 -14 19 -39 0 -23 6 -37 19 -44 25 -13 82 -13 115 0 22 8 26 16
26 49 0 28 6 42 22 53 29 19 18 33 -45 54 -28 9 -56 18 -62 20 -5 2 -34 -10
-63 -27z m118 -8 l41 -18 -44 -25 c-43 -25 -45 -25 -98 -9 l-54 17 45 27 c54
32 56 32 110 8z m20 -90 c0 -27 -3 -30 -44 -36 -61 -10 -78 -4 -87 28 -8 30
-11 29 51 11 11 -3 30 2 42 10 32 22 38 20 38 -13z"/>
</g>
</svg>
