<?xml version="1.0" encoding="UTF-8"?>
<svg version="1.1" xmlns="http://www.w3.org/2000/svg" width="400" height="400">
<path d="M0 0 C4.01499429 2.95969368 7.71185072 6.0959233 10.51953125 10.24609375 C11.25236328 11.11427734 11.25236328 11.11427734 12 12 C13.9372747 12.03283516 15.87732912 12.05307833 17.8125 11.95703125 C23.62923105 12.07128847 28.9577193 14.9577193 33 19 C38.52410772 26.21024525 40.93362633 33.92797057 40 43 C39.67466742 44.40283407 39.32037135 45.79926578 38.9375 47.1875 C37.84294658 51.63868392 38.17360768 53.78613847 39.7421875 57.98828125 C43.52024642 68.40492942 42.22772714 76.74743847 38 87 C37.02493922 88.38748857 36.00497796 89.7447903 34.9375 91.0625 C29.81438309 97.91061577 29.87812797 107.7482148 29 116 C29.96099609 116.54527344 29.96099609 116.54527344 30.94140625 117.1015625 C36.47377716 120.3170985 41.27462786 123.68552979 46 128 C46.4125 127.46890625 46.825 126.9378125 47.25 126.390625 C51.22766296 121.52509084 54.94660813 118.00025123 61 116 C61.99 116 62.98 116 64 116 C64.165 115.319375 64.33 114.63875 64.5 113.9375 C67.7539117 107.56525625 74.02559147 103.28022501 80.57421875 100.65625 C86.46997079 99.06126394 91.97914139 99.4368099 97.8125 101.0625 C102.25710371 103.76412186 105.6605979 107.3211958 108 112 C108.09751547 114.10231877 108.12976687 116.20792623 108.125 118.3125 C108.12757813 119.44300781 108.13015625 120.57351562 108.1328125 121.73828125 C108 125 108 125 107.38671875 127.78125 C107.25910156 128.5134375 107.13148438 129.245625 107 130 C108.30368347 131.68996005 109.64444707 133.35135455 111 135 C115.59347264 143.24350477 116.36342907 151.70266197 114.375 160.88671875 C110.73858934 172.26673604 103.04070974 181.61356217 93 188 C90.703125 188.7109375 90.703125 188.7109375 89 189 C88.95875 190.27875 88.9175 191.5575 88.875 192.875 C87.78230475 202.40988869 81.19871802 210.07314029 74 216 C65.6776386 221.79731057 58.26480038 225.06994662 48 224 C41.97168175 221.87892506 39.44036207 218.1605431 36 213 C35.78459205 218.70831081 36.44773624 223.77006773 37.5546875 229.3671875 C38.11080381 232.65510324 38.14773691 235.67591953 38 239 C21.36056639 248.65087149 -8.11345116 251.0368196 -27 247 C-31.64392267 244.68476899 -34.14039932 241.84501367 -36 237 C-36.6175603 231.44195734 -35.36129299 226.36009114 -34 221 C-34.66 220.67 -35.32 220.34 -36 220 C-36.11085938 220.73347656 -36.22171875 221.46695313 -36.3359375 222.22265625 C-38.09813868 229.59280355 -43.83763782 235.82463042 -50 240 C-62.12859271 246.6226791 -75.18558242 244.19506259 -87.84228516 240.65478516 C-93.74122182 238.86468014 -99.36722538 236.49626981 -105 234 C-106.54494141 233.34644531 -106.54494141 233.34644531 -108.12109375 232.6796875 C-109.02988281 232.26976562 -109.93867187 231.85984375 -110.875 231.4375 C-111.65617187 231.08558594 -112.43734375 230.73367188 -113.2421875 230.37109375 C-115 229 -115 229 -115.8671875 226.74609375 C-116.03194163 223.33955991 -115.27777081 220.87960756 -114.25 217.625 C-109.87014441 202.59743265 -108.33410942 186.61143475 -109 171 C-109.06993164 171.67353516 -109.13986328 172.34707031 -109.21191406 173.04101562 C-113.02630576 209.02630576 -113.02630576 209.02630576 -118.41796875 214.41796875 C-121 216 -121 216 -124.4375 216 C-132.9465116 213.61150552 -138.24456202 207.13315698 -143 200 C-145.98514628 204.10457614 -146.2954439 206.97745369 -146 212 C-143.03 211.67 -140.06 211.34 -137 211 C-136.67 212.65 -136.34 214.3 -136 216 C-138.97 216.99 -141.94 217.98 -145 219 C-144.34 220.98 -143.68 222.96 -143 225 C-141.84371094 224.76603516 -141.84371094 224.76603516 -140.6640625 224.52734375 C-139.66117188 224.33269531 -138.65828125 224.13804687 -137.625 223.9375 C-136.62726563 223.74027344 -135.62953125 223.54304687 -134.6015625 223.33984375 C-132 223 -132 223 -130 224 C-130.125 226.3125 -130.125 226.3125 -131 229 C-134.0625 230.8125 -134.0625 230.8125 -137 232 C-131.27132304 235.0471686 -127.31596952 235.36367524 -121 234 C-119.93088379 233.61134766 -118.86176758 233.22269531 -117.76025391 232.82226562 C-113.27303573 231.84103262 -111.56823805 232.45764054 -107.4296875 234.32421875 C-106.52526413 234.71731987 -106.52526413 234.71731987 -105.60256958 235.11836243 C-103.68397409 235.95511892 -101.77933487 236.81883479 -99.875 237.6875 C-84.6304176 244.54322675 -68.92061472 250.53406209 -52.25 245.00390625 C-49.95269497 243.97889341 -48.1725869 242.78587542 -46.1875 241.25 C-43 239 -43 239 -40.25 238.8125 C-37.08907051 240.48076834 -36.57683356 242.84633289 -35 246 C-20.15692007 255.5655404 6.57300004 250.40474927 23 247 C23.81968262 246.79600586 24.63936523 246.59201172 25.48388672 246.38183594 C26.6964917 246.08067871 26.6964917 246.08067871 27.93359375 245.7734375 C28.66505615 245.57927246 29.39651855 245.38510742 30.15014648 245.18505859 C31.06582397 245.09345459 31.06582397 245.09345459 32 245 C37.33824991 250.33824991 36.50713948 262.40048405 37.0625 269.625 C37.21901401 271.5756044 37.37655228 273.52612692 37.53515625 275.4765625 C37.64754639 276.86343262 37.64754639 276.86343262 37.76220703 278.27832031 C38.1043736 282.19461696 38.54512234 286.09529794 39 290 C36.06681201 291.466594 33.3360436 291.15843235 30.0625 291.25 C14.04825173 292.07769865 -0.50875922 297.71409588 -15.28076172 303.60913086 C-16.34053223 304.03202393 -17.40030273 304.45491699 -18.4921875 304.890625 C-19.90540283 305.46345215 -19.90540283 305.46345215 -21.34716797 306.04785156 C-26.64525112 307.94942752 -31.4233019 308.27426384 -37 308 C-39.3565289 305.6434711 -39.27054145 305.09913281 -39.37890625 301.89453125 C-39.41306641 301.07533203 -39.44722656 300.25613281 -39.48242188 299.41210938 C-39.50884766 298.55423828 -39.53527344 297.69636719 -39.5625 296.8125 C-39.76760652 291.13497698 -40.08130851 285.61085133 -41 280 C-44.53624004 282.35749336 -44.73738357 283.40206694 -46.015625 287.33984375 C-46.38042969 288.40267578 -46.74523437 289.46550781 -47.12109375 290.56054688 C-47.87096505 292.80367401 -48.60806266 295.05111367 -49.33203125 297.30273438 C-49.70199219 298.36685547 -50.07195312 299.43097656 -50.453125 300.52734375 C-50.77442383 301.50437256 -51.09572266 302.48140137 -51.42675781 303.48803711 C-53.70211584 307.12105367 -55.93895687 307.79840334 -60 309 C-73.12596537 309.16856447 -86.35937294 304.88594059 -98.9375 301.5625 C-112.23269121 298.06809715 -125.38885085 294.98318573 -139 293 C-140.29630584 289.41308922 -139.71637708 287.57567694 -138.19140625 284.140625 C-137.77777832 283.19719238 -137.36415039 282.25375977 -136.93798828 281.28173828 C-136.25712158 279.78102783 -136.25712158 279.78102783 -135.5625 278.25 C-135.10601074 277.22245605 -134.64952148 276.19491211 -134.17919922 275.13623047 C-130.87963736 267.77284042 -127.37248617 260.53239529 -123.6953125 253.3515625 C-121.64202448 249.29229724 -119.79153248 245.18024246 -118 241 C-118.89138672 241.23976563 -118.89138672 241.23976563 -119.80078125 241.484375 C-126.19921813 242.98454137 -132.22834252 241.96078533 -138 239 C-145.6326998 233.4775172 -151.12251526 227.43816654 -153 218 C-153.64749695 210.73878425 -153.92560258 204.93468804 -150 198.625 C-148.51518793 195.87276547 -147.69725043 194.11795138 -148.53222656 191.03466797 C-150.31674297 186.71961639 -152.60248468 182.70457298 -155.07275391 178.74829102 C-158.39541364 172.48352894 -158.19980723 163.14715977 -156.28125 156.515625 C-146.1284522 135.39125539 -116.27281864 127.61454903 -96 120 C-98.16424214 114.92807376 -99.63904062 111.49015299 -104.875 109.125 C-111.09895958 105.77858746 -114.53794455 100.68216529 -116.63671875 93.9609375 C-117.92292199 87.01820605 -116.95853882 81.35537969 -114 75 C-113.46632812 74.47921875 -112.93265625 73.9584375 -112.3828125 73.421875 C-111.92648438 72.95265625 -111.47015625 72.4834375 -111 72 C-111.21573103 69.26740693 -111.91180052 67.19828052 -113.0234375 64.69921875 C-114.98831688 59.26829215 -115.0068626 53.11769639 -113.23046875 47.6171875 C-110.88271097 43.2535105 -108.47568865 41.57785332 -103.9375 39.6875 C-100.78065574 38.30463459 -99.34137422 37.64447315 -97.7109375 34.56640625 C-97.10482306 32.66636925 -96.5232676 30.75834607 -95.96484375 28.84375 C-93.00965191 20.1337109 -85.73971059 14.43420919 -78 10 C-69.29914332 5.83927057 -60.77773376 3.25133757 -51.3125 6.4375 C-50.58675781 6.70433594 -49.86101562 6.97117187 -49.11328125 7.24609375 C-47.09196489 7.96719182 -45.08888553 8.51432233 -43 9 C-42.54625 8.29875 -42.0925 7.5975 -41.625 6.875 C-30.79636358 -4.98493513 -14.02944786 -7.44926435 0 0 Z M-42 17 C-46.45486613 16.28603147 -48.51742698 14.85749581 -52 12 C-58.52325467 9.39069813 -64.98327134 11.29901554 -71.22265625 13.73828125 C-79.92551182 17.69189918 -86.35073636 23.05470787 -90.875 31.5 C-92.0658704 35.20493013 -92.23671035 38.133731 -92 42 C-92.88751953 42.14695312 -92.88751953 42.14695312 -93.79296875 42.296875 C-98.83373164 43.25075509 -102.31148276 44.19970951 -106 48 C-108.54243666 52.26126707 -108.55616378 56.15463374 -108 61 C-106.73493121 64.19279266 -105.38636221 66.51704723 -103.25 69.1875 C-102.8375 69.785625 -102.425 70.38375 -102 71 C-103 74 -103 74 -105.9375 76.4375 C-109.19917953 79.16666042 -110.65975516 80.89522962 -111.3359375 85.078125 C-111.46401517 92.19924368 -109.51883252 97.2012972 -104.75 102.5 C-104.1725 102.995 -103.595 103.49 -103 104 C-102.01 103.505 -102.01 103.505 -101 103 C-100.72023717 100.74690598 -100.72023717 100.74690598 -100.6875 98.0625 C-100.13999368 90.68557281 -97.78222714 84.5292974 -92.25 79.5 C-91.5075 79.005 -90.765 78.51 -90 78 C-88.78675365 75.5735073 -88.67095146 73.31418772 -88.4050293 70.64233398 C-87.34254942 60.17851704 -85.07468006 51.10999909 -78 43 C-75.4375 41.9375 -75.4375 41.9375 -73 42 C-71.66666667 42.66666667 -70.33333333 43.33333333 -69 44 C-62.9798734 44.94433358 -59.86549134 43.04383508 -55.13671875 39.671875 C-53.2593698 38.20294383 -51.50707111 36.67051366 -49.75 35.0625 C-47 33 -47 33 -44.4375 32.875 C-41.24838837 34.34689767 -39.33431308 36.4063188 -37 39 C-35.4585058 40.5414942 -34.01556186 40.20646315 -31.875 40.25 C-26.06726128 40.18557184 -21.88375785 37.99728357 -16.8125 35.3125 C-14 34 -14 34 -10 34 C-9.773125 34.763125 -9.54625 35.52625 -9.3125 36.3125 C-7.64926184 39.71817814 -6.52582728 40.62032845 -3 42 C0.62306174 42.05042034 3.86680175 41.61810813 7.0625 39.875 C10.38812914 38.37310297 12.55885448 38.99138838 16 40 C25.25123553 46.96088111 28.19896941 61.24419495 30 72 C30.46943681 76.32975701 30.7935411 80.6501245 31 85 C35.23097458 79.55189574 36.48883538 74.50441996 36.40625 67.66015625 C35.80494072 63.72273681 34.05257134 60.6959503 31.99609375 57.32421875 C30.33577009 53.45013022 31.82165095 50.5560294 33.0625 46.6875 C34.90756588 39.43024087 34.40888411 33.61241376 31 27 C28.57041203 23.05748179 25.58647641 20.07499765 21.1796875 18.390625 C16.47943028 17.548285 11.69255118 18.3604569 7 19 C6.70351562 18.2265625 6.40703125 17.453125 6.1015625 16.65625 C3.49387016 10.36819756 -1.06182797 6.95292039 -7 4 C-21.79860853 -1.28716401 -32.68125652 5.64105825 -42 17 Z M-47 40 C-49.41183326 41.36733546 -49.41183326 41.36733546 -51.875 43.3125 C-56.61859954 46.88833268 -60.50038965 49.30347081 -66.5625 49.1875 C-67.67818359 49.17783203 -67.67818359 49.17783203 -68.81640625 49.16796875 C-70.9804624 49.00150289 -72.9153719 48.59088098 -75 48 C-81.14153685 54.14153685 -82.911988 62.77643238 -83.58129883 71.15112305 C-84.39691415 81.29851072 -84.39691415 81.29851072 -88.9375 85.5 C-89.64648438 86.09167969 -90.35546875 86.68335938 -91.0859375 87.29296875 C-94.19130431 90.06244894 -95.36921323 92.9325129 -96 97 C-96.46151677 106.9002792 -93.0610912 114.97784883 -86.4375 122.25 C-71.33651194 136.14850197 -45.68937175 139.37096013 -26 139.3125 C-24.37191406 139.33666992 -24.37191406 139.33666992 -22.7109375 139.36132812 C-8.87932544 139.36958088 5.0681345 135.88008616 15.4375 126.25 C24.13177612 116.74233006 26.40403939 105.52522101 26 93 C25.34 92.67 24.68 92.34 24 92 C22.2984375 92.7115625 22.2984375 92.7115625 20.5625 93.4375 C14.30855823 95.90945877 7.90435763 96.00332355 1.5625 93.8125 C-2.47778799 90.95473532 -5.05367392 87.51915196 -7 83 C-7.77276371 77.48025922 -7.39470566 72.56163573 -4 68 C1.70810497 63.90591092 8.03427293 62.46948552 14.94921875 63.39453125 C17.64807568 63.87486558 20.32434857 64.4048643 23 65 C21.474945 57.37472501 18.6637579 51.34872422 13.8125 45.25 C9.82240978 43.47662657 7.54936127 44.83089081 3.55859375 46.2421875 C-0.45131095 47.42985393 -2.93749362 47.01562659 -7 46 C-9.02951535 44.71203834 -11.03501678 43.38442 -13 42 C-17.02188441 41.73738713 -17.02188441 41.73738713 -20.5 43.5 C-26.32289475 45.77473832 -33.31024927 46.44212088 -39.21875 44.1328125 C-40.86661472 43.17621306 -42.44059765 42.09489952 -44 41 C-44.99 40.67 -45.98 40.34 -47 40 Z M-0.1875 71.6875 C-2.23330572 74.29766592 -2.83908444 75.70123098 -3 79 C-1.93907755 84.17199695 1.76086466 87.1857841 6 90 C10.83619308 91.61206436 14.24482713 90.61675877 19 89 C18.154375 88.0925 17.30875 87.185 16.4375 86.25 C12.7661642 82.04054878 10.28890069 77.31092503 7.7109375 72.37890625 C7.14632812 71.59386719 6.58171875 70.80882812 6 70 C2.06739575 69.5927977 2.06739575 69.5927977 -0.1875 71.6875 Z M53.75 127.125 C47.3818463 137.58696679 45.487791 148.1729917 48.25 160.0625 C50.71539097 169.12914811 54.35189273 176.43974762 61.9375 182.25 C69.46865145 186.55351511 77.7686559 187.42710853 86.234375 185.48828125 C95.47716316 181.57346395 103.23333245 172.00097521 107.1953125 163.09375 C108.82535281 158.85248007 109.08571527 155.54290949 109 151 C108.46890625 151.3609375 107.9378125 151.721875 107.390625 152.09375 C106.68421875 152.5578125 105.9778125 153.021875 105.25 153.5 C104.55390625 153.9640625 103.8578125 154.428125 103.140625 154.90625 C101 156 101 156 97 156 C97 154.68 97 153.36 97 152 C98.8984375 150.4375 98.8984375 150.4375 101.375 149 C105.81263492 146.44072613 105.81263492 146.44072613 108 142 C107.1573693 139.7806549 107.1573693 139.7806549 105.625 137.75 C104.90183594 136.69039062 104.90183594 136.69039062 104.1640625 135.609375 C103.77992188 135.07828125 103.39578125 134.5471875 103 134 C102.38125 134.56267578 102.38125 134.56267578 101.75 135.13671875 C94.27422102 141.76146039 87.75731259 146.40103582 77.515625 146.28125 C73.78117095 145.8637334 71.69948703 144.5610518 69 142 C68.125 139.25 68.125 139.25 68 137 C68.90492188 136.85304687 68.90492188 136.85304687 69.828125 136.703125 C73.59472359 135.99840655 76.40078682 135.42383372 79.5625 133.1875 C81.13878074 131.06870183 81.13878074 131.06870183 81.5625 128.5 C80.76659169 124.96262972 78.94840273 123.96560182 76 122 C68.3589953 118.17949765 59.51412743 121.68110187 53.75 127.125 Z M31 129 C31.56601874 133.50721652 31.56601874 133.50721652 32.53125 137.9375 C33.06128875 140.26967051 33.09762739 142.36133773 33.0625 144.75 C33.05347656 145.54921875 33.04445312 146.3484375 33.03515625 147.171875 C33.02355469 147.77515625 33.01195312 148.3784375 33 149 C32.14535156 149.31453125 31.29070312 149.6290625 30.41015625 149.953125 C29.30542969 150.38109375 28.20070312 150.8090625 27.0625 151.25 C25.96035156 151.66765625 24.85820312 152.0853125 23.72265625 152.515625 C20.89700944 153.70812936 20.89700944 153.70812936 20.0625 155.99609375 C19.87893029 158.17686627 19.87893029 158.17686627 20.9375 160.8125 C22.26504386 164.79513157 22.84804454 166.8304477 22 171 C16.95391613 176.86354945 10.66437366 181.17415586 4 185 C4.33 185.99 4.66 186.98 5 188 C12.97928003 185.59093902 21.72234522 181.26187942 26.265625 173.953125 C28.48289975 168.05611768 27.38692361 161.66894357 25 156 C26.216875 155.7525 27.43375 155.505 28.6875 155.25 C32.62195516 154.23848227 35.23131213 153.1042864 38 150 C40.18732065 143.95270172 38.06900204 138.68951272 36.30078125 132.6953125 C35.29324625 129.84177116 35.29324625 129.84177116 32.85546875 129.1171875 C32.24316406 129.07851562 31.63085938 129.03984375 31 129 Z M15 134 C13.74509766 134.70576172 13.74509766 134.70576172 12.46484375 135.42578125 C3.75925626 140.14225489 -4.19111881 142.55751747 -14 144 C-9.43492321 150.40900977 -4.33082532 156.2190161 1 162 C5.39391663 158.08641316 7.57872678 152.58344572 10.25 147.4375 C11.10078125 145.83745117 11.10078125 145.83745117 11.96875 144.20507812 C12.49984375 143.18736328 13.0309375 142.16964844 13.578125 141.12109375 C14.06700195 140.1870874 14.55587891 139.25308105 15.05957031 138.29077148 C15.52508301 137.1568396 15.52508301 137.1568396 16 136 C15.67 135.34 15.34 134.68 15 134 Z M-73 137 C-67.87768266 146.70050573 -62.13847272 155.91506037 -56 165 C-55.32582031 164.32582031 -54.65164062 163.65164062 -53.95703125 162.95703125 C-48.3046875 157.3046875 -42.65234375 151.65234375 -37 146 C-37.495 145.01 -37.495 145.01 -38 144 C-40.86249261 143.44870513 -43.67653252 143.00758505 -46.5625 142.625 C-55.55859101 141.33324043 -64.23599108 139.38139277 -73 137 Z M-95 141 C-97.8870898 145.3306347 -98.2660992 149.06127723 -97.5625 154.1875 C-95.34390209 158.18097624 -92.22408191 159.50397099 -88 161 C-87.34 161 -86.68 161 -86 161 C-86.15339844 161.556875 -86.30679688 162.11375 -86.46484375 162.6875 C-87.22054372 166.38480893 -87.65034844 168.89421467 -85.68359375 172.23828125 C-80.91335194 177.70912013 -75.72271782 182.13926901 -69 185 C-67.68 185 -66.36 185 -65 185 C-66.49722318 180.96015521 -68.7885921 179.63216398 -72.4375 177.5 C-76.07328971 175.36984358 -78.84731925 173.68619581 -81 170 C-81.28926333 165.95031335 -80.9883607 162.95344279 -80 159 C-83.96 157.35 -87.92 155.7 -92 154 C-92.33 149.71 -92.66 145.42 -93 141 C-93.66 141 -94.32 141 -95 141 Z M-43.6015625 160.40625 C-44.61447542 161.43249072 -45.62208127 162.46399005 -46.625 163.5 C-47.140625 164.02464844 -47.65625 164.54929688 -48.1875 165.08984375 C-49.46284932 166.38881065 -50.73201261 167.69384577 -52 169 C-50.10121488 172.25587478 -48.0979248 175.31605415 -45.8125 178.3125 C-45.28269531 179.00988281 -44.75289063 179.70726562 -44.20703125 180.42578125 C-43.60955078 181.20501953 -43.60955078 181.20501953 -43 182 C-39.79833322 179.08083323 -37.14717925 176.02987236 -34.625 172.5 C-34.10164063 171.7678125 -33.57828125 171.035625 -33.0390625 170.28125 C-31.70922241 167.36160107 -31.93929017 165.99638306 -33 163 C-34.79353817 160.88226543 -36.70864215 159.63668418 -39 158 C-41.34591609 157.77366257 -41.34591609 157.77366257 -43.6015625 160.40625 Z M-15.125 161.125 C-16.24261719 161.99511719 -16.24261719 161.99511719 -17.3828125 162.8828125 C-19.29461979 164.94090144 -19.29461979 164.94090144 -18.99609375 167.90625 C-17.85518552 171.44977674 -16.34375077 173.54861021 -13.9375 176.375 C-13.20402344 177.24898437 -12.47054687 178.12296875 -11.71484375 179.0234375 C-11.14894531 179.67570312 -10.58304688 180.32796875 -10 181 C-6.83231963 177.1038868 -4.146681 173.54105597 -2 169 C-3.09302275 165.93832855 -4.94518783 163.68464888 -7.0625 161.25 C-7.85333984 160.32960937 -7.85333984 160.32960937 -8.66015625 159.390625 C-9.10230469 158.93171875 -9.54445312 158.4728125 -10 158 C-12.01525225 158 -13.63952382 159.92937283 -15.125 161.125 Z " fill="#001434" transform="translate(173,71)"/>
<path d="M0 0 C2.09123944 -0.00961489 4.18145501 -0.04065854 6.27246094 -0.07226562 C17.51304037 -0.16182407 29.75164412 0.30875666 39.62402344 6.24023438 C42.39627304 14.55698318 40.25693426 23.82881058 38.49902344 32.17773438 C38.16777466 33.79276855 38.16777466 33.79276855 37.82983398 35.44042969 C35.50125366 46.42646919 32.86369899 57.75934319 28.38574219 68.09960938 C27.32758192 70.37752823 27.32758192 70.37752823 28.62402344 73.24023438 C21.64768467 87.35591049 -1.66697508 94.36834583 -15.21801758 100.50634766 C-15.85805725 100.79781174 -16.49809692 101.08927582 -17.15753174 101.38957214 C-18.91555786 102.18862649 -20.67656153 102.98112045 -22.43774414 103.77319336 C-25.04023578 105.07260111 -27.2132071 106.30082481 -29.37597656 108.24023438 C-29.37597656 108.90023437 -29.37597656 109.56023437 -29.37597656 110.24023438 C-28.19003906 110.79710937 -27.00410156 111.35398437 -25.78222656 111.92773438 C-17.61201176 115.7744873 -9.45788556 119.64812026 -1.37597656 123.67773438 C-0.71275391 124.00708984 -0.04953125 124.33644531 0.63378906 124.67578125 C3.42093103 126.07372994 6.02510089 127.50761935 8.62402344 129.24023438 C8.29402344 130.56023437 7.96402344 131.88023437 7.62402344 133.24023438 C-6.55098743 136.47038066 -20.70598546 136.42662327 -35.17260742 136.42553711 C-38.4065489 136.42771289 -41.6401425 136.44588898 -44.87402344 136.46484375 C-54.64524248 136.49186681 -64.33317646 136.35521697 -74.05957031 135.35351562 C-74.81947769 135.27578415 -75.57938507 135.19805267 -76.36231995 135.1179657 C-80.58472746 134.62360244 -84.39676457 133.73297745 -88.37597656 132.24023438 C-88.34472656 129.99023438 -88.34472656 129.99023438 -87.37597656 127.24023438 C-84.85362548 125.65475655 -82.57168605 124.44047628 -79.87597656 123.24023438 C-78.41584693 122.54856839 -76.95620834 121.85586481 -75.49707031 121.16210938 C-74.78921387 120.83275391 -74.08135742 120.50339844 -73.35205078 120.1640625 C-70.85031053 118.99448193 -68.38351111 117.77417472 -65.93847656 116.49023438 C-65.25914062 116.14476562 -64.57980469 115.79929687 -63.87988281 115.44335938 C-61.93374019 113.88644528 -61.87865723 112.62335789 -61.37597656 110.24023438 C-68.07180203 103.74417148 -75.29837047 98.96531707 -83.31347656 94.24023438 C-105.00838105 81.40627586 -105.00838105 81.40627586 -107.27026367 76.16992188 C-107.37597656 74.24023438 -107.37597656 74.24023438 -105.31347656 71.61523438 C-101.03926554 68.15948929 -97.8376174 67.24023438 -92.37597656 67.24023438 C-92.33859375 66.62535156 -92.30121094 66.01046875 -92.26269531 65.37695312 C-92.19695312 64.56871094 -92.13121094 63.76046875 -92.06347656 62.92773438 C-92.00546875 62.12722656 -91.94746094 61.32671875 -91.88769531 60.50195312 C-91.24525796 57.6624781 -90.79144629 56.8842966 -88.37597656 55.24023438 C-82.75164322 53.5645841 -77.78295267 52.96162671 -71.93847656 53.04492188 C-70.79016357 53.04916672 -70.79016357 53.04916672 -69.61865234 53.05349731 C-67.20425932 53.06457789 -64.79025502 53.08965837 -62.37597656 53.11523438 C-60.72624239 53.1252799 -59.07650232 53.13440298 -57.42675781 53.14257812 C-53.40968388 53.16447726 -49.39289583 53.19892112 -45.37597656 53.24023438 C-45.25609375 51.9434375 -45.13621094 50.64664063 -45.01269531 49.31054688 C-44.46864668 44.45113866 -43.45282151 39.83325552 -42.18847656 35.11523438 C-41.97070557 34.29772705 -41.75293457 33.48021973 -41.52856445 32.63793945 C-34.51492065 7.17541686 -34.51492065 7.17541686 -27.26269531 3.03320312 C-26.17408203 2.73349609 -26.17408203 2.73349609 -25.06347656 2.42773438 C-24.34546875 2.21503906 -23.62746094 2.00234375 -22.88769531 1.78320312 C-15.27893057 0.13838462 -7.74324411 0.02141976 0 0 Z M-26.75878906 10.44335938 C-32.39368216 20.18873004 -35.08600299 31.32964927 -37.75097656 42.17773438 C-38.01378418 43.2312207 -38.2765918 44.28470703 -38.54736328 45.37011719 C-39.98910655 51.48760137 -40.65114577 56.95720424 -40.37597656 63.24023438 C-39.57716064 63.26005371 -38.77834473 63.27987305 -37.95532227 63.30029297 C-23.18787025 63.6837531 -8.49252854 64.16533092 6.20605469 65.74023438 C6.93518066 65.81371094 7.66430664 65.8871875 8.41552734 65.96289062 C10.62402344 66.24023438 10.62402344 66.24023438 13.01611328 66.73632812 C15.325458 67.16650485 17.28297816 67.44503299 19.62402344 67.24023438 C24.57517685 63.16479517 26.02368885 58.09385819 27.68652344 52.05273438 C28.05994873 50.7446582 28.05994873 50.7446582 28.44091797 49.41015625 C34.43360397 30.09058156 34.43360397 30.09058156 34.62402344 10.24023438 C26.23081945 4.64476505 13.43886375 5.92338417 3.61132812 5.97949219 C1.36268585 5.99028881 -0.88516962 5.97948991 -3.13378906 5.96679688 C-15.81859726 5.37557062 -15.81859726 5.37557062 -26.75878906 10.44335938 Z M-86.37597656 62.24023438 C-86.37597656 63.23023438 -86.37597656 64.22023438 -86.37597656 65.24023438 C-66.57597656 64.25023437 -66.57597656 64.25023437 -46.37597656 63.24023438 C-46.37597656 61.92023438 -46.37597656 60.60023438 -46.37597656 59.24023438 C-51.42965489 59.16600514 -56.48301496 59.11159522 -61.53710938 59.07543945 C-63.25591562 59.06036505 -64.97468347 59.03990208 -66.69335938 59.01391602 C-69.16578653 58.97747273 -71.63770457 58.9604948 -74.11035156 58.94726562 C-75.26056793 58.92403984 -75.26056793 58.92403984 -76.434021 58.90034485 C-80.62959564 58.89902526 -83.49290858 58.99607115 -86.37597656 62.24023438 Z " fill="#3D9BFA" transform="translate(346.3759765625,252.759765625)"/>
<path d="M0 0 C2.09123944 -0.00961489 4.18145501 -0.04065854 6.27246094 -0.07226562 C17.51304037 -0.16182407 29.75164412 0.30875666 39.62402344 6.24023438 C42.39605032 14.55631502 40.25796332 23.82951991 38.49902344 32.17773438 C38.27674072 33.25514893 38.05445801 34.33256348 37.82543945 35.44262695 C36.32062514 42.51145184 34.59455296 49.49232247 32.56152344 56.42773438 C32.21226807 57.63707642 32.21226807 57.63707642 31.85595703 58.87084961 C30.42051137 63.53082549 28.94079271 67.56401228 25.62402344 71.24023438 C19.01345757 74.55076191 12.14073851 74.70779358 4.89355469 74.75195312 C3.20002113 74.77935577 3.20002113 74.77935577 1.47227478 74.80731201 C-2.20628901 74.86259927 -5.88463546 74.89648859 -9.56347656 74.92773438 C-12.11068359 74.95654329 -14.65788417 74.98592716 -17.20507812 75.01586914 C-22.39334858 75.07398297 -27.58159828 75.12173652 -32.77001953 75.1640625 C-38.80642746 75.21730662 -44.84059961 75.31714586 -50.87593079 75.44096375 C-55.12800434 75.52416742 -59.38016014 75.58240546 -63.63272095 75.63418579 C-65.61919897 75.66308687 -67.60555911 75.70187642 -69.59164429 75.75082397 C-72.33794664 75.81594942 -75.08214387 75.84337384 -77.82910156 75.86132812 C-78.62856705 75.88910339 -79.42803253 75.91687866 -80.25172424 75.94549561 C-83.21717654 75.93458005 -85.62098717 75.85086283 -87.98573303 73.9382782 C-91.69947661 69.61446697 -92.2884257 66.75593865 -92.37597656 61.24023438 C-91.64732696 58.19315423 -91.17630152 56.81189506 -88.62597656 54.99023438 C-83.21410902 53.18627853 -77.78476246 53.10287528 -72.13378906 53.14257812 C-71.36541718 53.14399307 -70.59704529 53.14540802 -69.8053894 53.14686584 C-67.37054418 53.15242754 -64.93579362 53.16497277 -62.50097656 53.17773438 C-60.84212373 53.18275433 -59.18326945 53.18731637 -57.52441406 53.19140625 C-53.47489886 53.2023844 -49.42545372 53.21962231 -45.37597656 53.24023438 C-45.25609375 51.9434375 -45.13621094 50.64664063 -45.01269531 49.31054688 C-44.46864668 44.45113866 -43.45282151 39.83325552 -42.18847656 35.11523438 C-41.97070557 34.29772705 -41.75293457 33.48021973 -41.52856445 32.63793945 C-34.51492065 7.17541686 -34.51492065 7.17541686 -27.26269531 3.03320312 C-26.17408203 2.73349609 -26.17408203 2.73349609 -25.06347656 2.42773438 C-24.34546875 2.21503906 -23.62746094 2.00234375 -22.88769531 1.78320312 C-15.27893057 0.13838462 -7.74324411 0.02141976 0 0 Z M-26.75878906 10.44335938 C-32.39368216 20.18873004 -35.08600299 31.32964927 -37.75097656 42.17773438 C-38.01378418 43.2312207 -38.2765918 44.28470703 -38.54736328 45.37011719 C-39.98910655 51.48760137 -40.65114577 56.95720424 -40.37597656 63.24023438 C-39.57716064 63.26005371 -38.77834473 63.27987305 -37.95532227 63.30029297 C-23.18787025 63.6837531 -8.49252854 64.16533092 6.20605469 65.74023438 C6.93518066 65.81371094 7.66430664 65.8871875 8.41552734 65.96289062 C10.62402344 66.24023438 10.62402344 66.24023438 13.01611328 66.73632812 C15.325458 67.16650485 17.28297816 67.44503299 19.62402344 67.24023438 C24.57517685 63.16479517 26.02368885 58.09385819 27.68652344 52.05273438 C28.05994873 50.7446582 28.05994873 50.7446582 28.44091797 49.41015625 C34.43360397 30.09058156 34.43360397 30.09058156 34.62402344 10.24023438 C26.23081945 4.64476505 13.43886375 5.92338417 3.61132812 5.97949219 C1.36268585 5.99028881 -0.88516962 5.97948991 -3.13378906 5.96679688 C-15.81859726 5.37557062 -15.81859726 5.37557062 -26.75878906 10.44335938 Z M-86.37597656 62.24023438 C-86.37597656 63.23023438 -86.37597656 64.22023438 -86.37597656 65.24023438 C-66.57597656 64.25023437 -66.57597656 64.25023437 -46.37597656 63.24023438 C-46.37597656 61.92023438 -46.37597656 60.60023438 -46.37597656 59.24023438 C-51.42965489 59.16600514 -56.48301496 59.11159522 -61.53710938 59.07543945 C-63.25591562 59.06036505 -64.97468347 59.03990208 -66.69335938 59.01391602 C-69.16578653 58.97747273 -71.63770457 58.9604948 -74.11035156 58.94726562 C-75.26056793 58.92403984 -75.26056793 58.92403984 -76.434021 58.90034485 C-80.62959564 58.89902526 -83.49290858 58.99607115 -86.37597656 62.24023438 Z " fill="#011738" transform="translate(346.3759765625,252.759765625)"/>
<path d="M0 0 C5.2601996 7.7996063 4.14815511 18.05593143 4.1328125 27.07421875 C4.13376923 28.31621536 4.13472595 29.55821198 4.13571167 30.83784485 C4.13656266 34.11888412 4.1325631 37.3998753 4.12695312 40.6809082 C4.12499721 42.6903636 4.12695283 44.6997755 4.13037109 46.70922852 C4.13654565 50.58091249 4.13580182 54.4525321 4.1328125 58.32421875 C4.13483673 59.52012131 4.13686096 60.71602386 4.13894653 61.94816589 C4.13421829 63.6206414 4.13421829 63.6206414 4.12939453 65.3269043 C4.12859894 66.30427048 4.12780334 67.28163666 4.12698364 68.28862 C4.00205465 70.95612864 3.59597486 73.40071178 3 76 C1.35 75.67 -0.3 75.34 -2 75 C-2.0154612 73.82062111 -2.0154612 73.82062111 -2.03123474 72.61741638 C-2.12943523 65.18787367 -2.2319805 57.75840936 -2.33933926 50.3289938 C-2.39437464 46.50996568 -2.44776224 42.69092968 -2.49731445 38.87182617 C-2.5452457 35.18241709 -2.59759629 31.4930942 -2.65294075 27.80378914 C-2.6732348 26.40009791 -2.69196811 24.99638316 -2.70907402 23.59264946 C-2.73340723 21.6182693 -2.76393313 19.64396846 -2.79467773 17.66967773 C-2.81022202 16.54826889 -2.8257663 15.42686005 -2.84178162 14.27146912 C-3.00975584 10.79827932 -3.45755161 7.43300324 -4 4 C-37.87380564 -2.04679719 -74.52496081 0.28910422 -108.625 2.9375 C-109.60073975 3.01210449 -110.57647949 3.08670898 -111.58178711 3.16357422 C-116.58392133 3.58526953 -121.55532836 4.15820995 -126.5234375 4.87890625 C-127.49974121 5.02013916 -128.47604492 5.16137207 -129.48193359 5.30688477 C-132.33796911 6.09302834 -133.35638084 6.54532878 -135 9 C-137.67039786 19.82703598 -137.32261448 31.36150079 -137.25 42.4375 C-137.24723053 43.26505798 -137.24446106 44.09261597 -137.24160767 44.94525146 C-138.61409212 72.32671543 -138.61409212 72.32671543 -132 98 C-127.35308191 99.91774752 -122.66464498 100.60251937 -117.69921875 101.109375 C-116.88007492 101.19346619 -116.06093109 101.27755737 -115.21696472 101.36419678 C-105.19024675 102.29301203 -95.15742047 102.29971589 -85.09545898 102.26074219 C-81.83363008 102.25006914 -78.57235871 102.26067976 -75.31054688 102.2734375 C-57.07062817 102.28604515 -38.35109746 102.14438006 -20.609375 97.48828125 C-17.94368442 96.98946191 -16.4686025 96.88459933 -14 98 C-13.67 98.99 -13.34 99.98 -13 101 C-14 103 -14 103 -16.0546875 103.78125 C-36.89742577 109.09297277 -59.15992065 109.18720034 -80.55541992 109.18530273 C-83.29947437 109.18748962 -86.04312535 109.20573943 -88.78710938 109.22460938 C-125.67674784 109.34144655 -125.67674784 109.34144655 -135 104 C-148.9997087 89.3639409 -144.50612638 52.01523729 -144.11376953 33.50537109 C-143.94623039 28.34329598 -143.64105742 23.20713697 -143.1875 18.0625 C-143.11756836 17.23524414 -143.04763672 16.40798828 -142.97558594 15.55566406 C-142.44583431 10.51352605 -141.6841711 6.35020834 -139 2 C-133.97346024 -1.16367591 -127.58664107 -1.78581847 -121.8125 -2.625 C-121.05130859 -2.74617188 -120.29011719 -2.86734375 -119.50585938 -2.9921875 C-107.43515103 -4.82925147 -95.24995286 -5.22046651 -83.0625 -5.5625 C-82.34145081 -5.58334656 -81.62040161 -5.60419312 -80.87750244 -5.62567139 C-12.84736007 -7.5714269 -12.84736007 -7.5714269 0 0 Z " fill="#3D9BFB" transform="translate(373,42)"/>
<path d="M0 0 C5.34249898 0.41760774 10.66819374 0.65019353 16.0234375 0.7890625 C16.77026794 0.8086351 17.51709839 0.8282077 18.28656006 0.84837341 C21.90753172 0.9390381 25.52829581 1.01425204 29.14990234 1.07397461 C30.42559082 1.10241455 31.7012793 1.13085449 33.015625 1.16015625 C34.14846924 1.17884766 35.28131348 1.19753906 36.44848633 1.21679688 C39.12109375 1.50390625 39.12109375 1.50390625 41.12109375 3.50390625 C40.74609375 5.62890625 40.74609375 5.62890625 40.12109375 7.50390625 C19.64125959 8.02566842 -0.64282085 6.94862659 -21.07177734 5.57104492 C-38.41983359 4.41491808 -55.40868513 4.35103454 -72.76535034 5.24441528 C-75.47041753 5.38361533 -78.17571131 5.51742129 -80.88110352 5.65014648 C-88.33899057 6.01755576 -95.79624886 6.39713909 -103.25341797 6.77880859 C-108.4409367 7.04423749 -113.6286175 7.30631185 -118.81640625 7.56640625 C-119.66110474 7.6090863 -120.50580322 7.65176636 -121.37609863 7.69573975 C-132.71473192 8.26470634 -144.04747968 8.67824714 -155.39697266 8.95037842 C-165.72429687 9.19805571 -176.02438325 9.49148577 -186.31640625 10.44140625 C-187.5679248 10.55355469 -187.5679248 10.55355469 -188.84472656 10.66796875 C-192.5876667 11.05909397 -195.71416439 11.41771633 -198.87890625 13.50390625 C-203.81183384 22.47486515 -202.20872945 34.8102377 -202.06640625 44.69140625 C-202.05133 46.52017125 -202.03764681 48.3489483 -202.02539062 50.17773438 C-201.99262285 54.62009345 -201.94100376 59.06186432 -201.87890625 63.50390625 C-203.85890625 63.99890625 -203.85890625 63.99890625 -205.87890625 64.50390625 C-208.93037566 58.53364001 -209.58172209 53.16268877 -209.87890625 46.50390625 C-209.92015625 45.73433594 -209.96140625 44.96476562 -210.00390625 44.171875 C-210.31489437 32.76249851 -209.61766622 18.5936215 -203.87890625 8.50390625 C-194.08181352 -0.70703563 -171.35960144 2.37351606 -158.53915405 2.17233276 C-141.97549474 1.90194368 -125.48133424 1.18545891 -108.94851685 0.15139771 C-72.67827437 -2.10058099 -36.2561502 -2.9153113 0 0 Z " fill="#3D9CFB" transform="translate(276.87890625,11.49609375)"/>
<path d="M0 0 C0.58136719 0.61617188 1.16273438 1.23234375 1.76171875 1.8671875 C2.29152344 2.40085937 2.82132812 2.93453125 3.3671875 3.484375 C5.4839772 5.77311681 6.68729167 7.46714192 7.26171875 10.5546875 C6.65965196 13.33924641 5.96651713 14.10537493 3.76171875 15.8671875 C0.21780118 16.76466226 -3.47164462 16.82397875 -7.11328125 17.0546875 C-8.28479736 17.13364258 -9.45631348 17.21259766 -10.66333008 17.29394531 C-24.40488368 18.07641869 -38.16576209 18.08511694 -51.92578125 18.1171875 C-53.69559357 18.12508804 -53.69559357 18.12508804 -55.50115967 18.13314819 C-58.91756178 18.14492071 -62.33359475 18.14151376 -65.75 18.1328125 C-67.28621758 18.13874168 -67.28621758 18.13874168 -68.85346985 18.14479065 C-74.94801161 18.1058185 -80.33559527 17.40201541 -86.23828125 15.8671875 C-85.90828125 14.2171875 -85.57828125 12.5671875 -85.23828125 10.8671875 C-83.68947266 10.59068359 -83.68947266 10.59068359 -82.109375 10.30859375 C-72.87613294 8.52393644 -64.38203226 5.9345385 -55.67578125 2.3671875 C-39.3555074 -4.29092207 -14.62268932 -14.29642242 0 0 Z " fill="#001434" transform="translate(222.23828125,372.1328125)"/>
<path d="M0 0 C16.62831025 4.51556149 32.86836366 7.19262198 50 9 C51.125 13.75 51.125 13.75 50 16 C-3.54637615 16.19405325 -3.54637615 16.19405325 -26.35424805 15.68161011 C-28.01743316 15.64425892 -29.68068591 15.60979331 -31.34399414 15.57839966 C-39.71898772 15.41419457 -47.84420209 15.13753743 -56 13 C-56.8125 10.3125 -56.8125 10.3125 -57 7 C-43.17328953 -12.97191512 -18.96437647 -5.18336903 0 0 Z " fill="#001434" transform="translate(68,374)"/>
<path d="M0 0 C4.11913759 0.76890568 8.14429898 1.77579466 12.1875 2.875 C13.41855469 3.20242187 14.64960938 3.52984375 15.91796875 3.8671875 C19 5 19 5 21 8 C20.76060336 13.32850579 18.48595218 17.33268109 15.9375 21.875 C15.56044922 22.56335938 15.18339844 23.25171875 14.79492188 23.9609375 C13.87106965 25.6449213 12.93660333 27.32307467 12 29 C10.68 29 9.36 29 8 29 C6.08290945 23.83952985 8.94280198 19.73778939 11 15 C5.12986645 20.46762642 0.50689895 26.21568747 -3.9375 32.875 C-16.80302799 51.67819905 -16.80302799 51.67819905 -25 56 C-29.06721257 56.6922915 -30.51902451 56.33431319 -33.93359375 53.9609375 C-37.46665096 50.88719411 -39.2122718 47.33615055 -41.125 43.125 C-44.90780408 33.39079199 -44.90780408 33.39079199 -51.9375 26.8125 C-55.99960569 27.06120035 -57.06643145 28.1844737 -60 31 C-61.85139351 33.71257364 -63.42582021 36.55724292 -65 39.4375 C-69.31202031 47.28672447 -73.19472522 53.11827371 -82 56 C-84.4375 55.6875 -84.4375 55.6875 -86 55 C-86 53.35 -86 51.7 -86 50 C-85.443125 49.86207031 -84.88625 49.72414062 -84.3125 49.58203125 C-75.86165294 46.76984059 -73.11405938 40.45946222 -69 33 C-62.8753526 22.75781857 -62.8753526 22.75781857 -57 20 C-53.31048216 19.54690132 -50.89736579 19.64980847 -47.4375 21 C-40.63365638 26.58264092 -37.62531823 33.76872029 -34.58984375 41.828125 C-32.860358 45.2785978 -31.15929733 46.8476288 -28 49 C-17.81140043 45.48729243 -12.744969 34.77819232 -7.47631836 26.00415039 C-3.38104701 19.26886082 1.39437637 13.52939985 7 8 C6.05125 7.87625 5.1025 7.7525 4.125 7.625 C1 7 1 7 -1 5 C-0.625 2.375 -0.625 2.375 0 0 Z " fill="#3D9CFB" transform="translate(329,66)"/>
<path d="M0 0 C5.10848166 2.31409853 8.42627457 7.36497365 11.28515625 12.03515625 C11.28515625 13.02515625 11.28515625 14.01515625 11.28515625 15.03515625 C9.71875 16.4296875 9.71875 16.4296875 7.72265625 17.84765625 C4.75215715 20.21043493 4.75215715 20.21043493 3.91015625 23.84765625 C5.61185853 27.79251153 8.02107089 30.61193118 10.88671875 33.7890625 C12.28515625 36.03515625 12.28515625 36.03515625 12.2734375 38.453125 C10.9945128 41.79450533 9.15329498 44.05527999 6.84765625 46.78515625 C6.04457031 47.749375 5.24148437 48.71359375 4.4140625 49.70703125 C1.80924787 52.55559918 0.97887125 52.93803615 -2.83984375 53.47265625 C-9.2944935 52.74390547 -13.4419707 48.59625355 -17.77734375 43.97265625 C-19.71484375 41.03515625 -19.71484375 41.03515625 -19.59375 38.7265625 C-18.12164295 34.21864357 -15.12281397 30.7580778 -12.33203125 26.97265625 C-10.48407124 24.19964635 -10.48407124 24.19964635 -10.78125 21.3359375 C-11.79586449 18.83548589 -12.63420799 17.81860841 -14.77734375 16.22265625 C-16.23140625 15.13984375 -16.23140625 15.13984375 -17.71484375 14.03515625 C-14.66507544 7.07338147 -8.2456138 -0.79983908 0 0 Z " fill="#3C9AF9" transform="translate(150.71484375,214.96484375)"/>
<path d="M0 0 C5.79238362 4.94766101 5.79238362 4.94766101 6.23828125 9.35546875 C6.40925915 15.8796256 6.04203231 19.7879057 2 25 C-4.52914653 30.06341976 -9.96599204 30.61546436 -18 30 C-23.12552379 28.8284517 -27.20200113 26.68629302 -31 23 C-33.71200217 18.51513421 -33.75435973 14.0997861 -33 9 C-30.59238836 3.31416716 -26.42478021 0.56444155 -21 -2 C-14.18080341 -4.639689 -6.38636385 -3.08978365 0 0 Z M-26 9 C-27.58939347 12.17878694 -27.41576711 14.4956772 -27 18 C-24.55982372 21.0347762 -21.69355434 22.76881522 -18 24 C-16.10529184 24.0685495 -14.2083166 24.08480372 -12.3125 24.0625 C-11.31863281 24.05347656 -10.32476562 24.04445312 -9.30078125 24.03515625 C-8.54152344 24.02355469 -7.78226563 24.01195312 -7 24 C-7.45890625 23.29875 -7.9178125 22.5975 -8.390625 21.875 C-11.94801049 16.37450479 -15.20520965 10.92495554 -18 5 C-21.93631364 5 -23.12605026 6.42857129 -26 9 Z " fill="#001434" transform="translate(131,137)"/>
<path d="M0 0 C1.0667244 -0.0071981 1.0667244 -0.0071981 2.15499878 -0.01454163 C6.56481385 -0.00013559 10.72463874 0.41239176 15.0625 1.125 C15.5575 3.6 15.5575 3.6 16.0625 6.125 C8.01410596 7.08338965 -0.00728487 7.40004779 -8.10546875 7.625 C-9.47098314 7.66566652 -10.83648694 7.70669003 -12.20198059 7.74804688 C-15.78506357 7.85582765 -19.3682471 7.95973491 -22.95147705 8.0625 C-28.62209162 8.22555943 -34.29256378 8.39344495 -39.96298599 8.56304932 C-41.34634388 8.60425156 -42.72971338 8.64506561 -44.11309433 8.68548584 C-54.16579866 8.97974285 -64.21184587 9.35864313 -74.25419617 9.90820312 C-75.11559708 9.95138672 -75.97699799 9.99457031 -76.86450195 10.0390625 C-77.60875931 10.0798291 -78.35301666 10.1205957 -79.11982727 10.16259766 C-80.9375 10.125 -80.9375 10.125 -82.9375 9.125 C-82.6075 7.475 -82.2775 5.825 -81.9375 4.125 C-75.21970851 3.7136672 -68.50175392 3.30507531 -61.78369141 2.89819336 C-59.50891544 2.76011967 -57.23417441 2.62146885 -54.95947266 2.48217773 C-43.27947315 1.76733905 -31.59965966 1.07647298 -19.91015625 0.53515625 C-18.61390823 0.47419518 -18.61390823 0.47419518 -17.29147339 0.41200256 C-11.5276026 0.15596118 -5.76933466 0.03533403 0 0 Z " fill="#3D9CFB" transform="translate(372.9375,232.875)"/>
<path d="M0 0 C0.928125 0.25265625 1.85625 0.5053125 2.8125 0.765625 C7.71409176 2.17009255 11.8075344 3.39833379 15.375 7.25 C15.56573707 10.74684632 15.40576145 13.02125693 13.09375 15.77734375 C7.60392054 20.60895386 2.50206968 20.54186723 -4.515625 20.46484375 C-10.44796904 20.05494561 -14.87135021 18.56523734 -19.625 15 C-22.13060133 11.55479817 -22.625 9.505193 -22.625 5.25 C-21.89268467 2.63236222 -20.93559272 0.67702356 -19.625 -1.75 C-13.55016818 -4.78741591 -6.06993513 -1.76827242 0 0 Z M-14.625 2.25 C-16.86680162 4.93026455 -16.86680162 4.93026455 -16.4375 7.25 C-15.04594153 10.67537471 -13.40264587 11.88962753 -10.0625 13.4375 C-4.34406512 14.78913006 1.11534052 15.33463655 6.5 12.75 C7.11875 12.255 7.7375 11.76 8.375 11.25 C8.045 10.26 7.715 9.27 7.375 8.25 C5.1741493 7.27033279 5.1741493 7.27033279 2.46484375 6.64453125 C0.98081055 6.25297852 0.98081055 6.25297852 -0.53320312 5.85351562 C-1.57412109 5.59248047 -2.61503906 5.33144531 -3.6875 5.0625 C-4.73228516 4.78986328 -5.77707031 4.51722656 -6.85351562 4.23632812 C-9.44128896 3.56279808 -12.03155482 2.90128433 -14.625 2.25 Z " fill="#001434" transform="translate(145.625,176.75)"/>
<path d="M0 0 C1.87653763 0.00424484 1.87653763 0.00424484 3.79098511 0.00857544 C7.08220314 0.01781082 10.37321711 0.03571132 13.66436768 0.0579834 C17.03663667 0.07861389 20.4089358 0.08761355 23.78125 0.09765625 C30.3724742 0.11960857 36.9635642 0.15300452 43.5546875 0.1953125 C44.1796875 2.0703125 44.1796875 2.0703125 44.5546875 4.1953125 C41.4336659 7.3163341 37.87675918 7.14162663 33.59329224 7.31556702 C32.55848724 7.31334641 31.52368225 7.31112579 30.45751953 7.30883789 C29.27674835 7.30876236 28.09597717 7.30868683 26.87942505 7.30860901 C25.61983978 7.30344772 24.36025452 7.29828644 23.0625 7.29296875 C21.76142303 7.2915538 20.46034607 7.29013885 19.11984253 7.28868103 C15.67738897 7.28488094 12.23497825 7.27507233 8.7925415 7.26397705 C5.27315856 7.25370875 1.75376863 7.24917184 -1.765625 7.24414062 C-8.65887166 7.23344759 -15.55209002 7.21640161 -22.4453125 7.1953125 C-22.7753125 5.5453125 -23.1053125 3.8953125 -23.4453125 2.1953125 C-15.57626889 0.219194 -8.08667419 -0.06984253 0 0 Z " fill="#3D9CFB" transform="translate(326.4453125,164.8046875)"/>
<path d="M0 0 C16.83 0 33.66 0 51 0 C51.495 1.98 51.495 1.98 52 4 C47.15656899 7.22895401 42.22774896 7.12697149 36.52734375 7.1328125 C34.68172852 7.13474609 34.68172852 7.13474609 32.79882812 7.13671875 C30.8874707 7.13091797 30.8874707 7.13091797 28.9375 7.125 C27.69033203 7.12886719 26.44316406 7.13273438 25.15820312 7.13671875 C18.99955121 7.1303135 12.84355761 7.03180013 6.69140625 6.7421875 C5.64283447 6.69690918 4.5942627 6.65163086 3.51391602 6.60498047 C1 6 1 6 -0.41821289 4.07861328 C-1 2 -1 2 0 0 Z " fill="#3D9CFB" transform="translate(310,188)"/>
<path d="M0 0 C30.07145796 -0.3798746 30.07145796 -0.3798746 43 0.875 C44.23206177 0.99270752 44.23206177 0.99270752 45.48901367 1.11279297 C50.18555219 1.62700891 54.49527086 2.57430115 59 4 C56.50733401 6.49266599 55.73406594 6.25628676 52.29418945 6.2746582 C51.31589676 6.28419022 50.33760406 6.29372223 49.32966614 6.30354309 C47.73755562 6.30217598 47.73755562 6.30217598 46.11328125 6.30078125 C45.02291061 6.30506638 43.93253998 6.3093515 42.80912781 6.31376648 C40.49653824 6.31951937 38.18393056 6.32000302 35.87133789 6.31567383 C32.34424551 6.31252831 28.81800332 6.33591151 25.29101562 6.36132812 C23.04427189 6.36360255 20.7975259 6.36430395 18.55078125 6.36328125 C16.97385246 6.37709587 16.97385246 6.37709587 15.36506653 6.39118958 C9.45639684 6.35416555 5.23957994 5.78624644 0 3 C0 2.01 0 1.02 0 0 Z " fill="#3A96F2" transform="translate(305,316)"/>
<path d="M0 0 C0.495 2.97 0.495 2.97 1 6 C-4.51722958 6.19208189 -10.03466668 6.37083263 -15.55273438 6.53710938 C-17.43078256 6.5955953 -19.30871997 6.65775641 -21.18652344 6.72363281 C-23.88195632 6.81756025 -26.57750816 6.89836718 -29.2734375 6.9765625 C-30.11619232 7.00875885 -30.95894714 7.0409552 -31.82723999 7.0741272 C-33.88428841 7.12728029 -35.94356231 7.073058 -38 7 C-38.66 6.34 -39.32 5.68 -40 5 C-40 4.01 -40 3.02 -40 2 C-26.63189206 -0.00970213 -13.50327969 -0.23272257 0 0 Z " fill="#3C9AF8" transform="translate(300,316)"/>
<path d="M0 0 C0.83587646 -0.00095673 1.67175293 -0.00191345 2.53295898 -0.00289917 C4.30159582 -0.00358018 6.07023515 -0.00173141 7.83886719 0.00244141 C10.55148921 0.00779079 13.26394565 0.00249375 15.9765625 -0.00390625 C17.6927087 -0.00324545 19.4088548 -0.00196426 21.125 0 C22.3469104 -0.00303635 22.3469104 -0.00303635 23.59350586 -0.00613403 C29.33258072 0.01785286 29.33258072 0.01785286 31.5625 1.1328125 C30.5625 4.1328125 30.5625 4.1328125 28.5625 5.1328125 C25.71820643 5.21972251 22.89870824 5.24835052 20.0546875 5.23046875 C18.79375778 5.22834633 18.79375778 5.22834633 17.50735474 5.22618103 C14.81736725 5.22057487 12.12746241 5.20802136 9.4375 5.1953125 C7.61588662 5.19029829 5.79427193 5.18573525 3.97265625 5.18164062 C-0.49742777 5.17060344 -4.96744986 5.1533347 -9.4375 5.1328125 C-9.7675 3.8128125 -10.0975 2.4928125 -10.4375 1.1328125 C-7.17636087 -0.49775707 -3.58270683 -0.00890273 0 0 Z " fill="#3D9CFB" transform="translate(343.4375,210.8671875)"/>
<path d="M0 0 C1.32 0 2.64 0 4 0 C5.5547669 3.10953379 5.28644437 5.56266761 5 9 C3.54816627 12.20613282 2.42937057 14.29616677 -0.80078125 15.88671875 C-5.77499567 17.40312975 -9.19116453 16.8033133 -14 15 C-14 13.35 -14 11.7 -14 10 C-13.07767578 10.03480469 -13.07767578 10.03480469 -12.13671875 10.0703125 C-10.92435547 10.09738281 -10.92435547 10.09738281 -9.6875 10.125 C-8.48673828 10.15980469 -8.48673828 10.15980469 -7.26171875 10.1953125 C-4.71611424 10.15817322 -4.71611424 10.15817322 -2 8 C-1.59270772 5.67843403 -1.25561323 3.3431213 -1 1 C-0.67 0.67 -0.34 0.34 0 0 Z " fill="#001434" transform="translate(157,147)"/>
<path d="M0 0 C1.22589844 -0.01675781 2.45179688 -0.03351563 3.71484375 -0.05078125 C7.20696505 0.32817707 8.55701713 0.93260525 11.0625 3.3125 C10.7325 4.6325 10.4025 5.9525 10.0625 7.3125 C6.3125 8.4375 6.3125 8.4375 4.0625 7.3125 C1.8552077 7.24157158 -0.35417452 7.22834975 -2.5625 7.25 C-4.34527344 7.26353516 -4.34527344 7.26353516 -6.1640625 7.27734375 C-7.53691406 7.29474609 -7.53691406 7.29474609 -8.9375 7.3125 C-9.2675 5.6625 -9.5975 4.0125 -9.9375 2.3125 C-6.28172573 -0.12468285 -4.35080098 0.01369612 0 0 Z " fill="#001434" transform="translate(127.9375,124.6875)"/>
<path d="M0 0 C5.48375957 0.02867325 9.96122568 1.15984176 15 3.25 C14.67 4.9 14.34 6.55 14 8.25 C7.64416673 7.38329546 1.32448699 6.31965872 -5 5.25 C-5.5625 3.3125 -5.5625 3.3125 -6 1.25 C-4.32111573 -0.42888427 -2.30073107 0.03834552 0 0 Z " fill="#001434" transform="translate(145,167.75)"/>
<path d="M0 0 C5.94 0 11.88 0 18 0 C18 1.65 18 3.3 18 5 C15.04412889 6.47793555 12.35002355 6.17053651 9.0625 6.1875 C7.81597656 6.20167969 6.56945312 6.21585938 5.28515625 6.23046875 C2 6 2 6 -1 4 C-0.67 2.68 -0.34 1.36 0 0 Z " fill="#001434" transform="translate(131,200)"/>
<path d="M0 0 C1.49080078 0.02707031 1.49080078 0.02707031 3.01171875 0.0546875 C3.77097656 0.07789062 4.53023437 0.10109375 5.3125 0.125 C5.69468767 1.78114657 6.02645102 3.44957024 6.3125 5.125 C4.37159174 7.06590826 0.83956098 6.52419435 -1.75 6.6875 C-3.04035156 6.77128906 -4.33070313 6.85507813 -5.66015625 6.94140625 C-6.65917969 7.00199219 -7.65820312 7.06257812 -8.6875 7.125 C-8.875 4.75 -8.875 4.75 -8.6875 2.125 C-5.26655758 -0.15562828 -4.00562778 -0.09425007 0 0 Z " fill="#001535" transform="translate(170.6875,125.875)"/>
</svg>
