<?xml version="1.0" standalone="no"?>
<!DOCTYPE svg PUBLIC "-//W3C//DTD SVG 20010904//EN"
 "http://www.w3.org/TR/2001/REC-SVG-20010904/DTD/svg10.dtd">
<svg version="1.0" xmlns="http://www.w3.org/2000/svg"
 width="48.000000pt" height="48.000000pt" viewBox="0 0 48.000000 48.000000"
 preserveAspectRatio="xMidYMid meet">

<g transform="translate(0.000000,48.000000) scale(0.100000,-0.100000)"
fill="#000000" stroke="none">
<path d="M163 472 c-22 -15 -67 -172 -45 -158 5 3 12 21 15 39 3 18 12 50 21
71 l15 37 68 -3 c62 -3 68 -5 64 -23 -11 -55 -8 -60 36 -63 l43 -3 -14 -27
c-19 -37 -30 -122 -17 -122 6 0 11 15 11 33 0 17 9 52 20 76 26 56 26 59 -14
106 -33 39 -34 40 -112 43 -44 1 -84 -1 -91 -6z m193 -80 c-31 -6 -44 5 -38
34 l5 28 25 -30 c22 -25 23 -29 8 -32z"/>
<path d="M380 451 c0 -6 9 -11 20 -11 32 0 34 -23 11 -120 -11 -49 -21 -95
-21 -102 0 -10 -24 -13 -100 -13 l-101 0 -10 38 c-12 47 -24 52 -97 39 l-57
-9 61 -2 62 -1 16 -40 16 -40 89 0 c49 0 96 -3 105 -6 12 -5 16 -21 16 -74 0
-38 -3 -71 -8 -74 -4 -2 -75 -8 -158 -11 -132 -7 -152 -6 -157 8 -3 9 -14 64
-24 124 -10 59 -19 98 -21 85 -4 -26 25 -218 35 -235 9 -14 319 -3 338 13 8 7
15 28 15 46 0 19 4 34 9 34 25 0 54 161 32 174 -5 4 -7 -2 -5 -11 3 -10 -4
-45 -15 -78 -14 -43 -19 -52 -20 -33 -1 15 -5 29 -10 32 -5 3 4 49 20 103 32
106 35 136 17 151 -21 16 -58 24 -58 13z"/>
<path d="M182 381 c-10 -6 -8 -10 10 -14 34 -10 68 -8 68 2 0 17 -57 26 -78
12z"/>
<path d="M160 326 c0 -2 29 -9 65 -15 36 -6 72 -14 80 -17 8 -4 15 -2 15 3 0
14 -70 33 -119 33 -22 0 -41 -2 -41 -4z"/>
<path d="M210 262 c8 -5 38 -13 65 -17 39 -5 47 -4 38 6 -6 6 -36 14 -65 16
-35 3 -48 1 -38 -5z"/>
</g>
</svg>
