<?xml version="1.0" encoding="UTF-8"?>
<svg version="1.1" xmlns="http://www.w3.org/2000/svg" width="400" height="400">
<path d="M0 0 C0.77085937 0.8765625 1.54171875 1.753125 2.3359375 2.65625 C4.84266872 5.31280708 4.84266872 5.31280708 8.41796875 5.3828125 C9.66191406 5.29773438 10.90585937 5.21265625 12.1875 5.125 C22.00837801 4.72939204 30.25317995 6.75907483 38 13 C43.64916359 18.23183799 47.52357256 23.34103266 49 31 C49 31.99 49 32.98 49 34 C49.61746094 34.07476562 50.23492187 34.14953125 50.87109375 34.2265625 C60.18714499 35.67289009 66.32395347 39.31745853 71.9375 46.9375 C77.09014021 54.97657291 77.81520116 62.58383584 77 72 C76.25405225 74.6431559 75.34619488 76.5880675 74 79 C74.86625 79.309375 74.86625 79.309375 75.75 79.625 C79.66850794 82.01964374 81.57583774 85.72751322 83 90 C83.71968769 97.51559576 83.77159077 103.39807064 79.19140625 109.609375 C78 111 78 111 77 112 C76.86776481 113.56037521 76.76931471 115.12367031 76.6875 116.6875 C76.04396161 123.4398506 73.27380745 127.0020502 68.25 131.375 C67.17281969 132.2575637 66.0915857 133.13531695 65 134 C65.49628906 134.4125 65.99257813 134.825 66.50390625 135.25 C82.44707356 148.80320484 89.92332958 165.45064436 93 186 C94.4137325 208.47542177 92.24898708 233.30067872 76.859375 251.17578125 C59.50393406 268.20307309 29.86281781 266.22265693 7.1875 266.1875 C6.40240051 266.18656342 5.61730103 266.18562683 4.80841064 266.18466187 C-32.40314548 266.08859724 -32.40314548 266.08859724 -44.25 255.4375 C-50.62160697 248.6282473 -53.9884191 239.7001226 -57 231 C-57.41507813 231.38671875 -57.83015625 231.7734375 -58.2578125 232.171875 C-73.08979244 244.70769068 -96.3572407 243.17585762 -114.6875 243.25 C-115.42994965 243.25535767 -116.17239929 243.26071533 -116.93734741 243.26623535 C-136.36847453 243.37240319 -159.15851017 242.21668637 -174.25 228.4375 C-187.07040828 214.73471545 -188.48601916 194.34687506 -187.92041016 176.48681641 C-186.33914714 157.50742095 -173.9840776 139.24764412 -160 127 C-145.7980198 116 -145.7980198 116 -141 116 C-141.33 115.01 -141.66 114.02 -142 113 C-142.09455661 111.02265434 -142.12989394 109.04209917 -142.125 107.0625 C-142.12886719 105.50208984 -142.12886719 105.50208984 -142.1328125 103.91015625 C-142 101 -142 101 -141.37109375 98.80859375 C-140.71342339 96.6754271 -140.71342339 96.6754271 -142.9375 94 C-146.02068519 88.98712897 -145.88300923 83.6905039 -145 78 C-143.39853587 74.037484 -141.50862386 70.92963849 -137.83203125 68.6640625 C-135.69660966 67.09661324 -135.69660966 67.09661324 -135.71484375 64.21484375 C-135.78832031 63.13332031 -135.86179688 62.05179687 -135.9375 60.9375 C-136.21821352 50.83181317 -133.87282442 43.48445751 -127 36 C-119.95970231 28.86259476 -112.88557721 26.57682442 -103 26 C-102.88785156 25.26652344 -102.77570313 24.53304687 -102.66015625 23.77734375 C-101.01281394 16.84680895 -96.04496836 11.20148901 -90.23046875 7.28515625 C-82.66227569 2.9244986 -76.42046442 1.81030965 -67.8125 2.125 C-60.60925441 2.48387638 -60.60925441 2.48387638 -54.375 -0.8125 C-53.8078125 -1.3590625 -53.240625 -1.905625 -52.65625 -2.46875 C-39.89758813 -14.26449399 -12.94946984 -8.48336153 0 0 Z M-55 6 C-55.33 6.99 -55.66 7.98 -56 9 C-56.73863281 8.84402344 -57.47726563 8.68804687 -58.23828125 8.52734375 C-68.63215596 6.53309333 -77.86462326 6.06401731 -87 12 C-93.37805228 16.3770947 -97.09996661 22.05369974 -98.8125 29.5625 C-98.9053125 30.7690625 -98.9053125 30.7690625 -99 32 C-100.258125 31.9175 -101.51625 31.835 -102.8125 31.75 C-110.31261774 31.78543363 -117.36911697 34.06029507 -122.9375 39.1875 C-129.27907365 46.4894562 -130.1499439 52.24900291 -129.75 61.6875 C-129.40815194 70.15450277 -129.40815194 70.15450277 -131.6953125 73.421875 C-133.875 74.9375 -133.875 74.9375 -136.0546875 75.96484375 C-138.54182959 77.28832297 -139.09980652 78.35749656 -140 81 C-140.06307593 83.83316046 -139.55382674 86.1847141 -139 89 C-138.34 89.33 -137.68 89.66 -137 90 C-136.91363281 89.33613281 -136.82726562 88.67226562 -136.73828125 87.98828125 C-135.80571263 82.1276436 -134.90423423 78.76371464 -130 75 C-127.00016242 72.95133043 -124.51254811 71.80201944 -121 71 C-121.03480469 70.154375 -121.06960937 69.30875 -121.10546875 68.4375 C-121.30469377 60.08902301 -121.22277936 53.93895255 -115.75 47.25 C-108.74655718 41.51991042 -102.89770715 40.1103871 -94 39 C-93.75765625 38.27554688 -93.5153125 37.55109375 -93.265625 36.8046875 C-88.50497355 23.0720391 -88.50497355 23.0720391 -81 19.1875 C-73.90942391 15.84757925 -67.82787588 14.88778913 -60.25 17.5 C-59.51265625 17.7784375 -58.7753125 18.056875 -58.015625 18.34375 C-55.87785863 19.15479302 -55.87785863 19.15479302 -53 19 C-51.60002714 17.58919542 -51.60002714 17.58919542 -50.3125 15.75 C-46.30459792 10.81258448 -41.20986342 8.22384169 -35 7 C-24.65495596 6.01876276 -17.40219911 7.60286119 -9.3125 14.1875 C-5.94782291 18.27967484 -2.95897245 22.60844147 0 27 C0.61746094 26.7834375 1.23492187 26.566875 1.87109375 26.34375 C10.89926734 23.37558334 17.85882417 22.76176613 26.703125 26.67578125 C33.21441167 30.42973734 35.83714686 36.05610307 38 43 C38.34152696 44.33125814 38.67713137 45.66409404 39 47 C39.7734375 47.07476562 40.546875 47.14953125 41.34375 47.2265625 C48.52528822 48.13314282 54.14920944 49.3446312 59 55 C63.56286159 62.63501556 64.05894794 70.07306973 62 78.5625 C61.67 79.696875 61.34 80.83125 61 82 C64.25397508 84.25885324 64.25397508 84.25885324 68 85 C71.3156514 91.35858688 73.24285288 97.88281703 74 105 C77.41886465 102.08010479 77.71981295 99.69458874 78.06640625 95.3515625 C77.95881259 91.54148112 76.91696495 89.30511198 75 86 C72.40106121 83.49820993 72.40106121 83.49820993 69 83 C69.14230808 81.58297487 69.28900746 80.1663904 69.4375 78.75 C69.55931641 77.56664062 69.55931641 77.56664062 69.68359375 76.359375 C70 74 70 74 70.5078125 72.0859375 C72.1532659 65.11234927 72.04183882 57.89643448 68.5625 51.5625 C63.79627831 44.7027043 58.24921778 41.32762221 50.125 39.75 C47.30859375 39.0859375 47.30859375 39.0859375 45 38 C43.66305638 35.57990545 43.19247351 33.39954554 42.64453125 30.6953125 C40.82182781 23.0730981 35.68526744 18.22019407 29.24609375 14.19140625 C24.47450844 11.66039143 20.94482129 10.7425315 15.5 10.8125 C14.3965625 10.81894531 13.293125 10.82539063 12.15625 10.83203125 C9.04985067 10.88289764 9.04985067 10.88289764 6.3515625 11.73828125 C4 12 4 12 1.9296875 10.5234375 C1.25164062 9.81445312 0.57359375 9.10546875 -0.125 8.375 C-8.6612786 0.30433659 -18.872115 -2.57982752 -30.4609375 -3.11328125 C-39.4393647 -2.71270527 -48.32354632 -0.22271411 -55 6 Z M-40 50 C-40.9075 50.639375 -41.815 51.27875 -42.75 51.9375 C-50.00715993 56.54300534 -59.9773514 56.05224794 -68.20703125 54.328125 C-70.51166856 53.62915059 -72.7609029 52.88510191 -75 52 C-75.45375 52.886875 -75.9075 53.77375 -76.375 54.6875 C-79.76738655 59.81863665 -85.98274527 62.31787445 -91.81640625 63.63671875 C-92.53699219 63.75660156 -93.25757813 63.87648438 -94 64 C-94.23783203 65.21236328 -94.23783203 65.21236328 -94.48046875 66.44921875 C-96.77295002 76.94903626 -96.77295002 76.94903626 -102 81 C-103.71360034 82.29692814 -103.71360034 82.29692814 -105 84 C-105.17526687 86.08886353 -105.17526687 86.08886353 -104.875 88.3125 C-104.78645525 91.94283488 -105.00721837 93.01344111 -106.8125 96.375 C-110.51867041 100.25355043 -115.92617799 100.98701277 -121 102 C-121.67434557 114.65104542 -121.67434557 114.65104542 -115.8125 125.4375 C-114.4203125 126.7059375 -114.4203125 126.7059375 -113 128 C-111.59063299 129.55030371 -110.19572679 131.11382894 -108.8125 132.6875 C-104.68218362 137.72351781 -104.68218362 137.72351781 -98.8125 139.75 C-93.65913389 140.81878493 -90.40829068 143.01002771 -87 147 C-86.38454101 148.19229084 -85.80006786 149.40116481 -85.25 150.625 C-83.02367502 154.77654862 -79.96711487 155.72877945 -75.6015625 157.09375 C-59.97684222 161.0253499 -44.92938549 163.18260058 -28.8125 163.25 C-26.94561523 163.2809375 -26.94561523 163.2809375 -25.04101562 163.3125 C-23.23600586 163.32023437 -23.23600586 163.32023437 -21.39453125 163.328125 C-20.31018799 163.3374707 -19.22584473 163.34681641 -18.10864258 163.35644531 C-14.52849229 162.94593566 -12.16217439 161.67707248 -9 160 C-5.50318004 159.75022715 -2.5619459 159.87963778 0.86328125 160.61328125 C9.67801774 161.70002958 19.85597067 155.77665304 27 151 C29.64879255 148.73182574 32.18403618 146.37481076 34.71875 143.98046875 C37.7175702 141.37704094 40.26447158 140.29306753 44 139 C49.95317395 136.7377939 52.33902029 133.59560627 55 128 C57.0482853 122.68265137 58.45419869 117.75318337 58 112 C56.96875 111.731875 55.9375 111.46375 54.875 111.1875 C50.24176639 109.83965022 46.39570926 108.13860492 42.625 105.0625 C40.06736597 100.24234356 40.69297333 95.3473812 41 90 C40.01 89.67 39.02 89.34 38 89 C36.875 86.5625 36.875 86.5625 36 84 C35.67 83.34 35.34 82.68 35 82 C34.92818179 79.28239892 34.90700494 76.59140612 34.9375 73.875 C34.94201172 73.12089844 34.94652344 72.36679688 34.95117188 71.58984375 C34.96296501 69.72652873 34.98090058 67.86325445 35 66 C34.43152344 66.01160156 33.86304688 66.02320313 33.27734375 66.03515625 C28.39329516 66.09223194 23.81496035 65.81956772 19 65 C18.67 66.32 18.34 67.64 18 69 C17.09378906 68.79503906 16.18757812 68.59007812 15.25390625 68.37890625 C8.49941405 66.88505559 1.89340603 65.59425914 -5 65 C-5 64.01 -5 63.02 -5 62 C-1.43954823 60.81318274 1.43808337 60.90310168 5.1875 60.9375 C6.45980469 60.94652344 7.73210937 60.95554687 9.04296875 60.96484375 C10.50669922 60.98224609 10.50669922 60.98224609 12 61 C9.69 57.37 7.38 53.74 5 50 C3.68 50.94875 2.36 51.8975 1 52.875 C-6.91000265 58.10720144 -15.24422923 59.31021009 -24.578125 57.5 C-30.36977361 55.93661019 -35.11443252 53.45264964 -40 50 Z M-138 120 C-156.05745026 129.9908024 -171.85138393 142.81567226 -179 163 C-179.82882758 166.0012283 -180.446564 168.93094581 -181 172 C-180.56429687 171.61328125 -180.12859375 171.2265625 -179.6796875 170.828125 C-178.78636719 170.04695313 -178.78636719 170.04695313 -177.875 169.25 C-177.29492188 168.73953125 -176.71484375 168.2290625 -176.1171875 167.703125 C-166.49288504 159.96106619 -156.42099994 157.82164483 -144.3046875 157.984375 C-143.62141891 157.98745163 -142.93815033 157.99052826 -142.23417664 157.99369812 C-138.75551139 158.0118919 -135.30152907 158.09715177 -131.82836914 158.29418945 C-127.84763601 158.34840129 -124.77830484 158.27399267 -121 157 C-118.40068043 153.91077331 -116.92929068 151.02053007 -115.39672852 147.29467773 C-113.99413543 143.98616635 -112.35825114 141.68716262 -110 139 C-112.78575077 133.25438904 -117.50616877 128.35931871 -123.5 126.02734375 C-125.1249686 125.57403696 -126.76184613 125.16006349 -128.41015625 124.80078125 C-131.96162274 123.70266567 -134.81504217 121.91409338 -138 120 Z M54.4375 139.25 C51.9843765 141.38831589 49.78338113 142.59033571 46.75 143.75 C42.87442685 145.3439339 40.4227245 147.31996453 37.4375 150.25 C29.22042345 158.04272049 18.5148355 162.18281027 8 166 C8.26844727 166.57524414 8.53689453 167.15048828 8.81347656 167.74316406 C9.45377604 169.11523438 10.09407552 170.48730469 10.734375 171.859375 C12.35938287 174.60784511 13.33334298 176.15321579 16 178 C19.51164743 178.45089365 22.96958231 178.27391196 26.5 178.125 C40.41619332 177.85024903 53.61491288 178.50144643 64.5078125 188.37890625 C73.59079014 198.24653903 79.7321816 210.04338669 83 223 C90.14762931 212.27855603 88.04216886 192.85982283 85.8125 180.625 C82.43319484 164.83385437 75.36883311 147.99114009 61.625 138.4375 C57.9114211 136.40387346 57.6832188 136.40010056 54.4375 139.25 Z M-110.3125 146.875 C-112.24844932 150.46009133 -114.05947193 154.08743534 -115.75390625 157.79296875 C-117 160 -117 160 -120 162 C-122.88818359 162.27124023 -122.88818359 162.27124023 -126.3984375 162.30859375 C-128.32623047 162.34629883 -128.32623047 162.34629883 -130.29296875 162.38476562 C-132.97523547 162.42238553 -135.65743938 162.45076661 -138.33984375 162.47851562 C-151.52839158 162.74700145 -164.60018815 164.10620091 -174.62109375 173.5234375 C-180.24212395 180.36207959 -181.68152972 190.41272547 -181 199 C-179.71951712 209.73392443 -176.44001442 218.83530185 -168 226 C-155.11103606 234.00556766 -141.12363245 237.12284756 -126.05078125 237.203125 C-124.77173164 237.21167511 -124.77173164 237.21167511 -123.46684265 237.22039795 C-121.66239646 237.22980965 -119.85793338 237.23636662 -118.0534668 237.24023438 C-115.36539192 237.24981155 -112.67812606 237.28081659 -109.99023438 237.3125 C-84.55006997 237.71547354 -84.55006997 237.71547354 -62.1484375 227.4375 C-58.00195062 223.19275513 -56.76206945 218.79435565 -56 213 C-56.69867188 212.90203125 -57.39734375 212.8040625 -58.1171875 212.703125 C-59.02726562 212.55359375 -59.93734375 212.4040625 -60.875 212.25 C-61.77992188 212.11078125 -62.68484375 211.9715625 -63.6171875 211.828125 C-66 211 -66 211 -68 207 C-63.38 207 -58.76 207 -54 207 C-51.89240769 200.42927103 -51.81525429 194.80929608 -53 188 C-54.70089219 186.29910781 -56.98646153 186.67252736 -59.3125 186.5 C-62.65741574 186.24991284 -65.77018752 185.92061163 -69 185 C-69 184.01 -69 183.02 -69 182 C-64.38 181.67 -59.76 181.34 -55 181 C-58.89365787 172.41104882 -61.86711274 167.30967641 -70.94140625 163.671875 C-73.47282335 162.84568194 -76.03692323 162.25030714 -78.625 161.625 C-85.32396627 159.84043931 -88.0644769 156.61102477 -91.5625 150.8125 C-91.93503906 150.13832031 -92.30757813 149.46414063 -92.69140625 148.76953125 C-94.80743181 145.90815938 -96.9767078 145.15578968 -100.4375 144.62890625 C-105.78779493 144.38953153 -105.78779493 144.38953153 -110.3125 146.875 Z M-12 167 C-13.23176053 168.95433992 -13.23176053 168.95433992 -14.0625 171.25 C-14.40023437 172.05179688 -14.73796875 172.85359375 -15.0859375 173.6796875 C-15.82762179 175.56242455 -16.51586792 177.46615094 -17.1875 179.375 C-19.56780048 182.82233173 -21.67844806 183.19523763 -25.6015625 184.3125 C-33.83970985 186.67392335 -38.95936832 191.09375521 -44 198 C-45.27196275 200.33122269 -46.14081376 202.47614041 -47 205 C-40.07 205.495 -40.07 205.495 -33 206 C-32.67 206.99 -32.34 207.98 -32 209 C-37.66642551 210.22517308 -43.23708518 210.09228867 -49 210 C-49.78688445 212.77723925 -50.11949924 215.22610077 -50.09765625 218.109375 C-50.09515869 218.78967773 -50.09266113 219.46998047 -50.09008789 220.17089844 C-50.08098389 221.02200195 -50.07187988 221.87310547 -50.0625 222.75 C-50.041875 225.4725 -50.02125 228.195 -50 231 C-44.39 231 -38.78 231 -33 231 C-33 232.32 -33 233.64 -33 235 C-40.425 235.99 -40.425 235.99 -48 237 C-45.06788514 245.79634457 -40.28042475 252.52341563 -32 257 C-20.54229901 260.95834717 -8.41221781 260.42679199 3.53955078 260.33618164 C6.86125084 260.31259762 10.18214353 260.31563879 13.50390625 260.32226562 C44.6695375 260.40699732 44.6695375 260.40699732 71.75 246.625 C76.7322164 240.8124142 79.27646656 235.6929826 79 228 C76.86842978 212.20394282 67.99952134 196.90851856 55.34765625 187.25390625 C46.14495873 182.33865516 36.91999215 182.55568843 26.70019531 182.56420898 C24.71149017 182.56063218 22.72287681 182.53256756 20.734375 182.50390625 C19.56100586 182.50205322 18.38763672 182.5002002 17.17871094 182.49829102 C13.35441078 181.89879819 11.74654269 180.67449823 9 178 C7.08972248 175.22791329 5.43548965 172.37153643 3.74609375 169.4609375 C1.9355572 166.90917458 0.91668939 166.00495832 -2 165 C-5.98356515 164.66803624 -8.62709144 164.82830837 -12 167 Z M-56 167 C-54.02 170.96 -52.04 174.92 -50 179 C-48.7578125 183.015625 -48.7578125 183.015625 -48.125 186.25 C-47.90070313 187.34828125 -47.67640625 188.4465625 -47.4453125 189.578125 C-47.22488281 190.77695312 -47.22488281 190.77695312 -47 192 C-46.56171875 191.63648438 -46.1234375 191.27296875 -45.671875 190.8984375 C-39.45613318 185.97132508 -32.08622269 181.13188408 -24.26171875 179.390625 C-23.51535156 178.93171875 -22.76898438 178.4728125 -22 178 C-21.34 175.03 -20.68 172.06 -20 169 C-31.88 168.34 -43.76 167.68 -56 167 Z " fill="#001535" transform="translate(297,121)"/>
<path d="M0 0 C5.80000896 3.94662264 10.92462063 10.10705377 14.078125 16.4140625 C14.69558594 16.1975 15.31304687 15.9809375 15.94921875 15.7578125 C24.90443157 12.81363294 31.92938292 12.14307844 40.71484375 16.0234375 C47.49155499 20.01105601 50.9847772 26.02577615 53.078125 33.4140625 C53.078125 34.7340625 53.078125 36.0540625 53.078125 37.4140625 C53.635 37.36765625 54.191875 37.32125 54.765625 37.2734375 C60.80650812 36.98772005 65.09822603 37.90524966 70.078125 41.4140625 C75.47437109 46.69039201 78.18598649 52.4560971 78.390625 59.9765625 C78.25588848 64.0612065 77.39180657 67.5551229 76.078125 71.4140625 C76.985625 71.9503125 77.893125 72.4865625 78.828125 73.0390625 C84.39785264 76.78286528 86.76435264 81.95468173 88.078125 88.4140625 C88.22233906 91.4233292 88.20096307 94.40452981 88.078125 97.4140625 C87.088125 97.7440625 86.098125 98.0740625 85.078125 98.4140625 C85.11292969 99.13851562 85.14773438 99.86296875 85.18359375 100.609375 C85.37248089 107.35534431 84.95610344 111.78530708 80.640625 117.2265625 C78.82172398 118.60892727 77.31356233 119.02864227 75.078125 119.4140625 C76.578125 110.4140625 76.578125 110.4140625 78.078125 101.4140625 C79.068125 101.0840625 80.058125 100.7540625 81.078125 100.4140625 C81.078125 99.7540625 81.078125 99.0940625 81.078125 98.4140625 C80.4490625 98.37667969 79.82 98.33929688 79.171875 98.30078125 C72.81446598 97.81248628 66.59851043 97.10659474 61.3671875 93.10546875 C59.66252979 90.86875121 59.76986456 89.50405258 59.890625 86.7265625 C59.93123047 85.51419922 59.93123047 85.51419922 59.97265625 84.27734375 C60.00746094 83.66246094 60.04226563 83.04757813 60.078125 82.4140625 C61.728125 82.4140625 63.378125 82.4140625 65.078125 82.4140625 C62.61323722 79.87874935 60.23137301 77.52810753 57.390625 75.4140625 C53.56775227 72.10779419 53.16001727 69.4459051 52.765625 64.4765625 C52.94144465 58.24082563 56.13416345 54.03801742 60.078125 49.4140625 C58.840625 49.7440625 57.603125 50.0740625 56.328125 50.4140625 C48.49142844 52.11715561 40.05343492 53.03364911 32.8984375 48.8125 C28.48416383 45.42127688 24.82375345 41.69754963 23.078125 36.3515625 C23.078125 32.95364683 23.47661381 29.75579134 24.078125 26.4140625 C21.81364617 28.55830352 20.04599704 30.79626269 18.265625 33.3515625 C14.27947885 38.71563571 9.64632337 41.95446286 3.078125 43.4140625 C-6.23954693 44.29384268 -12.86828663 42.90344495 -20.546875 37.6015625 C-21.921875 35.4140625 -21.921875 35.4140625 -21.671875 31.6640625 C-21.424375 30.5915625 -21.176875 29.5190625 -20.921875 28.4140625 C-21.581875 28.0840625 -22.241875 27.7540625 -22.921875 27.4140625 C-23.14875 28.1359375 -23.375625 28.8578125 -23.609375 29.6015625 C-26.13608854 35.01594866 -30.36495029 38.23241954 -35.6875 40.68359375 C-42.37278474 42.86916761 -48.85009229 41.81385228 -55.078125 38.765625 C-58.14948789 36.51415983 -58.77739564 33.98214523 -59.921875 30.4140625 C-60.911875 29.9190625 -60.911875 29.9190625 -61.921875 29.4140625 C-62.004375 30.4040625 -62.086875 31.3940625 -62.171875 32.4140625 C-62.97169853 37.68223348 -64.64456585 42.36902878 -68.68359375 45.99609375 C-73.36928257 49.19046314 -77.32093209 50.02101387 -82.921875 50.4140625 C-84.50549227 51.99767977 -84.00001306 53.78409302 -84.046875 55.9765625 C-84.56448201 62.08257058 -87.4321551 65.44278601 -91.921875 69.4140625 C-92.911875 69.9090625 -92.911875 69.9090625 -93.921875 70.4140625 C-94.28033709 73.45418403 -94.36624033 76.47287605 -94.48046875 79.53125 C-94.96112318 82.67039133 -95.42046754 83.55798129 -97.921875 85.4140625 C-101.59223076 87.24924038 -105.96942582 86.03454118 -109.921875 85.4140625 C-113.046875 84.3515625 -113.046875 84.3515625 -114.921875 83.4140625 C-113.83402532 86.66389385 -113.83402532 86.66389385 -111.921875 89.4140625 C-111.7091193 92.1680668 -111.54496988 94.90582543 -111.421875 97.6640625 C-111.11363862 104.59107711 -111.11363862 104.59107711 -109.921875 111.4140625 C-114.84477489 110.97968898 -117.40938325 108.7704435 -120.921875 105.4140625 C-122.72590342 102.48631268 -123.19503813 100.27391537 -123.171875 96.8515625 C-123.17960938 95.70494141 -123.17960938 95.70494141 -123.1875 94.53515625 C-122.921875 92.4140625 -122.921875 92.4140625 -120.921875 89.4140625 C-121.24313628 86.77971996 -121.73542548 84.78696153 -122.921875 82.4140625 C-123.58372819 77.0866868 -123.30200801 72.54469486 -120.328125 67.98828125 C-117.71187382 65.0595334 -114.5293465 62.94301038 -110.921875 61.4140625 C-109.601875 61.4140625 -108.281875 61.4140625 -106.921875 61.4140625 C-107.251875 60.4240625 -107.581875 59.4340625 -107.921875 58.4140625 C-108.65228032 50.50602029 -107.3855328 44.48857348 -103.296875 37.7265625 C-98.59416554 33.14760855 -92.44132954 29.620242 -85.78125 29.31640625 C-85.08515625 29.32800781 -84.3890625 29.33960938 -83.671875 29.3515625 C-81.815625 29.3825 -81.815625 29.3825 -79.921875 29.4140625 C-79.715625 28.1146875 -79.509375 26.8153125 -79.296875 25.4765625 C-77.8078754 19.00043412 -75.09702056 13.51747123 -69.4453125 9.7734375 C-62.69352154 6.30791648 -56.20349445 3.98160997 -48.57421875 6.05078125 C-46.33838308 6.79605981 -44.12912597 7.5884822 -41.921875 8.4140625 C-40.931875 8.7440625 -39.941875 9.0740625 -38.921875 9.4140625 C-38.715625 8.8571875 -38.509375 8.3003125 -38.296875 7.7265625 C-30.63028026 -5.16725592 -12.07638005 -6.97313558 0 0 Z " fill="#3C9AF9" transform="translate(282.921875,130.5859375)"/>
<path d="M0 0 C0.95841797 -0.00257812 1.91683594 -0.00515625 2.90429688 -0.0078125 C3.89365234 -0.00007812 4.88300781 0.00765625 5.90234375 0.015625 C7.39217773 0.00402344 7.39217773 0.00402344 8.91210938 -0.0078125 C9.86923828 -0.00523438 10.82636719 -0.00265625 11.8125 0 C12.68140869 0.00225586 13.55031738 0.00451172 14.44555664 0.00683594 C17.0337289 0.28658128 18.64871223 0.87647026 20.83984375 2.265625 C22.19032414 4.96658577 21.96947952 7.09289017 21.97265625 10.11328125 C21.97394531 11.27537109 21.97523438 12.43746094 21.9765625 13.63476562 C21.97269531 14.85357422 21.96882813 16.07238281 21.96484375 17.328125 C21.96871094 18.55080078 21.97257812 19.77347656 21.9765625 21.03320312 C21.97462891 22.7744043 21.97462891 22.7744043 21.97265625 24.55078125 C21.97152832 25.62207275 21.97040039 26.69336426 21.96923828 27.79711914 C21.83984375 30.265625 21.83984375 30.265625 20.83984375 31.265625 C17.40234375 31.453125 17.40234375 31.453125 13.83984375 31.265625 C11.25058044 28.67636169 11.46586332 27.23857221 11.21484375 23.640625 C11.10269531 22.13628906 11.10269531 22.13628906 10.98828125 20.6015625 C10.93929688 19.83070312 10.8903125 19.05984375 10.83984375 18.265625 C10.33646484 18.77424072 9.83308594 19.28285645 9.31445312 19.80688477 C6.99232397 22.15003228 4.66611605 24.48909102 2.33984375 26.828125 C1.54835938 27.62798828 0.756875 28.42785156 -0.05859375 29.25195312 C-3.66642076 32.87456631 -7.27968175 36.43075201 -11.16015625 39.76171875 C-15.91258514 43.84546716 -20.26724412 48.30220064 -24.66015625 52.765625 C-31.20437023 59.41488254 -37.83977632 65.77255186 -45.09765625 71.640625 C-47.32931786 74.4809216 -47.41189567 75.20405426 -47.59765625 78.640625 C-47.85546524 83.31243637 -49.47180006 85.56871577 -52.58984375 88.953125 C-56.05679707 91.85087702 -59.85830641 91.63018855 -64.16015625 91.265625 C-67.47265625 89.640625 -67.47265625 89.640625 -70.16015625 87.265625 C-70.56234375 85.71875 -70.56234375 85.71875 -70.97265625 84.140625 C-71.36453125 83.191875 -71.75640625 82.243125 -72.16015625 81.265625 C-74.25379835 80.7475229 -76.35330729 80.24650861 -78.47094727 79.83740234 C-83.32688915 78.80493608 -88.0065592 77.17624363 -92.72265625 75.640625 C-94.23569336 75.15335938 -94.23569336 75.15335938 -95.77929688 74.65625 C-98.24077317 73.86297802 -100.70099655 73.06604357 -103.16015625 72.265625 C-103.43859375 72.87921875 -103.71703125 73.4928125 -104.00390625 74.125 C-105.80693909 77.46304729 -107.77805678 78.57457526 -111.16015625 80.265625 C-114.52314265 80.58686549 -117.79376073 80.5051314 -121.16015625 80.265625 C-121.42803955 81.13493652 -121.69592285 82.00424805 -121.97192383 82.89990234 C-123.13095707 86.18291697 -124.51568099 89.05886472 -126.171875 92.1171875 C-126.76548828 93.21675781 -127.35910156 94.31632812 -127.97070312 95.44921875 C-128.59009766 96.58488281 -129.20949219 97.72054687 -129.84765625 98.890625 C-130.44771484 100.00308594 -131.04777344 101.11554688 -131.66601562 102.26171875 C-135.21032506 108.80213079 -138.8894492 115.20072114 -142.86767578 121.48828125 C-144.77597399 125.58892357 -144.4383417 129.19721495 -144.16015625 133.625 C-144.16015625 137.53217423 -145.47992307 139.51295309 -148.16015625 142.265625 C-152.5335856 145.05976042 -156.26787932 144.11983208 -161.16015625 143.265625 C-161.80177704 143.05641418 -162.44339783 142.84720337 -163.10446167 142.63165283 C-165.82117619 142.14792673 -167.4051255 142.77624939 -169.98876953 143.72167969 C-170.94300812 144.0666449 -171.8972467 144.41161011 -172.88040161 144.76702881 C-173.90342377 145.1532843 -174.92644592 145.53953979 -175.98046875 145.9375 C-177.56297928 146.53307709 -177.56297928 146.53307709 -179.17745972 147.14068604 C-181.40751007 147.988231 -183.63492757 148.8427311 -185.85986328 149.70361328 C-189.26534758 151.00803756 -192.68941462 152.25164709 -196.1171875 153.49609375 C-198.2813682 154.32703946 -200.44418038 155.16156008 -202.60546875 156 C-203.63253937 156.36196472 -204.65960999 156.72392944 -205.71780396 157.09686279 C-208.58836602 158.25604203 -210.80422094 159.25256825 -213.16015625 161.265625 C-214.24094102 164.13500858 -214.62487613 166.59295911 -214.81295776 169.64776611 C-215.3764389 173.89638512 -217.92130746 176.60790937 -221.16015625 179.265625 C-224.68821934 181.5943024 -227.80650413 181.53367983 -231.97265625 181.515625 C-233.15472656 181.52078125 -234.33679688 181.5259375 -235.5546875 181.53125 C-239.16015625 181.265625 -239.16015625 181.265625 -242.58984375 179.91015625 C-246.56340352 179.19282872 -246.99907992 179.37570748 -250.2109375 181.44921875 C-251.64827726 182.511535 -253.06835671 183.59750111 -254.47265625 184.703125 C-255.21741211 185.25701904 -255.96216797 185.81091309 -256.72949219 186.3815918 C-258.88913253 187.98958998 -261.02695565 189.62278552 -263.16015625 191.265625 C-265.06685391 192.71632186 -266.98137664 194.15691897 -268.91015625 195.578125 C-269.98523438 196.40763672 -269.98523438 196.40763672 -271.08203125 197.25390625 C-273.82119482 198.58744641 -275.30816026 198.17263733 -278.16015625 197.265625 C-279.16015625 196.265625 -279.16015625 196.265625 -279.44921875 193.4375 C-279.16015625 190.265625 -279.16015625 190.265625 -277.68359375 188.28125 C-276.97460938 187.69859375 -276.265625 187.1159375 -275.53515625 186.515625 C-274.72433594 185.84660156 -273.91351563 185.17757812 -273.078125 184.48828125 C-268.55630057 181.04394644 -263.95663963 177.71973975 -259.296875 174.46484375 C-258.26175781 173.73910156 -257.22664063 173.01335937 -256.16015625 172.265625 C-254.96326172 171.53859375 -254.96326172 171.53859375 -253.7421875 170.796875 C-251.90678173 169.34886262 -251.90678173 169.34886262 -251.91015625 166.84765625 C-252.03390625 165.47673828 -252.03390625 165.47673828 -252.16015625 164.078125 C-252.37772996 157.74338282 -251.05613971 153.45446072 -246.76953125 148.734375 C-241.6365833 144.08770633 -236.2168127 142.79297833 -229.48046875 142.94140625 C-225.65834868 143.47547353 -222.23233335 144.92230624 -219.16015625 147.265625 C-218.83015625 148.255625 -218.50015625 149.245625 -218.16015625 150.265625 C-217.59052658 150.04234024 -217.02089691 149.81905548 -216.43400574 149.58900452 C-210.51357008 147.26846938 -204.59272172 144.94898974 -198.67163086 142.63012695 C-196.4609124 141.7641878 -194.25029988 140.89797815 -192.03979492 140.03149414 C-188.86534895 138.78721388 -185.69052523 137.5439019 -182.515625 136.30078125 C-181.52491501 135.91221451 -180.53420502 135.52364777 -179.51347351 135.12330627 C-178.59274551 134.76300827 -177.67201752 134.40271027 -176.72338867 134.03149414 C-175.91286545 133.71394669 -175.10234222 133.39639923 -174.26725769 133.06922913 C-172.58036583 132.42588409 -170.87291639 131.83654505 -169.16015625 131.265625 C-168.46787415 129.55140265 -167.77693233 127.83660507 -167.09765625 126.1171875 C-165.41903257 122.80190573 -163.25100399 121.32619016 -160.16015625 119.265625 C-159.17313721 119.16902588 -158.18611816 119.07242676 -157.16918945 118.97290039 C-153.99589915 118.55878449 -153.99589915 118.55878449 -152.33666992 115.92749023 C-151.58994019 114.39137085 -151.58994019 114.39137085 -150.828125 112.82421875 C-150.26085693 111.69008545 -149.69358887 110.55595215 -149.10913086 109.38745117 C-148.5213057 108.15966154 -147.93415958 106.9315466 -147.34765625 105.703125 C-146.43416188 103.84272877 -145.5139946 101.98575405 -144.59266663 100.12922668 C-143.9822702 98.89897654 -143.37429992 97.66751961 -142.76878357 96.43486023 C-141.02559123 92.90871858 -139.18019276 89.49029737 -137.14453125 86.125 C-136.70858643 85.4038501 -136.2726416 84.6827002 -135.82348633 83.93969727 C-135.02926192 82.65258235 -134.21751074 81.37605416 -133.38549805 80.11303711 C-132.17097991 78.23742909 -132.17097991 78.23742909 -131.16015625 75.265625 C-132.34964758 72.14179311 -132.34964758 72.14179311 -134.16015625 69.265625 C-134.97687472 64.02685425 -134.8191267 59.60797222 -132.47265625 54.828125 C-129.19261102 51.19348028 -125.86329727 47.53907708 -120.8046875 47.02734375 C-114.26418786 46.85593755 -110.42445423 47.29054285 -105.16015625 51.265625 C-101.67118578 54.75459547 -100.61561684 57.36942369 -100.16015625 62.265625 C-99.56444824 62.37156982 -98.96874023 62.47751465 -98.35498047 62.58666992 C-93.72584361 63.45525093 -89.23092012 64.48319665 -84.73046875 65.87890625 C-83.83328125 66.15669922 -82.93609375 66.43449219 -82.01171875 66.72070312 C-80.16705965 67.30079291 -78.32595168 67.89227789 -76.48828125 68.49414062 C-75.59882813 68.76548828 -74.709375 69.03683594 -73.79296875 69.31640625 C-72.60018311 69.69792847 -72.60018311 69.69792847 -71.38330078 70.0871582 C-68.365192 70.32944214 -67.48847099 69.09313562 -65.16015625 67.265625 C-62.84790039 66.98242188 -62.84790039 66.98242188 -60.3828125 66.984375 C-54.36739759 66.52630936 -51.65547366 64.00691891 -47.59765625 59.765625 C-46.92927734 59.10433594 -46.26089844 58.44304687 -45.57226562 57.76171875 C-43.41328981 55.61677528 -41.28694308 53.44244827 -39.16015625 51.265625 C-36.9003399 48.9974843 -34.63422048 46.73577949 -32.36743164 44.47460938 C-30.93787774 43.04394864 -29.51352705 41.6080619 -28.09545898 40.16601562 C-24.23170789 36.24890954 -20.25692352 32.56096962 -16.08837891 28.97119141 C-13.03443423 26.26989265 -10.19523526 23.36874652 -7.34765625 20.453125 C-1.56064169 14.53261529 -1.56064169 14.53261529 1.83984375 12.265625 C1.14117187 12.21664063 0.4425 12.16765625 -0.27734375 12.1171875 C-1.64246094 12.00503906 -1.64246094 12.00503906 -3.03515625 11.890625 C-3.94007813 11.82101563 -4.845 11.75140625 -5.77734375 11.6796875 C-8.16015625 11.265625 -8.16015625 11.265625 -10.16015625 9.265625 C-10.28515625 5.640625 -10.28515625 5.640625 -10.16015625 2.265625 C-6.63197872 0.67222898 -3.86481996 0.01002083 0 0 Z M-129.59765625 59.140625 C-130.4561794 62.38393466 -129.89178698 65.03425596 -129.16015625 68.265625 C-128.50015625 68.595625 -127.84015625 68.925625 -127.16015625 69.265625 C-126.78503906 68.48316406 -126.40992188 67.70070313 -126.0234375 66.89453125 C-125.51167969 65.88261719 -124.99992188 64.87070313 -124.47265625 63.828125 C-123.97378906 62.81878906 -123.47492188 61.80945313 -122.9609375 60.76953125 C-121.16015625 58.265625 -121.16015625 58.265625 -118.78515625 57.359375 C-115.95919694 57.25844788 -113.60320561 57.57853381 -110.84765625 58.203125 C-109.96464844 58.39777344 -109.08164063 58.59242187 -108.171875 58.79296875 C-107.17607422 59.02693359 -107.17607422 59.02693359 -106.16015625 59.265625 C-107.91582653 55.45511193 -109.20328548 53.94939979 -113.16015625 52.265625 C-120.88971631 50.95359636 -124.85004233 52.94808511 -129.59765625 59.140625 Z M-115.16015625 69.265625 C-117.41900949 72.51960008 -117.41900949 72.51960008 -118.16015625 76.265625 C-112.80967564 75.89233565 -110.65102718 74.2698593 -107.16015625 70.265625 C-109.80015625 69.935625 -112.44015625 69.605625 -115.16015625 69.265625 Z M-63.16015625 71.265625 C-63.49015625 71.925625 -63.82015625 72.585625 -64.16015625 73.265625 C-62.84015625 72.935625 -61.52015625 72.605625 -60.16015625 72.265625 C-61.15015625 71.935625 -62.14015625 71.605625 -63.16015625 71.265625 Z M-54.16015625 79.265625 C-54.88203125 79.905 -55.60390625 80.544375 -56.34765625 81.203125 C-59.14206809 83.25236035 -60.77678899 83.87895446 -64.16015625 84.265625 C-63.83015625 84.925625 -63.50015625 85.585625 -63.16015625 86.265625 C-60.32798825 86.60010759 -60.32798825 86.60010759 -57.16015625 86.265625 C-54.78295932 84.39060569 -54.78295932 84.39060569 -53.16015625 82.265625 C-53.49015625 81.275625 -53.82015625 80.285625 -54.16015625 79.265625 Z M-162.16015625 126.265625 C-162.16015625 126.925625 -162.16015625 127.585625 -162.16015625 128.265625 C-160.84015625 127.935625 -159.52015625 127.605625 -158.16015625 127.265625 C-157.83015625 125.945625 -157.50015625 124.625625 -157.16015625 123.265625 C-159.20567667 123.265625 -160.67573531 125.0206268 -162.16015625 126.265625 Z M-155.16015625 137.265625 C-155.82015625 137.925625 -156.48015625 138.585625 -157.16015625 139.265625 C-154.21924038 139.08147068 -154.21924038 139.08147068 -151.16015625 138.265625 C-149.72377927 136.31399382 -149.72377927 136.31399382 -149.16015625 134.265625 C-151.33462772 134.265625 -153.39417582 136.14573497 -155.16015625 137.265625 Z M-246.16015625 155.265625 C-247.07708586 158.01641384 -247.26901708 159.62511413 -247.22265625 162.453125 C-247.20203125 163.71125 -247.18140625 164.969375 -247.16015625 166.265625 C-246.62648437 165.89050781 -246.0928125 165.51539063 -245.54296875 165.12890625 C-239.96275446 161.29612931 -234.26345118 158.1778571 -228.16015625 155.265625 C-226.95038329 154.6643462 -225.74178131 154.06069621 -224.53515625 153.453125 C-223.75140625 153.06125 -222.96765625 152.669375 -222.16015625 152.265625 C-225.35815247 148.92226532 -227.27542659 148.08654904 -231.91015625 147.953125 C-238.04493571 148.00623997 -242.25888763 150.54303667 -246.16015625 155.265625 Z M-240.16015625 174.265625 C-237.42542954 177.00035171 -235.23351283 176.96129577 -231.4765625 177.29296875 C-226.78067632 177.2375367 -224.06201239 175.16748114 -220.84765625 171.953125 C-218.98354434 168.98435418 -218.48247659 166.73056863 -218.16015625 163.265625 C-226.28193609 163.265625 -234.01743246 169.61283847 -240.16015625 174.265625 Z " fill="#2363A8" transform="translate(289.16015625,12.734375)"/>
<path d="M0 0 C1.33356709 0.00279584 2.6671344 0.00548219 4.0007019 0.0080719 C23.38132394 0.05875152 42.7615349 0.27682935 62.14103699 0.47807693 C65.42658025 0.51205014 68.71212934 0.54539893 71.99768066 0.57858276 C110.25671345 0.96591636 148.51347529 1.46036817 186.76953125 2.07421875 C186.76953125 2.73421875 186.76953125 3.39421875 186.76953125 4.07421875 C181.95561485 5.9852776 177.63238051 6.34790801 172.51820374 6.29454041 C171.70286665 6.29413256 170.88752956 6.29372471 170.04748529 6.2933045 C167.32329057 6.28958275 164.59937972 6.2715691 161.87524414 6.25366211 C159.91842884 6.2481847 157.96161075 6.24363562 156.00479126 6.23994446 C151.79290351 6.23023819 147.58109856 6.21441421 143.36924934 6.19398308 C136.69828103 6.16211953 130.02733657 6.14666131 123.35630798 6.13392639 C106.77940014 6.09986194 90.20255658 6.04736571 73.62573242 5.98480225 C60.75464804 5.93624141 47.88362371 5.89418677 35.01246065 5.87329394 C28.39310749 5.86182527 21.77400174 5.83650948 15.15473855 5.80054653 C11.01751514 5.78122422 6.88034063 5.77465888 2.74307632 5.77148247 C0.8384728 5.7674954 -1.06612873 5.75839436 -2.97067833 5.74351883 C-24.83034949 5.22592627 -24.83034949 5.22592627 -43.85546875 14.44921875 C-54.38830249 28.17587949 -51.36664164 50.81080756 -51.328125 66.99609375 C-51.32625713 69.31064829 -51.32483497 71.62520322 -51.32383728 73.9397583 C-51.32004116 79.9960644 -51.31023604 86.05234606 -51.2991333 92.10864258 C-51.28885635 98.30289377 -51.28432626 104.49714896 -51.27929688 110.69140625 C-51.26861086 122.81902108 -51.2515698 134.94661787 -51.23046875 147.07421875 C-52.22046875 147.07421875 -53.21046875 147.07421875 -54.23046875 147.07421875 C-59.78351805 141.52116945 -56.39547394 116.63988109 -56.3984375 108.9140625 C-56.40166137 106.9102018 -56.40502623 104.90634132 -56.40852356 102.90248108 C-56.41446591 98.72982233 -56.41636835 94.55718415 -56.41577148 90.38452148 C-56.4156697 85.07733477 -56.4293615 79.77028132 -56.44654369 74.46312618 C-56.45773622 70.33378001 -56.45968854 66.20446545 -56.45916176 62.07510567 C-56.46032944 60.11978251 -56.4646817 58.16445821 -56.47249413 56.20915031 C-56.60448421 19.79341481 -56.60448421 19.79341481 -47.10546875 9.19921875 C-34.82337648 -1.69825351 -15.35981432 -0.0592956 0 0 Z " fill="#001434" transform="translate(77.23046875,35.92578125)"/>
<path d="M0 0 C0.95841797 -0.00257812 1.91683594 -0.00515625 2.90429688 -0.0078125 C3.89365234 -0.00007812 4.88300781 0.00765625 5.90234375 0.015625 C7.39217773 0.00402344 7.39217773 0.00402344 8.91210938 -0.0078125 C9.86923828 -0.00523438 10.82636719 -0.00265625 11.8125 0 C12.68140869 0.00225586 13.55031738 0.00451172 14.44555664 0.00683594 C17.0337289 0.28658128 18.64871223 0.87647026 20.83984375 2.265625 C22.19032414 4.96658577 21.96947952 7.09289017 21.97265625 10.11328125 C21.97394531 11.27537109 21.97523438 12.43746094 21.9765625 13.63476562 C21.97269531 14.85357422 21.96882813 16.07238281 21.96484375 17.328125 C21.96871094 18.55080078 21.97257812 19.77347656 21.9765625 21.03320312 C21.97527344 22.19400391 21.97398437 23.35480469 21.97265625 24.55078125 C21.97152832 25.62207275 21.97040039 26.69336426 21.96923828 27.79711914 C21.83984375 30.265625 21.83984375 30.265625 20.83984375 31.265625 C17.40234375 31.453125 17.40234375 31.453125 13.83984375 31.265625 C11.25058044 28.67636169 11.46586332 27.23857221 11.21484375 23.640625 C11.10269531 22.13628906 11.10269531 22.13628906 10.98828125 20.6015625 C10.93929687 19.83070312 10.8903125 19.05984375 10.83984375 18.265625 C10.33646484 18.77424072 9.83308594 19.28285645 9.31445312 19.80688477 C6.99232397 22.15003228 4.66611605 24.48909102 2.33984375 26.828125 C1.54835938 27.62798828 0.756875 28.42785156 -0.05859375 29.25195312 C-3.66642076 32.87456631 -7.27968175 36.43075201 -11.16015625 39.76171875 C-15.91258514 43.84546716 -20.26724412 48.30220064 -24.66015625 52.765625 C-30.31004143 58.50619854 -36.01728995 64.05331994 -42.16015625 69.265625 C-43.49359799 70.41133218 -44.82693585 71.55716026 -46.16015625 72.703125 C-47.64515625 73.9715625 -47.64515625 73.9715625 -49.16015625 75.265625 C-50.05734375 74.1209375 -50.05734375 74.1209375 -50.97265625 72.953125 C-52.63416602 70.91184157 -54.28620564 69.09661972 -56.16015625 67.265625 C-55.73420166 66.86996338 -55.30824707 66.47430176 -54.86938477 66.06665039 C-45.75442717 57.58391608 -36.77317953 48.99945784 -28.04711914 40.11547852 C-24.19866865 36.2177921 -20.24033012 32.54747764 -16.09057617 28.97338867 C-13.03604708 26.27117152 -10.19596893 23.36949772 -7.34765625 20.453125 C-1.56064169 14.53261529 -1.56064169 14.53261529 1.83984375 12.265625 C1.14117187 12.21664063 0.4425 12.16765625 -0.27734375 12.1171875 C-1.18742187 12.04242188 -2.0975 11.96765625 -3.03515625 11.890625 C-3.94007813 11.82101563 -4.845 11.75140625 -5.77734375 11.6796875 C-8.16015625 11.265625 -8.16015625 11.265625 -10.16015625 9.265625 C-10.28515625 5.640625 -10.28515625 5.640625 -10.16015625 2.265625 C-6.63197872 0.67222898 -3.86481996 0.01002083 0 0 Z " fill="#3D9CFB" transform="translate(289.16015625,12.734375)"/>
<path d="M0 0 C4.51922242 3.79221707 6.45308037 8.87646131 7.203125 14.6171875 C7.37037113 20.21993299 7.20295577 24.85283545 3.796875 29.5078125 C-1.04735241 34.23577845 -4.14299672 35.659459 -10.890625 35.6953125 C-12.09074219 35.70949219 -13.29085937 35.72367188 -14.52734375 35.73828125 C-18.203125 35.5078125 -18.203125 35.5078125 -21.640625 34.15625 C-25.60996677 33.43376016 -26.04385446 33.61917105 -29.25390625 35.69140625 C-30.69124601 36.7537225 -32.11132546 37.83968861 -33.515625 38.9453125 C-34.26038086 39.49920654 -35.00513672 40.05310059 -35.77246094 40.6237793 C-37.93210128 42.23177748 -40.0699244 43.86497302 -42.203125 45.5078125 C-44.10982266 46.95850936 -46.02434539 48.39910647 -47.953125 49.8203125 C-49.02820313 50.64982422 -49.02820313 50.64982422 -50.125 51.49609375 C-52.86416357 52.82963391 -54.35112901 52.41482483 -57.203125 51.5078125 C-58.203125 50.5078125 -58.203125 50.5078125 -58.4921875 47.6796875 C-58.203125 44.5078125 -58.203125 44.5078125 -56.7265625 42.5234375 C-55.66308594 41.64945313 -55.66308594 41.64945313 -54.578125 40.7578125 C-53.76730469 40.08878906 -52.95648438 39.41976562 -52.12109375 38.73046875 C-47.59926932 35.28613394 -42.99960838 31.96192725 -38.33984375 28.70703125 C-37.30472656 27.98128906 -36.26960938 27.25554687 -35.203125 26.5078125 C-34.40519531 26.023125 -33.60726562 25.5384375 -32.78515625 25.0390625 C-30.94975048 23.59105012 -30.94975048 23.59105012 -30.953125 21.08984375 C-31.035625 20.17589844 -31.118125 19.26195312 -31.203125 18.3203125 C-31.42069871 11.98557032 -30.09910846 7.69664822 -25.8125 2.9765625 C-18.68099381 -3.47932731 -8.39156673 -4.79997617 0 0 Z M-25.203125 9.5078125 C-26.12005461 12.25860134 -26.31198583 13.86730163 -26.265625 16.6953125 C-26.245 17.9534375 -26.224375 19.2115625 -26.203125 20.5078125 C-25.66945312 20.13269531 -25.13578125 19.75757813 -24.5859375 19.37109375 C-19.00572321 15.53831681 -13.30641993 12.4200446 -7.203125 9.5078125 C-5.99335204 8.9065337 -4.78475006 8.30288371 -3.578125 7.6953125 C-2.794375 7.3034375 -2.010625 6.9115625 -1.203125 6.5078125 C-4.40112122 3.16445282 -6.31839534 2.32873654 -10.953125 2.1953125 C-17.08790446 2.24842747 -21.30185638 4.78522417 -25.203125 9.5078125 Z M-19.203125 28.5078125 C-16.46839829 31.24253921 -14.27648158 31.20348327 -10.51953125 31.53515625 C-5.82364507 31.4797242 -3.10498114 29.40966864 0.109375 26.1953125 C1.97348691 23.22654168 2.47455466 20.97275613 2.796875 17.5078125 C-5.32490484 17.5078125 -13.06040121 23.85502597 -19.203125 28.5078125 Z " fill="#001536" transform="translate(68.203125,158.4921875)"/>
<path d="M0 0 C4.03906942 3.26563059 5.90382064 5.91771387 7 11 C7.47526745 16.89331643 6.94432971 21.7815945 4 27 C1.9375 29.0625 1.9375 29.0625 -1 30 C-4.38116862 29.96991843 -7.65933196 29.49473236 -11 29 C-17.73918512 28.16032807 -24.22698723 27.97651348 -31.01953125 28.2578125 C-34.47754699 27.95869187 -36.2503035 27.08428952 -39 25 C-41.68223948 19.38006965 -41.7357071 14.24584271 -39.8125 8.375 C-36.80035195 2.7661726 -32.45138581 -1.54002713 -26.296875 -3.55859375 C-17.42544338 -5.26347772 -7.67248678 -5.10944347 0 0 Z M-11 3 C-11.54269531 3.95261719 -12.08539063 4.90523437 -12.64453125 5.88671875 C-13.36715839 7.15366244 -14.08981627 8.42058859 -14.8125 9.6875 C-15.16892578 10.31333984 -15.52535156 10.93917969 -15.89257812 11.58398438 C-17.8883458 15.08115525 -19.91268705 18.55626286 -22 22 C-19.08515091 22.44382476 -16.17159411 22.85567441 -13.25 23.25 C-12.0125 23.44335938 -12.0125 23.44335938 -10.75 23.640625 C-5.85499512 24.32941571 -5.85499512 24.32941571 -1.45703125 22.38671875 C1.15026791 18.11578098 0.82187231 13.82403314 0 9 C-2.49119909 5.33647192 -3.83689852 4.22576171 -8.1796875 3.3828125 C-9.11039063 3.25648438 -10.04109375 3.13015625 -11 3 Z " fill="#001434" transform="translate(242,192)"/>
<path d="M0 0 C4.60852725 5.18459316 5.50241571 10.12689391 5.296875 16.87890625 C4.75452404 21.21057776 3.04319621 24.20680379 0 27.25 C-2.4609375 27.48046875 -2.4609375 27.48046875 -5.375 27.4375 C-6.33148438 27.43105469 -7.28796875 27.42460937 -8.2734375 27.41796875 C-11 27.25 -11 27.25 -12.88354492 26.73901367 C-15.21295276 26.20079659 -17.20256418 26.18383011 -19.58984375 26.2578125 C-20.89018555 26.28294922 -20.89018555 26.28294922 -22.21679688 26.30859375 C-24.02690286 26.35277437 -25.83683426 26.40482651 -27.64648438 26.46484375 C-32.58508749 26.54550393 -36.04242705 26.58024729 -40 23.25 C-43.1160955 18.57585675 -42.47138081 13.72526936 -42 8.25 C-40.45184016 3.91515246 -38.42410926 1.2748315 -35 -1.75 C-23.76099989 -6.56158471 -10.61801839 -6.19384406 0 0 Z M-13 2.25 C-14.46926153 3.70145567 -14.46926153 3.70145567 -15.578125 5.71484375 C-16.23554688 6.79088867 -16.23554688 6.79088867 -16.90625 7.88867188 C-17.3496875 8.64728516 -17.793125 9.40589844 -18.25 10.1875 C-18.70890625 10.94224609 -19.1678125 11.69699219 -19.640625 12.47460938 C-21.91070909 15.6626779 -21.91070909 15.6626779 -23 19.25 C-19.90042392 19.84011932 -16.79525506 20.39224045 -13.6875 20.9375 C-12.80642578 21.10572266 -11.92535156 21.27394531 -11.01757812 21.44726562 C-10.17001953 21.59228516 -9.32246094 21.73730469 -8.44921875 21.88671875 C-7.66893311 22.02811279 -6.88864746 22.16950684 -6.0847168 22.31518555 C-3.91001325 22.44856283 -3.91001325 22.44856283 -2.24462891 20.91894531 C-0.54999401 18.64657886 -0.63259423 17.12114114 -0.6875 14.3125 C-0.69330078 13.03052734 -0.69330078 13.03052734 -0.69921875 11.72265625 C-1.01966357 9.0883501 -1.56246241 7.471649 -3 5.25 C-6.71091124 2.99118446 -8.60010849 2.25 -13 2.25 Z " fill="#001434" transform="translate(323,197.75)"/>
<path d="M0 0 C1.86987791 1.013353 1.86987791 1.013353 3.91796875 0.875 C5.55473132 -1.0850281 5.55473132 -1.0850281 6.91796875 -3.125 C9.39296875 -2.63 9.39296875 -2.63 11.91796875 -2.125 C12.41296875 -0.145 12.41296875 -0.145 12.91796875 1.875 C18.28147547 0.64837093 18.28147547 0.64837093 23.41796875 -1.25 C26.95769717 -2.48890495 30.25279234 -2.84085477 33.91796875 -2.125 C37.44067453 -0.15107004 39.61812744 1.97547608 40.91796875 5.875 C41.52650704 10.92586782 41.58438227 14.69766946 39.04296875 19.1875 C31.36563793 26.93082507 21.55801975 28.07047118 11.29296875 28.125 C9.87177734 28.1559375 9.87177734 28.1559375 8.421875 28.1875 C-2.43078032 28.24688525 -10.78447952 25.70165825 -18.89453125 18.3125 C-22.09555933 14.74564013 -22.4282163 11.67549742 -22.3671875 6.94140625 C-21.79880888 2.82260775 -19.51155833 -0.04053118 -16.26953125 -2.5 C-10.03627183 -4.28093126 -5.57394114 -2.76298631 0 0 Z M-13.08203125 2.875 C-13.42258322 6.12065858 -13.42258322 6.12065858 -10.58203125 8.5625 C-9.34453125 9.7071875 -9.34453125 9.7071875 -8.08203125 10.875 C-10.72203125 10.875 -13.36203125 10.875 -16.08203125 10.875 C-15.15036072 13.99452606 -14.56172734 15.54405984 -11.83984375 17.421875 C-10.97101563 17.81890625 -10.1021875 18.2159375 -9.20703125 18.625 C-8.34335938 19.03234375 -7.4796875 19.4396875 -6.58984375 19.859375 C2.76387066 23.64748364 15.85839942 23.41612884 25.29296875 20.125 C28.94102688 18.52507404 32.12076802 16.76865593 34.91796875 13.875 C34.91796875 13.215 34.91796875 12.555 34.91796875 11.875 C32.93796875 11.875 30.95796875 11.875 28.91796875 11.875 C28.91796875 11.215 28.91796875 10.555 28.91796875 9.875 C30.87944749 8.48561923 32.87963451 7.1489589 34.91796875 5.875 C33.75344865 4.20878575 33.75344865 4.20878575 31.91796875 2.875 C28.47638753 3.34165508 25.27359305 4.36060153 21.98046875 5.4375 C16.93495175 6.97668301 13.00669085 7.5712407 7.91796875 5.875 C6.74041016 6.15150391 6.74041016 6.15150391 5.5390625 6.43359375 C2.31876989 6.9759083 0.90675682 6.31049772 -2.01953125 4.9375 C-5.89907109 3.24998715 -8.78569888 2.42275449 -13.08203125 2.875 Z " fill="#001434" transform="translate(255.08203125,236.125)"/>
<path d="M0 0 C0.66 0 1.32 0 2 0 C2.66 15.84 3.32 31.68 4 48 C15.42834054 48.2892102 15.42834054 48.2892102 26.85693359 48.56811523 C28.28744492 48.60623379 29.71794697 48.64470255 31.1484375 48.68359375 C31.89391846 48.70006958 32.63939941 48.71654541 33.4074707 48.73352051 C38.7718564 48.8859282 38.7718564 48.8859282 41 50 C40.67 50.99 40.34 51.98 40 53 C27.79 53 15.58 53 3 53 C2.95101562 56.83109375 2.90203125 60.6621875 2.8515625 64.609375 C2.79742921 68.35273882 2.74017032 72.09604284 2.68261719 75.83935547 C2.64452295 78.42492143 2.60963736 81.01053686 2.578125 83.59619141 C2.53204722 87.32993152 2.4741257 91.06333672 2.4140625 94.796875 C2.39673569 96.50855865 2.39673569 96.50855865 2.37905884 98.25482178 C2.2452114 105.66629306 1.42379727 112.72578182 0 120 C-1.32 119.67 -2.64 119.34 -4 119 C-3.34 97.22 -2.68 75.44 -2 53 C-7.1975 53.020625 -12.395 53.04125 -17.75 53.0625 C-30.53036832 53.08756434 -43.24468858 52.87751528 -56 52 C-56.33 50.68 -56.66 49.36 -57 48 C-38.85 48 -20.7 48 -2 48 C-2.07913512 33.3254879 -2.07913512 33.3254879 -2.18017578 18.65112305 C-2.18601638 16.81299064 -2.19111296 14.97485564 -2.1953125 13.13671875 C-2.20554443 12.18043579 -2.21577637 11.22415283 -2.22631836 10.2388916 C-2.22656006 9.3256311 -2.22680176 8.41237061 -2.22705078 7.47143555 C-2.231492 6.67867722 -2.23593323 5.88591888 -2.24050903 5.06913757 C-2 3 -2 3 0 0 Z " fill="#001434" transform="translate(103,176)"/>
<path d="M0 0 C0.99 0 1.98 0 3 0 C3.92367624 12.70341196 4.12245752 25.32868977 4.0625 38.0625 C4.041875 44.311875 4.02125 50.56125 4 57 C17.53 57 31.06 57 45 57 C45.33 57.99 45.66 58.98 46 60 C37.17395275 62.38461892 28.42834797 62.23155728 19.375 62.125 C17.87891227 62.11494608 16.38281797 62.10582451 14.88671875 62.09765625 C11.25767374 62.07584308 7.62888015 62.04144741 4 62 C4.01571045 62.86278564 4.0314209 63.72557129 4.04760742 64.61450195 C4.09875955 67.81809267 4.1363616 71.02147515 4.16479492 74.2253418 C4.17987397 75.61147919 4.2003405 76.99756894 4.22631836 78.38354492 C4.26273716 80.37658146 4.27813018 82.36996723 4.29296875 84.36328125 C4.3086792 85.56251221 4.32438965 86.76174316 4.34057617 87.99731445 C4 91 4 91 2.48168945 92.91479492 C1.99273193 93.2729126 1.50377441 93.63103027 1 94 C-1.00970582 91.99029418 -0.417414 88.07449647 -0.5625 85.3125 C-0.6049585 84.55461182 -0.64741699 83.79672363 -0.69116211 83.01586914 C-1.05522031 76.00646689 -1.10010605 69.01854665 -1 62 C-2.38058594 62.10828125 -2.38058594 62.10828125 -3.7890625 62.21875 C-38.81926606 64.78715596 -38.81926606 64.78715596 -46 60 C-46 59.34 -46 58.68 -46 58 C-31.15 58 -16.3 58 -1 58 C-1.01160156 53.98070312 -1.02320313 49.96140625 -1.03515625 45.8203125 C-1.04158508 42.61990897 -1.04700864 39.41950726 -1.05175018 36.21910095 C-1.05703562 32.83827422 -1.0641013 29.45747247 -1.07543945 26.07666016 C-1.08752436 22.19953741 -1.09323263 18.3224506 -1.09765625 14.4453125 C-1.10281754 13.23070343 -1.10797882 12.01609436 -1.11329651 10.76467896 C-1.11337204 9.64366791 -1.11344757 8.52265686 -1.11352539 7.36767578 C-1.115746 6.37728302 -1.11796661 5.38689026 -1.12025452 4.3664856 C-1 2 -1 2 0 0 Z " fill="#001434" transform="translate(99,51)"/>
<path d="M0 0 C0.99 0.33 1.98 0.66 3 1 C3.85180171 8.21461018 4.17156029 15.3445145 4.24609375 22.60546875 C4.27904004 24.82877986 4.31225156 27.05208706 4.34570312 29.27539062 C4.39290872 32.72629068 4.43738205 36.17717577 4.47680664 39.62817383 C3.42924183 65.90686915 3.42924183 65.90686915 13.6875 88.875 C23.30552262 95.04505224 34.11741169 95.13100764 45.2109375 95.28125 C47.36328126 95.31901005 49.51562501 95.35677048 51.66796875 95.39453125 C55.0388815 95.4483513 58.40981601 95.50053409 61.78076172 95.55224609 C65.0492324 95.60384107 68.31756901 95.66109536 71.5859375 95.71875 C72.6004599 95.73232544 73.6149823 95.74590088 74.6602478 95.7598877 C76.06278305 95.78496399 76.06278305 95.78496399 77.49365234 95.81054688 C78.31779633 95.82307495 79.14194031 95.83560303 79.99105835 95.84851074 C82 96 82 96 84 97 C84 97.99 84 98.98 84 100 C81.71288429 101.14355785 80.42212344 101.13233968 77.88012695 101.14526367 C77.02775955 101.15164352 76.17539215 101.15802338 75.29719543 101.16459656 C74.37025375 101.16570938 73.44331207 101.1668222 72.48828125 101.16796875 C71.52786423 101.17129715 70.5674472 101.17462555 69.57792664 101.17805481 C67.53429646 101.18312908 65.49065796 101.18546298 63.44702148 101.18530273 C60.37013288 101.1874596 57.29362054 101.20552638 54.21679688 101.22460938 C18.7732368 101.32771726 18.7732368 101.32771726 8.125 91.9375 C0.1921718 83.23758228 -0.11458521 70.95387009 -0.31640625 59.80859375 C-0.33718735 58.82746109 -0.35796844 57.84632843 -0.37937927 56.83546448 C-0.4225062 54.75696852 -0.46356435 52.67842873 -0.50268555 50.59985352 C-0.56132939 47.49938968 -0.62675278 44.39912995 -0.69335938 41.29882812 C-0.90545904 31.04495908 -1.05025118 20.79121025 -1.08984375 10.53515625 C-1.09657608 9.58869736 -1.10330841 8.64223846 -1.11024475 7.667099 C-1.11116623 6.80379471 -1.11208771 5.94049042 -1.11303711 5.05102539 C-1.11548935 4.290121 -1.11794159 3.52921661 -1.12046814 2.74525452 C-1 1 -1 1 0 0 Z " fill="#001434" transform="translate(22,215)"/>
<path d="M0 0 C43.98908976 -1.11994854 43.98908976 -1.11994854 57.453125 10.4453125 C65.12648009 18.15742191 65.28425675 28.21249061 65.4140625 38.55078125 C65.44331566 40.04598549 65.44331566 40.04598549 65.47315979 41.57139587 C65.53356271 44.81834664 65.5800572 48.06530109 65.625 51.3125 C65.66163857 53.57454795 65.69850677 55.8365922 65.7355957 58.09863281 C65.8439143 65.06555917 65.92643094 72.03262825 66 79 C66.01202454 80.1117157 66.02404907 81.2234314 66.03643799 82.36883545 C66.10206537 88.68363455 66.15066083 94.99822802 66.17523193 101.31332397 C66.18335937 103.25883432 66.19442995 105.20433476 66.20855713 107.14981079 C66.22629798 109.8551737 66.23045274 112.56021113 66.23046875 115.265625 C66.23760391 116.05194809 66.24473907 116.83827118 66.25209045 117.64842224 C66.2323263 122.46604194 65.52643788 126.42484558 64 131 C63.34 131 62.68 131 62 131 C61.37754406 116.53469474 60.91602057 102.07835435 60.71875 87.6015625 C60.70920288 86.90888023 60.69965576 86.21619797 60.68981934 85.50252533 C60.61248036 79.81854251 60.54205976 74.13447846 60.47393799 68.45037842 C60.42242704 64.1581599 60.36757864 59.86601059 60.30812073 55.5738945 C60.28222413 53.61283039 60.26107541 51.65170533 60.2401123 49.69058228 C60.97167221 30.43732341 60.97167221 30.43732341 53.25 13.6875 C43.42696336 6.52434189 28.91628483 6.19226022 17.1875 5.3125 C15.02596103 5.1396251 12.86482032 4.96287269 10.70393372 4.7820282 C8.77872376 4.62246096 6.85263336 4.47362184 4.92651367 4.32543945 C2 4 2 4 0 3 C0 2.01 0 1.02 0 0 Z " fill="#001434" transform="translate(321,38)"/>
<path d="M0 0 C0.66 0.33 1.32 0.66 2 1 C2 17.83 2 34.66 2 52 C5.69574219 51.98839844 9.39148438 51.97679687 13.19921875 51.96484375 C16.78019118 51.9570441 20.36116267 51.95097249 23.94213867 51.94506836 C26.43009871 51.94004087 28.9180558 51.93321798 31.40600586 51.92456055 C34.98291757 51.91242574 38.5597902 51.90675581 42.13671875 51.90234375 C43.80416389 51.89460182 43.80416389 51.89460182 45.5052948 51.88670349 C47.06634697 51.88659019 47.06634697 51.88659019 48.65893555 51.88647461 C49.5716069 51.884254 50.48427826 51.88203339 51.42460632 51.87974548 C54.04132687 52.0019297 56.44899974 52.41953212 59 53 C59 53.99 59 54.98 59 56 C40.19 56 21.38 56 2 56 C2 58.31 2 60.62 2 63 C0.68 63 -0.64 63 -2 63 C-2.33 60.69 -2.66 58.38 -3 56 C-9.93 56 -16.86 56 -24 56 C-23.67 54.68 -23.34 53.36 -23 52 C-16.4 52 -9.8 52 -3 52 C-3.01160156 49.14472656 -3.02320313 46.28945312 -3.03515625 43.34765625 C-3.04297302 40.55753694 -3.04903485 37.76741888 -3.05493164 34.97729492 C-3.05993539 33.05020596 -3.06674045 31.12312075 -3.07543945 29.19604492 C-3.08767948 26.41323924 -3.09326804 23.63048411 -3.09765625 20.84765625 C-3.10281754 19.99728287 -3.10797882 19.14690948 -3.11329651 18.27076721 C-3.11434061 6.93318599 -3.11434061 6.93318599 -2 2 C-1.34 1.34 -0.68 0.68 0 0 Z " fill="#001434" transform="translate(301,54)"/>
<path d="M0 0 C2.1723491 3.25852365 4.07119658 6.59244728 6 10 C-10.61145638 16.81382484 -27.25628455 23.51675953 -44 30 C-45.87501642 26.43904445 -46.95330847 22.8877114 -48 19 C-32.07843337 12.44800445 -16.12678574 6.03242039 0 0 Z " fill="#3D9BFA" transform="translate(120,144)"/>
<path d="M0 0 C3.05185557 1.53992712 5.13154318 3.11607752 7 6 C8.19482288 11.04935422 7.54806154 14.86327976 5.3125 19.5 C2.79625367 22.2202663 1.61343424 23.26088845 -2 24 C-6.58447232 24.14908853 -9.24852095 23.60445054 -12.875 20.6875 C-15.79428569 16.99546222 -17.40625878 14.40408548 -17.0625 9.625 C-16.54086614 6.00354195 -15.60302878 3.95991025 -13 1.375 C-8.67322513 -1.79915042 -4.96047603 -1.76973046 0 0 Z M-11 6 C-11 6.66 -11 7.32 -11 8 C-9.68 7.67 -8.36 7.34 -7 7 C-6.67 5.68 -6.34 4.36 -6 3 C-8.04552042 3 -9.51557906 4.7550018 -11 6 Z M-4 17 C-4.66 17.66 -5.32 18.32 -6 19 C-3.05908413 18.81584568 -3.05908413 18.81584568 0 18 C1.43637698 16.04836882 1.43637698 16.04836882 2 14 C-0.17447147 14 -2.23401957 15.88010997 -4 17 Z " fill="#011739" transform="translate(138,133)"/>
<path d="M0 0 C3.55392566 1.93782473 5.76262656 4.64393985 8 8 C8.87433201 14.55749009 8.87433201 14.55749009 6.76171875 18.04296875 C3.34155348 22.15904854 1.20443677 23.79203427 -4.3125 24.3125 C-8.7020258 23.94050629 -10.64776343 22.80652364 -14 20 C-16.3166982 17.05147501 -16.47090693 13.80925436 -16.39453125 10.1015625 C-15.70159989 6.41050239 -13.55958546 3.67593026 -11 1 C-7.51352084 -0.74323958 -3.80362233 -0.58173047 0 0 Z M-7 4 C-7.33 4.66 -7.66 5.32 -8 6 C-6.68 5.67 -5.36 5.34 -4 5 C-4.99 4.67 -5.98 4.34 -7 4 Z M2 12 C1.278125 12.639375 0.55625 13.27875 -0.1875 13.9375 C-2.98191184 15.98673535 -4.61663274 16.61332946 -8 17 C-7.67 17.66 -7.34 18.32 -7 19 C-4.167832 19.33448259 -4.167832 19.33448259 -1 19 C1.37719693 17.12498069 1.37719693 17.12498069 3 15 C2.67 14.01 2.34 13.02 2 12 Z " fill="#011637" transform="translate(233,80)"/>
<path d="M0 0 C3 4.38461538 3 4.38461538 3 7 C3.66 7 4.32 7 5 7 C3.67223258 10.08951808 2.45286006 11.69632644 -0.34375 13.55078125 C-1.00850342 13.99905273 -1.67325684 14.44732422 -2.3581543 14.90917969 C-3.06496338 15.37227539 -3.77177246 15.83537109 -4.5 16.3125 C-5.95497784 17.28172581 -7.40940559 18.25177791 -8.86328125 19.22265625 C-9.57178223 19.6933252 -10.2802832 20.16399414 -11.01025391 20.64892578 C-14.39938761 22.95020994 -17.64843587 25.44532511 -20.88671875 27.953125 C-23.65094026 29.32246209 -25.11369922 28.92440298 -28 28 C-29 27 -29 27 -29.2890625 24.171875 C-29 21 -29 21 -27.5234375 19.015625 C-26.45996094 18.14164063 -26.45996094 18.14164063 -25.375 17.25 C-24.56417969 16.58097656 -23.75335937 15.91195312 -22.91796875 15.22265625 C-18.39614432 11.77832144 -13.79648338 8.45411475 -9.13671875 5.19921875 C-7.29731962 3.90957776 -5.47669873 2.59080871 -3.70703125 1.20703125 C-2 0 -2 0 0 0 Z " fill="#3C9BFA" transform="translate(39,182)"/>
<path d="M0 0 C7.03699814 1.30596542 13.79127428 3.00907604 20.625 5.125 C21.53378906 5.40214844 22.44257813 5.67929688 23.37890625 5.96484375 C25.58727959 6.63897877 27.79423163 7.31739977 30 8 C30 11.92896395 28.99700137 15.19893228 28 19 C21.11357167 17.60152532 14.58173303 15.64985223 7.9375 13.375 C6.97650391 13.05015625 6.01550781 12.7253125 5.02539062 12.390625 C2.68218599 11.59789905 0.34088946 10.79953667 -2 10 C-1.34 6.7 -0.68 3.4 0 0 Z " fill="#3D9BFA" transform="translate(189,75)"/>
<path d="M0 0 C1.7109375 1.24609375 1.7109375 1.24609375 2.7109375 3.24609375 C2.75116141 5.57908035 2.75413997 7.91316041 2.7109375 10.24609375 C1.58558594 10.66568359 1.58558594 10.66568359 0.4375 11.09375 C-6.90323101 13.96902374 -13.03971206 17.44847295 -19.2890625 22.24609375 C-23.02598639 20.55594975 -24.63742151 19.09992272 -26.2890625 15.24609375 C-24.12458764 8.81708805 -16.77323723 5.51862443 -11.1015625 2.61328125 C-3.04172002 -1.00179516 -3.04172002 -1.00179516 0 0 Z " fill="#3C9AF8" transform="translate(68.2890625,165.75390625)"/>
<path d="M0 0 C0.66 0.33 1.32 0.66 2 1 C2 7.27 2 13.54 2 20 C7.74384586 19.92114927 7.74384586 19.92114927 13.48730469 19.81982422 C14.20821289 19.8148291 14.92912109 19.80983398 15.671875 19.8046875 C16.4050293 19.79421387 17.13818359 19.78374023 17.89355469 19.77294922 C20.29896076 20.03222456 21.91251494 20.80774075 24 22 C23.67 22.66 23.34 23.32 23 24 C13.1 24.495 13.1 24.495 3 25 C2.67 29.29 2.34 33.58 2 38 C0.68 38 -0.64 38 -2 38 C-2 33.71 -2 29.42 -2 25 C-8.6 24.67 -15.2 24.34 -22 24 C-22.33 23.01 -22.66 22.02 -23 21 C-20.65147472 19.82573736 -19.26225935 19.88491827 -16.6484375 19.90234375 C-15.37226563 19.90717773 -15.37226563 19.90717773 -14.0703125 19.91210938 C-13.18085938 19.92048828 -12.29140625 19.92886719 -11.375 19.9375 C-10.4778125 19.94201172 -9.580625 19.94652344 -8.65625 19.95117188 C-6.43743352 19.96297409 -4.21874982 19.97943845 -2 20 C-2.02320313 18.80761719 -2.04640625 17.61523438 -2.0703125 16.38671875 C-2.08907178 14.82031876 -2.10727181 13.253912 -2.125 11.6875 C-2.14175781 10.90181641 -2.15851563 10.11613281 -2.17578125 9.30664062 C-2.18222656 8.54931641 -2.18867188 7.79199219 -2.1953125 7.01171875 C-2.20578613 6.31522217 -2.21625977 5.61872559 -2.22705078 4.90112305 C-2 3 -2 3 0 0 Z " fill="#001434" transform="translate(197,89)"/>
<path d="M0 0 C1.06347656 0.26425781 2.12695312 0.52851562 3.22265625 0.80078125 C5.9375 1.6875 5.9375 1.6875 7.9375 3.6875 C8.28240322 7.74011287 8.23913882 9.23504176 5.9375 12.6875 C3.7734375 12.98046875 3.7734375 12.98046875 1.3125 12.875 C0.49523437 12.84792969 -0.32203125 12.82085937 -1.1640625 12.79296875 C-1.79054687 12.75816406 -2.41703125 12.72335938 -3.0625 12.6875 C-4.0525 14.6675 -5.0425 16.6475 -6.0625 18.6875 C-10.46364397 18.18451212 -12.77445019 16.59977269 -16.0625 13.6875 C-14.8558861 10.28704266 -13.31050441 7.12066646 -11.625 3.9375 C-11.00818359 2.76960938 -11.00818359 2.76960938 -10.37890625 1.578125 C-7.55960507 -2.47096037 -4.17131235 -1.06943731 0 0 Z " fill="#3C99F7" transform="translate(177.0625,70.3125)"/>
<path d="M0 0 C1.69867523 0.9751016 3.34835906 2.03449916 4.98828125 3.10546875 C4.65828125 4.75546875 4.32828125 6.40546875 3.98828125 8.10546875 C2.19390625 7.57953125 2.19390625 7.57953125 0.36328125 7.04296875 C-3.4196454 6.11899728 -6.24569367 5.79173907 -10.01171875 7.10546875 C-12.37778475 10.14755361 -13.67499138 13.50658736 -15.01171875 17.10546875 C-16.00171875 17.10546875 -16.99171875 17.10546875 -18.01171875 17.10546875 C-19.10347967 11.34891118 -19.43321234 8.17871786 -16.01171875 3.10546875 C-11.53352548 -0.9528939 -5.74638445 -2.55518842 0 0 Z " fill="#001434" transform="translate(272.01171875,201.89453125)"/>
<path d="M0 0 C2.25 -0.3125 2.25 -0.3125 5 0 C7.375 2.125 7.375 2.125 9 5 C8.93651634 8.17418323 8.59978995 10.11609902 6.8125 12.75 C4.27488123 14.50008191 2.00562783 15.32526722 -1 16 C-3.3125 15.25 -3.3125 15.25 -5 14 C-6.35439668 11.29120665 -6.06501451 8.99066732 -6 6 C-5.38125 5.7525 -4.7625 5.505 -4.125 5.25 C-1.64931313 3.79371361 -1.04874998 2.62187494 0 0 Z " fill="#3C9AF9" transform="translate(132,136)"/>
<path d="M0 0 C1.5159375 0.2475 1.5159375 0.2475 3.0625 0.5 C9.66441708 1.34762407 16.3568696 1.07784918 23 1 C23.33 2.65 23.66 4.3 24 6 C19.48735355 9.00843097 14.86995427 9.36551304 9.515625 8.68359375 C5.73016029 7.89804797 3.26374914 7.17583276 0 5 C-0.1875 2.375 -0.1875 2.375 0 0 Z " fill="#001434" transform="translate(251,269)"/>
<path d="M0 0 C-0.33 1.65 -0.66 3.3 -1 5 C-8.26 4.67 -15.52 4.34 -23 4 C-23.33 2.68 -23.66 1.36 -24 0 C-16.57940422 -4.94706385 -7.61433474 -3.88817093 0 0 Z " fill="#001434" transform="translate(244,182)"/>
<path d="M0 0 C3.79450934 0.39253545 5.51015791 2.24338912 8 5 C6.49939297 8.81972698 4.51662697 10.89002382 1 13 C-5.21052632 12.78947368 -5.21052632 12.78947368 -8 10 C-8.34490322 5.94738713 -8.30163882 4.45245824 -6 1 C-3.4375 0.875 -3.4375 0.875 -1 1 C-0.67 0.67 -0.34 0.34 0 0 Z " fill="#3B98F5" transform="translate(229,84)"/>
<path d="M0 0 C3.4009377 1.70046885 5.3168405 2.99011205 7.4375 6.125 C8 8 8 8 7 10 C2.37837838 9.22972973 2.37837838 9.22972973 0.25 7.9375 C-2.90074537 6.62468943 -5.37725601 7.0377256 -8.75 7.375 C-10.50570313 7.54128906 -10.50570313 7.54128906 -12.296875 7.7109375 C-13.18890625 7.80632812 -14.0809375 7.90171875 -15 8 C-15.33 7.01 -15.66 6.02 -16 5 C-10.8986578 -0.27138694 -7.24812036 -0.81152268 0 0 Z " fill="#001434" transform="translate(268,222)"/>
<path d="M0 0 C2 2 2 2 2.22705078 4.43017578 C2.21657715 5.4251709 2.20610352 6.42016602 2.1953125 7.4453125 C2.18564453 9.05986328 2.18564453 9.05986328 2.17578125 10.70703125 C2.15902344 11.83496094 2.14226562 12.96289062 2.125 14.125 C2.11597656 15.26066406 2.10695312 16.39632812 2.09765625 17.56640625 C2.07403098 20.37781299 2.04109013 23.18880298 2 26 C1.01 26.33 0.02 26.66 -1 27 C-2.93627848 23.12744304 -2.18480603 18.3216696 -2.1875 14.0625 C-2.19974609 13.04736328 -2.21199219 12.03222656 -2.22460938 10.98632812 C-2.22654297 10.01244141 -2.22847656 9.03855469 -2.23046875 8.03515625 C-2.23457764 7.1419165 -2.23868652 6.24867676 -2.24291992 5.32836914 C-2 3 -2 3 0 0 Z " fill="#001434" transform="translate(196,47)"/>
</svg>
