<?xml version="1.0" encoding="UTF-8"?>
<svg version="1.1" xmlns="http://www.w3.org/2000/svg" width="274" height="198">
<path d="M0 0 C2.65401403 2.26869051 5.21726295 4.59625033 7.73828125 7.01171875 C9.78077046 8.80727489 11.51714773 9.93754376 14 11 C14.53367188 10.41992188 15.06734375 9.83984375 15.6171875 9.2421875 C24.8437521 -0.4313387 35.73845145 -7.38383311 49.3828125 -8.203125 C65.84099557 -8.40928178 77.2563077 -3.96882091 89.31567383 7.35888672 C91.96145995 9.96208037 94.44658342 12.65236982 96.92578125 15.4140625 C103.45227756 22.60871622 110.34474079 29.42162861 117.25 36.25 C131.82410629 50.66369946 131.82410629 50.66369946 138 58 C139.05858826 59.19098841 140.120584 60.37896599 141.1875 61.5625 C146.75431375 67.738936 148.61994256 72.94022352 148.6015625 81.08203125 C148.61013275 81.93625168 148.618703 82.79047211 148.62753296 83.670578 C148.63896612 85.46988397 148.64005951 87.26928232 148.63134766 89.06860352 C148.62503951 91.79542012 148.67194623 94.51786166 148.72265625 97.24414062 C148.72720481 99.00259877 148.72860803 100.76106842 148.7265625 102.51953125 C148.74498199 103.32091019 148.76340149 104.12228912 148.78237915 104.94795227 C148.61569812 115.35055986 141.85282858 122.7365716 134.89453125 129.8359375 C134.20817093 130.5501889 133.52181061 131.26444031 132.81465149 132.00033569 C130.55407691 134.34448717 128.27842942 136.67320672 126 139 C125.20543396 139.81617798 124.41086792 140.63235596 123.59222412 141.4732666 C118.52668862 146.67431004 113.42932429 151.84231791 108.30737305 156.98779297 C106.54738745 158.75942324 104.79191011 160.53554255 103.04077148 162.31591797 C100.45758919 164.94191808 97.86126467 167.55427171 95.26171875 170.1640625 C94.49373459 170.94955475 93.72575043 171.735047 92.93449402 172.54434204 C84.77608691 180.67085528 75.43104148 188.25945785 63.59375 188.40625 C62.87320435 188.41765015 62.15265869 188.42905029 61.41027832 188.4407959 C59.88392973 188.45966005 58.35750033 188.47274968 56.83105469 188.48046875 C54.53428366 188.49971275 52.2412305 188.56169162 49.9453125 188.625 C37.73036187 188.8023261 28.3141909 185.84024628 19.25 177.25 C18.43015625 176.49203125 17.6103125 175.7340625 16.765625 174.953125 C15 173 15 173 15 171 C9.86356865 172.67938973 7.44150801 175.52262446 3.96484375 179.515625 C-5.30284799 187.28143784 -14.1548769 188.98212913 -25.82739258 188.78222656 C-28.06513034 188.74996207 -30.29567987 188.78210192 -32.53320312 188.8203125 C-52.07928703 188.8885239 -62.58122696 176.53789083 -75.73274803 163.49524307 C-76.22699587 163.00439098 -76.72124371 162.51353889 -77.23046875 162.0078125 C-77.74212397 161.50023281 -78.25377918 160.99265312 -78.7809391 160.46969223 C-81.48275316 157.78852246 -84.18143306 155.10424246 -86.87768555 152.41748047 C-89.63254413 149.67371664 -92.39890405 146.94185524 -95.16793346 144.21240425 C-97.32561387 142.08106466 -99.47417389 139.94069872 -101.62050819 137.7979393 C-102.6356312 136.78762719 -103.65407364 135.78063709 -104.67613792 134.77734756 C-117.30231311 122.36907338 -125.29806379 110.00403208 -125.5 92 C-125.2392233 66.69291311 -107.13569993 51.97091777 -90.375 35.375 C-87.62980446 32.65665547 -84.88812568 29.93483134 -82.1484375 27.2109375 C-81.53471283 26.60551117 -80.92098816 26.00008484 -80.28866577 25.37631226 C-76.52449509 21.63317798 -72.9672521 17.76201787 -69.50119019 13.74101257 C-52.17166033 -6.35699343 -23.73596657 -17.0017694 0 0 Z M-34.4765625 53.67578125 C-35.16266602 54.31596191 -35.84876953 54.95614258 -36.55566406 55.61572266 C-37.36229492 56.40253418 -38.16892578 57.1893457 -39 58 C-39.48384155 58.46839294 -39.96768311 58.93678589 -40.46618652 59.41937256 C-43.87406158 62.72283355 -47.24623757 66.06046784 -50.60205078 69.41674805 C-52.38686598 71.19935127 -54.17957116 72.97376695 -55.97265625 74.74804688 C-57.11507134 75.88753178 -58.25701572 77.02748885 -59.3984375 78.16796875 C-59.93173676 78.69408249 -60.46503601 79.22019623 -61.01449585 79.76225281 C-64.79462538 83.56589798 -67.23842449 86.71613493 -67.6875 92.125 C-67.50247603 96.49100641 -66.19627803 98.37734291 -63.2265625 101.5234375 C-62.40986084 102.39339355 -61.59315918 103.26334961 -60.75170898 104.15966797 C-59.38961304 105.56563232 -59.38961304 105.56563232 -58 107 C-57.52370148 107.49292542 -57.04740295 107.98585083 -56.55667114 108.49371338 C-53.49372472 111.65585918 -50.40002299 114.78575891 -47.28686523 117.8984375 C-45.66686184 119.52066651 -44.05508314 121.1507994 -42.44335938 122.78125 C-41.40413393 123.82340362 -40.36443793 124.86508827 -39.32421875 125.90625 C-38.39697998 126.83759766 -37.46974121 127.76894531 -36.5144043 128.72851562 C-32.76097592 132.11932033 -31.10392134 133 -26 133 C-27.41701534 129.71772977 -29.11942949 127.77106229 -31.75 125.375 C-41.31664117 115.9993444 -45.2427967 105.30627725 -45.4375 92.125 C-45.34478968 79.77928765 -41.57412688 69.81528321 -34 60 C-32.08932956 58.15461443 -30.11306879 56.62165744 -28 55 C-26.62745412 52.85019503 -26.62745412 52.85019503 -26 51 C-29.89576472 50.71458836 -31.62641692 50.99302776 -34.4765625 53.67578125 Z M52 51 C52.36351562 51.42410156 52.72703125 51.84820312 53.1015625 52.28515625 C54.16608837 53.5271031 55.22700058 54.77215244 56.28515625 56.01953125 C57.34962123 57.24887919 58.43717731 58.45909096 59.55859375 59.63671875 C68.83411209 69.58682024 71.62910744 82.40733827 71.30859375 95.63671875 C70.51853327 110.64786794 62.64267461 121.10369478 52 131 C52.33 131.66 52.66 132.32 53 133 C56.68485333 132.47184558 58.77138879 131.75159403 61.5078125 129.23046875 C62.19391602 128.59931152 62.88001953 127.9681543 63.58691406 127.31787109 C68.16002407 122.92520554 72.69129666 118.49465661 77.17480469 114.01049805 C78.88719442 112.30032134 80.60747044 110.59834064 82.328125 108.89648438 C83.42496709 107.80257234 84.5213386 106.70818822 85.6171875 105.61328125 C86.12861298 105.10904129 86.64003845 104.60480133 87.16696167 104.08528137 C91.04441512 100.18268919 92.77370244 97.69723168 93.5 92.25 C93.30129615 84.52911859 85.65295127 78.32444389 80.53515625 73.12890625 C79.93875839 72.52110825 79.34236053 71.91331024 78.72789001 71.28709412 C77.47769166 70.01817247 76.22469481 68.7520023 74.96899414 67.48852539 C73.05640896 65.55634656 71.16619707 63.6038568 69.27539062 61.65039062 C68.05080062 60.41275358 66.82493258 59.1763795 65.59765625 57.94140625 C64.76138451 57.0680941 64.76138451 57.0680941 63.90821838 56.17713928 C60.03313036 52.3450689 57.46597878 51.22776712 52 51 Z " fill="#255696" transform="translate(126,10)"/>
<path d="M0 0 C0.89525391 -0.01611328 1.79050781 -0.03222656 2.71289062 -0.04882812 C15.62374672 -0.05815004 24.98544442 4.43704149 34.11352539 13.41796875 C36.37336629 15.69037489 38.59228076 18.00145361 40.8125 20.3125 C42.14087891 21.62927734 42.14087891 21.62927734 43.49609375 22.97265625 C45.8125 25.3125 45.8125 25.3125 48.125 28.1875 C50.79718985 31.49347846 53.96081614 34.10705151 57.23828125 36.796875 C57.75777344 37.29703125 58.27726563 37.7971875 58.8125 38.3125 C58.8125 38.9725 58.8125 39.6325 58.8125 40.3125 C59.39 40.56 59.9675 40.8075 60.5625 41.0625 C63.92353214 42.92974008 66.19637684 45.65786915 68.8125 48.4375 C70.68940283 50.39670814 70.68940283 50.39670814 73 51.3125 C73.598125 51.6425 74.19625 51.9725 74.8125 52.3125 C75.17366414 53.63856536 75.50529947 54.97290427 75.8125 56.3125 C77.41600129 58.02360348 77.41600129 58.02360348 79.4375 59.5625 C89.10410758 67.68730099 95.55331292 76.53931211 97.05151367 89.35742188 C97.87751781 102.07269441 95.43745354 111.85430174 87.8125 122.3125 C85.48352681 124.86273261 83.03660852 127.27876426 80.5625 129.6875 C79.9128125 130.32816406 79.263125 130.96882812 78.59375 131.62890625 C77.00449115 133.19479364 75.41073583 134.75578509 73.8125 136.3125 C66.57362915 132.82127346 59.98430951 126.43786188 54.8125 120.3125 C54.8125 119.6525 54.8125 118.9925 54.8125 118.3125 C54.214375 118.044375 53.61625 117.77625 53 117.5 C50.00924642 115.87644805 48.30348354 114.32515356 46.8125 111.25 C45.83924942 108.98007845 45.83924942 108.98007845 42.8125 107.3125 C43.0290625 106.755625 43.245625 106.19875 43.46875 105.625 C45.62075577 99.72691011 47.39349015 94.27209696 44.9453125 88.140625 C44.25890584 86.76781167 43.54110544 85.40999993 42.78515625 84.07421875 C41.8125 82.3125 41.8125 82.3125 40.8125 79.3125 C38.93455125 78.24574142 38.93455125 78.24574142 36.8125 77.3125 C32.1210152 73.87863933 28.38584217 69.74362715 24.640625 65.33203125 C22.15815828 62.58964814 19.41845256 60.23364773 16.59765625 57.84765625 C14.8125 56.3125 14.8125 56.3125 12.5625 54 C9.36690893 50.91853719 7.4332769 50.36256265 2.9375 50 C-3.8861824 50.20255829 -7.58465933 53.58180265 -12.1875 58.3125 C-12.8475 58.3125 -13.5075 58.3125 -14.1875 58.3125 C-14.51512329 59.1312561 -14.51512329 59.1312561 -14.84936523 59.96655273 C-16.62717327 63.08331198 -19.04184029 65.37476725 -21.59765625 67.84765625 C-22.12515976 68.36758652 -22.65266327 68.88751678 -23.19615173 69.42320251 C-24.87602709 71.07871226 -26.562176 72.72759716 -28.25 74.375 C-30.47578304 76.54764512 -32.69491152 78.72677305 -34.91015625 80.91015625 C-35.42369156 81.40709488 -35.93722687 81.90403351 -36.46632385 82.41603088 C-40.481731 86.37546882 -41.34538383 89.07500087 -41.4375 94.625 C-41.47617188 96.01138672 -41.47617188 96.01138672 -41.515625 97.42578125 C-40.82324098 103.5171121 -37.61516389 107.24888919 -33.3125 111.375 C-32.46945313 112.19097656 -31.62640625 113.00695312 -30.7578125 113.84765625 C-29.90960938 114.66105469 -29.06140625 115.47445312 -28.1875 116.3125 C-25.93227996 118.55271026 -23.68995662 120.8051631 -21.453125 123.0637207 C-19.51219048 125.02341426 -17.56863594 126.98048603 -15.625 128.9375 C-14.96564453 129.60523438 -14.30628906 130.27296875 -13.62695312 130.9609375 C-12.66499023 131.92773438 -12.66499023 131.92773438 -11.68359375 132.9140625 C-11.10794678 133.49494629 -10.5322998 134.07583008 -9.93920898 134.67431641 C-6.3547934 138.02643189 -4.19790065 139.72429148 0.8125 139.625 C1.658125 139.62113281 2.50375 139.61726562 3.375 139.61328125 C5.9459747 139.29602956 7.54560139 138.51485922 9.8125 137.3125 C12.625 137.1875 12.625 137.1875 15.8125 138.3125 C17.75297786 140.23580549 19.4458499 142.27505686 21.1640625 144.3984375 C23.12693434 146.67760149 25.22523197 147.79800164 27.8125 149.3125 C29.91691998 151.34635757 31.93934688 153.43946186 33.9453125 155.5703125 C35.79407125 157.53746174 35.79407125 157.53746174 38.8125 158.3125 C39.76171875 160.37890625 39.76171875 160.37890625 40.5 162.875 C40.87705078 164.11443359 40.87705078 164.11443359 41.26171875 165.37890625 C41.53435547 166.33603516 41.53435547 166.33603516 41.8125 167.3125 C30.92220877 178.81729042 21.25536637 188.29680652 4.51367188 188.87890625 C3.64291016 188.89824219 2.77214844 188.91757813 1.875 188.9375 C1.03904297 188.99550781 0.20308594 189.05351562 -0.65820312 189.11328125 C-12.4866788 189.34261784 -23.71824067 182.34880206 -32.04931641 174.40649414 C-34.33229684 172.17128581 -36.56302225 169.88937709 -38.7890625 167.59765625 C-40.00580581 166.37357539 -41.22413365 165.15106778 -42.44393921 163.93003845 C-44.97206321 161.39125503 -47.48661376 158.84005784 -49.99072266 156.27758789 C-53.18127604 153.01313273 -56.39560277 149.77343438 -59.61922646 146.54166508 C-62.12569771 144.02656651 -64.62379758 141.50329429 -67.11906052 138.97707939 C-68.3016134 137.78008478 -69.48562317 136.58452746 -70.67119217 135.3905201 C-83.94688117 121.98569361 -91.52604432 110.9118324 -91.56811523 91.68359375 C-91.17187293 70.78430108 -73.38228622 57.25032128 -59.5625 43.625 C-57.19641026 41.28673238 -54.83190035 38.94691966 -52.47036743 36.60404968 C-51.01176876 35.15749813 -49.55050884 33.71362277 -48.08602905 32.27302551 C-43.56436531 27.79536188 -39.33339334 23.13806068 -35.1875 18.3125 C-25.17543614 7.24744321 -15.12301541 -0.05328758 0 0 Z " fill="#F75264" transform="translate(93.1875,3.6875)"/>
<path d="M0 0 C1.00353516 -0.01611328 2.00707031 -0.03222656 3.04101562 -0.04882812 C19.62256383 -0.05961638 29.1160206 8.69613734 40.5 19.875 C42.63874285 22.05250366 44.65052669 24.2850768 46.61328125 26.62109375 C52.48236347 33.35880943 58.96495967 39.53116198 65.3125 45.8125 C85.812898 66.09908704 85.812898 66.09908704 90.125 73.375 C90.59550781 74.14972656 91.06601562 74.92445312 91.55078125 75.72265625 C94.59260519 81.96640012 95.17256029 87.81029027 95.125 94.625 C95.11936035 95.46659668 95.1137207 96.30819336 95.10791016 97.17529297 C94.86918188 109.39298046 90.96651308 118.34045759 82.25 127 C81.66347656 127.55816406 81.07695312 128.11632812 80.47265625 128.69140625 C78.9229836 130.20461601 77.55133192 131.75729328 76.1875 133.4375 C74.32540681 135.69161281 72.42068676 137.73450323 70.34771729 139.78594971 C68.55835045 141.56521476 66.79034451 143.36443436 65.02294922 145.16552734 C61.10233996 149.15794694 57.16904885 153.13762588 53.23144531 157.11328125 C51.54257573 158.82224871 49.85731585 160.53479136 48.17578125 162.25097656 C45.72838958 164.74735448 43.26789126 167.23017179 40.8046875 169.7109375 C40.06781708 170.46845306 39.33094666 171.22596863 38.57174683 172.00643921 C28.57412145 182.00823774 17.02814238 189.35197904 2.625 189.5625 C-9.39064344 189.41399205 -20.19060741 185.05492756 -28.94921875 176.66796875 C-35.1875 169.82250785 -35.1875 169.82250785 -35.1875 168.3125 C-34.2696875 168.21453125 -33.351875 168.1165625 -32.40625 168.015625 C-22.89678412 166.85690857 -15.91651773 165.55913448 -9.1875 158.3125 C-8.5275 158.3125 -7.8675 158.3125 -7.1875 158.3125 C-6.94 157.735 -6.6925 157.1575 -6.4375 156.5625 C-5.00450012 153.98310021 -3.40325324 152.25128408 -1.1875 150.3125 C-0.5275 150.3125 0.1325 150.3125 0.8125 150.3125 C1.06 149.735 1.3075 149.1575 1.5625 148.5625 C2.99549988 145.98310021 4.59674676 144.25128408 6.8125 142.3125 C7.4725 142.3125 8.1325 142.3125 8.8125 142.3125 C9.080625 141.69375 9.34875 141.075 9.625 140.4375 C10.8125 138.3125 10.8125 138.3125 13.8125 136.3125 C14.25271484 135.56548828 14.69292969 134.81847656 15.14648438 134.04882812 C17.16481582 130.73384295 19.70193059 128.21009151 22.46875 125.53125 C23.01229126 124.99528198 23.55583252 124.45931396 24.11584473 123.90710449 C26.42634356 121.62911286 28.74859701 119.3632416 31.06982422 117.09619141 C32.76943039 115.43285877 34.46292942 113.76347729 36.15625 112.09375 C36.67819946 111.58839722 37.20014893 111.08304443 37.73791504 110.56237793 C42.07065844 106.2879784 45.04724031 102.51567244 45.6875 96.375 C45.78804688 95.56160156 45.88859375 94.74820313 45.9921875 93.91015625 C45.17609235 82.1122589 30.47758878 71.84408757 22.5 63.9375 C21.5147352 62.95727118 20.52970819 61.97680328 19.54492188 60.99609375 C17.74583541 59.20506576 15.9451606 57.41569454 14.14331055 55.62744141 C13.37414307 54.86351074 12.60497559 54.09958008 11.8125 53.3125 C11.10198486 52.61431152 10.39146973 51.91612305 9.65942383 51.19677734 C7.8125 49.3125 7.8125 49.3125 5.375 46.3125 C3.00713557 43.54036603 0.679521 41.53444128 -2.1875 39.3125 C-4.52311014 37.09981671 -6.73204816 34.89908451 -8.70703125 32.35546875 C-13.9121096 25.78512394 -19.18217427 23.00390863 -27.49609375 21.85546875 C-30.39576278 21.59931424 -33.27866111 21.4124601 -36.1875 21.3125 C-31.17084204 12.46047662 -24.05678088 7.04881666 -15.1875 2.3125 C-14.58542725 1.96340576 -13.98335449 1.61431152 -13.36303711 1.25463867 C-9.16239679 -0.56449173 -4.50961702 -0.01420799 0 0 Z " fill="#64B2EB" transform="translate(174.1875,3.6875)"/>
<path d="M0 0 C1.38671875 1.6640625 1.38671875 1.6640625 2.6875 3.625 C5.69897124 7.86738108 9.24887307 11.02794436 13.2421875 14.3359375 C13.82226562 14.88507812 14.40234375 15.43421875 15 16 C15 16.66 15 17.32 15 18 C15.5775 18.2475 16.155 18.495 16.75 18.75 C20.11103214 20.61724008 22.38387684 23.34536915 25 26.125 C26.87690283 28.08420814 26.87690283 28.08420814 29.1875 29 C29.785625 29.33 30.38375 29.66 31 30 C31.36116414 31.32606536 31.69279947 32.66040427 32 34 C33.60350129 35.71110348 33.60350129 35.71110348 35.625 37.25 C45.29160758 45.37480099 51.74081292 54.22681211 53.23901367 67.04492188 C54.06501781 79.76019441 51.62495354 89.54180174 44 100 C41.67102681 102.55023261 39.22410852 104.96626426 36.75 107.375 C36.1003125 108.01566406 35.450625 108.65632813 34.78125 109.31640625 C33.19199115 110.88229364 31.59823583 112.44328509 30 114 C22.76112915 110.50877346 16.17180951 104.12536188 11 98 C11 97.34 11 96.68 11 96 C10.401875 95.731875 9.80375 95.46375 9.1875 95.1875 C6.19674642 93.56394805 4.49098354 92.01265356 3 88.9375 C2.02674942 86.66757845 2.02674942 86.66757845 -1 85 C-0.67515625 84.1646875 -0.67515625 84.1646875 -0.34375 83.3125 C1.80825577 77.41441011 3.58099015 71.95959696 1.1328125 65.828125 C0.44640584 64.45531167 -0.27139456 63.09749993 -1.02734375 61.76171875 C-2 60 -2 60 -3 57 C-4.87794875 55.93324142 -4.87794875 55.93324142 -7 55 C-11.6914848 51.56613933 -15.42665783 47.43112715 -19.171875 43.01953125 C-21.65434172 40.27714814 -24.39404744 37.92114773 -27.21484375 35.53515625 C-29 34 -29 34 -31.25 31.6875 C-34.37274347 28.67628308 -36.71471301 27.88392145 -41 27.8125 C-43.79561076 27.88030399 -46.32725883 28.10908628 -49 29 C-47.44200307 25.23121414 -45.090634 22.88728855 -42.1875 20.0625 C-41.33542969 19.22847656 -40.48335937 18.39445312 -39.60546875 17.53515625 C-38.74566406 16.69855469 -37.88585937 15.86195312 -37 15 C-33.61207563 11.63646688 -33.61207563 11.63646688 -30.3125 8.1875 C-29 7 -29 7 -27 7 C-27 6.34 -27 5.68 -27 5 C-25.68 4.67 -24.36 4.34 -23 4 C-23 3.34 -23 2.68 -23 2 C-16.94325957 -1.98014371 -6.29318436 -4.40383983 0 0 Z " fill="#B92842" transform="translate(137,26)"/>
<path d="M0 0 C6.50308339 4.70699369 12.03526171 10.23407795 17.38671875 16.1953125 C23.91321506 23.38996622 30.80567829 30.20287861 37.7109375 37.03125 C52.28504379 51.44494946 52.28504379 51.44494946 58.4609375 58.78125 C59.51952576 59.97223841 60.5815215 61.16021599 61.6484375 62.34375 C67.21525125 68.520186 69.08088006 73.72147352 69.0625 81.86328125 C69.07107025 82.71750168 69.0796405 83.57172211 69.08847046 84.451828 C69.09990362 86.25113397 69.10099701 88.05053232 69.09228516 89.84985352 C69.08597701 92.57667012 69.13288373 95.29911166 69.18359375 98.02539062 C69.18814231 99.78384877 69.18954553 101.54231842 69.1875 103.30078125 C69.20591949 104.10216019 69.22433899 104.90353912 69.24331665 105.72920227 C69.07663562 116.13180986 62.31376608 123.5178216 55.35546875 130.6171875 C54.66910843 131.3314389 53.98274811 132.04569031 53.27558899 132.78158569 C51.01501441 135.12573717 48.73936692 137.45445672 46.4609375 139.78125 C45.66637146 140.59742798 44.87180542 141.41360596 44.05316162 142.2545166 C38.98762612 147.45556004 33.89026179 152.62356791 28.76831055 157.76904297 C27.00832495 159.54067324 25.25284761 161.31679255 23.50170898 163.09716797 C20.91852669 165.72316808 18.32220217 168.33552171 15.72265625 170.9453125 C14.95467209 171.73080475 14.18668793 172.516297 13.39543152 173.32559204 C5.23702441 181.45210528 -4.10802102 189.04070785 -15.9453125 189.1875 C-16.66585815 189.19890015 -17.38640381 189.21030029 -18.12878418 189.2220459 C-19.65513277 189.24091005 -21.18156217 189.25399968 -22.70800781 189.26171875 C-25.00477884 189.28096275 -27.297832 189.34294162 -29.59375 189.40625 C-41.80870063 189.5835761 -51.2248716 186.62149628 -60.2890625 178.03125 C-61.10890625 177.27328125 -61.92875 176.5153125 -62.7734375 175.734375 C-64.5390625 173.78125 -64.5390625 173.78125 -64.5390625 171.78125 C-69.67549385 173.46063973 -72.09755449 176.30387446 -75.57421875 180.296875 C-84.84191049 188.06268784 -93.6939394 189.76337913 -105.36645508 189.56347656 C-107.60419284 189.53121207 -109.83474237 189.56335192 -112.07226562 189.6015625 C-131.61834953 189.6697739 -142.12028946 177.31914083 -155.27181053 164.27649307 C-155.76605837 163.78564098 -156.26030621 163.29478889 -156.76953125 162.7890625 C-157.28118647 162.28148281 -157.79284168 161.77390312 -158.3200016 161.25094223 C-161.02181566 158.56977246 -163.72049556 155.88549246 -166.41674805 153.19873047 C-169.17160663 150.45496664 -171.93796655 147.72310524 -174.70699596 144.99365425 C-176.86467637 142.86231466 -179.01323639 140.72194872 -181.15957069 138.5791893 C-182.1746937 137.56887719 -183.19313614 136.56188709 -184.21520042 135.55859756 C-196.11377214 123.86536996 -204.63433724 111.91157015 -204.80493164 94.80834961 C-204.78200075 90.79544423 -204.68172783 86.79173099 -204.5390625 82.78125 C-204.2090625 82.78125 -203.8790625 82.78125 -203.5390625 82.78125 C-203.50167969 83.75964844 -203.46429688 84.73804687 -203.42578125 85.74609375 C-203.05345956 93.17062631 -202.54226273 99.89720198 -199.5390625 106.78125 C-199.30832031 107.40773438 -199.07757813 108.03421875 -198.83984375 108.6796875 C-196.89797225 113.32123402 -193.9642017 116.6720076 -190.55737305 120.34472656 C-190.07081836 120.8697942 -189.58426367 121.39486183 -189.0829649 121.93584061 C-181.56746834 130.01580393 -173.83774698 137.88946943 -166.08049488 145.73644638 C-163.4491429 148.39835193 -160.82636579 151.06761077 -158.22241211 153.75634766 C-140.12126005 173.48832853 -140.12126005 173.48832853 -115.76953125 182.703125 C-114.08759077 182.69393142 -112.40517295 182.63743508 -110.7265625 182.53125 C-109.83420898 182.50039307 -108.94185547 182.46953613 -108.02246094 182.43774414 C-92.19303376 181.62720118 -83.19623261 173.843787 -72.60546875 162.72265625 C-70.5390625 160.78125 -70.5390625 160.78125 -68.5390625 160.78125 C-66.26548369 162.86536391 -64.18428154 164.89218564 -62.37109375 167.390625 C-57.10860177 174.45046039 -47.88754914 179.75257385 -39.4765625 182.28125 C-25.2403745 184.0890199 -14.31128103 182.03643436 -2.5390625 173.78125 C5.9452076 166.79466529 13.59958195 158.79653444 21.35009766 151.02246094 C23.48094913 148.88618745 25.61717502 146.75539079 27.75390625 144.625 C29.1149046 143.26334187 30.47559326 141.90137411 31.8359375 140.5390625 C32.79052856 139.58750778 32.79052856 139.58750778 33.7644043 138.61672974 C34.35261963 138.02536224 34.94083496 137.43399475 35.546875 136.82470703 C36.0629834 136.30780304 36.5790918 135.79089905 37.11083984 135.2583313 C38.68135691 133.61520076 38.68135691 133.61520076 40.4609375 130.78125 C41.1209375 130.78125 41.7809375 130.78125 42.4609375 130.78125 C42.7909375 129.79125 43.1209375 128.80125 43.4609375 127.78125 C45.61649558 125.49889438 47.85386657 123.33565268 50.171875 121.21875 C58.06424335 113.77442003 62.25298018 105.13030574 62.796875 94.23046875 C63.05040769 80.82109686 61.06209147 70.50739495 52.4609375 59.78125 C50.80462119 58.1030871 49.13714731 56.43936829 47.4609375 54.78125 C46.23747999 53.5637096 45.01436283 52.34582714 43.79150391 51.12768555 C42.77487167 50.11589485 42.77487167 50.11589485 41.73770142 49.08366394 C38.66151097 46.02091729 35.58801799 42.95546961 32.51464844 39.88989258 C30.89998905 38.28026479 29.28443365 36.6715353 27.66796875 35.0637207 C25.31790252 32.72587444 22.97116098 30.38473336 20.625 28.04296875 C19.91123199 27.33436203 19.19746399 26.62575531 18.46206665 25.89567566 C14.48988708 21.92393468 10.69222032 17.8587988 7.03475952 13.59480286 C-1.51132721 3.74694217 -11.16137181 -3.7698189 -24.57421875 -4.73046875 C-26.24949023 -4.80217298 -27.92537499 -4.86073676 -29.6015625 -4.90625 C-30.8999707 -4.95749023 -30.8999707 -4.95749023 -32.22460938 -5.00976562 C-34.32900637 -5.09115114 -36.4340082 -5.15664769 -38.5390625 -5.21875 C-38.5390625 -5.54875 -38.5390625 -5.87875 -38.5390625 -6.21875 C-25.18856892 -9.36601465 -11.51646526 -7.41122685 0 0 Z " fill="#040305" transform="translate(205.5390625,9.21875)"/>
<path d="M0 0 C3.46026258 2.87343443 6.76219002 5.87907847 10 9 C10.59039062 9.54398438 11.18078125 10.08796875 11.7890625 10.6484375 C13 12 13 12 13 14 C13.67804688 14.02578125 14.35609375 14.0515625 15.0546875 14.078125 C22.67144484 14.54230412 30.25511655 15.44491571 36.00390625 20.90234375 C37.19249507 22.28090141 38.35275726 23.68449456 39.48046875 25.11328125 C41.38288781 27.47541082 43.59569324 29.16513431 46 31 C49.37184744 34.19893219 52.41058599 37.58547857 55.375 41.15625 C58.93558422 45.19614364 62.89229652 48.88329748 66.73292542 52.65597534 C69.20096696 55.08355932 71.66078544 57.51940911 74.12036133 59.95556641 C75.41423874 61.23431741 76.71079027 62.51036835 78.01000977 63.78369141 C79.90061586 65.63769586 81.7811746 67.50141175 83.66015625 69.3671875 C84.52435936 70.20816483 84.52435936 70.20816483 85.40602112 71.06613159 C89.6527933 75.31113532 92.31262123 79.62524246 95 85 C94.9129796 86.71233688 94.75902838 88.42175406 94.5625 90.125 C94.46066406 91.03507812 94.35882813 91.94515625 94.25390625 92.8828125 C94.17011719 93.58148438 94.08632812 94.28015625 94 95 C93.67 95 93.34 95 93 95 C92.7834375 93.081875 92.7834375 93.081875 92.5625 91.125 C91.61291498 86.90503109 90.07793045 84.57774219 87.1328125 81.43359375 C86.32368408 80.56605469 85.51455566 79.69851562 84.6809082 78.8046875 C83.7962085 77.87914063 82.91150879 76.95359375 82 76 C81.54321869 75.51861572 81.08643738 75.03723145 80.61581421 74.54125977 C77.71583486 71.48802973 74.78369943 68.46919735 71.82397461 65.47387695 C70.80561416 64.43873848 69.79267862 63.39823828 68.78491211 62.3527832 C67.30220109 60.81534203 65.80371894 59.29498664 64.30078125 57.77734375 C63.42591064 56.88265381 62.55104004 55.98796387 61.6496582 55.06616211 C58.67683966 52.74800461 56.71645585 52.28049365 53 52 C53.64066406 52.55945312 54.28132813 53.11890625 54.94140625 53.6953125 C64.51609242 62.570804 71.20197569 73.62785398 72.3359375 86.9453125 C72.66654733 102.1479447 69.33368761 114.05332661 58.76953125 125.39453125 C56.88024584 127.30387987 54.96686996 129.17106638 53 131 C53.66 131.99 54.32 132.98 55 134 C49.158256 134.35050464 45.1468192 134.16727335 40 131 C43.486011 126.78009194 47.08488701 122.95107104 51.0625 119.1875 C55.71526398 114.59070912 58.6462404 110.08054564 61 104 C61.36351562 103.07832031 61.72703125 102.15664062 62.1015625 101.20703125 C65.06072428 90.64411028 63.67120741 77.81083672 59 68 C55.34452874 62.36797956 51.24095745 58.15050017 46 54 C41 48.83950617 41 48.83950617 41 46 C40.34 45.62875 39.68 45.2575 39 44.875 C34.71266608 42.1954163 31.49170435 38.62821132 28 35 C23.96085561 30.85456234 19.6838802 27.06146497 15.3046875 23.28125 C12.9934311 20.99349791 11.63924184 18.78581537 10 16 C8.22887952 14.19765823 8.22887952 14.19765823 6.25 12.625 C3.53667605 10.35898126 1.11384782 8.06206633 -1.25 5.4375 C-9.3950528 -2.87645942 -19.71614016 -4.99512536 -30.8125 -5.5625 C-31.60076172 -5.60568359 -32.38902344 -5.64886719 -33.20117188 -5.69335938 C-35.13394215 -5.79878321 -37.06695026 -5.89983094 -39 -6 C-39 -6.33 -39 -6.66 -39 -7 C-25.67905544 -9.9602099 -11.2129795 -7.99806929 0 0 Z " fill="#050103" transform="translate(126,10)"/>
<path d="M0 0 C4.86347976 1.62115992 6.62646217 5.62905875 9 10 C13.10126269 19.50885349 13.78401759 31.57187312 11.015625 41.546875 C9.83235405 44.48313996 8.5259241 47.22842357 7 50 C6.443125 51.03125 5.88625 52.0625 5.3125 53.125 C1.5757746 57.7706586 -2.71544539 61.86262475 -7 66 C-9.90782833 64.68515589 -12.00641558 63.26624689 -14.25 61 C-14.77078125 60.484375 -15.2915625 59.96875 -15.828125 59.4375 C-17 58 -17 58 -17 56 C-17.99 55.67 -18.98 55.34 -20 55 C-24.77272727 50.68181818 -24.77272727 50.68181818 -26 47 C-25.38125 46.9175 -24.7625 46.835 -24.125 46.75 C-21.84645565 46.20721701 -21.84645565 46.20721701 -20.9375 44.125 C-20.628125 43.42375 -20.31875 42.7225 -20 42 C-18.5 40.25 -18.5 40.25 -17 39 C-16.34 39 -15.68 39 -15 39 C-14.773125 38.443125 -14.54625 37.88625 -14.3125 37.3125 C-12.6335669 34.35437977 -10.41016417 32.41016417 -8 30 C-1.75039141 22.80495303 -1.75039141 22.80495303 0.09765625 13.76953125 C0.09282227 12.56586914 0.09282227 12.56586914 0.08789062 11.33789062 C0.07951172 10.50451172 0.07113281 9.67113281 0.0625 8.8125 C0.05798828 7.96751953 0.05347656 7.12253906 0.04882812 6.25195312 C0.03705403 4.16793845 0.0191189 2.08396023 0 0 Z " fill="#F55266" transform="translate(178,70)"/>
<path d="M0 0 C2.04229281 1.26962701 3.56815632 2.57701945 5.24902344 4.29150391 C5.82265625 4.87158203 6.39628906 5.45166016 6.98730469 6.04931641 C7.57382813 6.65259766 8.16035156 7.25587891 8.76464844 7.87744141 C9.36664063 8.48845703 9.96863281 9.09947266 10.58886719 9.72900391 C12.06870149 11.23232764 13.5422952 12.74178996 15.01464844 14.25244141 C13.62567033 17.40712108 12.01945302 19.45587468 9.53027344 21.82666016 C8.84191406 22.49503906 8.15355469 23.16341797 7.44433594 23.85205078 C6.009114 25.22682879 4.57166744 26.59928871 3.13183594 27.96923828 C-2.88760372 33.82644397 -9.60171519 40.44433952 -10.09887695 49.26708984 C-10.09364014 49.95834961 -10.08840332 50.64960937 -10.08300781 51.36181641 C-10.07978516 52.11591797 -10.0765625 52.87001953 -10.07324219 53.64697266 C-10.06486328 54.42427734 -10.05648437 55.20158203 -10.04785156 56.00244141 C-10.04333984 56.79521484 -10.03882812 57.58798828 -10.03417969 58.40478516 C-10.02243721 60.35403649 -10.00450302 62.30324879 -9.98535156 64.25244141 C-18.73994605 55.98834202 -22.18778021 46.15902062 -22.98925781 34.36962891 C-23.25505121 24.14716784 -18.07824493 15.1574453 -11.98535156 7.25244141 C-10.07141089 5.36413386 -8.15582858 3.85446016 -5.98535156 2.25244141 C-5.65535156 1.59244141 -5.32535156 0.93244141 -4.98535156 0.25244141 C-1.98535156 -0.74755859 -1.98535156 -0.74755859 0 0 Z " fill="#6EB9F1" transform="translate(102.9853515625,62.74755859375)"/>
<path d="M0 0 C3 1.5 3 1.5 5 3 C3.79618552 5.49361571 2.54571278 7.68143083 1 10 C0.175 9.690625 -0.65 9.38125 -1.5 9.0625 C-7.35264604 8.95798846 -10.37383809 13.47129201 -14.4317627 17.37863159 C-17.70869407 20.55315067 -20.94894034 23.76316954 -24.17480469 26.98950195 C-25.88719442 28.69967866 -27.60747044 30.40165936 -29.328125 32.10351562 C-30.42496709 33.19742766 -31.5213386 34.29181178 -32.6171875 35.38671875 C-33.12861298 35.89095871 -33.64003845 36.39519867 -34.16696167 36.91471863 C-37.88460445 40.65646404 -40.24601529 43.80756198 -40.6875 49.125 C-40.50652222 53.51300789 -39.16982588 55.40118694 -36.18359375 58.55859375 C-35.36640869 59.42871094 -34.54922363 60.29882812 -33.70727539 61.1953125 C-32.81387451 62.12085938 -31.92047363 63.04640625 -31 64 C-30.07213978 64.97131169 -29.14432472 65.94266652 -28.21655273 66.9140625 C-25.79336442 69.43760364 -23.3428862 71.93257762 -20.87890625 74.41625977 C-19.86825677 75.43855796 -18.86212382 76.4653392 -17.86035156 77.49633789 C-16.38282799 79.01665705 -14.89236794 80.52316371 -13.3984375 82.02734375 C-12.52880371 82.91156006 -11.65916992 83.79577637 -10.76318359 84.70678711 C-7.58297601 87.34609528 -4.84668108 88.55356002 -1 90 C-1 90.33 -1 90.66 -1 91 C-4.54706631 91.77690169 -7.45191256 91.82556806 -11 91 C-14.95028534 88.20975964 -18.24172178 84.9701582 -21.57910156 81.48388672 C-23.65293222 79.31812336 -25.80142053 77.22914472 -27.9375 75.125 C-29.29295167 73.75126671 -30.64711215 72.37625827 -32 71 C-34.5110576 68.47279412 -37.03477331 65.96663431 -39.60546875 63.5 C-40.45753906 62.675 -41.30960938 61.85 -42.1875 61 C-43.04730469 60.175 -43.90710937 59.35 -44.79296875 58.5 C-48.40960922 54.40327452 -49.28976707 50.89528235 -49.3125 45.5 C-49.32925781 44.5821875 -49.34601562 43.664375 -49.36328125 42.71875 C-48.59796783 36.99124311 -44.6068243 33.32843791 -40.6328125 29.4375 C-40.11621063 28.92372803 -39.59960876 28.40995605 -39.06735229 27.88061523 C-37.42456876 26.24895441 -35.77496865 24.62439148 -34.125 23 C-33.02427647 21.90932134 -31.92401157 20.81817964 -30.82421875 19.7265625 C-28.79335542 17.71195709 -26.75982035 15.70013462 -24.72314453 13.69140625 C-22.89390686 11.88348836 -21.07089916 10.06924714 -19.25390625 8.24902344 C-13.36719257 2.3750626 -8.72525228 -1.01851194 0 0 Z " fill="#090203" transform="translate(100,53)"/>
<path d="M0 0 C3.46026258 2.87343443 6.76219002 5.87907847 10 9 C10.59039062 9.54398438 11.18078125 10.08796875 11.7890625 10.6484375 C13 12 13 12 13 14 C13.67804688 14.02578125 14.35609375 14.0515625 15.0546875 14.078125 C22.67144484 14.54230412 30.25511655 15.44491571 36.00390625 20.90234375 C37.19249507 22.28090141 38.35275726 23.68449456 39.48046875 25.11328125 C41.38288781 27.47541082 43.59569324 29.16513431 46 31 C49.96234582 34.7591486 53.49516007 38.82068915 57 43 C53.48134037 44.17288654 50.71210282 44 47 44 C46.30519531 44.18820313 45.61039062 44.37640625 44.89453125 44.5703125 C42.31774677 45.21792913 40.63285028 45.4623542 38 45 C34.16357304 42.09552176 31.14891426 38.61812333 28 35 C23.97034044 30.84322184 19.68425218 27.06178607 15.3046875 23.28125 C12.9934311 20.99349791 11.63924184 18.78581537 10 16 C8.22887952 14.19765823 8.22887952 14.19765823 6.25 12.625 C3.53667605 10.35898126 1.11384782 8.06206633 -1.25 5.4375 C-9.3950528 -2.87645942 -19.71614016 -4.99512536 -30.8125 -5.5625 C-31.60076172 -5.60568359 -32.38902344 -5.64886719 -33.20117188 -5.69335938 C-35.13394215 -5.79878321 -37.06695026 -5.89983094 -39 -6 C-39 -6.33 -39 -6.66 -39 -7 C-25.67905544 -9.9602099 -11.2129795 -7.99806929 0 0 Z " fill="#235693" transform="translate(126,10)"/>
<path d="M0 0 C1.94842572 1.91838391 3.63205921 3.96096182 5.3515625 6.0859375 C7.31443434 8.36510149 9.41273197 9.48550164 12 11 C14.10441998 13.03385757 16.12684688 15.12696186 18.1328125 17.2578125 C19.98157125 19.22496174 19.98157125 19.22496174 23 20 C23.94921875 22.06640625 23.94921875 22.06640625 24.6875 24.5625 C24.93886719 25.38878906 25.19023437 26.21507812 25.44921875 27.06640625 C25.63097656 27.70449219 25.81273437 28.34257812 26 29 C24.23999081 30.76000919 21.82505906 30.21414179 19.4375 30.25 C8.8029404 30.09933328 2.80049007 26.10862052 -5 19 C-5.90502039 18.00568426 -6.78612072 16.98821749 -7.625 15.9375 C-10.24005734 12.70308698 -13.11851284 10.23768217 -16.328125 7.61328125 C-18 6 -18 6 -19 3 C-17.36864049 1.36864049 -15.2909006 1.40923282 -13.0625 1 C-2.78407441 -0.893005 -2.78407441 -0.893005 0 0 Z " fill="#BC2D45" transform="translate(109,142)"/>
<path d="M0 0 C1.15224028 0.92961422 2.29659176 1.8690125 3.4375 2.8125 C4.07558594 3.33457031 4.71367188 3.85664062 5.37109375 4.39453125 C7 6 7 6 8 9 C9.87167133 10.06885827 9.87167133 10.06885827 12 11 C18.17756549 15.33949791 22.60193675 20.80581024 25 28 C25.43664683 34.33137897 24.2907376 39.10953189 22 45 C22.928125 45.5878125 22.928125 45.5878125 23.875 46.1875 C26.32496368 48.27717491 27.01879998 49.97463327 28 53 C27.01 53 26.02 53 25 53 C23.96564444 51.35443434 22.97236487 49.6829392 22 48 C21.18144531 47.28585938 20.36289063 46.57171875 19.51953125 45.8359375 C16.3307524 42.24670736 15.77983554 39.44791388 15.0625 34.8125 C14.92521484 34.08869141 14.78792969 33.36488281 14.64648438 32.61914062 C14.28515625 30.51953125 14.28515625 30.51953125 14 27 C14.66 26.34 15.32 25.68 16 25 C16.50059916 22.58517587 16.50059916 22.58517587 16 20 C14.0624994 17.81222534 14.0624994 17.81222534 12 16 C12 15.34 12 14.68 12 14 C11.21625 13.87625 10.4325 13.7525 9.625 13.625 C7 13 7 13 5 11 C4.34 10.67 3.68 10.34 3 10 C2.6451046 8.00371336 2.31421071 6.00309329 2 4 C1.36710708 2.6503079 0.70623678 1.31280304 0 0 Z " fill="#314B7D" transform="translate(115,66)"/>
<path d="M0 0 C3.82265288 1.78390468 5.62128573 3.43192859 8 7 C8.75023437 7.27070312 9.50046875 7.54140625 10.2734375 7.8203125 C13.91065771 9.39400949 16.07195177 11.95021672 18.625 14.875 C19.10195312 15.40480469 19.57890625 15.93460938 20.0703125 16.48046875 C22.5211113 19.22400185 24.85070345 22.01406453 27 25 C26.01 25.99 25.02 26.98 24 28 C16.7630164 24.710462 10.0983121 18.0383134 5 12 C5 11.34 5 10.68 5 10 C4.401875 9.7525 3.80375 9.505 3.1875 9.25 C0.71352479 7.83629988 -0.43370255 6.34944617 -2 4 C-1.34 4 -0.68 4 0 4 C0 2.68 0 1.36 0 0 Z " fill="#B92E4F" transform="translate(143,112)"/>
<path d="M0 0 C3.46026258 2.87343443 6.76219002 5.87907847 10 9 C10.59039062 9.54398438 11.18078125 10.08796875 11.7890625 10.6484375 C13 12 13 12 13 14 C12.34 14 11.68 14 11 14 C10.67 14.66 10.34 15.32 10 16 C6.05449365 12.62838548 2.23317151 9.29048971 -1.25 5.4375 C-9.3950528 -2.87645942 -19.71614016 -4.99512536 -30.8125 -5.5625 C-31.60076172 -5.60568359 -32.38902344 -5.64886719 -33.20117188 -5.69335938 C-35.13394215 -5.79878321 -37.06695026 -5.89983094 -39 -6 C-39 -6.33 -39 -6.66 -39 -7 C-25.67905544 -9.9602099 -11.2129795 -7.99806929 0 0 Z " fill="#110305" transform="translate(126,10)"/>
<path d="M0 0 C4.60699851 3.76936241 8.93688006 7.77516417 13.1875 11.9375 C13.95368652 12.67178223 13.95368652 12.67178223 14.73535156 13.42089844 C18.86002271 17.50785214 21.4022277 21.80445539 24 27 C23.9129796 28.71233688 23.75902838 30.42175406 23.5625 32.125 C23.46066406 33.03507812 23.35882813 33.94515625 23.25390625 34.8828125 C23.17011719 35.58148438 23.08632812 36.28015625 23 37 C22.67 37 22.34 37 22 37 C21.7834375 35.081875 21.7834375 35.081875 21.5625 33.125 C20.05507657 26.49646682 15.70200658 22.6626043 11 18 C9.83772443 16.82632957 8.6763112 15.65180474 7.515625 14.4765625 C4.36391805 11.29697193 1.18776301 8.14342009 -2 5 C-1.34 3.35 -0.68 1.7 0 0 Z " fill="#010206" transform="translate(197,68)"/>
<path d="M0 0 C0.33 0 0.66 0 1 0 C1.14695312 1.02738281 1.29390625 2.05476563 1.4453125 3.11328125 C4.02198175 19.59439167 11.10896914 30.47670951 24 41 C23.6875 42.9375 23.6875 42.9375 23 45 C21.515 45.495 21.515 45.495 20 46 C18.30805922 44.07278935 16.61928729 42.14312106 14.9375 40.20703125 C13.76852337 38.87543489 12.58504062 37.55611317 11.375 36.26171875 C1.60432987 25.60049275 -0.35087001 14.05429302 0 0 Z " fill="#030611" transform="translate(80,97)"/>
<path d="M0 0 C3.29800478 1.19807758 4.77699059 2.74489272 6.6875 5.625 C9.69897124 9.86738108 13.24887307 13.02794436 17.2421875 16.3359375 C17.82226562 16.88507812 18.40234375 17.43421875 19 18 C19 18.66 19 19.32 19 20 C19.5775 20.2475 20.155 20.495 20.75 20.75 C24.11103214 22.61724008 26.38387684 25.34536915 29 28.125 C30.93395757 29.93808522 32.64252979 30.85494304 35 32 C35.144375 32.598125 35.28875 33.19625 35.4375 33.8125 C36.28708366 37.11643647 38.54812874 38.73673422 41 41 C40.01 41.495 40.01 41.495 39 42 C38.01 41.505 38.01 41.505 37 41 C37 40.34 37 39.68 37 39 C36.01 39 35.02 39 34 39 C34 38.34 34 37.68 34 37 C33.34 37 32.68 37 32 37 C32 36.34 32 35.68 32 35 C30.68 34.67 29.36 34.34 28 34 C28 32.68 28 31.36 28 30 C27.27167969 29.77054688 26.54335937 29.54109375 25.79296875 29.3046875 C22.45022411 27.74318161 20.733089 25.89490999 18.3125 23.125 C17.54550781 22.26132812 16.77851563 21.39765625 15.98828125 20.5078125 C14.29402146 18.37084828 13.08116343 16.48609772 12 14 C11.34 14 10.68 14 10 14 C10 13.34 10 12.68 10 12 C9.01 12 8.02 12 7 12 C6.67 11.01 6.34 10.02 6 9 C3.66796984 6.35703248 2.38326722 5.12775574 -1 4 C-1.33 3.01 -1.66 2.02 -2 1 C-1.34 0.67 -0.68 0.34 0 0 Z " fill="#963158" transform="translate(133,24)"/>
<path d="M0 0 C0 0.99 0 1.98 0 3 C-1 4 -2 5 -3 6 C-3.71727778 7.64551962 -4.38325228 9.31422289 -5 11 C-6.50819672 14.7704918 -6.50819672 14.7704918 -8.875 15.875 C-11.957081 17.50668994 -13.09762834 20.1176187 -15 23 C-19.42105263 27 -19.42105263 27 -22 27 C-22.20625 27.639375 -22.4125 28.27875 -22.625 28.9375 C-24 31 -24 31 -27.125 31.75 C-28.548125 31.87375 -28.548125 31.87375 -30 32 C-26.82273508 28.18728209 -23.600001 24.54483529 -20.0625 21.0625 C-17.44192125 18.48162699 -14.95604803 15.8549727 -12.5625 13.0625 C-8.61564146 8.46696795 -4.32516517 4.23689649 0 0 Z " fill="#EC576B" transform="translate(67,13)"/>
<path d="M0 0 C0.66 0.33 1.32 0.66 2 1 C-9.64123165 12.33850458 -19.77502262 14.64102964 -35.6015625 14.43359375 C-42.63875514 14.09690367 -48.01974781 11.72794941 -54 8 C-54 7.67 -54 7.34 -54 7 C-52.35 7 -50.7 7 -49 7 C-49 7.66 -49 8.32 -49 9 C-38.49392942 11.53425122 -27.74915603 11.63176544 -17 12 C-16.67 11.01 -16.34 10.02 -16 9 C-14.02 9 -12.04 9 -10 9 C-10 8.34 -10 7.68 -10 7 C-7.8125 5.2734375 -7.8125 5.2734375 -5 3.375 C-3.6078125 2.42753906 -3.6078125 2.42753906 -2.1875 1.4609375 C-1.465625 0.97882813 -0.74375 0.49671875 0 0 Z " fill="#D35D6E" transform="translate(125,178)"/>
<path d="M0 0 C0.99 0.33 1.98 0.66 3 1 C3 1.66 3 2.32 3 3 C3.639375 3.20625 4.27875 3.4125 4.9375 3.625 C7 5 7 5 7.75 8.125 C7.8325 9.07375 7.915 10.0225 8 11 C9.051875 11.0309375 9.051875 11.0309375 10.125 11.0625 C13.84829212 12.27661699 15.1631091 14.24412538 17.47265625 17.30859375 C19.16783147 19.1858594 20.75211496 19.89674354 23 21 C23.495 21.845625 23.99 22.69125 24.5 23.5625 C25.74124148 26.17018863 25.74124148 26.17018863 28.125 26.6875 C28.74375 26.790625 29.3625 26.89375 30 27 C30.33 27.66 30.66 28.32 31 29 C31.99 29.33 32.98 29.66 34 30 C33 31 33 31 30.25390625 31.35546875 C25.98891586 30.88954543 24.81087839 29.43177765 21.9375 26.3125 C21.12152344 25.44238281 20.30554688 24.57226562 19.46484375 23.67578125 C18.65144531 22.79277344 17.83804688 21.90976562 17 21 C12.9107794 16.81433551 8.60097439 12.94628335 4.20703125 9.0859375 C2 7 2 7 0 4 C0 2.68 0 1.36 0 0 Z " fill="#414B7F" transform="translate(137,24)"/>
<path d="M0 0 C3 1 3 1 4.1875 3.0625 C6.10233412 9.98536182 5.11645722 14.76708556 2 21 C-1 20 -1 20 -2.16796875 18.2421875 C-4.12942682 12.9563803 -3.61898605 7.49588295 -1.5 2.375 C-1.005 1.59125 -0.51 0.8075 0 0 Z " fill="#090205" transform="translate(135,88)"/>
<path d="M0 0 C7.8416148 -0.4363186 15.36210241 -0.81730918 22 4 C22.33 4.99 22.66 5.98 23 7 C23.66 7.33 24.32 7.66 25 8 C25 8.66 25 9.32 25 10 C26.98 10.66 28.96 11.32 31 12 C31 12.66 31 13.32 31 14 C31.99 14.33 32.98 14.66 34 15 C35.4477922 17.89558441 36 19.74188938 36 23 C35.34 23 34.68 23 34 23 C32.5546875 21.49609375 32.5546875 21.49609375 30.875 19.4375 C27.76415992 15.76813748 24.45320692 12.63780412 20.78515625 9.53515625 C19 8 19 8 16.75 5.6875 C13.62725653 2.67628308 11.28528699 1.88392145 7 1.8125 C4.20438924 1.88030399 1.67274117 2.10908628 -1 3 C-0.67 2.01 -0.34 1.02 0 0 Z " fill="#913761" transform="translate(89,52)"/>
<path d="M0 0 C0.84071121 2.86090376 1.0626274 5.16002048 0.80859375 8.125 C0.74969971 8.9085083 0.69080566 9.6920166 0.63012695 10.49926758 C0.53477661 11.73713013 0.53477661 11.73713013 0.4375 13 C-0.19945494 22.78492963 0.40482963 31.75527618 4 41 C4.66 41 5.32 41 6 41 C7.06775224 42.96466413 8.06553465 44.96855359 9 47 C8.67 47.66 8.34 48.32 8 49 C0.33069267 38.55713495 -3.16913605 30.67627164 -3.25 17.6875 C-3.2809375 16.46256836 -3.2809375 16.46256836 -3.3125 15.21289062 C-3.34914803 9.46373122 -2.3046816 5.27044292 0 0 Z " fill="#DB5D6C" transform="translate(5,80)"/>
<path d="M0 0 C1.27310312 0.93441535 2.543388 1.87267111 3.8125 2.8125 C4.52019531 3.33457031 5.22789062 3.85664063 5.95703125 4.39453125 C7.78677883 5.83243996 9.36076884 7.35609867 11 9 C15.39884121 11.45817597 20.0877594 11.83768341 25 11 C27.90291077 9.62063677 30.44816703 7.94690254 33 6 C31.43622501 9.32302186 29.78646849 11.56184007 27 14 C26.34 14 25.68 14 25 14 C25 14.66 25 15.32 25 16 C21.75 16.75 21.75 16.75 18 17 C15.9375 15.1875 15.9375 15.1875 14 13 C12.948125 12.649375 11.89625 12.29875 10.8125 11.9375 C9.884375 11.628125 8.95625 11.31875 8 11 C7.67 10.01 7.34 9.02 7 8 C6.01 7.67 5.02 7.34 4 7 C3.67 6.34 3.34 5.68 3 5 C2.01 4.67 1.02 4.34 0 4 C0 2.68 0 1.36 0 0 Z " fill="#23538E" transform="translate(156,132)"/>
<path d="M0 0 C1.32 0.33 2.64 0.66 4 1 C3.14535156 1.83144531 2.29070313 2.66289063 1.41015625 3.51953125 C0.29400823 4.61692048 -0.82186282 5.71459145 -1.9375 6.8125 C-2.50146484 7.35970703 -3.06542969 7.90691406 -3.64648438 8.47070312 C-6.92921827 11.71412284 -8.8765495 13.71979663 -9.1328125 18.453125 C-9.11803356 23.74398483 -8.92657602 28.78800987 -8 34 C-9.32 34.66 -10.64 35.32 -12 36 C-12 29.07 -12 22.14 -12 15 C-11.34 15 -10.68 15 -10 15 C-10 13.68 -10 12.36 -10 11 C-9.34 11 -8.68 11 -8 11 C-8 10.01 -8 9.02 -8 8 C-7.34 8 -6.68 8 -6 8 C-5.34 6.35 -4.68 4.7 -4 3 C-2.68 3 -1.36 3 0 3 C0 2.01 0 1.02 0 0 Z " fill="#D75966" transform="translate(61,77)"/>
<path d="M0 0 C5.04543742 0.55364013 7.8333344 4.3667484 11 8 C12.9375 10.9375 12.9375 10.9375 14 13 C11.296875 13.76953125 11.296875 13.76953125 8 14 C5.515625 12.19921875 5.515625 12.19921875 3.25 9.6875 C2.49203125 8.86636719 1.7340625 8.04523438 0.953125 7.19921875 C0.30859375 6.47347656 -0.3359375 5.74773438 -1 5 C-1.66 4.34 -2.32 3.68 -3 3 C-1.75 1.4375 -1.75 1.4375 0 0 Z " fill="#3C5D90" transform="translate(104,58)"/>
<path d="M0 0 C1.65 0 3.3 0 5 0 C5.268125 0.804375 5.53625 1.60875 5.8125 2.4375 C6.204375 3.283125 6.59625 4.12875 7 5 C7.99 5.33 8.98 5.66 10 6 C10 6.66 10 7.32 10 8 C10.61875 8.20625 11.2375 8.4125 11.875 8.625 C14.9324007 10.6033181 15.09424765 12.5098343 16 16 C16.23046875 19.69140625 16.23046875 19.69140625 16.1875 23.5625 C16.18105469 24.84253906 16.17460937 26.12257813 16.16796875 27.44140625 C16.02646698 30.43926935 15.64074762 33.08331684 15 36 C15 36.99 15 37.98 15 39 C13.68 38.01 12.36 37.02 11 36 C11.2165625 35.443125 11.433125 34.88625 11.65625 34.3125 C13.80825577 28.41441011 15.58099015 22.95959696 13.1328125 16.828125 C12.44640584 15.45531167 11.72860544 14.09749993 10.97265625 12.76171875 C10 11 10 11 9 8 C8.13375 7.5978125 8.13375 7.5978125 7.25 7.1875 C3.95535686 5.44866056 2.28799302 2.92354664 0 0 Z " fill="#993452" transform="translate(125,75)"/>
<path d="M0 0 C4.84076348 1.11709927 7.8703945 2.05901529 11 6 C11.33 6.70125 11.66 7.4025 12 8.125 C13.26235606 10.49191761 14.55556051 11.0222242 17 12 C17 13.32 17 14.64 17 16 C18.32 16.33 19.64 16.66 21 17 C21 17.66 21 18.32 21 19 C22.32 19.33 23.64 19.66 25 20 C25 21.65 25 23.3 25 25 C19.20879999 20.18825126 13.87191517 15.02258518 8.5625 9.6875 C7.73556641 8.86443359 6.90863281 8.04136719 6.05664062 7.19335938 C5.27611328 6.41154297 4.49558594 5.62972656 3.69140625 4.82421875 C2.98185791 4.11354248 2.27230957 3.40286621 1.54125977 2.6706543 C0 1 0 1 0 0 Z " fill="#D1556C" transform="translate(39,154)"/>
<path d="M0 0 C5.30155282 1.13604703 7.35365991 3.28268355 10.57421875 7.34375 C12.42173425 9.48990499 14.5715614 10.55450083 17 12 C19.10437021 14.03394837 21.12682813 16.12694194 23.1328125 18.2578125 C24.98157125 20.22496174 24.98157125 20.22496174 28 21 C28.94921875 23.06640625 28.94921875 23.06640625 29.6875 25.5625 C29.93886719 26.38878906 30.19023437 27.21507812 30.44921875 28.06640625 C30.63097656 28.70449219 30.81273437 29.34257812 31 30 C30.34 30.33 29.68 30.66 29 31 C28.54625 30.071875 28.0925 29.14375 27.625 28.1875 C23.45833369 20.88463324 17.37258769 14.06594537 10 10 C6.99776138 7.76577591 5.08821539 6.13232309 3 3 C2.01 2.67 1.02 2.34 0 2 C0 1.34 0 0.68 0 0 Z " fill="#684472" transform="translate(104,141)"/>
<path d="M0 0 C0 1.65 0 3.3 0 5 C-0.804375 5.226875 -1.60875 5.45375 -2.4375 5.6875 C-3.283125 6.120625 -4.12875 6.55375 -5 7 C-5.39171753 8.65391846 -5.72057545 10.32345271 -6 12 C-7.875 14.3125 -7.875 14.3125 -10 16 C-10.99 16 -11.98 16 -13 16 C-13.33 16.66 -13.66 17.32 -14 18 C-15.32 17.67 -16.64 17.34 -18 17 C-15.19151503 14.16266225 -12.37756077 11.33081251 -9.5625 8.5 C-8.76005859 7.68917969 -7.95761719 6.87835938 -7.13085938 6.04296875 C-6.36708984 5.27597656 -5.60332031 4.50898437 -4.81640625 3.71875 C-4.10943604 3.00654297 -3.40246582 2.29433594 -2.67407227 1.56054688 C-1 0 -1 0 0 0 Z " fill="#E55567" transform="translate(37,45)"/>
<path d="M0 0 C1.32 0.33 2.64 0.66 4 1 C4 1.66 4 2.32 4 3 C4.763125 3.268125 5.52625 3.53625 6.3125 3.8125 C8.99963506 4.99983875 10.08709578 5.84798276 12 8 C16.45065209 12.58155363 21.20123599 16.78670611 26 21 C25.67 21.99 25.34 22.98 25 24 C24.55269531 23.52949219 24.10539062 23.05898437 23.64453125 22.57421875 C19.82536047 18.61967237 19.82536047 18.61967237 15.375 15.4375 C13 14 13 14 10.5 10.9375 C8.29733917 7.87233395 8.29733917 7.87233395 5.375 7 C1.95893222 5.56165567 1.36995225 3.3167265 0 0 Z " fill="#434D84" transform="translate(101,135)"/>
<path d="M0 0 C1.32 0 2.64 0 4 0 C3 3 3 3 0.875 4.6875 C-1.57998463 6.66216155 -3.35896543 8.49117534 -5.375 10.875 C-8.62755493 14.69228425 -12.11784351 17.83089266 -16 21 C-16.125 18.625 -16.125 18.625 -16 16 C-15.34 15.34 -14.68 14.68 -14 14 C-13.01 14 -12.02 14 -11 14 C-11 13.34 -11 12.68 -11 12 C-10.01 12 -9.02 12 -8 12 C-7.938125 11.2575 -7.87625 10.515 -7.8125 9.75 C-6.74850088 6.14877223 -5.08629328 5.03243704 -2 3 C-1.34 3 -0.68 3 0 3 C0 2.01 0 1.02 0 0 Z " fill="#689AC4" transform="translate(248,134)"/>
<path d="M0 0 C4.28674913 1.8371782 6.84877709 4.77682566 10 8.125 C11.93395757 9.93808522 13.64252979 10.85494304 16 12 C16.144375 12.598125 16.28875 13.19625 16.4375 13.8125 C17.28708366 17.11643647 19.54812874 18.73673422 22 21 C21.34 21.33 20.68 21.66 20 22 C19.34 21.67 18.68 21.34 18 21 C18 20.34 18 19.68 18 19 C17.01 19 16.02 19 15 19 C15 18.34 15 17.68 15 17 C14.34 17 13.68 17 13 17 C13 16.34 13 15.68 13 15 C12.38125 14.95875 11.7625 14.9175 11.125 14.875 C10.073125 14.441875 10.073125 14.441875 9 14 C8.31974363 12.00458132 7.65509503 10.00382009 7 8 C4.56249975 5.31232422 4.56249975 5.31232422 2 3 C1.34 2.01 0.68 1.02 0 0 Z " fill="#863754" transform="translate(152,44)"/>
<path d="M0 0 C1.15224028 0.92961422 2.29659176 1.8690125 3.4375 2.8125 C4.07558594 3.33457031 4.71367188 3.85664062 5.37109375 4.39453125 C7 6 7 6 8 9 C9.86540533 10.05795324 9.86540533 10.05795324 12 11 C16.24038711 14.05057385 19.61613025 16.77204763 21 22 C20.57589844 21.60167969 20.15179688 21.20335938 19.71484375 20.79296875 C15.64634179 17.11790435 12.08666816 14.99477183 7 13 C6.34 12.34 5.68 11.68 5 11 C4.34 10.67 3.68 10.34 3 10 C2.6451046 8.00371336 2.31421071 6.00309329 2 4 C1.36710708 2.6503079 0.70623678 1.31280304 0 0 Z " fill="#554A7B" transform="translate(115,66)"/>
<path d="M0 0 C3.82265288 1.78390468 5.62128573 3.43192859 8 7 C8.33 7.33 8.66 7.66 9 8 C9.04092937 10.33297433 9.04241723 12.66705225 9 15 C7 13.625 7 13.625 5 12 C5 11.34 5 10.68 5 10 C4.401875 9.7525 3.80375 9.505 3.1875 9.25 C0.71352479 7.83629988 -0.43370255 6.34944617 -2 4 C-1.34 4 -0.68 4 0 4 C0 2.68 0 1.36 0 0 Z " fill="#A8304D" transform="translate(143,112)"/>
<path d="M0 0 C0.33 0 0.66 0 1 0 C1.03738281 0.97839844 1.07476562 1.95679687 1.11328125 2.96484375 C1.62471055 13.16334567 3.33471139 20.89157938 8 30 C8 30.66 8 31.32 8 32 C6.515 32.495 6.515 32.495 5 33 C4.35004703 31.58521865 3.70521278 30.16808513 3.0625 28.75 C2.70285156 27.96109375 2.34320313 27.1721875 1.97265625 26.359375 C0.40967494 22.56804685 -0.12392941 19.33298769 -0.09765625 15.234375 C-0.09443359 14.34492187 -0.09121094 13.45546875 -0.08789062 12.5390625 C-0.07532227 11.15847656 -0.07532227 11.15847656 -0.0625 9.75 C-0.05798828 8.81414062 -0.05347656 7.87828125 -0.04882812 6.9140625 C-0.03706918 4.60930959 -0.02063426 2.30468773 0 0 Z " fill="#140100" transform="translate(1,92)"/>
<path d="M0 0 C4.54045805 3.68993997 8.33549813 7.44413281 12 12 C13.31543863 13.35099103 14.64175118 14.69205669 16 16 C14.1875 16.6875 14.1875 16.6875 12 17 C9.74015575 15.26165827 8.60199072 13.40298607 7 11 C6.01 10.34 5.02 9.68 4 9 C4 8.34 4 7.68 4 7 C2.68 6.34 1.36 5.68 0 5 C0 3.35 0 1.7 0 0 Z " fill="#6A9BBE" transform="translate(244,55)"/>
<path d="M0 0 C5.52191235 1.5059761 5.52191235 1.5059761 7.875 3.9375 C10.90266285 6.87611394 14.01339376 7.67113125 18 9 C17.01 10.32 16.02 11.64 15 13 C11.87729974 11.58884686 9.50346319 9.889376 6.9375 7.625 C6.26589844 7.03976563 5.59429687 6.45453125 4.90234375 5.8515625 C3.02458589 4.0239296 1.51050393 2.13635135 0 0 Z " fill="#8B3A60" transform="translate(152,127)"/>
<path d="M0 0 C4.29624811 4.29624811 3.28606796 10.68626515 3.33007812 16.41186523 C3.25093376 22.56995652 1.99189751 27.56382907 -1 33 C-2.07564122 29.77307635 -1.94287344 29.12168048 -1.0703125 26.00390625 C0.22981225 20.61221243 0.22488521 15.4580787 0.125 9.9375 C0.11146484 8.49600586 0.11146484 8.49600586 0.09765625 7.02539062 C0.07435208 4.68332195 0.04164058 2.34180208 0 0 Z " fill="#CF596A" transform="translate(187,85)"/>
<path d="M0 0 C0 0.99 0 1.98 0 3 C-1.8871875 2.5359375 -1.8871875 2.5359375 -3.8125 2.0625 C-12.08619337 0.37423551 -20.58569955 0.32827866 -29 0 C-29 -0.33 -29 -0.66 -29 -1 C-19.51761764 -3.26201869 -9.32428709 -2.61734374 0 0 Z " fill="#0E1722" transform="translate(196,4)"/>
<path d="M0 0 C0.33 0 0.66 0 1 0 C1.33 4.95 1.66 9.9 2 15 C-3.625 9.375 -3.625 9.375 -5.3125 5.6875 C-5.63863281 4.99011719 -5.96476562 4.29273437 -6.30078125 3.57421875 C-6.53152344 3.05472656 -6.76226562 2.53523438 -7 2 C-6.34 2 -5.68 2 -5 2 C-5 2.66 -5 3.32 -5 4 C-1.72226496 3.24849977 -1.72226496 3.24849977 0 0 Z " fill="#78ABD5" transform="translate(91,112)"/>
<path d="M0 0 C0 0.99 0 1.98 0 3 C-1 4 -2 5 -3 6 C-4.04425771 8.39565005 -4.92554554 10.73196396 -5.625 13.25 C-7.39392846 15.5013635 -8.34125351 15.39713073 -11.125 15.75 C-12.40375 15.8325 -13.6825 15.915 -15 16 C-10.30233025 10.33870569 -5.25276628 5.14771096 0 0 Z " fill="#B84A55" transform="translate(67,13)"/>
<path d="M0 0 C0.33 1.32 0.66 2.64 1 4 C0.40316406 3.79503906 -0.19367188 3.59007812 -0.80859375 3.37890625 C-9.48758607 0.68364712 -17.9861037 0.30645134 -27 0 C-27 -0.33 -27 -0.66 -27 -1 C-17.9087342 -3.02028129 -8.9213716 -2.37903243 0 0 Z " fill="#300F11" transform="translate(114,4)"/>
<path d="M0 0 C9.77253227 1.64900633 16.53018458 6.71693962 23 14 C22.01 14.33 21.02 14.66 20 15 C19.67 14.01 19.34 13.02 19 12 C17.63875 11.938125 17.63875 11.938125 16.25 11.875 C13 11 13 11 11.1875 8.1875 C8.23192229 3.88080105 4.79447449 2.74158262 0 1 C0 0.67 0 0.34 0 0 Z " fill="#D55D6A" transform="translate(106,5)"/>
<path d="M0 0 C3.62351253 1.20783751 4.15215236 2.29653142 6.1875 5.4375 C6.71730469 6.24058594 7.24710938 7.04367188 7.79296875 7.87109375 C9 10 9 10 9 12 C8.21625 11.67 7.4325 11.34 6.625 11 C4.15667503 9.88133489 4.15667503 9.88133489 2 10 C1.67 11.32 1.34 12.64 1 14 C0.67 9.38 0.34 4.76 0 0 Z " fill="#D15366" transform="translate(178,70)"/>
<path d="M0 0 C5.78294978 4.57816858 11.08882191 9.68779314 15 16 C14.67 16.99 14.34 17.98 14 19 C10 14.25 10 14.25 10 12 C9.278125 11.835 8.55625 11.67 7.8125 11.5 C3.78229342 9.35055649 1.98066087 6.04560517 0 2 C0 1.34 0 0.68 0 0 Z " fill="#9A365A" transform="translate(118,153)"/>
<path d="M0 0 C3 2 3 2 3.47998047 4.35083008 C3.62824714 7.50479463 3.77195237 10.65666631 3.875 13.8125 C3.93429688 14.90626953 3.99359375 16.00003906 4.0546875 17.12695312 C4.0959375 18.18462891 4.1371875 19.24230469 4.1796875 20.33203125 C4.21819824 21.29858643 4.25670898 22.2651416 4.29638672 23.26098633 C3.94253499 26.53105433 2.9662074 28.38562831 1 31 C0.34 31 -0.32 31 -1 31 C-0.67386719 29.85789062 -0.34773437 28.71578125 -0.01171875 27.5390625 C1.09718216 23.09367157 1.26544966 18.93710646 1.1875 14.375 C1.18685547 13.65054688 1.18621094 12.92609375 1.18554688 12.1796875 C1.15163286 8.01956784 0.80771142 4.09671233 0 0 Z " fill="#300C0F" transform="translate(188,85)"/>
<path d="M0 0 C0.99 0.33 1.98 0.66 3 1 C3 1.66 3 2.32 3 3 C3.639375 3.20625 4.27875 3.4125 4.9375 3.625 C5.618125 4.07875 6.29875 4.5325 7 5 C7.33333333 7 7.66666667 9 8 11 C9.95163118 12.43637698 9.95163118 12.43637698 12 13 C11.67 13.66 11.34 14.32 11 15 C9.53792657 13.73347137 8.08047074 12.46161082 6.625 11.1875 C5.81289062 10.47980469 5.00078125 9.77210937 4.1640625 9.04296875 C2 7 2 7 0 4 C0 2.68 0 1.36 0 0 Z " fill="#4C4A75" transform="translate(137,24)"/>
<path d="M0 0 C0.99 0 1.98 0 3 0 C1.5750006 4.63973018 -1.08809169 7.51079544 -4.5 10.8125 C-4.99886719 11.31458984 -5.49773437 11.81667969 -6.01171875 12.33398438 C-9.73259991 16 -9.73259991 16 -12 16 C-12 15.34 -12 14.68 -12 14 C-11.34 14 -10.68 14 -10 14 C-9.67 12.35 -9.34 10.7 -9 9 C-8.360625 8.896875 -7.72125 8.79375 -7.0625 8.6875 C-6.0415625 8.3471875 -6.0415625 8.3471875 -5 8 C-4.67 7.01 -4.34 6.02 -4 5 C-3.01 5 -2.02 5 -1 5 C-0.67 3.35 -0.34 1.7 0 0 Z " fill="#CE5A6B" transform="translate(181,120)"/>
<path d="M0 0 C0.33 0.66 0.66 1.32 1 2 C0.67 2.66 0.34 3.32 0 4 C-0.66 4 -1.32 4 -2 4 C-2.21398437 4.71542969 -2.42796875 5.43085938 -2.6484375 6.16796875 C-4.32572686 9.68252015 -6.72204807 11.82583432 -9.625 14.3125 C-10.140625 14.76689453 -10.65625 15.22128906 -11.1875 15.68945312 C-12.4512443 16.80108006 -13.72467176 17.9016822 -15 19 C-15.66 18.67 -16.32 18.34 -17 18 C-16.15695313 17.16855469 -15.31390625 16.33710938 -14.4453125 15.48046875 C-13.33840925 14.38294603 -12.2316457 13.28528241 -11.125 12.1875 C-10.56941406 11.64029297 -10.01382813 11.09308594 -9.44140625 10.52929688 C-8.90644531 9.99755859 -8.37148437 9.46582031 -7.8203125 8.91796875 C-7.32805176 8.43094482 -6.83579102 7.9439209 -6.32861328 7.44213867 C-4.77411511 5.82996499 -4.77411511 5.82996499 -3 3 C-2.34 3 -1.68 3 -1 3 C-0.67 2.01 -0.34 1.02 0 0 Z " fill="#050C1D" transform="translate(249,137)"/>
<path d="M0 0 C0.99 0.33 1.98 0.66 3 1 C3.02712351 3.39591038 3.0468982 5.79150957 3.0625 8.1875 C3.07087891 8.86103516 3.07925781 9.53457031 3.08789062 10.22851562 C3.10612839 13.96725687 2.82136887 17.35881361 2 21 C2 21.99 2 22.98 2 24 C0.68 23.01 -0.64 22.02 -2 21 C-1.7834375 20.443125 -1.566875 19.88625 -1.34375 19.3125 C1.02779125 12.81272028 2.26497642 6.79492925 0 0 Z " fill="#88334B" transform="translate(138,90)"/>
<path d="M0 0 C0 4.04392968 -1.48091251 5.00131618 -4.1875 7.9375 C-4.96480469 8.79214844 -5.74210938 9.64679688 -6.54296875 10.52734375 C-8.90213668 12.90151434 -11.34467268 14.9672361 -14 17 C-14.66 16.67 -15.32 16.34 -16 16 C-10.72 10.72 -5.44 5.44 0 0 Z " fill="#72ACDA" transform="translate(213,113)"/>
<path d="M0 0 C1.08819402 3.52592 0.60269553 5.39096554 -0.51074219 8.89501953 C-1.50417453 13.16915807 -1.20253889 17.57444617 -1.125 21.9375 C-1.11597656 22.90751953 -1.10695312 23.87753906 -1.09765625 24.87695312 C-1.07426107 27.25156407 -1.04148176 29.62564776 -1 32 C-1.33 32 -1.66 32 -2 32 C-3.20240145 27.23887815 -3.21962616 22.56629881 -3.25 17.6875 C-3.2809375 16.46256836 -3.2809375 16.46256836 -3.3125 15.21289062 C-3.34914803 9.46373122 -2.3046816 5.27044292 0 0 Z " fill="#B0575D" transform="translate(5,80)"/>
<path d="M0 0 C0.33 0.99 0.66 1.98 1 3 C-2.61973402 4.31626692 -5.09567131 5 -9 5 C-9.33 5.99 -9.66 6.98 -10 8 C-10.99 8 -11.98 8 -13 8 C-12.7734375 6.140625 -12.7734375 6.140625 -12 4 C-10.0390625 2.734375 -10.0390625 2.734375 -7.625 1.75 C-6.83351563 1.41484375 -6.04203125 1.0796875 -5.2265625 0.734375 C-3 0 -3 0 0 0 Z " fill="#DC566D" transform="translate(86,4)"/>
<path d="M0 0 C0.33 0.99 0.66 1.98 1 3 C-0.3921875 3.680625 -0.3921875 3.680625 -1.8125 4.375 C-5.03921389 5.9421633 -5.03921389 5.9421633 -8 8 C-9.65 7.01 -11.3 6.02 -13 5 C-12.67 4.34 -12.34 3.68 -12 3 C-9.78515625 2.40234375 -9.78515625 2.40234375 -7.0625 1.9375 C-3.41227791 1.33194533 -3.41227791 1.33194533 0 0 Z " fill="#A02C3F" transform="translate(103,141)"/>
<path d="M0 0 C0.66 0.99 1.32 1.98 2 3 C1.125 6.1875 1.125 6.1875 0 9 C0.66 9.66 1.32 10.32 2 11 C1.67 11.66 1.34 12.32 1 13 C1.21236235 15.32298405 1.57861044 17.60230958 1.94140625 19.90625 C1.96074219 20.5971875 1.98007813 21.288125 2 22 C1.34 22.66 0.68 23.32 0 24 C-0.39277143 21.31404768 -0.76451095 18.62781643 -1.125 15.9375 C-1.23714844 15.18533203 -1.34929687 14.43316406 -1.46484375 13.65820312 C-2.13334617 8.51073451 -1.75460735 4.89340494 0 0 Z " fill="#689FC7" transform="translate(82,86)"/>
<path d="M0 0 C5.94 0 11.88 0 18 0 C18 0.33 18 0.66 18 1 C15.36 1 12.72 1 10 1 C10 1.66 10 2.32 10 3 C7.69 2.67 5.38 2.34 3 2 C3 2.66 3 3.32 3 4 C0.69 4 -1.62 4 -4 4 C-2.68 3.34 -1.36 2.68 0 2 C0 1.34 0 0.68 0 0 Z " fill="#DD586E" transform="translate(86,4)"/>
<path d="M0 0 C0.33 0.66 0.66 1.32 1 2 C-0.1446875 3.3303125 -0.1446875 3.3303125 -1.3125 4.6875 C-3.0154983 6.6997019 -4.20231217 8.38703197 -5.4375 10.75 C-7.5183346 13.74640183 -9.53342668 14.15261541 -13 15 C-12.236875 14.278125 -11.47375 13.55625 -10.6875 12.8125 C-7.99787607 10.20464401 -7.99787607 10.20464401 -6.5 7.5 C-4.71475177 4.52458628 -2.51174496 2.37597496 0 0 Z " fill="#6CAAD6" transform="translate(196,130)"/>
<path d="M0 0 C6.07328688 -0.50610724 9.77228537 0.95842058 15 4 C15 4.33 15 4.66 15 5 C6.22421525 5.76681614 6.22421525 5.76681614 3.22265625 3.88671875 C1.875 2.5 1.875 2.5 0 0 Z " fill="#1F0306" transform="translate(84,139)"/>
<path d="M0 0 C0.99 1.32 1.98 2.64 3 4 C1.125 7.875 1.125 7.875 0 9 C0.99 9.33 1.98 9.66 3 10 C2.67 11.98 2.34 13.96 2 16 C1.34 16 0.68 16 0 16 C-1.87127577 12.14737341 -2.10302844 10.11128782 -1 6 C-0.66055205 4.00102872 -0.32578384 2.00124361 0 0 Z " fill="#A92F4B" transform="translate(141,100)"/>
<path d="M0 0 C1.32 0.33 2.64 0.66 4 1 C0.7 4.3 -2.6 7.6 -6 11 C-7 7 -7 7 -5.8125 4.875 C-3.96979218 2.96875054 -2.43332327 2.00689239 0 1 C0 0.67 0 0.34 0 0 Z " fill="#6895C2" transform="translate(217,166)"/>
<path d="M0 0 C2.67389923 1.9904957 5.33857523 3.99286265 8 6 C8.99 6.7425 9.98 7.485 11 8.25 C11.66 8.8275 12.32 9.405 13 10 C13 10.66 13 11.32 13 12 C11.35 11.67 9.7 11.34 8 11 C7.67 10.01 7.34 9.02 7 8 C6.01 7.67 5.02 7.34 4 7 C3.67 6.34 3.34 5.68 3 5 C2.01 4.67 1.02 4.34 0 4 C0 2.68 0 1.36 0 0 Z " fill="#424D86" transform="translate(156,132)"/>
<path d="M0 0 C0.33 0 0.66 0 1 0 C1.20496094 1.10859375 1.40992187 2.2171875 1.62109375 3.359375 C1.89316462 4.82292867 2.16530362 6.28646967 2.4375 7.75 C2.57220703 8.47960937 2.70691406 9.20921875 2.84570312 9.9609375 C3.47459267 13.33546675 4.14322173 16.67634694 5 20 C3.0625 19.25 3.0625 19.25 1 18 C-0.3966629 14.36867645 -0.09803792 10.58809586 -0.0625 6.75 C-0.05347656 5.48671875 -0.04445313 4.2234375 -0.03515625 2.921875 C-0.02355469 1.95765625 -0.01195313 0.9934375 0 0 Z " fill="#02071B" transform="translate(80,97)"/>
<path d="M0 0 C0.99 0.33 1.98 0.66 3 1 C3.6875 3.0625 3.6875 3.0625 4 5 C2.35 5.66 0.7 6.32 -1 7 C-1 10.63 -1 14.26 -1 18 C-3.48002593 15.51997407 -3.29694693 14.67167487 -3.3125 11.25 C-3.24180906 6.81575025 -2.40454652 3.80719866 0 0 Z " fill="#0D0817" transform="translate(135,88)"/>
<path d="M0 0 C1.03125 0.00322266 2.0625 0.00644531 3.125 0.00976562 C4.74535156 0.02233398 4.74535156 0.02233398 6.3984375 0.03515625 C8.03039062 0.04192383 8.03039062 0.04192383 9.6953125 0.04882812 C12.38807539 0.06063849 15.08072938 0.07710847 17.7734375 0.09765625 C17.7734375 0.42765625 17.7734375 0.75765625 17.7734375 1.09765625 C10.8434375 1.09765625 3.9134375 1.09765625 -3.2265625 1.09765625 C-3.2265625 1.75765625 -3.2265625 2.41765625 -3.2265625 3.09765625 C-5.8665625 3.42765625 -8.5065625 3.75765625 -11.2265625 4.09765625 C-7.1777366 0.99355639 -5.1306813 -0.02819056 0 0 Z " fill="#6693B7" transform="translate(168.2265625,3.90234375)"/>
<path d="M0 0 C0 3.51716303 -0.82445585 4.37121748 -3 7 C-0.09907498 8.93395001 0.89674737 9.30131941 4.1875 9.625 C5.445625 9.74875 6.70375 9.8725 8 10 C8 10.33 8 10.66 8 11 C2.158256 11.35050464 -1.8531808 11.16727335 -7 8 C-6.02133662 6.85373678 -5.04205413 5.70800212 -4.0625 4.5625 C-3.51722656 3.92441406 -2.97195312 3.28632813 -2.41015625 2.62890625 C-1.63204305 1.73008851 -0.84063472 0.84063472 0 0 Z " fill="#150817" transform="translate(173,133)"/>
<path d="M0 0 C2.875 -0.125 2.875 -0.125 6 0 C8 2 8 2 8.125 5.125 C8.08375 6.07375 8.0425 7.0225 8 8 C6.85073734 7.04578192 5.70569459 6.08647955 4.5625 5.125 C3.92441406 4.59132813 3.28632812 4.05765625 2.62890625 3.5078125 C1 2 1 2 0 0 Z " fill="#2D6BA4" transform="translate(105,64)"/>
<path d="M0 0 C13.6332574 -0.55353075 13.6332574 -0.55353075 20 3 C18.68 3.99 17.36 4.98 16 6 C15.67 5.34 15.34 4.68 15 4 C11.32583566 1.35460168 7.32970193 1.6894681 3 2 C0.64470719 2.41731018 0.64470719 2.41731018 -1 3 C-0.67 2.01 -0.34 1.02 0 0 Z " fill="#913144" transform="translate(89,52)"/>
<path d="M0 0 C3.21043882 1.38188453 5.04936365 2.92421903 7.25 5.625 C8.03117188 6.57246094 8.03117188 6.57246094 8.828125 7.5390625 C9.40820312 8.26222656 9.40820312 8.26222656 10 9 C3.50534008 7.65205171 3.50534008 7.65205171 1.0625 4.5 C0 2 0 2 0 0 Z " fill="#BE2849" transform="translate(159,127)"/>
<path d="M0 0 C2.69058425 4.03587637 3.1106465 5.37439701 2.5625 10.125 C2.46066406 11.03507812 2.35882813 11.94515625 2.25390625 12.8828125 C2.17011719 13.58148438 2.08632812 14.28015625 2 15 C1.67 15 1.34 15 1 15 C0.86722656 14.37351562 0.73445312 13.74703125 0.59765625 13.1015625 C0.42105469 12.28429687 0.24445313 11.46703125 0.0625 10.625 C-0.11152344 9.81289062 -0.28554687 9.00078125 -0.46484375 8.1640625 C-0.92330693 5.970537 -0.92330693 5.970537 -2 4 C-1.0625 1.875 -1.0625 1.875 0 0 Z " fill="#000917" transform="translate(218,90)"/>
<path d="M0 0 C6.72143599 1.1762513 9.92565941 5.97429054 14 11 C9.67750434 11 8.11604454 8.85084926 5 6 C4.34 5.01 3.68 4.02 3 3 C2.01 2.67 1.02 2.34 0 2 C0 1.34 0 0.68 0 0 Z " fill="#823B65" transform="translate(104,141)"/>
<path d="M0 0 C0.33 0 0.66 0 1 0 C1.33740085 1.91595482 1.66976412 3.83279722 2 5.75 C2.185625 6.81734375 2.37125 7.8846875 2.5625 8.984375 C3 12 3 12 3 16 C1.68 16.33 0.36 16.66 -1 17 C-0.67 11.39 -0.34 5.78 0 0 Z " fill="#C6505F" transform="translate(50,96)"/>
<path d="M0 0 C0.99 0 1.98 0 3 0 C3 0.66 3 1.32 3 2 C3.99 2.33 4.98 2.66 6 3 C7.4477922 5.89558441 8 7.74188938 8 11 C7.34 11 6.68 11 6 11 C4.74609375 9.35546875 4.74609375 9.35546875 3.4375 7.1875 C3.00308594 6.47980469 2.56867188 5.77210937 2.12109375 5.04296875 C1 3 1 3 0 0 Z " fill="#9F334A" transform="translate(117,64)"/>
<path d="M0 0 C0.5 2.1875 0.5 2.1875 0 5 C-3.34328097 7.88348242 -6.53746234 10 -11 10 C-9.35718838 8.33035479 -7.71067239 6.6643536 -6.0625 5 C-5.14597656 4.071875 -4.22945312 3.14375 -3.28515625 2.1875 C-1 0 -1 0 0 0 Z " fill="#C95362" transform="translate(37,45)"/>
<path d="M0 0 C1.32 0.33 2.64 0.66 4 1 C4 1.66 4 2.32 4 3 C5.175625 3.3403125 5.175625 3.3403125 6.375 3.6875 C9 5 9 5 10.3125 7.625 C10.6528125 8.800625 10.6528125 8.800625 11 10 C6.50634723 8.18546088 3.60349457 6.98067867 1 2.75 C0.67 1.8425 0.34 0.935 0 0 Z " fill="#3B4878" transform="translate(101,135)"/>
<path d="M0 0 C1.65 0 3.3 0 5 0 C5 0.66 5 1.32 5 2 C8.63 2.66 12.26 3.32 16 4 C12 6 12 6 9.125 5.3125 C6.00515365 4.00216453 2.99711857 2.56991925 0 1 C0 0.67 0 0.34 0 0 Z " fill="#CC5466" transform="translate(71,185)"/>
<path d="M0 0 C0.33 0.66 0.66 1.32 1 2 C-0.87577357 6.06417607 -2.93582393 8.12422643 -7 10 C-7.66 9.67 -8.32 9.34 -9 9 C-6.03 6.03 -3.06 3.06 0 0 Z " fill="#0E1B32" transform="translate(261,125)"/>
<path d="M0 0 C1.29315061 0.95632999 2.58446853 1.91513851 3.875 2.875 C4.59429687 3.40867188 5.31359375 3.94234375 6.0546875 4.4921875 C8 6 8 6 10 8 C7.69 7.67 5.38 7.34 3 7 C3 6.34 3 5.68 3 5 C2.34 5 1.68 5 1 5 C0.67 3.35 0.34 1.7 0 0 Z " fill="#D35469" transform="translate(81,137)"/>
<path d="M0 0 C4.04420651 1.77945087 7.46078487 4.39529673 11 7 C10.67 8.32 10.34 9.64 10 11 C8.5 9.625 8.5 9.625 7 8 C7 7.34 7 6.68 7 6 C6.401875 5.7525 5.80375 5.505 5.1875 5.25 C2.71352479 3.83629988 1.56629745 2.34944617 0 0 Z " fill="#7E3B6A" transform="translate(141,116)"/>
<path d="M0 0 C7.48291572 6.15034169 7.48291572 6.15034169 10 10 C9.01 10 8.02 10 7 10 C6.34 9.01 5.68 8.02 5 7 C2.94074861 6.27617533 2.94074861 6.27617533 1 6 C0.67 4.02 0.34 2.04 0 0 Z " fill="#6D9ABE" transform="translate(234,45)"/>
<path d="M0 0 C2.31 0 4.62 0 7 0 C6.34 1.32 5.68 2.64 5 4 C5.99 4.33 6.98 4.66 8 5 C7.01 6.485 7.01 6.485 6 8 C4.02 5.36 2.04 2.72 0 0 Z " fill="#6AA0CE" transform="translate(139,172)"/>
<path d="M0 0 C1.70884005 1.62339805 3.37446717 3.29319053 5 5 C5 5.66 5 6.32 5 7 C5.66 7 6.32 7 7 7 C6.67 8.32 6.34 9.64 6 11 C5.67 10.01 5.34 9.02 5 8 C4.34 7.731875 3.68 7.46375 3 7.1875 C2.34 6.795625 1.68 6.40375 1 6 C0.25 2.875 0.25 2.875 0 0 Z " fill="#3D4D7F" transform="translate(132,162)"/>
<path d="M0 0 C4.13621084 3.3810038 7.81316569 6.66590534 11 11 C10.01 11 9.02 11 8 11 C6.62926214 9.36395804 5.29944744 7.69321939 4 6 C3.2575 5.46375 2.515 4.9275 1.75 4.375 C1.1725 3.92125 0.595 3.4675 0 3 C0 2.01 0 1.02 0 0 Z " fill="#DB5D6E" transform="translate(52,108)"/>
<path d="M0 0 C7.66742597 5.96583144 7.66742597 5.96583144 9 11 C8.01 11 7.02 11 6 11 C4.95107762 9.36368108 3.95093297 7.69514137 3 6 C2.34 5.67 1.68 5.34 1 5 C0.375 2.4375 0.375 2.4375 0 0 Z " fill="#4C4979" transform="translate(134,108)"/>
<path d="M0 0 C0.66 0 1.32 0 2 0 C1.28571429 8.57142857 1.28571429 8.57142857 -2 12 C-2.20086443 8.28400809 -2.1519437 7.22791555 0 4 C-0.66 4 -1.32 4 -2 4 C-1.34 2.68 -0.68 1.36 0 0 Z " fill="#6BA7D0" transform="translate(266,108)"/>
<path d="M0 0 C1.9375 1.125 1.9375 1.125 4 3 C4.75 6.1875 4.75 6.1875 5 9 C3.68 8.67 2.36 8.34 1 8 C0.40267181 5.23735711 0 2.83967231 0 0 Z " fill="#71A9DD" transform="translate(230,41)"/>
<path d="M0 0 C3.98381075 2.16264012 6.88983545 4.71211176 10 8 C9.01 8.495 9.01 8.495 8 9 C8 8.34 8 7.68 8 7 C6.68 7 5.36 7 4 7 C4 6.01 4 5.02 4 4 C2.68 3.67 1.36 3.34 0 3 C0 2.01 0 1.02 0 0 Z " fill="#689FC7" transform="translate(196,8)"/>
<path d="M0 0 C5 7.5 5 7.5 5 11 C4.01 11.33 3.02 11.66 2 12 C0.00214565 7.8794254 -0.17835515 4.54805635 0 0 Z " fill="#260B0C" transform="translate(4,113)"/>
<path d="M0 0 C1.15518918 0.90484792 2.29885406 1.8244206 3.4375 2.75 C4.07558594 3.26046875 4.71367187 3.7709375 5.37109375 4.296875 C7.18810554 6.19667629 7.60423197 7.43586908 8 10 C7.01 10.33 6.02 10.66 5 11 C4.731875 10.071875 4.46375 9.14375 4.1875 8.1875 C3.06289965 5.1688359 2.29293427 4.0844857 0 2 C0 1.34 0 0.68 0 0 Z " fill="#3F5084" transform="translate(127,80)"/>
<path d="M0 0 C1.32 0 2.64 0 4 0 C4.70074844 3.153368 5 5.72724974 5 9 C2.4510713 7.72553565 2.19358356 6.53636507 1 4 C0.34 3.01 -0.32 2.02 -1 1 C-0.67 0.67 -0.34 0.34 0 0 Z " fill="#2F6EA5" transform="translate(114,71)"/>
<path d="M0 0 C0.99 0.33 1.98 0.66 3 1 C1.8572081 2.16964602 0.71068285 3.33564556 -0.4375 4.5 C-1.07558594 5.1496875 -1.71367188 5.799375 -2.37109375 6.46875 C-4 8 -4 8 -5 8 C-5 6.02 -5 4.04 -5 2 C-4.01 2.495 -4.01 2.495 -3 3 C-2.01 2.01 -1.02 1.02 0 0 Z " fill="#C95059" transform="translate(73,66)"/>
<path d="M0 0 C0.66 0.33 1.32 0.66 2 1 C0.875 3.9375 0.875 3.9375 -1 7 C-4.1875 7.875 -4.1875 7.875 -7 8 C-6.02133662 6.85373678 -5.04205413 5.70800212 -4.0625 4.5625 C-3.51722656 3.92441406 -2.97195312 3.28632812 -2.41015625 2.62890625 C-1.63204305 1.73008851 -0.84063472 0.84063472 0 0 Z " fill="#D85E6E" transform="translate(52,29)"/>
<path d="M0 0 C3.85025879 0.60355408 6.86101159 1.76772603 10.3125 3.5625 C11.19550781 4.01753906 12.07851562 4.47257813 12.98828125 4.94140625 C13.65214844 5.29074219 14.31601563 5.64007813 15 6 C14.34 6.66 13.68 7.32 13 8 C11.96875 7.401875 10.9375 6.80375 9.875 6.1875 C6.63992683 4.33606301 3.35082164 2.63454714 0 1 C0 0.67 0 0.34 0 0 Z " fill="#C8576A" transform="translate(106,5)"/>
<path d="M0 0 C2.1640625 -0.29296875 2.1640625 -0.29296875 4.625 -0.1875 C5.44226563 -0.16042969 6.25953125 -0.13335937 7.1015625 -0.10546875 C8.04128906 -0.05326172 8.04128906 -0.05326172 9 0 C9.33 0.99 9.66 1.98 10 3 C6.04 3 2.08 3 -2 3 C-1.34 2.01 -0.68 1.02 0 0 Z " fill="#21517A" transform="translate(173,51)"/>
<path d="M0 0 C0.66 0 1.32 0 2 0 C2 0.66 2 1.32 2 2 C1.34 2 0.68 2 0 2 C-0.2475 2.7425 -0.495 3.485 -0.75 4.25 C-2.09147301 7.20124062 -3.60905526 8.84814974 -6 11 C-5.55491959 5.95575532 -3.39019075 3.55556591 0 0 Z " fill="#E95A69" transform="translate(69,12)"/>
<path d="M0 0 C1.14926266 0.95421808 2.29430541 1.91352045 3.4375 2.875 C4.07558594 3.40867187 4.71367187 3.94234375 5.37109375 4.4921875 C7 6 7 6 8 8 C6.68 8.33 5.36 8.66 4 9 C3.71125 8.38125 3.4225 7.7625 3.125 7.125 C2.06279958 4.86674235 2.06279958 4.86674235 0 3 C0 2.01 0 1.02 0 0 Z " fill="#040E19" transform="translate(208,79)"/>
<path d="M0 0 C1.67542976 0.28604898 3.34385343 0.61781233 5 1 C4.67 2.65 4.34 4.3 4 6 C2.35 4.35 0.7 2.7 -1 1 C-0.67 0.67 -0.34 0.34 0 0 Z " fill="#010305" transform="translate(93,132)"/>
<path d="M0 0 C2.3125 0.1875 2.3125 0.1875 5 1 C6.875 3.4375 6.875 3.4375 8 6 C7.67 6.66 7.34 7.32 7 8 C5.83035398 6.8572081 4.66435444 5.71068285 3.5 4.5625 C2.8503125 3.92441406 2.200625 3.28632812 1.53125 2.62890625 C0 1 0 1 0 0 Z " fill="#66A0CE" transform="translate(198,68)"/>
<path d="M0 0 C1.32 0.33 2.64 0.66 4 1 C4 1.99 4 2.98 4 4 C4.99 4 5.98 4 7 4 C6.67 5.32 6.34 6.64 6 8 C4.99403703 7.0479279 3.99538437 6.08812654 3 5.125 C2.443125 4.59132813 1.88625 4.05765625 1.3125 3.5078125 C0 2 0 2 0 0 Z " fill="#320E0F" transform="translate(53,107)"/>
<path d="M0 0 C1.60080151 4.00200378 0.29279692 7.04556236 -1 11 C-1.66 11 -2.32 11 -3 11 C-2.69078116 9.54096742 -2.37751201 8.08279278 -2.0625 6.625 C-1.88847656 5.81289062 -1.71445312 5.00078125 -1.53515625 4.1640625 C-1 2 -1 2 0 0 Z " fill="#9D3B48" transform="translate(5,80)"/>
<path d="M0 0 C0.33 0.66 0.66 1.32 1 2 C-0.8125 4.5 -0.8125 4.5 -3 7 C-3.99 7 -4.98 7 -6 7 C-4.60667426 3.63279613 -3.0210714 2.0140476 0 0 Z " fill="#5B93C1" transform="translate(97,65)"/>
<path d="M0 0 C0.33 0.66 0.66 1.32 1 2 C-0.125 4.5625 -0.125 4.5625 -2 7 C-4.6875 7.8125 -4.6875 7.8125 -7 8 C-6.02133662 6.85373678 -5.04205413 5.70800212 -4.0625 4.5625 C-3.51722656 3.92441406 -2.97195312 3.28632812 -2.41015625 2.62890625 C-1.63204305 1.73008851 -0.84063472 0.84063472 0 0 Z " fill="#D05D6B" transform="translate(44,37)"/>
<path d="M0 0 C0.33 0.99 0.66 1.98 1 3 C-2.63 3.33 -6.26 3.66 -10 4 C-4.66666667 0 -4.66666667 0 0 0 Z " fill="#9D3E4B" transform="translate(86,4)"/>
<path d="M0 0 C0.66 0 1.32 0 2 0 C1.375 2.375 1.375 2.375 0 5 C-3.125 6.3125 -3.125 6.3125 -6 7 C-5.04882866 5.8274869 -4.08882991 4.66212985 -3.125 3.5 C-2.59132812 2.8503125 -2.05765625 2.200625 -1.5078125 1.53125 C-0.76144531 0.77328125 -0.76144531 0.77328125 0 0 Z " fill="#250D19" transform="translate(135,170)"/>
<path d="M0 0 C1.14926266 0.95421808 2.29430541 1.91352045 3.4375 2.875 C4.07558594 3.40867188 4.71367188 3.94234375 5.37109375 4.4921875 C7 6 7 6 8 8 C6.35 7.67 4.7 7.34 3 7 C3 6.01 3 5.02 3 4 C2.01 3.67 1.02 3.34 0 3 C0 2.01 0 1.02 0 0 Z " fill="#D65969" transform="translate(73,129)"/>
<path d="M0 0 C0.33 0 0.66 0 1 0 C1 2.64 1 5.28 1 8 C-1.475 7.01 -1.475 7.01 -4 6 C-2.69593116 3.98079663 -1.36176581 1.98075027 0 0 Z " fill="#61A8DE" transform="translate(91,112)"/>
<path d="M0 0 C1.25360525 3.76081574 0.83902226 6.15448132 0 10 C-0.99 10.66 -1.98 11.32 -3 12 C-2.88541307 10.56163249 -2.75790884 9.12429034 -2.625 7.6875 C-2.55539063 6.88699219 -2.48578125 6.08648437 -2.4140625 5.26171875 C-2 3 -2 3 0 0 Z " fill="#CB5369" transform="translate(8,75)"/>
<path d="M0 0 C0 0.99 0 1.98 0 3 C0.66 3.66 1.32 4.32 2 5 C1.01 5 0.02 5 -1 5 C-1.33 5.66 -1.66 6.32 -2 7 C-3.32 6.67 -4.64 6.34 -6 6 C-4.02 4.02 -2.04 2.04 0 0 Z " fill="#B73A4A" transform="translate(25,56)"/>
<path d="M0 0 C1.32 0.33 2.64 0.66 4 1 C0.535 3.97 0.535 3.97 -3 7 C-2 3 -2 3 0 0 Z " fill="#C65960" transform="translate(84,54)"/>
<path d="M0 0 C1.65 0 3.3 0 5 0 C3.75 2 3.75 2 2 4 C0.68 4 -0.64 4 -2 4 C-1.34 2.68 -0.68 1.36 0 0 Z " fill="#69A2C5" transform="translate(204,178)"/>
<path d="M0 0 C1.32 0 2.64 0 4 0 C2.99796679 3.00609963 2.39971554 4.06176821 0 6 C-0.99 6 -1.98 6 -3 6 C-2.67 5.01 -2.34 4.02 -2 3 C-1.34 3 -0.68 3 0 3 C0 2.01 0 1.02 0 0 Z " fill="#749CC7" transform="translate(248,134)"/>
<path d="M0 0 C1.32 0.33 2.64 0.66 4 1 C4 1.66 4 2.32 4 3 C4.99 3.33 5.98 3.66 7 4 C7.33 5.65 7.66 7.3 8 9 C5.06799526 6.14723863 2.35684596 3.34920216 0 0 Z " fill="#679FC7" transform="translate(210,80)"/>
<path d="M0 0 C0.33 0 0.66 0 1 0 C1.1875 2.875 1.1875 2.875 1 6 C0.01 6.66 -0.98 7.32 -2 8 C-2.6875 6.25 -2.6875 6.25 -3 4 C-1.625 1.75 -1.625 1.75 0 0 Z " fill="#E15A66" transform="translate(67,69)"/>
<path d="M0 0 C2.125 0.9375 2.125 0.9375 4 2 C3.67 3.32 3.34 4.64 3 6 C1.0625 5.1875 1.0625 5.1875 -1 4 C-1.33 3.01 -1.66 2.02 -2 1 C-1.34 0.67 -0.68 0.34 0 0 Z " fill="#9E364D" transform="translate(133,24)"/>
<path d="M0 0 C2.475 0.495 2.475 0.495 5 1 C5 2.65 5 4.3 5 6 C3.2925002 4.71937515 1.62626404 3.38232443 0 2 C0 1.34 0 0.68 0 0 Z " fill="#DC5672" transform="translate(59,173)"/>
<path d="M0 0 C0.33 0.99 0.66 1.98 1 3 C-0.32 4.32 -1.64 5.64 -3 7 C-3.99 6.67 -4.98 6.34 -6 6 C-4.02 4.02 -2.04 2.04 0 0 Z " fill="#000415" transform="translate(231,156)"/>
<path d="M0 0 C4.455 0.99 4.455 0.99 9 2 C8.01 2.33 7.02 2.66 6 3 C6 3.66 6 4.32 6 5 C3.5625 4.1875 3.5625 4.1875 1 3 C0.67 2.01 0.34 1.02 0 0 Z " fill="#2A4772" transform="translate(169,142)"/>
<path d="M0 0 C0.66 0.33 1.32 0.66 2 1 C-0.97 3.475 -0.97 3.475 -4 6 C-4.66 5.34 -5.32 4.68 -6 4 C-5.34 4 -4.68 4 -4 4 C-3.67 3.01 -3.34 2.02 -3 1 C-2.01 0.67 -1.02 0.34 0 0 Z " fill="#72ACDA" transform="translate(256,128)"/>
<path d="M0 0 C1.32 0 2.64 0 4 0 C4.103125 0.639375 4.20625 1.27875 4.3125 1.9375 C4.539375 2.618125 4.76625 3.29875 5 4 C5.99 4.33 6.98 4.66 8 5 C7.67 5.66 7.34 6.32 7 7 C5.83040013 6.02433888 4.66438823 5.044375 3.5 4.0625 C2.8503125 3.51722656 2.200625 2.97195312 1.53125 2.41015625 C1.0259375 1.94480469 0.520625 1.47945312 0 1 C0 0.67 0 0.34 0 0 Z " fill="#29456F" transform="translate(93,128)"/>
<path d="M0 0 C3.25543229 0.34879632 4.01873107 1.02133261 6.25 3.5625 C6.8275 4.366875 7.405 5.17125 8 6 C5.6875 5.8125 5.6875 5.8125 3 5 C1.1875 2.4375 1.1875 2.4375 0 0 Z " fill="#DC5A6F" transform="translate(65,123)"/>
<path d="M0 0 C2.375 0.25 2.375 0.25 5 1 C6.3125 3.0625 6.3125 3.0625 7 5 C3 5 3 5 1.25 3.625 C0 2 0 2 0 0 Z " fill="#6AA4C6" transform="translate(253,67)"/>
<path d="M0 0 C3.83736322 0.95934081 4.59660228 1.23609263 7 4 C6.67 4.99 6.34 5.98 6 7 C4.02 4.69 2.04 2.38 0 0 Z " fill="#010A18" transform="translate(239,49)"/>
<path d="M0 0 C3.3 0 6.6 0 10 0 C10 0.99 10 1.98 10 3 C6.7 2.34 3.4 1.68 0 1 C0 0.67 0 0.34 0 0 Z " fill="#031022" transform="translate(186,4)"/>
<path d="M0 0 C3.34373475 0.55728913 6.03312999 1.35173889 9 3 C8.67 3.66 8.34 4.32 8 5 C4.62496331 3.8141763 2.35277269 2.72426311 0 0 Z " fill="#639BC9" transform="translate(148,182)"/>
<path d="M0 0 C2.475 0.495 2.475 0.495 5 1 C5 1.99 5 2.98 5 4 C5.66 4 6.32 4 7 4 C6.67 4.66 6.34 5.32 6 6 C3.97945196 4.35830472 1.97956942 2.69088222 0 1 C0 0.67 0 0.34 0 0 Z " fill="#C45662" transform="translate(64,179)"/>
<path d="M0 0 C2.0625 0.4375 2.0625 0.4375 4 1 C1.03 3.475 1.03 3.475 -2 6 C-1.125 1.125 -1.125 1.125 0 0 Z " fill="#D56277" transform="translate(129,172)"/>
<path d="M0 0 C0.33 0.99 0.66 1.98 1 3 C0.01 4.485 0.01 4.485 -1 6 C-2.32 5.67 -3.64 5.34 -5 5 C-3.35 3.35 -1.7 1.7 0 0 Z " fill="#000319" transform="translate(221,166)"/>
<path d="M0 0 C-1.65 1.32 -3.3 2.64 -5 4 C-5.33 2.68 -5.66 1.36 -6 0 C-3.50907189 -1.24546405 -2.58919267 -0.7767578 0 0 Z " fill="#5F98BE" transform="translate(226,162)"/>
<path d="M0 0 C1.32 0.33 2.64 0.66 4 1 C1.03 3.475 1.03 3.475 -2 6 C-2 4.68 -2 3.36 -2 2 C-1.34 2 -0.68 2 0 2 C0 1.34 0 0.68 0 0 Z " fill="#6693BB" transform="translate(228,155)"/>
<path d="M0 0 C0 3 0 3 -1.3125 4.38671875 C-2.875 5.59114583 -4.4375 6.79557292 -6 8 C-6 6.68 -6 5.36 -6 4 C-3 1.75 -3 1.75 0 0 Z " fill="#3C638A" transform="translate(188,138)"/>
<path d="M0 0 C3.65316671 1.24976756 4.78065836 1.67098753 7 5 C6.34 5.66 5.68 6.32 5 7 C0 1.125 0 1.125 0 0 Z " fill="#091628" transform="translate(216,25)"/>
<path d="M0 0 C1.65 0.99 3.3 1.98 5 3 C4.01 3.66 3.02 4.32 2 5 C0.68 4.34 -0.64 3.68 -2 3 C-1.34 2.67 -0.68 2.34 0 2 C0 1.34 0 0.68 0 0 Z " fill="#040000" transform="translate(122,8)"/>
</svg>
