<?xml version="1.0" encoding="UTF-8"?>
<svg version="1.1" xmlns="http://www.w3.org/2000/svg" width="400" height="400">
<path d="M0 0 C12.24688089 0.5713319 24.48575449 0.77181681 36.74514771 0.72781372 C38.58122337 0.72177124 38.58122337 0.72177124 40.45439148 0.71560669 C45.37570587 0.69628208 50.29685149 0.67310326 55.21801758 0.62960815 C66.99034434 0.52561827 78.70084178 0.50147748 90.43655396 1.54031372 C91.27548691 1.61015976 92.11441986 1.6800058 92.97877502 1.75196838 C99.19485967 2.38892949 104.55134723 3.53652014 109.05764771 8.16140747 C111.45931884 11.94865811 111.80872733 15.05548597 111.78030396 19.48953247 C111.7770813 20.3789856 111.77385864 21.26843872 111.77053833 22.18484497 C111.76215942 23.1052356 111.75378052 24.02562622 111.74514771 24.97390747 C111.74063599 25.90976685 111.73612427 26.84562622 111.73147583 27.80984497 C111.71971689 30.11459788 111.70328196 32.41921974 111.68264771 34.72390747 C112.72807739 34.24695435 113.77350708 33.77000122 114.85061646 33.27859497 C122.21523513 30.13581475 129.7717626 29.92447743 137.32717896 32.59109497 C143.61779701 35.61643367 148.54100151 40.31157254 151.05764771 46.88406372 C154.14436955 60.90935608 151.09459864 74.29462969 143.43655396 86.29031372 C129.3435374 105.84476653 106.54147236 122.06237438 82.45852661 126.09646606 C81.67268188 126.21457642 80.88683716 126.33268677 80.07717896 126.45437622 C79.27763794 126.5745813 78.47809692 126.69478638 77.65432739 126.81863403 C76.08888389 127.04136231 74.52035856 127.24372083 72.94924927 127.42214966 C67.35828195 128.17902717 64.76316609 129.83126906 60.68264771 133.72390747 C59.50702271 134.47220825 59.50702271 134.47220825 58.30764771 135.23562622 C56.44222871 136.61587842 56.44222871 136.61587842 56.43264771 138.99343872 C56.51514771 139.83261841 56.59764771 140.6717981 56.68264771 141.53640747 C56.90840901 146.68376522 56.05041346 148.86088205 52.68264771 152.72390747 C52.02264771 153.05390747 51.36264771 153.38390747 50.68264771 153.72390747 C50.92710676 162.20663654 51.21990803 170.28096536 55.68264771 177.72390747 C58.02458529 179.79819505 59.94504403 180.49495113 62.89749146 181.41140747 C69.34302059 183.41714749 69.34302059 183.41714749 71.62014771 185.47390747 C72.68264771 187.72390747 72.68264771 187.72390747 73.30764771 191.28640747 C74.28508258 194.80827788 74.28508258 194.80827788 76.80764771 195.84109497 C79.08674212 196.58892283 81.35012821 197.1727376 83.68264771 197.72390747 C85.85321898 205.87916087 86.0550963 213.9788445 86.05325317 222.35769653 C86.05768107 224.61592126 86.09426755 226.87226989 86.13186646 229.13015747 C86.13772648 230.57546337 86.14170131 232.02077842 86.14358521 233.46609497 C86.15180298 234.76401978 86.16002075 236.06194458 86.16848755 237.39920044 C85.60454403 241.25838777 84.75373852 242.40810165 81.68264771 244.72390747 C79.35842896 245.51687622 79.35842896 245.51687622 76.99514771 245.91140747 C74.05150662 246.24079473 74.05150662 246.24079473 71.68264771 247.72390747 C72.14413208 248.11320435 72.60561646 248.50250122 73.08108521 248.90359497 C75.30903757 250.81452644 77.50002842 252.7613246 79.68264771 254.72390747 C80.46510864 255.42644653 81.24756958 256.1289856 82.05374146 256.85281372 C91.91425369 266.17691409 99.22663713 277.37280632 105.37014771 289.41140747 C105.70933228 290.07027954 106.04851685 290.72915161 106.39797974 291.4079895 C108.13904173 294.97961165 109.08643085 297.73940592 108.68264771 301.72390747 C107.03264771 301.72390747 105.38264771 301.72390747 103.68264771 301.72390747 C103.18635864 300.70812622 102.69006958 299.69234497 102.17874146 298.64578247 C90.53077589 274.96274137 78.18303433 256.28069361 53.68264771 244.72390747 C53.89921021 245.65009888 53.89921021 245.65009888 54.12014771 246.59500122 C55.40240761 252.44531202 55.87572866 257.73839784 55.68264771 263.72390747 C54.36264771 263.72390747 53.04264771 263.72390747 51.68264771 263.72390747 C48.86637413 256.88438592 47.23503538 249.94636362 45.68264771 242.72390747 C38.94031352 242.59479894 32.37877967 242.92607047 25.68264771 243.72390747 C25.97139771 244.85828247 26.26014771 245.99265747 26.55764771 247.16140747 C26.93313257 248.68212117 27.30810524 250.20296139 27.68264771 251.72390747 C27.87342896 252.46769653 28.06421021 253.2114856 28.26077271 253.97781372 C29.49012569 259.02694205 29.87159293 263.52791389 29.68264771 268.72390747 C27.84671021 268.57546997 27.84671021 268.57546997 25.68264771 267.72390747 C24.26858521 265.24734497 24.26858521 265.24734497 23.05764771 262.09890747 C22.63870239 261.0186731 22.21975708 259.93843872 21.78811646 258.82546997 C20.59472803 255.47723532 19.54442632 252.17102192 18.68264771 248.72390747 C13.41993245 250.11697916 10.60993587 253.33297522 7.68264771 257.72390747 C1.66881172 269.43742382 4.99371829 281.84932446 8.68264771 293.72390747 C9.07710083 294.7371106 9.47155396 295.75031372 9.87796021 296.79421997 C10.84205032 300.30425678 10.80445002 302.26034282 9.68264771 305.72390747 C7.43264771 308.02468872 7.43264771 308.02468872 4.68264771 310.03640747 C3.77514771 310.71316528 2.86764771 311.3899231 1.93264771 312.08718872 C1.19014771 312.62730591 0.44764771 313.1674231 -0.31735229 313.72390747 C-0.64735229 314.05390747 -0.97735229 314.38390747 -1.31735229 314.72390747 C-1.3541248 318.86585069 -1.3541248 318.86585069 -0.31735229 322.72390747 C4.96891665 327.09186686 10.57586981 328.12177429 17.12405396 329.59890747 C20.82869776 330.77007917 22.92464188 332.01754969 25.68264771 334.72390747 C26.49514771 337.47390747 26.49514771 337.47390747 26.68264771 339.72390747 C24.43264771 340.47390747 24.43264771 340.47390747 21.68264771 340.72390747 C21.15026489 340.12191528 20.61788208 339.5199231 20.06936646 338.89968872 C16.68132573 335.81108204 13.13332757 335.20822628 8.74514771 334.16140747 C-1.40774407 331.67849689 -1.40774407 331.67849689 -5.31735229 328.72390747 C-8.27793595 323.51736381 -8.96532171 319.55563221 -8.31735229 313.72390747 C-5.64648823 308.15960733 -1.28721804 305.12561169 3.68264771 301.72390747 C3.50088989 301.11546997 3.31913208 300.50703247 3.13186646 299.88015747 C1.48718026 294.1448415 0.12991205 288.39077549 -1.00485229 282.53640747 C-1.25621948 281.24347778 -1.50758667 279.9505481 -1.76657104 278.61843872 C-3.21007981 268.41150084 -2.30878024 259.4046068 3.76858521 250.87234497 C7.94799578 246.18116983 13.39371515 241.88315771 19.68264771 240.72390747 C15.70696662 233.93211896 9.81745093 228.18938332 2.68264771 224.72390747 C1.69264771 224.72390747 0.70264771 224.72390747 -0.31735229 224.72390747 C-0.84844604 225.74871216 -1.37953979 226.77351685 -1.92672729 227.82937622 C-2.63998719 229.19020103 -3.35354467 230.55086989 -4.06735229 231.91140747 C-4.41539917 232.58494263 -4.76344604 233.25847778 -5.12203979 233.9524231 C-10.4395285 244.04580443 -10.4395285 244.04580443 -14.56735229 245.53640747 C-15.14485229 245.59828247 -15.72235229 245.66015747 -16.31735229 245.72390747 C-17.92967607 240.88693613 -15.39398269 237.19570743 -13.31735229 232.72390747 C-11.3955883 229.01130258 -9.38839633 225.35513801 -7.31735229 221.72390747 C-18.69781346 221.09165963 -28.5203231 224.98760563 -37.21969604 232.32937622 C-44.18287174 239.48202608 -48.61839127 249.7576443 -51.86422729 259.09890747 C-53.31735229 262.72390747 -53.31735229 262.72390747 -56.31735229 264.72390747 C-58.81568328 264.92286443 -61.25399402 265.05095237 -63.75485229 265.09890747 C-69.15807778 265.10606165 -69.15807778 265.10606165 -73.74313354 267.57156372 C-75.46521479 269.92607183 -76.12118324 271.65351071 -75.98141479 274.59500122 C-74.71577514 278.65249305 -71.88594876 281.7940144 -69.26266479 285.07546997 C-66.4157565 288.95138126 -65.27594473 291.52308808 -65.44235229 296.34890747 C-66.30125825 301.57225412 -67.59358213 307.16559799 -70.31735229 311.72390747 C-72.95797729 312.54031372 -72.95797729 312.54031372 -75.31735229 312.72390747 C-76.70733283 308.99980869 -75.87472961 306.94265293 -74.37985229 303.34890747 C-72.68705991 299.27472919 -71.81355953 296.15259736 -72.31735229 291.72390747 C-73.69761784 289.16720343 -73.69761784 289.16720343 -75.62985229 286.84890747 C-79.68391624 281.35577418 -82.73692245 276.55109607 -82.31735229 269.53640747 C-81.16843442 265.15615808 -79.84448108 263.49522295 -76.31735229 260.72390747 C-72.02765095 259.29400702 -67.74600905 259.28578571 -63.25094604 259.00515747 C-60.38569483 258.90800086 -60.38569483 258.90800086 -58.31735229 257.72390747 C-57.52656364 255.62106123 -56.81026935 253.49001505 -56.12985229 251.34890747 C-51.50966837 237.77051754 -43.14245984 226.0760996 -30.31735229 219.16140747 C-25.01685243 216.72400145 -20.13352661 215.74964276 -14.31735229 215.72390747 C-14.35215698 214.77129028 -14.38696167 213.8186731 -14.42282104 212.83718872 C-14.44989136 211.58293091 -14.47696167 210.3286731 -14.50485229 209.03640747 C-14.53965698 207.79504028 -14.57446167 206.5536731 -14.61032104 205.27468872 C-14.29707418 201.47813667 -13.62492883 199.70923376 -11.31735229 196.72390747 C-8.31735229 194.72390747 -8.31735229 194.72390747 -5.81735229 194.59890747 C-3.20751759 194.01423647 -3.20751759 194.01423647 -2.46969604 191.98953247 C-1.98908655 190.55033026 -1.51522957 189.10885719 -1.04782104 187.66531372 C-0.01966554 184.93272929 1.05089353 183.96668028 3.68264771 182.72390747 C4.81702271 182.62078247 5.95139771 182.51765747 7.12014771 182.41140747 C10.95345279 181.67164684 12.26605465 180.73247025 14.55374146 177.60671997 C18.50170539 171.02222649 22.51030315 162.54855732 20.68264771 154.72390747 C19.00786851 152.56344231 17.15369495 150.69437217 15.24124146 148.74343872 C12.6408284 145.3739812 13.19338063 142.84772995 13.68264771 138.72390747 C14.02038255 135.74562057 14.02038255 135.74562057 12.27639771 134.18875122 C6.69128853 130.11453911 2.00958168 129.15657689 -4.81954956 128.53640747 C-29.00532446 126.08862347 -52.41879185 111.66235874 -68.12985229 93.54812622 C-77.37259664 81.61508308 -82.6921004 68.77489085 -80.95016479 53.50515747 C-79.32479576 45.55890887 -76.0683154 40.12595412 -69.44625854 35.38406372 C-63.30302597 31.67170167 -57.36749952 30.97097913 -50.31735229 31.72390747 C-46.54028453 32.814637 -42.93270461 34.18428975 -39.31735229 35.72390747 C-39.47332886 34.98527466 -39.62930542 34.24664185 -39.79000854 33.48562622 C-41.38158462 25.19045822 -42.53061038 16.67354657 -38.75485229 8.78640747 C-33.17192008 1.77195417 -25.987365 1.1036164 -17.43722534 0.08743286 C-11.61419238 -0.49822412 -5.83801331 -0.27628907 0 0 Z M-34.34786987 11.54202271 C-38.95899133 21.91965868 -33.66369479 36.02921629 -30.89230347 46.32766724 C-30.13322831 49.1488601 -29.39797084 51.97540461 -28.66696167 54.8039856 C-23.54499595 74.86815942 -23.54499595 74.86815942 -15.56735229 93.91140747 C-15.22937622 94.5722937 -14.89140015 95.23317993 -14.54318237 95.91409302 C-6.17682308 111.77855027 6.49604064 126.30190285 23.53421021 132.81375122 C35.19027655 136.3762391 45.20858596 135.05850156 56.05764771 129.50906372 C82.66458015 113.11729284 94.93889206 77.48200594 102.03738403 48.83425903 C104.14664566 39.89284123 105.82346324 31.27059466 105.87014771 22.03640747 C105.88432739 20.75379028 105.89850708 19.4711731 105.91311646 18.14968872 C105.66857097 14.08860491 105.66857097 14.08860491 103.68264771 10.72390747 C99.56712126 8.68928372 95.39608622 8.0997771 90.8821106 7.6177063 C89.71044767 7.49148124 89.71044767 7.49148124 88.51511478 7.36270618 C77.8630089 6.3256026 67.18314431 6.41543936 56.49124146 6.42312622 C54.20682194 6.41922861 51.92240313 6.4148918 49.63798523 6.41014099 C44.88714223 6.40273839 40.13637367 6.40292916 35.38552856 6.40823364 C29.31322171 6.41406188 23.24121655 6.39698773 17.16895962 6.37388897 C12.46681454 6.35913923 7.76474231 6.35828093 3.0625782 6.3613987 C0.82318582 6.36088748 -1.41621086 6.35568744 -3.65558052 6.34558678 C-6.7820514 6.33319696 -9.90793132 6.34002635 -13.03439331 6.35159302 C-13.94623383 6.34394928 -14.85807434 6.33630554 -15.79754639 6.32843018 C-22.3159417 6.38150704 -29.30912706 7.03035771 -34.34786987 11.54202271 Z M112.93655396 42.23171997 C108.04823089 47.47356266 105.62343357 53.23027351 105.74514771 60.41140747 C107.18762484 65.50816 109.26980032 68.78200922 113.68264771 71.72390747 C117.8675449 72.06139918 120.63263477 72.11195573 124.55764771 70.66140747 C127.44855768 68.02557779 127.90150774 65.48758185 128.68264771 61.72390747 C125.50943989 58.18804733 123.51521075 56.13812716 118.68264771 55.72390747 C118.68264771 54.40390747 118.68264771 53.08390747 118.68264771 51.72390747 C122.89990701 52.00982336 125.84623102 52.29680108 129.62014771 54.22390747 C132.59688484 57.8320737 132.9550992 61.11627183 132.68264771 65.72390747 C130.85790325 71.09676614 127.734627 74.19791783 122.68264771 76.72390747 C118.13813241 77.31929173 113.59597084 77.80938343 109.50686646 75.48953247 C107.76582371 73.98336273 106.21735626 72.43794338 104.68264771 70.72390747 C103.68594383 69.72062217 102.68637691 68.72016431 101.68264771 67.72390747 C101.30680542 68.71849976 101.30680542 68.71849976 100.92337036 69.73318481 C87.80524872 104.17345973 87.80524872 104.17345973 75.86233521 118.29031372 C74.57674567 119.54317459 74.57674567 119.54317459 74.68264771 120.72390747 C93.18313467 120.63496282 111.11118008 109.31109914 124.68264771 97.72390747 C125.59917114 97.04134888 125.59917114 97.04134888 126.53421021 96.34500122 C136.18262356 88.96550699 143.26791103 76.53174825 145.68264771 64.72390747 C146.33258557 57.26560411 146.2805807 50.88313235 141.68264771 44.72390747 C137.35780535 40.19790965 132.70801039 38.07139767 126.68264771 36.72390747 C121.10931975 36.72390747 117.15836995 38.58603547 112.93655396 42.23171997 Z M-68.20016479 42.26687622 C-73.97125753 48.60347805 -75.94263613 55.37159505 -75.66110229 63.86453247 C-73.64542633 80.63129163 -60.00542659 94.5422384 -47.33297729 104.55984497 C-34.89480829 113.48568127 -20.58980954 120.57038113 -5.31735229 122.72390747 C-4.32735229 122.39390747 -3.33735229 122.06390747 -2.31735229 121.72390747 C-2.86262573 121.11546997 -3.40789917 120.50703247 -3.96969604 119.88015747 C-16.76664642 105.00506986 -24.34245129 87.27912769 -30.31735229 68.72390747 C-33.48764452 69.52578774 -33.48764452 69.52578774 -35.69235229 72.16140747 C-39.46836419 75.84751432 -41.90831196 76.58531334 -47.12985229 77.09890747 C-51.6888478 76.97779564 -55.68397797 75.48731893 -59.31735229 72.72390747 C-62.15705796 68.39981021 -61.94696575 63.71238328 -61.31735229 58.72390747 C-59.81735229 55.66140747 -59.81735229 55.66140747 -57.31735229 53.72390747 C-54.00454373 52.85969654 -50.73998281 52.72390747 -47.31735229 52.72390747 C-47.64735229 54.04390747 -47.97735229 55.36390747 -48.31735229 56.72390747 C-49.43110229 56.95078247 -50.54485229 57.17765747 -51.69235229 57.41140747 C-55.3760896 58.36048609 -55.3760896 58.36048609 -56.94235229 60.97390747 C-57.45851893 64.75912945 -56.35827557 66.55695755 -54.31735229 69.72390747 C-50.56278663 72.22695125 -48.76989295 72.17670822 -44.31735229 71.72390747 C-40.49733752 69.66697644 -37.36334458 67.60052443 -35.31735229 63.72390747 C-33.59009123 56.93001397 -34.7772713 52.69913508 -38.31735229 46.72390747 C-41.7602874 41.32997581 -45.11938796 38.90708544 -51.26657104 37.13406372 C-57.28731772 35.92991439 -63.53450334 38.44335698 -68.20016479 42.26687622 Z M20.68264771 138.72390747 C19.38740422 139.81745653 19.38740422 139.81745653 19.30764771 142.47390747 C19.42116146 145.8568396 19.42116146 145.8568396 21.74514771 148.47390747 C26.93379127 152.44818765 32.25346319 153.28787102 38.68264771 152.72390747 C43.45156549 151.4958215 47.8623864 149.95429943 50.68264771 145.72390747 C51.016827 142.05638617 51.016827 142.05638617 50.68264771 138.72390747 C49.69264771 138.72390747 48.70264771 138.72390747 47.68264771 138.72390747 C47.80639771 140.08515747 47.80639771 140.08515747 47.93264771 141.47390747 C47.68264771 144.72390747 47.68264771 144.72390747 45.87014771 147.03640747 C41.34325458 150.52858217 36.16113478 150.3193952 30.68264771 149.72390747 C27.12014771 148.16140747 27.12014771 148.16140747 24.68264771 145.72390747 C23.80764771 141.97390747 23.80764771 141.97390747 23.68264771 138.72390747 C22.69264771 138.72390747 21.70264771 138.72390747 20.68264771 138.72390747 Z M27.68264771 157.72390747 C27.44030396 158.70230591 27.19796021 159.68070435 26.94827271 160.68875122 C25.08199611 168.0477765 23.04587041 174.87734695 19.68264771 181.72390747 C21.66264771 181.72390747 23.64264771 181.72390747 25.68264771 181.72390747 C28.29441892 173.63208057 30.39504793 166.312288 29.68264771 157.72390747 C29.02264771 157.72390747 28.36264771 157.72390747 27.68264771 157.72390747 Z M41.68264771 157.72390747 C42.11005999 166.03633957 43.42454817 173.71404497 45.68264771 181.72390747 C47.33264771 181.72390747 48.98264771 181.72390747 50.68264771 181.72390747 C50.41452271 181.08453247 50.14639771 180.44515747 49.87014771 179.78640747 C47.05584389 172.52846606 45.04382408 165.39453669 43.68264771 157.72390747 C43.02264771 157.72390747 42.36264771 157.72390747 41.68264771 157.72390747 Z M14.93264771 187.03640747 C14.12496948 187.05880493 13.31729126 187.08120239 12.48513794 187.10427856 C9.50881048 187.2486685 7.237168 187.36116791 4.70608521 189.01687622 C3.51996873 190.99524607 3.2912651 192.43964852 3.05764771 194.72390747 C2.61233521 196.86843872 2.61233521 196.86843872 1.68264771 198.72390747 C-0.59095149 199.84341734 -2.80127972 200.40725389 -5.25094604 201.04031372 C-7.51981712 201.56971951 -7.51981712 201.56971951 -8.87985229 203.84890747 C-9.48508502 207.82615111 -9.47474716 211.71033851 -9.31735229 215.72390747 C-8.73469604 215.7986731 -8.15203979 215.87343872 -7.55172729 215.95046997 C5.25842314 218.00492806 14.2486793 224.02564399 22.68264771 233.72390747 C23.11303345 234.42684937 23.54341919 235.12979126 23.98684692 235.85403442 C25.53879629 237.95191397 25.53879629 237.95191397 28.06765747 238.13040161 C28.99376831 238.09036011 29.91987915 238.0503186 30.87405396 238.00906372 C32.41609497 237.96942505 32.41609497 237.96942505 33.98928833 237.9289856 C35.60093872 237.85840942 35.60093872 237.85840942 37.24514771 237.78640747 C44.51648355 237.4866047 50.45469769 237.66749955 57.36697388 240.0317688 C60.94702805 241.10182189 64.34834072 241.12679019 68.05764771 241.03640747 C68.74213989 241.03963013 69.42663208 241.04285278 70.13186646 241.0461731 C73.77298004 241.00728742 76.64866945 240.83872483 79.68264771 238.72390747 C81.93578172 234.21763943 80.86767046 227.98346553 80.87014771 223.03640747 C80.8823938 221.7686145 80.89463989 220.50082153 80.90725708 219.1946106 C81.09508106 210.2167254 81.09508106 210.2167254 78.68264771 201.72390747 C76.64291236 200.26119686 76.64291236 200.26119686 74.18264771 199.78640747 C73.38858521 199.57113403 72.59452271 199.3558606 71.77639771 199.13406372 C69.71112278 198.65982694 69.71112278 198.65982694 67.68264771 198.72390747 C67.60014771 197.46578247 67.51764771 196.20765747 67.43264771 194.91140747 C67.00147223 191.50686893 67.00147223 191.50686893 64.93264771 188.78640747 C60.44665005 186.66801969 56.01778194 186.59592238 51.11624146 186.59109497 C49.83459106 186.58891968 48.55294067 186.58674438 47.23245239 186.58450317 C45.86168173 186.58854935 44.49091314 186.59336491 43.12014771 186.59890747 C42.08476868 186.60173233 42.08476868 186.60173233 41.0284729 186.60461426 C32.32798647 186.63252148 23.62743101 186.70164388 14.93264771 187.03640747 Z " fill="#001434" transform="translate(164.31735229492188,49.276092529296875)"/>
<path d="M0 0 C1.0879335 -0.00191345 2.175867 -0.0038269 3.29676819 -0.00579834 C5.59897086 -0.00715728 7.90118126 -0.00348118 10.20336914 0.00488281 C13.67938086 0.01549291 17.15486466 0.00502589 20.63085938 -0.0078125 C56.50544949 -0.03198588 56.50544949 -0.03198588 69.5078125 7.93359375 C72.42747912 10.92337243 73.0049146 13.70839691 73.59765625 17.703125 C73.71455811 18.4139624 73.83145996 19.1247998 73.9519043 19.85717773 C78.08160827 46.89539343 69.58733978 77.71484592 53.84375 100.015625 C51.89928517 102.511846 49.88911786 104.90271426 47.78515625 107.265625 C47.13546875 107.9978125 46.48578125 108.73 45.81640625 109.484375 C39.57447685 116.12261738 32.03566135 121.25162733 22.78515625 122.265625 C14.22120193 122.52194053 8.50713491 118.88849054 2.28515625 113.328125 C-17.70011126 91.93799742 -23.38182905 53.95282945 -23.40234375 25.765625 C-23.41458984 24.88003906 -23.42683594 23.99445313 -23.43945312 23.08203125 C-23.45394475 16.50283342 -23.41884478 9.33548358 -19.46484375 3.828125 C-13.43537372 -0.35900697 -7.05021626 -0.02750983 0 0 Z " fill="#3C9BFA" transform="translate(179.21484375,59.734375)"/>
<path d="M0 0 C7.11094078 4.75537253 13.68492542 10.69670134 18.5 17.7890625 C21.09185272 20.9124992 21.09185272 20.9124992 25.22265625 20.75390625 C26.69776306 20.59397083 28.16964708 20.40154362 29.63671875 20.1796875 C35.86727718 19.32656333 39.66876195 19.37952436 45.26171875 22.4921875 C49.84158934 28.2772872 51.09828341 33.28232102 50.26171875 40.4921875 C47.57332771 49.18057854 47.57332771 49.18057854 45.26171875 51.4921875 C45.26171875 58.01840059 48.37378693 62.35049009 51.86328125 67.72265625 C53.26171875 70.4921875 53.26171875 70.4921875 52.97265625 72.85546875 C52.73804688 73.39558594 52.5034375 73.93570313 52.26171875 74.4921875 C48.96152822 74.19681761 47.59936653 73.85757788 45.3125 71.3828125 C44.73886719 70.51140625 44.16523438 69.64 43.57421875 68.7421875 C42.99285156 67.88109375 42.41148437 67.02 41.8125 66.1328125 C38.8886274 61.15412767 37.5117537 57.30441663 38.26171875 51.4921875 C39.23425317 49.67385119 40.26074889 47.88387989 41.32421875 46.1171875 C44.00079633 41.52786698 44.9610784 38.59746139 43.8671875 33.37109375 C43.02064518 30.74408179 42.44935586 29.24229719 40.26171875 27.4921875 C36.60677514 26.45926865 33.96887805 26.39579763 30.1953125 26.91015625 C21.47624162 28.09223191 21.47624162 28.09223191 17.9609375 26.35546875 C15.84008141 24.53212754 14.06400131 22.63169549 12.26171875 20.4921875 C3.82623614 10.64293686 -5.21346937 2.06170098 -18.66796875 0.578125 C-21.80501788 0.44790787 -24.65655887 0.91436455 -27.73828125 1.4921875 C-24.32586866 8.71241235 -24.32586866 8.71241235 -19.86328125 15.3046875 C-17.73828125 18.4921875 -17.73828125 18.4921875 -17.92578125 21.4296875 C-18.19390625 22.1103125 -18.46203125 22.7909375 -18.73828125 23.4921875 C-23.00152734 22.74955754 -24.54699749 20.93335469 -27.2109375 17.6796875 C-29.87311948 13.86684375 -31.81762181 9.71593857 -33.73828125 5.4921875 C-38.31576634 8.3717851 -38.31576634 8.3717851 -41.73828125 12.4921875 C-41.51780872 17.49415798 -39.79256653 20.24479009 -36.73828125 24.1171875 C-32.29577254 29.78138611 -32.29577254 29.78138611 -31.73828125 33.4921875 C-33.42578125 34.3046875 -33.42578125 34.3046875 -35.73828125 34.4921875 C-39.56746835 31.33310814 -42.02703901 27.60579641 -44.73828125 23.4921875 C-45.39828125 23.1621875 -46.05828125 22.8321875 -46.73828125 22.4921875 C-47.40368805 38.53588487 -44.07789855 53.72559536 -35.73828125 67.4921875 C-35.73828125 68.1521875 -35.73828125 68.8121875 -35.73828125 69.4921875 C-34.64773438 69.43998047 -34.64773438 69.43998047 -33.53515625 69.38671875 C-23.14212737 69.10690643 -14.04118211 70.954857 -4.7734375 75.72265625 C-2.19615027 76.69717753 -0.47738834 76.84670984 2.26171875 76.4921875 C4.68042667 75.03029108 4.68042667 75.03029108 6.88671875 73.0546875 C12.06421195 68.68120775 15.85859231 68.14042064 22.53125 68.2109375 C26.37707318 68.60707379 28.44541952 69.88711071 31.26171875 72.4921875 C34.99246122 77.58205132 35.00120591 82.67416188 35.5390625 88.80078125 C36.63686027 94.40845094 38.99202111 97.80029118 43.64453125 101.01171875 C44.88406804 101.78872225 46.13168981 102.55296398 47.38671875 103.3046875 C48.01964844 103.69849609 48.65257812 104.09230469 49.3046875 104.49804688 C51.58691476 105.91050812 53.86002203 107.29133914 56.26171875 108.4921875 C56.26171875 110.1421875 56.26171875 111.7921875 56.26171875 113.4921875 C47.58759009 112.73457373 38.85964451 107.93633972 33.07421875 101.3046875 C29.29271859 95.43684242 28.92294093 90.41611719 28.60546875 83.55078125 C28.27654218 80.62408234 27.92612148 78.89694328 26.26171875 76.4921875 C22.25951847 74.68727365 20.12601665 74.23609923 15.88671875 75.4921875 C12.97506425 76.93173033 10.45287157 78.78146651 7.82421875 80.6796875 C4.37886347 83.00370455 1.72391269 84.3640815 -2.59375 84.0234375 C-6.20665452 83.12843747 -9.41923587 81.42492533 -12.7578125 79.80859375 C-22.81073309 75.36844403 -34.28181215 73.62207716 -44.7421875 77.6484375 C-49.02500016 79.64254318 -49.02500016 79.64254318 -52.73828125 82.4921875 C-51.13146484 83.48798828 -51.13146484 83.48798828 -49.4921875 84.50390625 C-48.09453687 85.39502578 -46.6974294 86.28699761 -45.30078125 87.1796875 C-44.59373047 87.61474609 -43.88667969 88.04980469 -43.15820312 88.49804688 C-37.95597609 91.85833707 -37.95597609 91.85833707 -36.765625 95.32421875 C-36.75660156 96.03964844 -36.74757813 96.75507813 -36.73828125 97.4921875 C-41.76219331 97.89232209 -44.24403922 96.96004468 -48.36328125 94.1171875 C-51.42836658 92.03086891 -54.37200508 90.05679473 -57.73828125 88.4921875 C-59.33968653 91.99526154 -60.16459627 94.63733899 -59.73828125 98.4921875 C-58.33122125 100.18183184 -58.33122125 100.18183184 -56.30078125 101.4296875 C-55.21990234 102.17412109 -55.21990234 102.17412109 -54.1171875 102.93359375 C-53.33214844 103.44792969 -52.54710937 103.96226562 -51.73828125 104.4921875 C-50.90167969 105.05808594 -50.06507813 105.62398438 -49.203125 106.20703125 C-47.05831119 107.65163643 -44.9036631 109.07867435 -42.73828125 110.4921875 C-43.06828125 111.8121875 -43.39828125 113.1321875 -43.73828125 114.4921875 C-49.59100381 114.04197807 -53.82048244 111.45379523 -58.73828125 108.4921875 C-53.72051057 127.62243824 -36.73384123 140.10612276 -20.65625 150.0546875 C-20.00865723 150.45631104 -19.36106445 150.85793457 -18.69384766 151.27172852 C-17.45613166 152.02881995 -16.20988201 152.77217776 -14.95458984 153.49975586 C-13.2734375 154.51953125 -13.2734375 154.51953125 -10.73828125 156.4921875 C-10.73828125 157.8121875 -10.73828125 159.1321875 -10.73828125 160.4921875 C-25.6989293 160.15217277 -41.81103879 144.64726831 -51.73828125 134.4921875 C-61.75257545 122.97414944 -67.14631533 111.35516119 -67.01953125 96.109375 C-66.50005267 89.42830321 -64.06073864 82.90942821 -59.49609375 77.87109375 C-54.62994446 74.05386997 -48.57844224 71.43890783 -42.73828125 69.4921875 C-43.20878906 68.60917969 -43.67929687 67.72617187 -44.1640625 66.81640625 C-51.94357361 51.94699791 -56.54336921 36.22263012 -51.73828125 19.4921875 C-49.1194243 12.94504514 -46.27495025 7.0350954 -40.73828125 2.4921875 C-40.03703125 1.8115625 -39.33578125 1.1309375 -38.61328125 0.4296875 C-26.21001633 -7.92903451 -12.8655428 -7.08430745 0 0 Z " fill="#001434" transform="translate(330.73828125,198.5078125)"/>
<path d="M0 0 C7.98226766 6.5416374 10.429484 12.75565769 11.6171875 22.8671875 C12.4115479 37.89518943 5.38989843 52.94468403 -4.46875 64.0546875 C-6.41851944 66.27167453 -6.41851944 66.27167453 -6.0703125 68.5390625 C-5.13656569 70.60990544 -4.13468643 72.63898626 -3.12890625 74.67578125 C0.43783964 83.50772346 0.19909801 94.42614921 -2.75390625 103.42578125 C-5.14483945 108.9821753 -8.47287256 113.74476711 -12.19140625 118.48828125 C-12.94164063 119.50341797 -12.94164063 119.50341797 -13.70703125 120.5390625 C-28.25610374 138.87236344 -55.90962902 148.48808817 -78.19140625 152.48828125 C-79.85755664 152.52976217 -81.52560917 152.54211311 -83.19140625 152.48828125 C-83.81640625 150.61328125 -83.81640625 150.61328125 -84.19140625 148.48828125 C-81.80576991 146.10264491 -80.33507465 145.83463895 -77.08984375 145.0078125 C-75.52979614 144.59789062 -75.52979614 144.59789062 -73.93823242 144.1796875 C-72.26917847 143.74462891 -72.26917847 143.74462891 -70.56640625 143.30078125 C-47.67602174 137.10072547 -24.94276594 127.85943277 -12.3359375 106.54296875 C-11.95824219 105.86492187 -11.58054687 105.186875 -11.19140625 104.48828125 C-11.74078857 104.61468994 -12.2901709 104.74109863 -12.85620117 104.87133789 C-15.36152161 105.44160535 -17.87004544 105.99630654 -20.37890625 106.55078125 C-21.24322266 106.74994141 -22.10753906 106.94910156 -22.99804688 107.15429688 C-30.93829449 108.88837394 -30.93829449 108.88837394 -35.19140625 107.48828125 C-35.19140625 106.49828125 -35.19140625 105.50828125 -35.19140625 104.48828125 C-29.25513377 102.09041192 -23.46493778 100.53910506 -17.19140625 99.30078125 C-16.32128906 99.12353516 -15.45117188 98.94628906 -14.5546875 98.76367188 C-12.43477292 98.33270023 -10.31324938 97.90965534 -8.19140625 97.48828125 C-7.25302578 90.58991671 -7.05495053 85.14899613 -9.19140625 78.48828125 C-16.82637884 78.98893519 -24.07098227 80.44623892 -31.5012207 82.20410156 C-35.70979846 83.15562846 -38.95805113 83.84501575 -43.19140625 82.48828125 C-43.12890625 80.67578125 -43.12890625 80.67578125 -42.19140625 78.48828125 C-36.45384525 75.49477116 -30.58793296 74.41345717 -24.25390625 73.30078125 C-22.79887695 73.03491211 -22.79887695 73.03491211 -21.31445312 72.76367188 C-18.94133863 72.33113376 -16.56712898 71.90621178 -14.19140625 71.48828125 C-20.47532358 63.60044578 -28.01442157 58.80853872 -38.19140625 57.48828125 C-46.34272693 56.81202353 -53.83295295 58.01755311 -61.74609375 59.83203125 C-65.01915934 60.45547232 -67.87171994 60.72226795 -71.19140625 60.48828125 C-73.72286949 58.2380917 -74.53528807 55.60625649 -75.62890625 52.48828125 C-76.90426115 48.98923064 -77.94434666 46.56279155 -81.19140625 44.48828125 C-85.36130933 44.41246483 -87.49047403 44.95423765 -90.81640625 47.48828125 C-95.38065541 53.25364861 -98.44704686 59.69960275 -101.19140625 66.48828125 C-102.51140625 66.48828125 -103.83140625 66.48828125 -105.19140625 66.48828125 C-107.10618826 61.08406097 -104.51382665 56.42008778 -102.19140625 51.48828125 C-98.46824816 45.367635 -93.93316901 40.24083528 -87.19140625 37.48828125 C-83.28088775 36.95804145 -81.09976277 37.08691442 -77.50390625 38.67578125 C-71.93278065 43.04233915 -70.09058023 47.88433537 -68.19140625 54.48828125 C-67.24523437 54.27171875 -66.2990625 54.05515625 -65.32421875 53.83203125 C-50.74672828 50.68362177 -35.10204978 48.8940281 -21.19140625 55.48828125 C-17.9593273 57.59635509 -15.02999406 59.87707386 -12.19140625 62.48828125 C-2.13792677 53.95805624 3.33857556 40.11441914 4.55859375 27.23828125 C4.65693946 25.65580945 4.74621983 24.07257869 4.80859375 22.48828125 C4.15503906 23.12056641 4.15503906 23.12056641 3.48828125 23.765625 C-0.30154084 27.2519332 -2.83700359 29.22709088 -8.19140625 29.48828125 C-7.73157808 24.84073227 -6.07706328 22.98108566 -2.69140625 19.86328125 C0.83801557 16.69310583 0.83801557 16.69310583 2.80859375 12.48828125 C0.206463 8.0959628 -3.192175 4.81160717 -8.19140625 3.48828125 C-11.43514765 6.65001795 -14.60848744 9.75963274 -17.44140625 13.30078125 C-19.19140625 15.48828125 -19.19140625 15.48828125 -22.19140625 17.48828125 C-23.51140625 17.48828125 -24.83140625 17.48828125 -26.19140625 17.48828125 C-26.08006094 12.92312337 -24.8613957 10.83047955 -21.69140625 7.73828125 C-20.7478125 6.87976563 -20.7478125 6.87976563 -19.78515625 6.00390625 C-18.08527733 4.55932069 -18.08527733 4.55932069 -17.19140625 2.48828125 C-30.5164515 1.50124086 -39.3821031 9.09349338 -49.26171875 17.18359375 C-51.96502772 19.30502456 -54.06357634 20.46124031 -57.44140625 21.17578125 C-62.16346756 20.31007001 -65.51079378 18.25067394 -69.54296875 15.703125 C-72.11672537 14.28795323 -72.11672537 14.28795323 -74.90234375 14.5546875 C-77.25245724 15.29434581 -77.25245724 15.29434581 -78.46484375 17.09765625 C-79.44427036 20.32028575 -79.62973712 23.37823698 -79.81640625 26.73828125 C-79.89117187 28.0015625 -79.9659375 29.26484375 -80.04296875 30.56640625 C-80.09195313 31.530625 -80.1409375 32.49484375 -80.19140625 33.48828125 C-81.84140625 33.15828125 -83.49140625 32.82828125 -85.19140625 32.48828125 C-86.99170506 27.08738481 -87.05816912 20.97525552 -85.00390625 15.61328125 C-82.96419922 12.096545 -81.79232053 10.40366119 -78.19140625 8.48828125 C-71.78822659 7.40052569 -66.90931148 8.58355732 -61.296875 11.7109375 C-58.44360513 12.76437109 -57.06466208 12.47203551 -54.19140625 11.48828125 C-51.38183733 9.59182237 -51.38183733 9.59182237 -48.56640625 7.23828125 C-35.44742952 -3.05347039 -15.23412945 -10.50910534 0 0 Z " fill="#001434" transform="translate(118.19140625,166.51171875)"/>
<path d="M0 0 C1.2065625 -0.00773438 2.413125 -0.01546875 3.65625 -0.0234375 C21.54467535 0.01545038 21.54467535 0.01545038 25.87890625 3.95996094 C27.375 5.75 27.375 5.75 28.6484375 7.59375 C29.92485886 9.39827603 29.92485886 9.39827603 32.109375 10.2578125 C32.73328125 10.58523437 33.3571875 10.91265625 34 11.25 C34.28875 12.36375 34.5775 13.4775 34.875 14.625 C36.281055 19.15562166 38.0729118 19.82690302 42 22.25 C43.93677711 27.59595786 43.78646677 33.9345884 41.6875 39.1875 C40 42.25 40 42.25 37 44.25 C35.12309265 44.51069641 35.12309265 44.51069641 32.9909668 44.5246582 C32.18970871 44.53419022 31.38845062 44.54372223 30.56291199 44.55354309 C29.70039322 44.55263168 28.83787445 44.55172028 27.94921875 44.55078125 C27.05765579 44.55506638 26.16609283 44.5593515 25.24751282 44.56376648 C23.36041106 44.56951012 21.47328716 44.57000979 19.58618164 44.56567383 C16.70875866 44.56252328 13.83237326 44.5859395 10.95507812 44.61132812 C9.11979296 44.61360216 7.28450504 44.61430413 5.44921875 44.61328125 C4.59277267 44.622491 3.7363266 44.63170074 2.85392761 44.64118958 C-4.29552341 44.58625972 -8.87913856 42.65238849 -14 37.5625 C-18.87781685 33.05156168 -24.25812195 30.05383401 -30.05859375 26.9140625 C-33 25.25 -33 25.25 -35 23.25 C-34.625 20.625 -34.625 20.625 -34 18.25 C-30.535 17.755 -30.535 17.755 -27 17.25 C-27.03480469 16.58613281 -27.06960937 15.92226562 -27.10546875 15.23828125 C-27.22439705 11.35895333 -27.21654308 7.99243341 -26.125 4.25 C-19.91066127 -1.59878939 -7.92141119 -0.05077828 0 0 Z M-21 8.25 C-21 11.55 -21 14.85 -21 18.25 C-19.35 18.25 -17.7 18.25 -16 18.25 C-15.79375 17.13625 -15.5875 16.0225 -15.375 14.875 C-14 11.25 -14 11.25 -11.34716797 10.04931641 C-7.83556558 9.21073244 -4.67754156 8.93170464 -1.0703125 8.8359375 C0.86328125 8.77792969 0.86328125 8.77792969 2.8359375 8.71875 C4.18228707 8.68730242 5.52864132 8.65605489 6.875 8.625 C8.24481514 8.58676959 9.61460755 8.54771499 10.984375 8.5078125 C14.32278263 8.41377285 17.66118814 8.32811943 21 8.25 C21 7.92 21 7.59 21 7.25 C14.38048611 5.97162152 7.80687954 6.06395169 1.09521484 6.06469727 C-1.12551732 6.06249949 -3.345761 6.04427617 -5.56640625 6.02539062 C-6.98437331 6.02245817 -8.40234272 6.02047238 -9.8203125 6.01953125 C-11.10180176 6.01542236 -12.38329102 6.01131348 -13.70361328 6.00708008 C-17.25061152 6.05841442 -17.25061152 6.05841442 -21 8.25 Z " fill="#011638" transform="translate(198,238.75)"/>
<path d="M0 0 C2.44140625 0.7890625 2.44140625 0.7890625 5 2 C5.309375 3.11375 5.61875 4.2275 5.9375 5.375 C7.27506162 9.93844553 9.0673733 10.57348565 13 13 C14.93677711 18.34595786 14.78646677 24.6845884 12.6875 29.9375 C11 33 11 33 8 35 C6.12309265 35.26069641 6.12309265 35.26069641 3.9909668 35.2746582 C3.18970871 35.28419022 2.38845062 35.29372223 1.56291199 35.30354309 C0.70039322 35.30263168 -0.16212555 35.30172028 -1.05078125 35.30078125 C-1.94234421 35.30506638 -2.83390717 35.3093515 -3.75248718 35.31376648 C-5.63958894 35.31951012 -7.52671284 35.32000979 -9.41381836 35.31567383 C-12.29124134 35.31252328 -15.16762674 35.3359395 -18.04492188 35.36132812 C-19.88020704 35.36360216 -21.71549496 35.36430413 -23.55078125 35.36328125 C-24.40722733 35.372491 -25.2636734 35.38170074 -26.14607239 35.39118958 C-33.29552341 35.33625972 -37.87913856 33.40238849 -43 28.3125 C-47.87781685 23.80156168 -53.25812195 20.80383401 -59.05859375 17.6640625 C-62 16 -62 16 -64 14 C-63.625 11.375 -63.625 11.375 -63 9 C-59.535 8.505 -59.535 8.505 -56 8 C-55.73445312 8.55429687 -55.46890625 9.10859375 -55.1953125 9.6796875 C-54.84210938 10.40414063 -54.48890625 11.12859375 -54.125 11.875 C-53.60292969 12.95394531 -53.60292969 12.95394531 -53.0703125 14.0546875 C-52.03442457 16.15135019 -52.03442457 16.15135019 -50 18 C-47.22404432 18.20019819 -44.55017056 18.27975131 -41.7734375 18.265625 C-40.54096786 18.26849518 -40.54096786 18.26849518 -39.28359985 18.27142334 C-37.54013769 18.27278624 -35.79666541 18.26908248 -34.05322266 18.26074219 C-31.40633757 18.25012569 -28.76014398 18.26059105 -26.11328125 18.2734375 C-24.41666518 18.27211432 -22.72004954 18.26954866 -21.0234375 18.265625 C-19.84797867 18.27169769 -19.84797867 18.27169769 -18.64877319 18.27789307 C-9.62532667 18.23567736 -9.62532667 18.23567736 -2.0625 14.0625 C-0.46778359 9.46596447 -0.24562726 4.836316 0 0 Z " fill="#3C9BFA" transform="translate(227,248)"/>
<path d="M0 0 C1.07227332 6.16557162 1.07227332 6.16557162 0.78515625 9.48046875 C0.55355128 12.16627373 0.44403506 14.3558833 1 17 C2.94239719 18.96374221 4.83425423 20.22128228 7.25 21.55078125 C9 23 9 23 9.3125 25.60546875 C9 28 9 28 8 29 C5.47403741 29.23653523 2.96892793 29.42173692 0.4375 29.5625 C-0.62887695 29.62727539 -0.62887695 29.62727539 -1.71679688 29.69335938 C-3.47761912 29.79971777 -5.2387832 29.90038846 -7 30 C-7.18175781 30.61488281 -7.36351563 31.22976562 -7.55078125 31.86328125 C-7.80214844 32.67152344 -8.05351563 33.47976562 -8.3125 34.3125 C-8.55613281 35.11300781 -8.79976562 35.91351563 -9.05078125 36.73828125 C-10.04182023 39.09964573 -11.08074943 40.33879993 -13 42 C-13.99 41.67 -14.98 41.34 -16 41 C-16.66 37.7 -17.32 34.4 -18 31 C-20.97 31 -23.94 31 -27 31 C-26.65153412 27.34110824 -26.31188136 25.37803801 -23.9375 22.5 C-20.3293077 17.68039296 -21.71976913 10.6824594 -22 5 C-19.70703125 4.37890625 -19.70703125 4.37890625 -17 4 C-13.6875 5.9375 -13.6875 5.9375 -11 8 C-10.59007813 7.50628906 -10.18015625 7.01257812 -9.7578125 6.50390625 C-9.21898438 5.86324219 -8.68015625 5.22257812 -8.125 4.5625 C-7.59132813 3.92441406 -7.05765625 3.28632812 -6.5078125 2.62890625 C-4.27268848 0.21427745 -3.3395179 0 0 0 Z " fill="#3D9CFB" transform="translate(80,43)"/>
<path d="M0 0 C3.44237224 1.72118612 4.40533024 4.68457727 6.125 8.0625 C7.0325 7.546875 7.94 7.03125 8.875 6.5 C12.125 5.0625 12.125 5.0625 14.5 5.375 C15.03625 5.601875 15.5725 5.82875 16.125 6.0625 C15.2260274 13.76797945 15.2260274 13.76797945 14.43359375 16.078125 C13.91397873 18.13559551 13.91397873 18.13559551 15.15625 20.0625 C15.88328125 21.0525 15.88328125 21.0525 16.625 22.0625 C18.09375 24.0625 18.09375 24.0625 19.125 26.0625 C18.795 27.3825 18.465 28.7025 18.125 30.0625 C14.495 30.0625 10.865 30.0625 7.125 30.0625 C6.34125 31.67125 5.5575 33.28 4.75 34.9375 C3.36868358 37.77283371 2.36074822 39.82675178 0.125 42.0625 C-0.865 42.0625 -1.855 42.0625 -2.875 42.0625 C-4.29134833 39.22980334 -4.2213005 36.58783562 -4.4375 33.4375 C-4.56318359 31.65472656 -4.56318359 31.65472656 -4.69140625 29.8359375 C-4.75199219 28.92070313 -4.81257813 28.00546875 -4.875 27.0625 C-7.845 26.7325 -10.815 26.4025 -13.875 26.0625 C-14.205 24.4125 -14.535 22.7625 -14.875 21.0625 C-14.24851562 20.78019531 -13.62203125 20.49789062 -12.9765625 20.20703125 C-8.80696253 17.96439152 -6.31386761 16.51657942 -4.90234375 11.83984375 C-4.59811793 9.53130662 -4.35843524 7.2131233 -4.19140625 4.890625 C-3.84210101 1.76843988 -3.41196929 0.11373231 0 0 Z " fill="#3D9CFB" transform="translate(332.875,42.9375)"/>
<path d="M0 0 C1.32 0.33 2.64 0.66 4 1 C4 27.4 4 53.8 4 81 C7.63 81 11.26 81 15 81 C17 83 17 83 17 86 C6.77 86 -3.46 86 -14 86 C-14 82 -14 82 -13 81 C-9.04 81 -5.08 81 -1 81 C-1.33 60.54 -1.66 40.08 -2 19 C-3.65 20.65 -5.3 22.3 -7 24 C-11.12903226 27.09677419 -11.12903226 27.09677419 -14.8125 26.6875 C-15.534375 26.460625 -16.25625 26.23375 -17 26 C-17 24.68 -17 23.36 -17 22 C-15.4221875 21.7525 -15.4221875 21.7525 -13.8125 21.5 C-9.6517277 20.28364519 -8.18692256 18.13242036 -6.12890625 14.4375 C-4.43597299 10.78217005 -3.07797881 7.03971555 -1.796875 3.22265625 C-1 1 -1 1 0 0 Z " fill="#02193B" transform="translate(199,73)"/>
<path d="M0 0 C1.01938156 0.00424484 1.01938156 0.00424484 2.05935669 0.00857544 C4.20902858 0.01968286 6.35826864 0.04476859 8.5078125 0.0703125 C9.97395227 0.08035455 11.44009864 0.08947825 12.90625 0.09765625 C16.48190881 0.11959091 20.05731844 0.15405436 23.6328125 0.1953125 C25.20452246 3.33873243 24.86457033 6.75302701 24.6328125 10.1953125 C23.6328125 13.1953125 23.6328125 13.1953125 21.4934082 14.3684082 C18.16101018 15.33169506 15.33230279 15.43786348 11.86328125 15.42578125 C10.56197266 15.42384766 9.26066406 15.42191406 7.91992188 15.41992188 C7.24598389 15.41371826 6.5720459 15.40751465 5.87768555 15.40112305 C3.83694822 15.38296056 1.79666887 15.38061311 -0.24414062 15.38085938 C-6.70308911 15.35215294 -12.9849909 15.21679083 -19.3671875 14.1953125 C-19.6971875 12.8753125 -20.0271875 11.5553125 -20.3671875 10.1953125 C-18.7171875 9.8653125 -17.0671875 9.5353125 -15.3671875 9.1953125 C-15.1609375 8.0815625 -14.9546875 6.9678125 -14.7421875 5.8203125 C-13.3671875 2.1953125 -13.3671875 2.1953125 -10.74169922 0.98095703 C-7.04146886 0.11947958 -3.79804581 -0.03138881 0 0 Z " fill="#3C9AF8" transform="translate(197.3671875,246.8046875)"/>
<path d="M0 0 C2.3125 0.0625 2.3125 0.0625 5 1 C5.5775 1.94875 6.155 2.8975 6.75 3.875 C9.80553748 8.11880206 13.06618324 8.79817284 18 10 C17.6640625 11.89453125 17.6640625 11.89453125 17 14 C15.700625 14.8353125 15.700625 14.8353125 14.375 15.6875 C11.75638653 17.71047479 11.75638653 17.71047479 11.89453125 20.25390625 C12.16232746 22.53552998 12.51549663 24.75497448 13 27 C12.01 27.33 11.02 27.66 10 28 C9.236875 27.505 8.47375 27.01 7.6875 26.5 C4.23686201 24.57406252 2.77549785 25.07538828 -1 26 C-3 26.33333333 -5 26.66666667 -7 27 C-7.08912219 23.16774573 -6.87867729 19.73437848 -6 16 C-7.65 14.68 -9.3 13.36 -11 12 C-10.67 10.35 -10.34 8.7 -10 7 C-7.36 7 -4.72 7 -2 7 C-1.855625 6.030625 -1.71125 5.06125 -1.5625 4.0625 C-1 1 -1 1 0 0 Z " fill="#3D9CFB" transform="translate(320,155)"/>
<path d="M0 0 C3.96 0 7.92 0 12 0 C12.67139822 3.24908783 13.33729008 6.49913918 14 9.75 C14.19078125 10.67039063 14.3815625 11.59078125 14.578125 12.5390625 C14.84882813 13.87324219 14.84882813 13.87324219 15.125 15.234375 C15.29257813 16.05131836 15.46015625 16.86826172 15.6328125 17.70996094 C16 20 16 20 16 24 C9.4 24 2.8 24 -4 24 C-3 17 -3 17 -2 13.6875 C-0.75675053 9.1030176 -0.38897406 4.73251772 0 0 Z " fill="#3C9BFA" transform="translate(194,207)"/>
<path d="M0 0 C7.92 0 15.84 0 24 0 C24.33 1.65 24.66 3.3 25 5 C21.93694115 8.74373859 19.62182718 10.72473071 14.73046875 11.23828125 C8.74751465 11.41289896 5.59903147 10.89148817 1 7 C0.67 6.67 0.34 6.34 0 6 C0 4.02 0 2.04 0 0 Z " fill="#3D9CFB" transform="translate(188,189)"/>
<path d="M0 0 C2.2890625 -0.2734375 2.2890625 -0.2734375 5 0 C6.7734375 1.8359375 6.7734375 1.8359375 8.375 4.375 C8.9628125 5.28636719 9.550625 6.19773438 10.15625 7.13671875 C10.7646875 8.08160156 11.373125 9.02648437 12 10 C13.28885682 11.73126204 14.58042208 13.46051183 15.875 15.1875 C18.73535852 19.23807481 19.89254459 22.05705125 20 27 C18.68 27.33 17.36 27.66 16 28 C14.07308555 25.36738441 12.1525846 22.73057974 10.2421875 20.0859375 C8.82836848 18.14008903 7.39816446 16.20594322 5.9453125 14.2890625 C2.36757064 9.46430689 0.13213747 6.07832361 0 0 Z " fill="#3D9CFB" transform="translate(239,199)"/>
<path d="M0 0 C1.65 0 3.3 0 5 0 C5.33 10.23 5.66 20.46 6 31 C4.68 31.33 3.36 31.66 2 32 C-1.54457277 26.68314085 -1.15530247 21.24925482 -1.125 15.0625 C-1.12886719 14.27681641 -1.13273438 13.49113281 -1.13671875 12.68164062 C-1.12945647 8.34242825 -0.86408587 4.27242458 0 0 Z " fill="#3D9BFB" transform="translate(197,10)"/>
<path d="M0 0 C1.32 0.66 2.64 1.32 4 2 C3.42764692 5.88234679 2.29193542 8.51466323 0.1875 11.8125 C-1.79019645 14.98535114 -3.62462008 18.13270349 -5.25 21.5 C-7 25 -7 25 -9 27 C-11.625 26.625 -11.625 26.625 -14 26 C-13.42807142 22.49396263 -12.54607583 19.77957843 -10.8203125 16.6796875 C-10.16869141 15.50599609 -10.16869141 15.50599609 -9.50390625 14.30859375 C-9.04886719 13.50550781 -8.59382812 12.70242187 -8.125 11.875 C-7.67769531 11.06417969 -7.23039063 10.25335938 -6.76953125 9.41796875 C-4.77365613 5.85600872 -3.01867915 2.79329027 0 0 Z " fill="#3D9CFB" transform="translate(159,197)"/>
<path d="M0 0 C0.33 1.32 0.66 2.64 1 4 C-7.49783467 9.25606811 -15.8886695 13.65724303 -26 14 C-26 12.35 -26 10.7 -26 9 C-22.61063864 7.48506157 -19.21256352 5.99074543 -15.8125 4.5 C-14.85279297 4.07074219 -13.89308594 3.64148438 -12.90429688 3.19921875 C-11.97294922 2.79316406 -11.04160156 2.38710937 -10.08203125 1.96875 C-9.22843018 1.59169922 -8.3748291 1.21464844 -7.49536133 0.82617188 C-4.84763466 -0.05044558 -2.76955848 -0.15615365 0 0 Z " fill="#3D9CFB" transform="translate(84,141)"/>
<path d="M0 0 C4.7551567 -0.36578128 8.27606062 0.62308793 12.67578125 2.19921875 C16.06854053 3.36815262 19.50925142 4.17491397 23 5 C23.5625 6.9375 23.5625 6.9375 24 9 C23 10 23 10 19.25 10.3125 C12.6918134 10.25969657 3.74726382 8.74726382 -1 4 C-0.625 1.875 -0.625 1.875 0 0 Z " fill="#3D9CFB" transform="translate(323,134)"/>
<path d="M0 0 C4.59357922 1.21594744 6.5184402 3.56489837 9.375 7.11328125 C11.94422875 10.09630405 14.944414 12.5320267 18 15 C17.67 16.65 17.34 18.3 17 20 C11.52582323 19.71134284 8.81690167 16.44818631 5.1875 12.75 C4.59001953 12.17636719 3.99253906 11.60273437 3.37695312 11.01171875 C-0.88441191 6.73574332 -0.88441191 6.73574332 -1.44921875 3.140625 C-1 1 -1 1 0 0 Z " fill="#3D9CFB" transform="translate(94,32)"/>
<path d="M0 0 C2.0625 0.4375 2.0625 0.4375 4 1 C4.27438645 5.71381847 3.4978777 8.83756271 1.5625 13.125 C0.09841495 16.40354943 -1.26682059 19.47736788 -2 23 C-3.875 23.625 -3.875 23.625 -6 24 C-6.66 23.34 -7.32 22.68 -8 22 C-7.68985828 16.76635843 -6.13746216 12.35363091 -4 7.625 C-3.72671875 6.99722656 -3.4534375 6.36945312 -3.171875 5.72265625 C-1.16276544 1.16276544 -1.16276544 1.16276544 0 0 Z " fill="#3D9CFB" transform="translate(249,17)"/>
<path d="M0 0 C3.2814559 1.05759947 4.06145229 2.10152987 5.88671875 5.1171875 C6.49941616 6.36375545 7.09933922 7.6166691 7.6875 8.875 C7.99494141 9.50019531 8.30238281 10.12539063 8.61914062 10.76953125 C10.07985068 13.79323303 11.37614597 16.68941462 12 20 C10.35 20.33 8.7 20.66 7 21 C2.77216904 16.45899638 -0.08205665 10.8764383 -2 5 C-1.54347826 1.54347826 -1.54347826 1.54347826 0 0 Z " fill="#3D9CFB" transform="translate(145,18)"/>
<path d="M0 0 C1.32 0.33 2.64 0.66 4 1 C4.43641407 4.47260913 4.20031136 5.72508708 2.1015625 8.60546875 C1.28429687 9.45753906 0.46703125 10.30960938 -0.375 11.1875 C-1.18710937 12.04730469 -1.99921875 12.90710938 -2.8359375 13.79296875 C-6.95915481 17.99805499 -6.95915481 17.99805499 -9.625 18.125 C-10.40875 18.08375 -11.1925 18.0425 -12 18 C-12.375 15.8125 -12.375 15.8125 -12 13 C-10.61493126 11.77982039 -9.21613962 10.56948943 -7.734375 9.46875 C-4.5868217 6.80325442 -2.35245854 3.36184678 0 0 Z " fill="#3D9CFB" transform="translate(302,32)"/>
<path d="M0 0 C5.85577356 0 8.58218716 2.95960603 12.55859375 6.796875 C14 9 14 9 13.72265625 11.765625 C13.48417969 12.50296875 13.24570312 13.2403125 13 14 C7.29156861 12.40694938 3.6473026 10.25131355 0.125 5.4375 C-1 3 -1 3 0 0 Z " fill="#3D9CFB" transform="translate(269,179)"/>
<path d="M0 0 C2.54055845 0.25552438 5.03852505 0.56707159 7.5625 0.9375 C8.27341797 1.03740234 8.98433594 1.13730469 9.71679688 1.24023438 C11.47856957 1.48853791 13.23938152 1.74364039 15 2 C15.38218767 3.65614657 15.71395102 5.32457024 16 7 C14.45763775 8.54236225 13.01543321 8.16936074 10.875 8.1875 C6.56231637 8.15299853 3.06950421 7.38536313 -1 6 C-1.042721 4.33388095 -1.04063832 2.66617115 -1 1 C-0.67 0.67 -0.34 0.34 0 0 Z " fill="#3D9CFB" transform="translate(56,109)"/>
<path d="M0 0 C1.28132813 0.10183594 2.56265625 0.20367187 3.8828125 0.30859375 C4.87023437 0.39238281 5.85765625 0.47617188 6.875 0.5625 C6.545 2.2125 6.215 3.8625 5.875 5.5625 C1.04747654 6.80831251 -5.52956709 7.86021645 -10.125 5.5625 C-9.75 3.125 -9.75 3.125 -9.125 0.5625 C-6.07230154 -0.96384923 -3.36654311 -0.27544444 0 0 Z " fill="#3D9CFB" transform="translate(342.125,103.4375)"/>
</svg>
