<?xml version="1.0" encoding="UTF-8"?>
<svg version="1.1" xmlns="http://www.w3.org/2000/svg" width="400" height="400">
<path d="M0 0 C7.50056246 5.21077961 14.12666914 11.25607792 20.36230469 17.92675781 C20.84699219 17.27449219 21.33167969 16.62222656 21.83105469 15.95019531 C27.80520165 8.16082677 34.16173895 1.29298416 44.04980469 -0.88574219 C48.94433568 -1.36881508 53.03873963 -0.40316336 57.36230469 1.92675781 C63.30822692 6.8256807 65.80203806 13.53555693 67.36230469 20.92675781 C67.44049105 22.44071477 67.47020377 23.95769289 67.45996094 25.47363281 C67.45673828 26.31796875 67.45351563 27.16230469 67.45019531 28.03222656 C67.44181641 28.90492187 67.4334375 29.77761719 67.42480469 30.67675781 C67.42029297 31.56492188 67.41578125 32.45308594 67.41113281 33.36816406 C67.39937869 35.5544311 67.38294717 37.7405596 67.36230469 39.92675781 C68.66941406 39.89195313 68.66941406 39.89195313 70.00292969 39.85644531 C81.93716689 39.67562354 93.15256009 40.10035938 103.36230469 46.92675781 C106.16441679 49.89370004 106.56521647 52.34727076 106.79980469 56.30175781 C106.5921314 61.73738031 104.78516507 65.59878752 100.86621094 69.36425781 C99.39900562 70.59363683 97.88192603 71.76279253 96.36230469 72.92675781 C95.34946333 73.91374939 94.34611945 74.9108304 93.36230469 75.92675781 C94.00296875 76.33925781 94.64363281 76.75175781 95.30371094 77.17675781 C103.94458024 82.94592241 111.62356538 89.50976722 114.36230469 99.92675781 C115.10728252 106.4876421 115.22699572 112.32961908 111.36230469 117.92675781 C110.68167969 118.91675781 110.00105469 119.90675781 109.29980469 120.92675781 C105.01135696 125.85197505 99.03400606 129.28186438 92.73730469 130.80175781 C91.95355469 130.84300781 91.16980469 130.88425781 90.36230469 130.92675781 C90.63945312 131.45785156 90.91660156 131.98894531 91.20214844 132.53613281 C91.564375 133.24253906 91.92660156 133.94894531 92.29980469 134.67675781 C92.65945313 135.37285156 93.01910156 136.06894531 93.38964844 136.78613281 C95.43584047 141.2893988 95.55313182 145.3608235 95.61230469 150.30175781 C95.65097656 152.23148437 95.65097656 152.23148437 95.69042969 154.20019531 C95.343745 158.13754282 94.35068426 160.54651254 92.36230469 163.92675781 C91.37230469 163.92675781 90.38230469 163.92675781 89.36230469 163.92675781 C89.40871094 162.8271875 89.45511719 161.72761719 89.50292969 160.59472656 C89.77933784 151.17230348 90.04615027 141.55813997 83.66308594 133.88378906 C82.36230469 131.92675781 82.36230469 131.92675781 82.52392578 129.95458984 C83.64812426 127.23543068 84.84635186 126.78242742 87.47558594 125.52441406 C88.31154297 125.10869141 89.1475 124.69296875 90.00878906 124.26464844 C90.88857422 123.84376953 91.76835937 123.42289063 92.67480469 122.98925781 C101.57177148 118.73921202 101.57177148 118.73921202 107.36230469 110.92675781 C108.15998648 104.79600346 107.73423974 100.01505909 104.10839844 94.93066406 C98.81185181 88.852077 92.48269421 83.81252978 85.95605469 79.11816406 C84.36230469 77.92675781 84.36230469 77.92675781 82.36230469 75.92675781 C82.40527344 73.98535156 82.40527344 73.98535156 83.36230469 71.92675781 C85.72558594 70.39941406 85.72558594 70.39941406 88.67480469 68.98925781 C94.44755202 66.00752724 94.44755202 66.00752724 98.36230469 60.92675781 C99.31250632 57.27213617 99.56241835 55.5270988 98.36230469 51.92675781 C96.51514659 50.7142846 96.51514659 50.7142846 94.23730469 49.80175781 C93.49222656 49.46917969 92.74714844 49.13660156 91.97949219 48.79394531 C85.68295906 46.70763135 78.99893227 46.66921734 72.42480469 46.36425781 C71.11286133 46.29948242 71.11286133 46.29948242 69.77441406 46.23339844 C67.63718474 46.1282888 65.49976231 46.02711796 63.36230469 45.92675781 C62.21799299 43.63813442 62.20990509 42.25360082 62.15136719 39.70800781 C61.91120049 26.52147932 61.91120049 26.52147932 58.36230469 13.92675781 C57.99105469 12.95738281 57.61980469 11.98800781 57.23730469 10.98925781 C54.21713828 7.66707476 50.78062206 6.46948026 46.36230469 5.92675781 C41.4506269 6.69445227 37.06037778 8.55025629 33.36230469 11.92675781 C34.43480469 12.33925781 35.50730469 12.75175781 36.61230469 13.17675781 C40.82207857 14.79590161 43.58507292 17.18991137 45.44433594 21.34472656 C47.99363083 31.01023502 48.28802153 42.24162621 45.36230469 51.92675781 C46.87824219 51.43175781 46.87824219 51.43175781 48.42480469 50.92675781 C56.07977681 49.00615549 66.21723267 48.16200743 73.36230469 51.92675781 C74.97610664 55.15436172 74.76166117 57.3325495 74.36230469 60.92675781 C71.59977611 66.60967374 67.74287463 70.89015726 62.78027344 74.73535156 C61.21501786 75.8904111 61.21501786 75.8904111 60.36230469 77.92675781 C61.09578125 78.19101563 61.82925781 78.45527344 62.58496094 78.72753906 C70.69473609 82.22922819 78.94490949 89.64262569 82.36230469 97.92675781 C83.02317764 101.69314882 83.07757893 105.16494513 82.36230469 108.92675781 C80.86621094 110.82519531 80.86621094 110.82519531 78.98730469 112.55175781 C74.53202271 116.88229189 74.5143457 121.55987722 74.06542969 127.4206543 C73.29318012 136.60016772 69.8818308 144.56738967 64.36230469 151.92675781 C65.08933594 152.23226562 65.81636719 152.53777344 66.56542969 152.85253906 C82.10346838 159.92433872 94.65462575 173.17829421 101.36230469 188.92675781 C101.36230469 189.58675781 101.36230469 190.24675781 101.36230469 190.92675781 C97.94493048 190.64497433 96.60791611 190.17367106 94.15136719 187.70410156 C93.43722656 186.76695312 92.72308594 185.82980469 91.98730469 184.86425781 C91.20613281 183.86652344 90.42496094 182.86878906 89.62011719 181.84082031 C88.87503906 180.87917969 88.12996094 179.91753906 87.36230469 178.92675781 C80.06303998 169.99847266 72.05389727 160.81123415 60.25292969 158.51660156 C46.33967198 157.52642446 31.7080999 168.41117134 20.23681641 175.18115234 C9.45788376 181.53743619 -0.83403978 185.0794963 -13.12548828 187.43896484 C-15.41290475 187.88311043 -17.68131516 188.37883555 -19.95410156 188.89160156 C-30.90369912 191.19247427 -41.64043787 191.10710328 -52.80175781 190.64086914 C-59.76373607 190.27765045 -59.76373607 190.27765045 -65.81738281 193.21582031 C-66.41808594 194.11042969 -67.01878906 195.00503906 -67.63769531 195.92675781 C-68.13914062 196.53519531 -68.64058594 197.14363281 -69.15722656 197.77050781 C-69.79724609 198.59035156 -69.79724609 198.59035156 -70.45019531 199.42675781 C-73.59835665 203.1636662 -77.2507814 205.78270304 -81.63769531 207.92675781 C-82.29769531 207.92675781 -82.95769531 207.92675781 -83.63769531 207.92675781 C-83.63769531 208.58675781 -83.63769531 209.24675781 -83.63769531 209.92675781 C-76.9313361 206.79897823 -76.9313361 206.79897823 -70.82519531 202.67675781 C-68.39277805 200.730824 -66.69900524 200.2766218 -63.63769531 199.92675781 C-60.44209959 203.92125247 -58.90694157 206.7840182 -59.18457031 211.96972656 C-60.22429914 216.46027951 -63.52594034 219.10006822 -67.07519531 221.73925781 C-71.49716033 223.78846111 -74.36531355 224.24485325 -79.13769531 223.05175781 C-83.86395635 220.83073091 -86.13073917 216.30704382 -88.63769531 211.92675781 C-92.42914322 212.78845052 -94.31623109 213.5705407 -96.95019531 216.48925781 C-99.00803037 220.68114405 -99.88055039 224.25389117 -99.63769531 228.92675781 C-98.38826191 232.26183111 -98.38826191 232.26183111 -96.63769531 234.92675781 C-96.30769531 235.91675781 -95.97769531 236.90675781 -95.63769531 237.92675781 C-92.13014864 239.67426767 -88.43325581 240.56457407 -84.63769531 241.48925781 C-83.62707031 241.73804688 -82.61644531 241.98683594 -81.57519531 242.24316406 C-78.9370684 242.85708987 -76.2970056 243.41347182 -73.63769531 243.92675781 C-73.63769531 245.24675781 -73.63769531 246.56675781 -73.63769531 247.92675781 C-76.65260088 248.93172634 -78.67951223 249.03011084 -81.82519531 248.98925781 C-82.72625 248.98023438 -83.62730469 248.97121094 -84.55566406 248.96191406 C-85.58626953 248.94451172 -85.58626953 248.94451172 -86.63769531 248.92675781 C-85.66031763 250.57365416 -84.68074211 252.21924636 -83.70019531 253.86425781 C-83.15492188 254.78078125 -82.60964844 255.69730469 -82.04785156 256.64160156 C-80.83037358 258.81088458 -80.83037358 258.81088458 -79.63769531 259.92675781 C-76.77891622 260.1637702 -73.93886234 260.34894963 -71.07519531 260.48925781 C-70.26888672 260.53244141 -69.46257812 260.575625 -68.63183594 260.62011719 C-66.63400727 260.72651043 -64.63587462 260.82716669 -62.63769531 260.92675781 C-62.96769531 262.57675781 -63.29769531 264.22675781 -63.63769531 265.92675781 C-66.27769531 266.58675781 -68.91769531 267.24675781 -71.63769531 267.92675781 C-70.04201793 268.73539896 -68.43544249 269.5225333 -66.82519531 270.30175781 C-65.931875 270.74261719 -65.03855469 271.18347656 -64.11816406 271.63769531 C-55.28357513 274.90976529 -46.64578562 275.19787567 -37.32519531 274.73925781 C-36.16947021 274.68809814 -35.01374512 274.63693848 -33.82299805 274.58422852 C-5.05652908 273.15698021 21.28055406 269.39834757 48.47558594 259.95019531 C57.4619414 256.84132576 57.4619414 256.84132576 61.36230469 255.92675781 C62.02230469 256.25675781 62.68230469 256.58675781 63.36230469 256.92675781 C62.33170875 259.97865159 61.41626938 260.89373235 58.62402344 262.60253906 C39.69478843 271.27068056 21.04761433 276.43333765 0.36230469 278.92675781 C-0.59981934 279.04390137 -1.56194336 279.16104492 -2.55322266 279.28173828 C-14.55095801 280.66696317 -26.57821343 281.14985596 -38.64794922 281.27722168 C-40.0743012 281.29329573 -41.50060159 281.31529262 -42.92675781 281.34387207 C-56.22099617 281.58318732 -68.10547673 279.48544404 -78.63769531 270.92675781 C-79.63349609 270.15138672 -79.63349609 270.15138672 -80.64941406 269.36035156 C-86.19293563 264.49207231 -89.23790698 258.55584935 -92.40527344 252.00561523 C-94.6157222 247.50146837 -96.8888899 244.36676542 -100.63769531 240.92675781 C-105.65885669 233.95292257 -106.46105519 228.40629526 -105.63769531 219.92675781 C-104.59137067 216.92485697 -103.31636823 214.65460131 -101.63769531 211.92675781 C-102.58644531 212.00925781 -103.53519531 212.09175781 -104.51269531 212.17675781 C-116.10568938 212.1069205 -127.30344937 203.42798091 -135.26269531 195.80175781 C-148.39792273 182.06777358 -159.3320806 163.74011414 -160.01269531 144.30175781 C-159.62856004 133.14582928 -155.02235787 122.86159511 -147.01269531 115.05175781 C-139.15360107 108.75555163 -129.87658105 107.21209522 -120.02050781 107.54785156 C-104.79328108 109.25344162 -91.30992126 119.81667341 -81.85717773 131.36181641 C-70.20653401 146.151988 -62.50866669 162.7789103 -62.63769531 181.92675781 C-62.96769531 182.91675781 -63.29769531 183.90675781 -63.63769531 184.92675781 C-62.97769531 184.59675781 -62.31769531 184.26675781 -61.63769531 183.92675781 C-60.01517039 183.82789429 -58.38822258 183.79704614 -56.76269531 183.80175781 C-55.89902344 183.79917969 -55.03535156 183.79660156 -54.14550781 183.79394531 C-52.09069452 183.87174448 -50.03519643 183.99295488 -47.99121094 184.2175293 C-40.62137759 185.0092949 -34.15808997 184.6020466 -26.88769531 183.23925781 C-25.84347412 183.05137695 -24.79925293 182.86349609 -23.72338867 182.66992188 C-20.68991249 182.11162198 -17.66342591 181.5254651 -14.63769531 180.92675781 C-13.85217285 180.77577637 -13.06665039 180.62479492 -12.25732422 180.46923828 C3.1667668 177.41975591 16.34103676 170.17766828 29.89282227 162.51171875 C36.99659038 158.51016516 44.26517602 154.76695985 51.94824219 151.99316406 C58.41656116 149.57560299 61.3904761 146.13236948 64.36230469 139.92675781 C67.97845026 131.01594426 70.58888217 121.30566031 67.17480469 111.92675781 C65.11532179 108.51795853 63.89700291 107.66267664 60.36230469 105.92675781 C56.57636093 105.07492047 52.78780851 104.47741292 48.95605469 103.86816406 C45.1229108 102.86404702 43.18542634 101.66034016 40.36230469 98.92675781 C39.13707955 96.47630754 39.17336933 94.72727084 39.08105469 91.98925781 C39.02498047 90.52359375 39.02498047 90.52359375 38.96777344 89.02832031 C38.89746094 86.96061198 38.82714844 84.89290365 38.75683594 82.82519531 C38.70076172 81.35953125 38.70076172 81.35953125 38.64355469 79.86425781 C38.61326172 78.96578125 38.58296875 78.06730469 38.55175781 77.14160156 C38.49623012 74.88681087 38.49623012 74.88681087 37.36230469 72.92675781 C34.71707625 72.11849357 32.83861738 71.82901017 30.11621094 72.38769531 C21.18424241 74.13608064 13.0536116 73.83543743 5.36230469 68.92675781 C-2.1296711 64.4093988 -2.1296711 64.4093988 -10.57128906 64.26269531 C-13.83029593 65.31001321 -16.94835199 66.6377304 -20.04785156 68.08691406 C-24.70827192 69.59821176 -28.36518113 69.45505792 -32.88378906 67.57910156 C-33.93695313 67.01320313 -34.99011719 66.44730469 -36.07519531 65.86425781 C-42.13816526 62.82814492 -42.13816526 62.82814492 -48.68066406 62.97363281 C-52.28194603 64.72755058 -55.17630809 67.40838664 -58.20800781 69.99316406 C-62.36244521 73.29934817 -66.5028174 74.45513119 -71.62597656 75.58691406 C-79.77381035 77.28024048 -79.77381035 77.28024048 -85.63769531 82.92675781 C-88.35079979 88.488622 -88.26345246 94.8403872 -88.63769531 100.92675781 C-90.05392747 100.98122828 -91.47077722 101.01976289 -92.88769531 101.05175781 C-94.07105469 101.0865625 -94.07105469 101.0865625 -95.27832031 101.12207031 C-97.88383848 100.90638172 -99.43756508 100.31887561 -101.63769531 98.92675781 C-103.04770195 96.10674454 -102.88317982 94.05668526 -102.63769531 90.92675781 C-101.13769531 88.05175781 -101.13769531 88.05175781 -99.63769531 85.92675781 C-100.35054687 85.75660156 -101.06339844 85.58644531 -101.79785156 85.41113281 C-114.91111787 82.0931058 -114.91111787 82.0931058 -119.57519531 76.67675781 C-121.379407 72.00703343 -121.45185923 67.87170495 -119.51269531 63.23925781 C-114.51635339 57.07710278 -109.56287033 54.19642649 -101.82519531 53.30175781 C-100.4300073 53.16974981 -99.03433639 53.04238387 -97.63769531 52.92675781 C-98.95769531 50.61675781 -100.27769531 48.30675781 -101.63769531 45.92675781 C-111.31625907 46.56141773 -120.75966271 48.69600559 -127.63769531 55.92675781 C-130.04166298 59.96979434 -130.32392602 64.32647047 -129.63769531 68.92675781 C-127.87171663 74.18651052 -125.43529132 77.98277844 -120.63769531 80.92675781 C-115.72804698 83.22621336 -111.01274886 84.3668564 -105.63769531 84.92675781 C-106.22313052 88.77643783 -108.02329576 90.87466163 -110.51269531 93.80175781 C-113.4813229 97.39815969 -115.8318104 100.63778116 -117.63769531 104.92675781 C-118.95769531 104.92675781 -120.27769531 104.92675781 -121.63769531 104.92675781 C-122.89118138 101.97569346 -122.64814337 100.95269318 -121.42285156 97.91113281 C-120.854375 96.84378906 -120.28589844 95.77644531 -119.70019531 94.67675781 C-118.85134766 93.06027344 -118.85134766 93.06027344 -117.98535156 91.41113281 C-117.540625 90.59128906 -117.09589844 89.77144531 -116.63769531 88.92675781 C-117.40210938 88.79527344 -118.16652344 88.66378906 -118.95410156 88.52832031 C-125.36670697 87.09085127 -130.09187583 82.25071686 -133.63769531 76.92675781 C-136.74858086 70.34379776 -137.75531443 63.98167744 -135.57519531 56.92675781 C-132.73292359 50.07342974 -127.25770344 45.69638914 -120.61816406 42.70410156 C-115.85187516 40.83330967 -111.74020748 39.82244751 -106.63769531 39.92675781 C-106.92644531 39.05535156 -107.21519531 38.18394531 -107.51269531 37.28613281 C-110.3556377 28.16502597 -113.09575043 18.66755399 -109.01269531 9.48925781 C-105.55380115 3.68024392 -100.72102919 0.31523836 -94.31347656 -1.56933594 C-79.84575142 -4.29391483 -66.03823284 -0.5700819 -53.63769531 6.92675781 C-50.17237802 9.45070938 -46.86876885 12.11029106 -43.63769531 14.92675781 C-43.49074219 14.21390625 -43.34378906 13.50105469 -43.19238281 12.76660156 C-41.27449314 4.57699222 -38.76681906 -0.40651643 -31.63769531 -5.01074219 C-20.84519065 -8.79883985 -9.28324843 -6.08365535 0 0 Z M-32.63769531 3.92675781 C-34.04960095 6.53113014 -34.04960095 6.53113014 -34.63769531 8.92675781 C-34.00863281 8.89195313 -33.37957031 8.85714844 -32.73144531 8.82128906 C-20.20680994 8.42517861 -13.70456275 13.60940662 -4.57519531 21.77050781 C1.48603376 27.5384516 6.38323056 34.2335762 11.36230469 40.92675781 C14.36966633 39.42307699 14.76246858 37.16476487 16.04980469 34.11425781 C16.50742187 33.0559375 16.96503906 31.99761719 17.43652344 30.90722656 C18.3921473 27.83068222 18.69035836 26.79441352 17.36230469 23.92675781 C9.72275139 13.42010376 -2.01204582 3.5894288 -14.63769531 -0.07324219 C-21.51089896 -1.029514 -27.40465017 -1.16857561 -32.63769531 3.92675781 Z M-102.76269531 9.61425781 C-105.04300248 13.64280048 -105.98244631 17.28587906 -105.63769531 21.92675781 C-104.97769531 22.91675781 -104.31769531 23.90675781 -103.63769531 24.92675781 C-102.95707031 24.30800781 -102.27644531 23.68925781 -101.57519531 23.05175781 C-94.15316177 17.68262716 -85.37663568 18.1798081 -76.60644531 19.32128906 C-62.67279721 22.04820252 -49.76480643 28.72695758 -38.04394531 36.55566406 C-37.24988281 37.008125 -36.45582031 37.46058594 -35.63769531 37.92675781 C-34.97769531 37.59675781 -34.31769531 37.26675781 -33.63769531 36.92675781 C-40.90889423 21.47089277 -55.89499767 10.80864484 -71.63769531 4.92675781 C-81.71775877 1.43821126 -94.80982568 1.36258094 -102.76269531 9.61425781 Z M-132.63769531 114.92675781 C-132.63769531 115.25675781 -132.63769531 115.58675781 -132.63769531 115.92675781 C-131.98285156 116.00152344 -131.32800781 116.07628906 -130.65332031 116.15332031 C-118.32531664 117.92938864 -108.81200347 123.71117961 -99.63769531 131.92675781 C-98.81527344 132.65507812 -97.99285156 133.38339844 -97.14550781 134.13378906 C-85.22141103 145.33352482 -74.42150088 161.30375812 -72.63769531 177.92675781 C-72.49339434 182.59912381 -72.51805559 187.25416207 -72.63769531 191.92675781 C-70.35250495 191.05686698 -70.35250495 191.05686698 -69.53613281 188.27441406 C-65.81855999 174.42241446 -70.52883064 161.02862378 -76.93847656 148.77441406 C-79.72768536 144.10008483 -83.08599013 140.03559322 -86.63769531 135.92675781 C-87.46914062 134.87875 -87.46914062 134.87875 -88.31738281 133.80957031 C-96.26784601 124.03316342 -108.01843856 115.92035375 -120.63769531 113.92675781 C-124.81428936 113.77759374 -128.57288832 113.94135006 -132.63769531 114.92675781 Z M-140.01269531 131.80175781 C-143.92760124 136.92125019 -143.11880726 142.71973601 -142.63769531 148.92675781 C-139.79349121 161.99384411 -132.98752239 172.57693074 -123.63769531 181.92675781 C-122.66316406 182.90128906 -122.66316406 182.90128906 -121.66894531 183.89550781 C-115.42417443 189.73078553 -107.09917591 195.19600042 -98.63769531 196.92675781 C-94.00264509 196.73632035 -94.00264509 196.73632035 -89.96191406 194.70800781 C-87.05815295 190.80206366 -88.09642997 185.51710429 -88.63769531 180.92675781 C-92.20765266 166.34943197 -100.30871649 154.55621602 -110.63769531 143.92675781 C-111.51554687 142.95609375 -111.51554687 142.95609375 -112.41113281 141.96582031 C-118.115107 135.83337858 -125.56028184 130.38834086 -134.07519531 129.61425781 C-137.67227409 129.60150075 -137.67227409 129.60150075 -140.01269531 131.80175781 Z M-149.63769531 138.92675781 C-150.66716568 153.97990228 -146.57238958 165.75738949 -137.63769531 177.92675781 C-136.90679687 178.92707031 -136.17589844 179.92738281 -135.42285156 180.95800781 C-127.96845624 190.52669679 -118.61255709 198.71920555 -106.63769531 201.92675781 C-103.80234079 202.18190317 -103.80234079 202.18190317 -101.63769531 201.92675781 C-104.71621024 199.87441453 -107.78780328 198.43174048 -111.13769531 196.86425781 C-127.4657127 188.8535291 -138.26295179 175.91924134 -144.63769531 158.92675781 C-146.6818463 152.34539325 -147.97870528 145.78025415 -148.63769531 138.92675781 C-148.96769531 138.92675781 -149.29769531 138.92675781 -149.63769531 138.92675781 Z M-73.63769531 191.92675781 C-72.63769531 193.92675781 -72.63769531 193.92675781 -72.63769531 193.92675781 Z " fill="#3C9BFA" transform="translate(275.6376953125,36.0732421875)"/>
<path d="M0 0 C0.98097656 0.556875 1.96195312 1.11375 2.97265625 1.6875 C9.17435032 4.92668327 9.17435032 4.92668327 16.03515625 4.6875 C17.98309535 3.87886908 19.91961942 3.04249981 21.84765625 2.1875 C27.50729104 -0.23306074 31.94342691 -1.97617229 38.03515625 -0.3125 C41.51122232 1.39197672 44.83319006 3.35300257 48.06347656 5.48486328 C53.86885397 9.16898902 58.84085153 9.52636094 65.53515625 8.1875 C70.45685132 7.20316099 75.20016131 6.9694585 79.91015625 8.8125 C83.14387463 11.66578093 84.85434946 14.65214434 85.2421875 19.01806641 C85.25833471 21.6636866 85.19860495 24.29378681 85.09765625 26.9375 C85.03785449 28.73409741 84.98664086 30.53100773 84.9453125 32.328125 C84.91574463 33.11735352 84.88617676 33.90658203 84.85571289 34.71972656 C84.84509994 36.92409004 84.84509994 36.92409004 87.03515625 38.6875 C90.32295297 39.35832848 93.59766863 39.89285891 96.91796875 40.3671875 C102.43347267 41.26935171 106.79335509 42.94206132 110.4609375 47.43359375 C115.38791035 56.8317402 115.290098 67.27727892 112.41015625 77.375 C110.39700179 83.32756461 107.55018075 88.4969805 104.03515625 93.6875 C104.7621875 93.99300781 105.48921875 94.29851562 106.23828125 94.61328125 C121.77631994 101.68508091 134.32747731 114.9390364 141.03515625 130.6875 C141.03515625 131.3475 141.03515625 132.0075 141.03515625 132.6875 C137.61778205 132.40571651 136.28076767 131.93441325 133.82421875 129.46484375 C133.11007812 128.52769531 132.3959375 127.59054688 131.66015625 126.625 C130.87898437 125.62726563 130.0978125 124.62953125 129.29296875 123.6015625 C128.54789063 122.63992187 127.8028125 121.67828125 127.03515625 120.6875 C119.73589154 111.75921485 111.72674883 102.57197634 99.92578125 100.27734375 C86.01252355 99.28716665 71.38095146 110.17191353 59.90966797 116.94189453 C49.13073532 123.29817838 38.83881178 126.84023849 26.54736328 129.19970703 C24.25994681 129.64385262 21.9915364 130.13957774 19.71875 130.65234375 C8.76915244 132.95321646 -1.96758631 132.86784547 -13.12890625 132.40161133 C-20.09088451 132.03839263 -20.09088451 132.03839263 -26.14453125 134.9765625 C-26.74523437 135.87117187 -27.3459375 136.76578125 -27.96484375 137.6875 C-28.46628906 138.2959375 -28.96773438 138.904375 -29.484375 139.53125 C-30.12439453 140.35109375 -30.12439453 140.35109375 -30.77734375 141.1875 C-33.92550509 144.92440839 -37.57792984 147.54344523 -41.96484375 149.6875 C-42.62484375 149.6875 -43.28484375 149.6875 -43.96484375 149.6875 C-43.96484375 150.3475 -43.96484375 151.0075 -43.96484375 151.6875 C-37.25848454 148.55972042 -37.25848454 148.55972042 -31.15234375 144.4375 C-28.71992649 142.49156619 -27.02615367 142.03736399 -23.96484375 141.6875 C-20.76924802 145.68199466 -19.23409 148.54476039 -19.51171875 153.73046875 C-20.55144758 158.22102169 -23.85308878 160.86081041 -27.40234375 163.5 C-31.82430877 165.5492033 -34.69246199 166.00559544 -39.46484375 164.8125 C-44.19110479 162.5914731 -46.45788761 158.067786 -48.96484375 153.6875 C-52.75629166 154.54919271 -54.64337953 155.33128289 -57.27734375 158.25 C-59.33517881 162.44188624 -60.20769883 166.01463336 -59.96484375 170.6875 C-58.71541034 174.0225733 -58.71541034 174.0225733 -56.96484375 176.6875 C-56.63484375 177.6775 -56.30484375 178.6675 -55.96484375 179.6875 C-52.45729708 181.43500986 -48.76040425 182.32531626 -44.96484375 183.25 C-43.95421875 183.49878906 -42.94359375 183.74757813 -41.90234375 184.00390625 C-39.26421684 184.61783206 -36.62415404 185.17421401 -33.96484375 185.6875 C-33.96484375 187.0075 -33.96484375 188.3275 -33.96484375 189.6875 C-36.97974932 190.69246852 -39.00666067 190.79085303 -42.15234375 190.75 C-43.05339844 190.74097656 -43.95445312 190.73195313 -44.8828125 190.72265625 C-45.91341797 190.70525391 -45.91341797 190.70525391 -46.96484375 190.6875 C-45.98746606 192.33439635 -45.00789055 193.97998854 -44.02734375 195.625 C-43.48207031 196.54152344 -42.93679687 197.45804688 -42.375 198.40234375 C-41.15752202 200.57162677 -41.15752202 200.57162677 -39.96484375 201.6875 C-37.10606466 201.92451239 -34.26601078 202.10969182 -31.40234375 202.25 C-30.19288086 202.31477539 -30.19288086 202.31477539 -28.95898438 202.38085938 C-26.9611557 202.48725262 -24.96302305 202.58790888 -22.96484375 202.6875 C-23.29484375 204.3375 -23.62484375 205.9875 -23.96484375 207.6875 C-27.92484375 208.6775 -27.92484375 208.6775 -31.96484375 209.6875 C-30.36916637 210.49614115 -28.76259093 211.28327549 -27.15234375 212.0625 C-26.25902344 212.50335938 -25.36570312 212.94421875 -24.4453125 213.3984375 C-15.61072356 216.67050748 -6.97293406 216.95861786 2.34765625 216.5 C3.50338135 216.44884033 4.65910645 216.39768066 5.84985352 216.3449707 C34.61632248 214.91772239 60.95340563 211.15908976 88.1484375 201.7109375 C97.13479296 198.60206794 97.13479296 198.60206794 101.03515625 197.6875 C101.69515625 198.0175 102.35515625 198.3475 103.03515625 198.6875 C102.00456031 201.73939377 101.08912094 202.65447453 98.296875 204.36328125 C79.36763999 213.03142275 60.72046589 218.19407984 40.03515625 220.6875 C39.07303223 220.80464355 38.1109082 220.92178711 37.11962891 221.04248047 C25.12189355 222.42770536 13.09463814 222.91059815 1.02490234 223.03796387 C-0.40144964 223.05403792 -1.82775003 223.0760348 -3.25390625 223.10461426 C-16.5481446 223.3439295 -28.43262517 221.24618623 -38.96484375 212.6875 C-39.96064453 211.91212891 -39.96064453 211.91212891 -40.9765625 211.12109375 C-46.52008407 206.25281449 -49.56505542 200.31659154 -52.73242188 193.76635742 C-54.94287064 189.26221056 -57.21603834 186.1275076 -60.96484375 182.6875 C-65.98600513 175.71366475 -66.78820363 170.16703745 -65.96484375 161.6875 C-64.9185191 158.68559916 -63.64351667 156.4153435 -61.96484375 153.6875 C-62.91359375 153.77 -63.86234375 153.8525 -64.83984375 153.9375 C-76.43283782 153.86766269 -87.63059781 145.1887231 -95.58984375 137.5625 C-108.72507117 123.82851577 -119.65922903 105.50085633 -120.33984375 86.0625 C-119.95570848 74.90657147 -115.34950631 64.6223373 -107.33984375 56.8125 C-99.48074951 50.51629382 -90.20372948 48.97283741 -80.34765625 49.30859375 C-65.12042952 51.01418381 -51.6370697 61.57741559 -42.18432617 73.12255859 C-30.53368245 87.91273019 -22.83581513 104.53965248 -22.96484375 123.6875 C-23.45984375 125.1725 -23.45984375 125.1725 -23.96484375 126.6875 C-23.30484375 126.3575 -22.64484375 126.0275 -21.96484375 125.6875 C-20.34231883 125.58863647 -18.71537102 125.55778833 -17.08984375 125.5625 C-16.22617188 125.55992187 -15.3625 125.55734375 -14.47265625 125.5546875 C-12.41784296 125.63248667 -10.36234487 125.75369706 -8.31835938 125.97827148 C-0.94852603 126.77003709 5.51476159 126.36278879 12.78515625 125 C14.35148804 124.71817871 14.35148804 124.71817871 15.94946289 124.43066406 C18.98293907 123.87236417 22.00942566 123.28620729 25.03515625 122.6875 C25.82067871 122.53651855 26.60620117 122.38553711 27.41552734 122.22998047 C42.83961836 119.1804981 56.01388833 111.93841047 69.56567383 104.27246094 C76.66944194 100.27090735 83.93802758 96.52770204 91.62109375 93.75390625 C98.08941272 91.33634517 101.06332766 87.89311167 104.03515625 81.6875 C107.65130182 72.77668645 110.26173373 63.0664025 106.84765625 53.6875 C104.78817335 50.27870072 103.56985448 49.42341883 100.03515625 47.6875 C96.2492125 46.83566266 92.46066007 46.23815511 88.62890625 45.62890625 C84.79576236 44.62478921 82.85827791 43.42108235 80.03515625 40.6875 C78.80993112 38.23704973 78.84622089 36.48801302 78.75390625 33.75 C78.69783203 32.28433594 78.69783203 32.28433594 78.640625 30.7890625 C78.5703125 28.72135417 78.5 26.65364583 78.4296875 24.5859375 C78.37361328 23.12027344 78.37361328 23.12027344 78.31640625 21.625 C78.28611328 20.72652344 78.25582031 19.82804687 78.22460938 18.90234375 C78.16908168 16.64755305 78.16908168 16.64755305 77.03515625 14.6875 C74.38992782 13.87923576 72.51146894 13.58975235 69.7890625 14.1484375 C60.85709397 15.89682283 52.72646316 15.59617961 45.03515625 10.6875 C37.54318046 6.17014099 37.54318046 6.17014099 29.1015625 6.0234375 C25.84255563 7.0707554 22.72449957 8.39847259 19.625 9.84765625 C14.96457964 11.35895395 11.30767043 11.21580011 6.7890625 9.33984375 C5.73589844 8.77394531 4.68273437 8.20804688 3.59765625 7.625 C-2.46531369 4.58888711 -2.46531369 4.58888711 -9.0078125 4.734375 C-12.60909447 6.48829277 -15.50345653 9.16912883 -18.53515625 11.75390625 C-22.68959365 15.06009035 -26.82996584 16.21587338 -31.953125 17.34765625 C-40.10095879 19.04098267 -40.10095879 19.04098267 -45.96484375 24.6875 C-48.67794823 30.24936418 -48.5906009 36.60112939 -48.96484375 42.6875 C-49.62484375 42.6875 -50.28484375 42.6875 -50.96484375 42.6875 C-53.45190528 38.9569077 -53.29581069 36.82674196 -53.33984375 32.375 C-53.36820312 31.07949219 -53.3965625 29.78398438 -53.42578125 28.44921875 C-52.7366153 22.82492378 -50.55574661 19.98421029 -46.21875 16.44921875 C-42.48426037 14.4273042 -39.00191291 13.48216419 -34.90234375 12.5 C-27.31191259 10.50147539 -21.81673838 7.4107744 -15.6015625 2.67578125 C-10.36955088 -1.26954306 -6.34116772 -2.80715725 0 0 Z M-92.96484375 56.6875 C-92.96484375 57.0175 -92.96484375 57.3475 -92.96484375 57.6875 C-92.31 57.76226562 -91.65515625 57.83703125 -90.98046875 57.9140625 C-78.65246507 59.69013083 -69.13915191 65.4719218 -59.96484375 73.6875 C-59.14242187 74.41582031 -58.32 75.14414063 -57.47265625 75.89453125 C-45.54855947 87.09426701 -34.74864932 103.0645003 -32.96484375 119.6875 C-32.82054278 124.359866 -32.84520403 129.01490425 -32.96484375 133.6875 C-30.67965339 132.81760917 -30.67965339 132.81760917 -29.86328125 130.03515625 C-26.14570843 116.18315664 -30.85597907 102.78936597 -37.265625 90.53515625 C-40.0548338 85.86082702 -43.41313857 81.79633541 -46.96484375 77.6875 C-47.79628906 76.63949219 -47.79628906 76.63949219 -48.64453125 75.5703125 C-56.59499445 65.7939056 -68.345587 57.68109594 -80.96484375 55.6875 C-85.1414378 55.53833593 -88.90003675 55.70209224 -92.96484375 56.6875 Z M-100.33984375 73.5625 C-104.25474968 78.68199237 -103.4459557 84.4804782 -102.96484375 90.6875 C-100.12063964 103.75458629 -93.31467082 114.33767293 -83.96484375 123.6875 C-82.9903125 124.66203125 -82.9903125 124.66203125 -81.99609375 125.65625 C-75.75132286 131.49152771 -67.42632435 136.95674261 -58.96484375 138.6875 C-54.32979352 138.49706254 -54.32979352 138.49706254 -50.2890625 136.46875 C-47.38530139 132.56280585 -48.42357841 127.27784648 -48.96484375 122.6875 C-52.5348011 108.11017415 -60.63586493 96.31695821 -70.96484375 85.6875 C-71.84269531 84.71683594 -71.84269531 84.71683594 -72.73828125 83.7265625 C-78.44225543 77.59412077 -85.88743028 72.14908304 -94.40234375 71.375 C-97.99942252 71.36224294 -97.99942252 71.36224294 -100.33984375 73.5625 Z M-109.96484375 80.6875 C-110.99431412 95.74064446 -106.89953802 107.51813168 -97.96484375 119.6875 C-97.23394531 120.6878125 -96.50304687 121.688125 -95.75 122.71875 C-88.29560468 132.28743897 -78.93970552 140.47994774 -66.96484375 143.6875 C-64.12948923 143.94264536 -64.12948923 143.94264536 -61.96484375 143.6875 C-65.04335868 141.63515672 -68.11495172 140.19248267 -71.46484375 138.625 C-87.79286114 130.61427128 -98.59010023 117.67998353 -104.96484375 100.6875 C-107.00899474 94.10613543 -108.30585372 87.54099633 -108.96484375 80.6875 C-109.29484375 80.6875 -109.62484375 80.6875 -109.96484375 80.6875 Z M-33.96484375 133.6875 C-32.96484375 135.6875 -32.96484375 135.6875 -32.96484375 135.6875 Z " fill="#001637" transform="translate(235.96484375,94.3125)"/>
<path d="M0 0 C0.81339844 -0.02835938 1.62679687 -0.05671875 2.46484375 -0.0859375 C9.63291665 1.18599123 13.39920805 6.95041516 17.390625 12.46875 C27.09175383 26.47984599 35.82171847 41.14296648 44.41796875 55.84765625 C45.1296521 57.04128784 45.1296521 57.04128784 45.85571289 58.2590332 C47.0625 60.375 47.0625 60.375 48.3828125 63.421875 C50.74718007 66.17113961 52.81579308 66.12888045 56.33398438 66.42773438 C57.13126953 66.47220703 57.92855469 66.51667969 58.75 66.5625 C64.75392854 66.99526038 70.25030972 67.76087173 76.0625 69.375 C75.7325 70.695 75.4025 72.015 75.0625 73.375 C71.70807336 73.2348002 68.35403225 73.08681572 65 72.9375 C64.05705078 72.89818359 63.11410156 72.85886719 62.14257812 72.81835938 C59.44708669 72.69626394 56.7555534 72.54178953 54.0625 72.375 C52.76441406 72.30152344 51.46632812 72.22804688 50.12890625 72.15234375 C44.9979448 70.85162868 43.65334768 67.34399019 41.01171875 63.01171875 C40.25525696 61.69677936 39.50152821 60.3802653 38.75 59.0625 C30.12091326 44.19818093 21.13581808 29.50355467 11.25 15.4375 C10.75258301 14.72787109 10.25516602 14.01824219 9.74267578 13.28710938 C7.39312877 9.79820979 7.39312877 9.79820979 4.0625 7.375 C-3.11956904 6.75585612 -7.94340992 8.39167924 -13.72900391 12.71313477 C-15.5035563 14.20798849 -17.22506583 15.74692659 -18.9375 17.3125 C-20.24287113 18.47481676 -21.55023034 19.63490386 -22.859375 20.79296875 C-23.52775391 21.38513184 -24.19613281 21.97729492 -24.88476562 22.58740234 C-28.25025427 25.51819539 -31.71435225 28.32337992 -35.1875 31.125 C-35.86143799 31.6708374 -36.53537598 32.2166748 -37.22973633 32.77905273 C-40.11804689 35.11468155 -43.01527553 37.43624696 -45.93359375 39.734375 C-62.00649191 52.00637693 -62.00649191 52.00637693 -72.9375 68.375 C-72.69824272 74.18895187 -71.26964971 78.65640075 -68.5625 83.8125 C-68.20945801 84.49860352 -67.85641602 85.18470703 -67.49267578 85.89160156 C-59.86826845 100.36516413 -50.08131524 113.62581746 -40.64990234 126.95117188 C-39.02647565 129.24905899 -37.41194947 131.55288204 -35.80078125 133.859375 C-30.81886266 140.98205 -25.77515822 148.06036242 -20.625 155.0625 C-20.15755371 155.70993164 -19.69010742 156.35736328 -19.20849609 157.02441406 C-14.91408801 162.8017941 -10.01141445 168.23138956 -2.9375 170.375 C-3.2675 169.715 -3.5975 169.055 -3.9375 168.375 C-4.68138046 161.90004955 -3.49579333 157.10056294 -0.5625 151.375 C-0.02012695 150.27345581 -0.02012695 150.27345581 0.53320312 149.1496582 C3.75957824 142.71545825 7.37438995 136.53016355 11.0859375 130.3671875 C14.89014498 124.03391108 18.53048025 117.60637153 22.1875 111.1875 C22.85085972 110.02430317 23.51427017 108.86113528 24.17773438 107.69799805 C25.14549805 106.00090698 25.14549805 106.00090698 26.1328125 104.26953125 C27.09622559 102.584646 27.09622559 102.584646 28.07910156 100.86572266 C29.46752132 98.43170817 30.83564491 95.98734634 32.19433594 93.53662109 C32.72400467 92.58936409 32.72400467 92.58936409 33.26437378 91.62297058 C34.24682673 89.86523893 35.22297834 88.10398953 36.19873047 86.3425293 C37.94844137 83.55660633 39.52247217 81.45739091 42.0625 79.375 C43.0525 79.375 44.0425 79.375 45.0625 79.375 C43.71618346 83.77000027 41.99068837 87.66409301 39.82421875 91.71484375 C39.50723022 92.30975616 39.1902417 92.90466858 38.86364746 93.51760864 C37.83075014 95.45195559 36.79067448 97.38232758 35.75 99.3125 C35.02568825 100.66392256 34.30148698 102.01540433 33.57739258 103.36694336 C29.23617593 111.44888599 24.79308223 119.46697325 20.25 127.4375 C18.18240949 131.08047391 16.12017351 134.72641585 14.0625 138.375 C13.52625 139.3232666 12.99 140.2715332 12.4375 141.24853516 C10.85366317 144.07117224 9.29832035 146.90775683 7.75 149.75 C7.27522217 150.58797119 6.80044434 151.42594238 6.3112793 152.28930664 C3.43604768 157.64707903 1.9748815 162.27106377 3.0625 168.375 C3.60769743 170.57490542 3.60769743 170.57490542 5.0625 172.375 C9.43925465 174.3474917 13.7443603 174.79000614 18.49609375 175.19140625 C19.20112534 175.25256622 19.90615692 175.3137262 20.6325531 175.3767395 C22.92107699 175.57228572 25.2103271 175.7559344 27.5 175.9375 C28.29158508 176.00192291 29.08317017 176.06634583 29.89874268 176.13272095 C35.2849899 176.57033401 40.67280214 176.98228127 46.0625 177.375 C47.10647949 177.45137695 48.15045898 177.52775391 49.22607422 177.60644531 C62.56106134 178.51636781 75.93870956 178.49366749 89.2991333 178.54922485 C91.33051921 178.55799212 93.36189542 178.56947498 95.39324951 178.58383179 C98.2791802 178.60183426 101.1648006 178.60559481 104.05078125 178.60546875 C104.91046005 178.61259888 105.77013885 178.619729 106.65586853 178.6270752 C112.44677789 178.60591488 118.60829391 178.47628458 124.0625 176.375 C130.26287781 169.39994836 129.59219665 158.62982099 130.1875 149.8125 C130.31705078 148.01329102 130.31705078 148.01329102 130.44921875 146.17773438 C130.65961624 143.24385832 130.86389489 140.30969389 131.0625 137.375 C132.3825 137.705 133.7025 138.035 135.0625 138.375 C135.15092548 142.62486479 135.20336428 146.87448746 135.25 151.125 C135.27513672 152.31222656 135.30027344 153.49945313 135.32617188 154.72265625 C135.39801191 163.48714015 135.07711471 173.39382565 130.125 181 C122.59732017 186.83779252 110.96249017 185.62608847 101.85546875 185.421875 C100.00764801 185.39260674 100.00764801 185.39260674 98.12249756 185.36274719 C94.83926909 185.30719317 91.5564923 185.24132346 88.27360153 185.16878128 C86.23853119 185.12475187 84.20341916 185.08469859 82.16824341 185.04586792 C63.75581532 184.69209458 45.36877832 184.24047249 27.01611328 182.63232422 C24.07341765 182.37595117 21.12952933 182.15691395 18.18359375 181.94140625 C16.43468043 181.79685369 14.68596169 181.64991644 12.9375 181.5 C12.18976318 181.44593994 11.44202637 181.39187988 10.67163086 181.33618164 C5.8888396 180.86273362 3.67924446 179.39786196 0.0625 176.375 C-2.93761173 175.70068148 -5.84310448 175.44042204 -8.90234375 175.16015625 C-15.81565519 173.37177067 -19.69141514 167.4522569 -23.6875 161.9375 C-24.20844238 161.23085205 -24.72938477 160.5242041 -25.26611328 159.79614258 C-28.89771085 154.85378084 -32.47053404 149.86872102 -36.015625 144.86401367 C-38.93193045 140.75378836 -41.90962774 136.69285658 -44.91186523 132.64501953 C-81.38582064 83.44805782 -81.38582064 83.44805782 -78.9375 65.375 C-77.49303387 62.12210777 -75.40148166 59.91231445 -72.9375 57.375 C-72.1640625 56.48941406 -71.390625 55.60382813 -70.59375 54.69140625 C-66.31917492 49.82973675 -61.94068425 45.27773023 -56.98828125 41.109375 C-54.64654023 39.12893117 -52.3894385 37.06830603 -50.125 35 C-45.81245727 31.10819314 -41.37277388 27.41251683 -36.85546875 23.76171875 C-34.23581229 21.61900108 -31.66024464 19.4362514 -29.09301758 17.23168945 C-9.16066742 0.14471828 -9.16066742 0.14471828 0 0 Z " fill="#001434" transform="translate(88.9375,185.625)"/>
<path d="M0 0 C7.50056246 5.21077961 14.12666914 11.25607792 20.36230469 17.92675781 C20.84699219 17.27449219 21.33167969 16.62222656 21.83105469 15.95019531 C27.80520165 8.16082677 34.16173895 1.29298416 44.04980469 -0.88574219 C48.94433568 -1.36881508 53.03873963 -0.40316336 57.36230469 1.92675781 C63.30822692 6.8256807 65.80203806 13.53555693 67.36230469 20.92675781 C67.44049105 22.44071477 67.47020377 23.95769289 67.45996094 25.47363281 C67.45673828 26.31796875 67.45351563 27.16230469 67.45019531 28.03222656 C67.44181641 28.90492187 67.4334375 29.77761719 67.42480469 30.67675781 C67.42029297 31.56492188 67.41578125 32.45308594 67.41113281 33.36816406 C67.39937869 35.5544311 67.38294717 37.7405596 67.36230469 39.92675781 C68.66941406 39.89195313 68.66941406 39.89195313 70.00292969 39.85644531 C81.93716689 39.67562354 93.15256009 40.10035938 103.36230469 46.92675781 C106.16441679 49.89370004 106.56521647 52.34727076 106.79980469 56.30175781 C106.5921314 61.73738031 104.78516507 65.59878752 100.86621094 69.36425781 C99.39900562 70.59363683 97.88192603 71.76279253 96.36230469 72.92675781 C95.34946333 73.91374939 94.34611945 74.9108304 93.36230469 75.92675781 C94.00296875 76.33925781 94.64363281 76.75175781 95.30371094 77.17675781 C103.94458024 82.94592241 111.62356538 89.50976722 114.36230469 99.92675781 C115.10728252 106.4876421 115.22699572 112.32961908 111.36230469 117.92675781 C110.68167969 118.91675781 110.00105469 119.90675781 109.29980469 120.92675781 C105.01135696 125.85197505 99.03400606 129.28186438 92.73730469 130.80175781 C91.95355469 130.84300781 91.16980469 130.88425781 90.36230469 130.92675781 C90.63945312 131.45785156 90.91660156 131.98894531 91.20214844 132.53613281 C91.564375 133.24253906 91.92660156 133.94894531 92.29980469 134.67675781 C92.65945313 135.37285156 93.01910156 136.06894531 93.38964844 136.78613281 C95.43584047 141.2893988 95.55313182 145.3608235 95.61230469 150.30175781 C95.65097656 152.23148437 95.65097656 152.23148437 95.69042969 154.20019531 C95.343745 158.13754282 94.35068426 160.54651254 92.36230469 163.92675781 C91.37230469 163.92675781 90.38230469 163.92675781 89.36230469 163.92675781 C89.40871094 162.8271875 89.45511719 161.72761719 89.50292969 160.59472656 C89.77933784 151.17230348 90.04615027 141.55813997 83.66308594 133.88378906 C82.36230469 131.92675781 82.36230469 131.92675781 82.52392578 129.95458984 C83.64812426 127.23543068 84.84635186 126.78242742 87.47558594 125.52441406 C88.31154297 125.10869141 89.1475 124.69296875 90.00878906 124.26464844 C90.88857422 123.84376953 91.76835937 123.42289063 92.67480469 122.98925781 C101.57177148 118.73921202 101.57177148 118.73921202 107.36230469 110.92675781 C108.15998648 104.79600346 107.73423974 100.01505909 104.10839844 94.93066406 C98.81185181 88.852077 92.48269421 83.81252978 85.95605469 79.11816406 C84.36230469 77.92675781 84.36230469 77.92675781 82.36230469 75.92675781 C82.40527344 73.98535156 82.40527344 73.98535156 83.36230469 71.92675781 C85.72558594 70.39941406 85.72558594 70.39941406 88.67480469 68.98925781 C94.44755202 66.00752724 94.44755202 66.00752724 98.36230469 60.92675781 C99.31250632 57.27213617 99.56241835 55.5270988 98.36230469 51.92675781 C96.51514659 50.7142846 96.51514659 50.7142846 94.23730469 49.80175781 C93.49222656 49.46917969 92.74714844 49.13660156 91.97949219 48.79394531 C85.68295906 46.70763135 78.99893227 46.66921734 72.42480469 46.36425781 C71.11286133 46.29948242 71.11286133 46.29948242 69.77441406 46.23339844 C67.63718474 46.1282888 65.49976231 46.02711796 63.36230469 45.92675781 C62.21799299 43.63813442 62.20990509 42.25360082 62.15136719 39.70800781 C61.91120049 26.52147932 61.91120049 26.52147932 58.36230469 13.92675781 C57.99105469 12.95738281 57.61980469 11.98800781 57.23730469 10.98925781 C54.20685645 7.65576475 50.78596146 6.50162288 46.36230469 5.92675781 C39.33730289 6.66372924 33.9119083 10.73406677 29.36230469 15.92675781 C27.66534285 18.52595049 26.13390329 21.14223554 24.68652344 23.88769531 C23.36230469 25.92675781 23.36230469 25.92675781 20.36230469 26.92675781 C16.93573563 24.49008649 14.33715984 21.9591708 11.73730469 18.67675781 C4.56102113 10.09519679 -6.51828408 2.05641503 -17.78222656 0.48925781 C-22.53720824 0.30163831 -25.8413338 0.56350519 -30.20019531 2.55175781 C-33.03831396 5.31710419 -34.4221312 7.13705794 -35.63769531 10.92675781 C-35.61665097 14.89712416 -34.90470116 18.68073053 -34.07519531 22.55175781 C-33.49630924 25.69428222 -33.57520491 28.73974708 -33.63769531 31.92675781 C-37.22480965 31.36893442 -38.50165746 30.26067872 -40.70019531 27.42675781 C-47.26081533 19.67581434 -54.80008433 14.0443598 -63.82519531 9.48925781 C-64.8044397 8.99425781 -64.8044397 8.99425781 -65.8034668 8.48925781 C-75.26999202 3.93293403 -84.34396986 2.2947928 -94.45019531 5.61425781 C-98.73461324 7.34000937 -101.53572805 8.62727932 -103.63769531 12.92675781 C-105.77037824 20.27770749 -103.68399196 26.78366672 -101.63769531 33.92675781 C-100.8348358 36.93748098 -100.18321415 39.85201526 -99.63769531 42.92675781 C-102.41217462 45.70123712 -105.55119812 45.9355954 -109.26269531 46.73925781 C-116.52013718 48.43188029 -122.43081359 50.4095327 -127.57519531 56.05175781 C-129.9149154 60.18067561 -130.23207339 64.29556195 -129.63769531 68.92675781 C-127.88791204 74.18561733 -125.42616424 77.98837915 -120.63769531 80.92675781 C-115.72804698 83.22621336 -111.01274886 84.3668564 -105.63769531 84.92675781 C-106.22313052 88.77643783 -108.02329576 90.87466163 -110.51269531 93.80175781 C-113.4813229 97.39815969 -115.8318104 100.63778116 -117.63769531 104.92675781 C-118.95769531 104.92675781 -120.27769531 104.92675781 -121.63769531 104.92675781 C-122.89118138 101.97569346 -122.64814337 100.95269318 -121.42285156 97.91113281 C-120.854375 96.84378906 -120.28589844 95.77644531 -119.70019531 94.67675781 C-119.13429687 93.59910156 -118.56839844 92.52144531 -117.98535156 91.41113281 C-117.540625 90.59128906 -117.09589844 89.77144531 -116.63769531 88.92675781 C-117.78431641 88.72953125 -117.78431641 88.72953125 -118.95410156 88.52832031 C-125.36670697 87.09085127 -130.09187583 82.25071686 -133.63769531 76.92675781 C-136.74858086 70.34379776 -137.75531443 63.98167744 -135.57519531 56.92675781 C-132.73292359 50.07342974 -127.25770344 45.69638914 -120.61816406 42.70410156 C-115.85187516 40.83330967 -111.74020748 39.82244751 -106.63769531 39.92675781 C-106.92644531 39.05535156 -107.21519531 38.18394531 -107.51269531 37.28613281 C-110.3556377 28.16502597 -113.09575043 18.66755399 -109.01269531 9.48925781 C-105.55380115 3.68024392 -100.72102919 0.31523836 -94.31347656 -1.56933594 C-79.84575142 -4.29391483 -66.03823284 -0.5700819 -53.63769531 6.92675781 C-50.17237802 9.45070938 -46.86876885 12.11029106 -43.63769531 14.92675781 C-43.49074219 14.21390625 -43.34378906 13.50105469 -43.19238281 12.76660156 C-41.27449314 4.57699222 -38.76681906 -0.40651643 -31.63769531 -5.01074219 C-20.84519065 -8.79883985 -9.28324843 -6.08365535 0 0 Z " fill="#001434" transform="translate(275.6376953125,36.0732421875)"/>
<path d="M0 0 C19.94481065 8.15924072 36.11226115 26.46213526 44.625 45.9375 C48.60795603 56.45081504 50.32197333 66.36744895 46.734375 77.265625 C43.93284699 83.06597173 38.36673775 86.11278548 32.625 88.5625 C19.11058194 90.17852654 9.37947047 86.5323308 -1.375 78.5625 C-1.87 77.5725 -1.87 77.5725 -2.375 76.5625 C1.52666692 78.02562509 5.17051489 79.82726306 8.85546875 81.7578125 C10.60444855 82.70048478 10.60444855 82.70048478 12.625 82.5625 C11.97015625 82.24539062 11.3153125 81.92828125 10.640625 81.6015625 C-6.51147008 72.83170597 -18.63004448 59.6571403 -25.375 41.5625 C-26.5487284 37.59227476 -27.54210469 33.61738505 -28.375 29.5625 C-29.035 30.8825 -29.695 32.2025 -30.375 33.5625 C-32.62729575 26.06715512 -32.61335679 17.21296567 -29.375 10.0625 C-22.88679408 -1.22214468 -11.95786738 -3.86304086 0 0 Z M-19.75 14.4375 C-23.66490593 19.55699237 -22.85611195 25.3554782 -22.375 31.5625 C-19.53079589 44.62958629 -12.72482707 55.21267293 -3.375 64.5625 C-2.40046875 65.53703125 -2.40046875 65.53703125 -1.40625 66.53125 C4.83852089 72.36652771 13.1635194 77.83174261 21.625 79.5625 C26.26005023 79.37206254 26.26005023 79.37206254 30.30078125 77.34375 C33.20454236 73.43780585 32.16626534 68.15284648 31.625 63.5625 C28.05504265 48.98517415 19.95397882 37.19195821 9.625 26.5625 C8.74714844 25.59183594 8.74714844 25.59183594 7.8515625 24.6015625 C2.14758832 18.46912077 -5.29758653 13.02408304 -13.8125 12.25 C-17.40957877 12.23724294 -17.40957877 12.23724294 -19.75 14.4375 Z " fill="#011738" transform="translate(155.375,153.4375)"/>
<path d="M0 0 C5.51349355 3.77796007 10.73077688 9.70958698 12.03515625 16.39453125 C12.76272121 24.52506963 13.43475943 32.76636667 8.03515625 39.39453125 C2.43502686 45.50263698 -3.0080683 48.98243399 -11.30078125 49.671875 C-20.2191447 49.90957125 -26.89525151 49.38141538 -33.71484375 43.39453125 C-38.64137733 38.05087697 -41.06385745 31.11228471 -41.46484375 23.89453125 C-41.06948608 16.77809317 -38.67035501 9.80958235 -33.90234375 4.45703125 C-24.84458835 -3.56004587 -10.79132066 -5.54254763 0 0 Z M-18.96484375 3.39453125 C-20.36335031 5.60762863 -20.36335031 5.60762863 -18.79321289 9.01806641 C-18.20335196 10.57624678 -17.60499788 12.13122796 -17 13.68359375 C-16.68784042 14.50201752 -16.37568085 15.32044128 -16.05406189 16.16366577 C-15.05231188 18.78509426 -14.03996815 21.40228664 -13.02734375 24.01953125 C-12.34760728 25.79270056 -11.66856171 27.56613489 -10.99023438 29.33984375 C-9.3231148 33.69452545 -7.64648115 38.04543636 -5.96484375 42.39453125 C0.03347005 39.58592852 3.59133375 36.62594351 6.34765625 30.45703125 C7.83322505 23.83949748 7.1827784 18.35118671 4.03515625 12.39453125 C0.35031788 8.03090686 -3.5484359 5.20000053 -8.96484375 3.39453125 C-10.69279727 3.32650158 -12.4231974 3.3095748 -14.15234375 3.33203125 C-15.05339844 3.34105469 -15.95445312 3.35007813 -16.8828125 3.359375 C-17.91341797 3.37677734 -17.91341797 3.37677734 -18.96484375 3.39453125 Z " fill="#001434" transform="translate(231.96484375,125.60546875)"/>
<path d="M0 0 C19.94481065 8.15924072 36.11226115 26.46213526 44.625 45.9375 C48.60795603 56.45081504 50.32197333 66.36744895 46.734375 77.265625 C43.93284699 83.06597173 38.36673775 86.11278548 32.625 88.5625 C19.11058194 90.17852654 9.37947047 86.5323308 -1.375 78.5625 C-1.87 77.5725 -1.87 77.5725 -2.375 76.5625 C1.48159162 78.00872186 5.10262994 79.77567497 8.7578125 81.66015625 C14.8037854 84.58195487 21.81270458 84.44528817 28.2734375 82.94921875 C32.23524732 81.45531372 34.96602758 79.78617232 37.1875 76.125 C40.75815118 67.1236375 39.11217364 58.07004399 35.46557617 49.38085938 C27.61101072 32.06202189 16.38338011 16.95069599 -1.14453125 8.62890625 C-7.5351628 6.51930236 -14.87776716 5.99597916 -21.11328125 8.7890625 C-26.04010031 12.65223323 -27.95985865 18.93226135 -28.91015625 24.953125 C-29.15201657 27.82819695 -29.31963098 30.67827729 -29.375 33.5625 C-32.7175724 28.11236188 -32.00527261 21.70599936 -31.375 15.5625 C-29.21427445 8.02508531 -25.01183083 3.53287783 -18.375 -0.4375 C-12.94506252 -3.15246874 -5.55748667 -1.79537014 0 0 Z " fill="#3B98F5" transform="translate(155.375,153.4375)"/>
<path d="M0 0 C-0.47859241 1.60433809 -0.95789558 3.20846416 -1.4375 4.8125 C-1.70433594 5.70582031 -1.97117188 6.59914063 -2.24609375 7.51953125 C-2.80387873 9.35473055 -3.39344575 11.18033726 -4 13 C-3.10796875 12.98839844 -2.2159375 12.97679687 -1.296875 12.96484375 C-0.12640625 12.95582031 1.0440625 12.94679688 2.25 12.9375 C3.41015625 12.92589844 4.5703125 12.91429687 5.765625 12.90234375 C8.40977128 12.98217908 10.49826091 13.21356222 13 14 C12.34 15.32 11.68 16.64 11 18 C5.06 18 -0.88 18 -7 18 C-7.35835937 19.20914062 -7.71671875 20.41828125 -8.0859375 21.6640625 C-10.26989122 28.21592365 -13.48000447 34.24294539 -16.625 40.375 C-17.80636971 42.69445647 -18.98613645 45.01473029 -20.1640625 47.3359375 C-20.94450928 48.86033447 -20.94450928 48.86033447 -21.74072266 50.41552734 C-23.0793335 53.01922873 -23.0793335 53.01922873 -24 56 C-22.91332031 56.09087891 -22.91332031 56.09087891 -21.8046875 56.18359375 C-16.82883467 56.61483433 -11.91319609 57.07047641 -7 58 C-6.79503906 57.24074219 -6.59007812 56.48148437 -6.37890625 55.69921875 C-6.10949219 54.70535156 -5.84007812 53.71148437 -5.5625 52.6875 C-5.29566406 51.70136719 -5.02882812 50.71523438 -4.75390625 49.69921875 C-4.21920575 47.78482474 -3.62855462 45.88566385 -3 44 C-4.32 43.67 -5.64 43.34 -7 43 C-7 42.01 -7 41.02 -7 40 C-5.02 40 -3.04 40 -1 40 C-0.82984375 39.22914063 -0.6596875 38.45828125 -0.484375 37.6640625 C-0.24203125 36.66117187 0.0003125 35.65828125 0.25 34.625 C0.48203125 33.62726563 0.7140625 32.62953125 0.953125 31.6015625 C2 29 2 29 4.109375 27.6484375 C5.04523438 27.32746094 5.04523438 27.32746094 6 27 C7.63893924 32.24460557 6.52762778 33.8894889 5 40 C11.93 40.99 18.86 41.98 26 43 C26.66 40.69 27.32 38.38 28 36 C29.32 35.67 30.64 35.34 32 35 C31.67 37.97 31.34 40.94 31 44 C31.969375 44.268125 32.93875 44.53625 33.9375 44.8125 C34.948125 45.204375 35.95875 45.59625 37 46 C37.33 46.99 37.66 47.98 38 49 C35.36 49.33 32.72 49.66 30 50 C29.01 52.64 28.02 55.28 27 58 C25.68 58 24.36 58 23 58 C23.66 54.7 24.32 51.4 25 48 C24.17757812 47.93941406 23.35515625 47.87882812 22.5078125 47.81640625 C15.65999879 47.30242485 8.82989011 46.71357061 2 46 C0.35 50.62 -1.3 55.24 -3 60 C0.3 60.33 3.6 60.66 7 61 C7.495 62.98 7.495 62.98 8 65 C6.58344207 65.0272415 5.16672955 65.04650467 3.75 65.0625 C2.56664062 65.07990234 2.56664062 65.07990234 1.359375 65.09765625 C-0.90691002 65.00385306 -2.8288895 64.63241063 -5 64 C-5.2475 64.969375 -5.495 65.93875 -5.75 66.9375 C-6.1625 67.948125 -6.575 68.95875 -7 70 C-9.125 70.875 -9.125 70.875 -11 71 C-10.67 68.36 -10.34 65.72 -10 63 C-15.61 62.34 -21.22 61.68 -27 61 C-28.32 63.64 -29.64 66.28 -31 69 C-32.32 69 -33.64 69 -35 69 C-34.34 66.03 -33.68 63.06 -33 60 C-35.97 59.34 -38.94 58.68 -42 58 C-42 57.01 -42 56.02 -42 55 C-40 54 -40 54 -37.93798828 54.28344727 C-34.71726725 54.56829654 -32.96398811 54.36118796 -30 53 C-25.83435573 48.12139366 -23.48232391 41.73097834 -20.875 35.9375 C-20.10510513 34.30236374 -19.33170273 32.66887408 -18.5546875 31.03710938 C-16.66196105 27.04267344 -14.81872898 23.02863356 -13 19 C-15.31 18.01 -17.62 17.02 -20 16 C-20 15.01 -20 14.02 -20 13 C-19.00419922 13.08314453 -19.00419922 13.08314453 -17.98828125 13.16796875 C-14.99547205 13.18981407 -12.81682484 13.04822119 -10 12 C-8.10338304 9.2440463 -7.04217931 6.62033508 -5.9375 3.46875 C-4.59797464 -0.05866678 -3.71561127 0 0 0 Z " fill="#001434" transform="translate(153,268)"/>
<path d="M0 0 C6.4310107 4.23213866 10.05242071 10.57671905 14.1875 16.9375 C14.89841797 18.00935547 15.60933594 19.08121094 16.34179688 20.18554688 C25 33.33982538 25 33.33982538 25 38 C21.5693529 36.58515254 20.03916112 35.04640614 18.01171875 31.96484375 C17.19864258 30.74958008 17.19864258 30.74958008 16.36914062 29.50976562 C15.81419922 28.66091797 15.25925781 27.81207031 14.6875 26.9375 C10.77657215 21.0223956 6.78151125 15.31302958 2.29614258 9.81469727 C1 8 1 8 1 6 C-2.44684114 5.09689752 -4.28703554 4.64406705 -7.53515625 6.265625 C-8.36917969 6.92046875 -9.20320313 7.5753125 -10.0625 8.25 C-11.01640625 8.9925 -11.9703125 9.735 -12.953125 10.5 C-17.77254484 14.45439577 -22.55395271 18.44281376 -27.2734375 22.51611328 C-29.0592497 24.0509219 -30.85631766 25.57162751 -32.65625 27.08984375 C-38.38841939 31.93791308 -43.98626555 36.79315052 -49.19921875 42.20703125 C-51.10405459 44.10360316 -53.11528186 45.78917055 -55.1875 47.5 C-60.00557573 51.6813675 -63.68319151 55.84665035 -64.3359375 62.34375 C-63.94691982 66.57770992 -62.81152922 68.87018865 -60.625 72.5 C-60.26921875 73.09603027 -59.9134375 73.69206055 -59.546875 74.30615234 C-55.63774093 80.7713883 -51.4151884 87.03730454 -47.16552734 93.28173828 C-45.52813296 95.69564311 -43.92159242 98.12966396 -42.3125 100.5625 C-37.74933286 107.41191652 -33.0998404 114.20258977 -28.4543457 120.99633789 C-27.22411724 122.79658989 -25.99626979 124.59847168 -24.77099609 126.40209961 C-23.59604343 128.12565507 -22.41152919 129.84273339 -21.21728516 131.55297852 C-20.3981665 132.74105103 -20.3981665 132.74105103 -19.5625 133.953125 C-18.83353516 134.99774902 -18.83353516 134.99774902 -18.08984375 136.06347656 C-16.56989538 138.76424504 -16.53495885 140.97723255 -17 144 C-20.33126904 142.60377155 -21.92605634 141.13205305 -23.96313477 138.17016602 C-24.51009506 137.38286606 -25.05705536 136.5955661 -25.62059021 135.78440857 C-26.2008345 134.9287178 -26.7810788 134.07302704 -27.37890625 133.19140625 C-27.99198135 132.30087051 -28.60505646 131.41033478 -29.23670959 130.49281311 C-35.93218721 120.72664485 -42.44861683 110.84158484 -48.9375 100.9375 C-50.11498082 99.14631767 -51.29271476 97.35530171 -52.47070312 95.56445312 C-55.19563412 91.41919001 -57.91075052 87.2676483 -60.61981201 83.11199951 C-61.84070043 81.24376434 -63.06944299 79.38104895 -64.30126953 77.52001953 C-64.92501465 76.56595215 -65.54875977 75.61188477 -66.19140625 74.62890625 C-66.70002197 73.85748291 -67.2086377 73.08605957 -67.73266602 72.29125977 C-70.31948632 67.6144521 -71.56002239 63.41668713 -70.6484375 58.05859375 C-67.15912011 46.98106204 -53.5442415 37.28689492 -45 30 C-43.88688515 29.02473219 -42.77502396 28.04803261 -41.6640625 27.0703125 C-34.30986814 20.61473865 -26.85363958 14.34932716 -19.08984375 8.390625 C-17.23992937 6.95933853 -15.41098433 5.49928816 -13.62890625 3.984375 C-8.95056977 0.08120149 -6.12074161 -1.08593803 0 0 Z " fill="#001434" transform="translate(92,196)"/>
<path d="M0 0 C4.7391583 4.81398712 5.73114194 11.24885403 6.046875 17.7578125 C5.86337284 21.96756783 5.49844273 25.23358196 2.30859375 28.33203125 C-7.00750247 34.33662432 -18.73128473 35.57630704 -29.515625 34.5078125 C-33.98509462 32.90300294 -36.5285588 29.9362651 -38.953125 25.9453125 C-41.27960766 20.63770921 -41.26793767 15.18217086 -40.515625 9.5078125 C-38.23946846 3.81742114 -34.25984379 1.98793995 -28.953125 -0.51171875 C-20.93101027 -3.73856298 -7.55221562 -4.77861431 0 0 Z M-19.515625 3.5078125 C-20.78862162 5.49605266 -20.78862162 5.49605266 -19.89477539 7.75439453 C-19.55438232 8.66560059 -19.21398926 9.57680664 -18.86328125 10.515625 C-18.49912109 11.50175781 -18.13496094 12.48789063 -17.75976562 13.50390625 C-17.36982422 14.53644531 -16.97988281 15.56898438 -16.578125 16.6328125 C-16.19205078 17.67308594 -15.80597656 18.71335938 -15.40820312 19.78515625 C-14.45075999 22.36197851 -13.48630996 24.93595538 -12.515625 27.5078125 C-7.51582977 26.78756228 -4.34109076 25.97742098 -0.515625 22.5078125 C1.20129819 16.78473521 0.52661914 13.48783705 -2.21484375 8.26953125 C-3.82143571 6.09363643 -5.15513687 4.85431704 -7.515625 3.5078125 C-10.5633695 3.14623371 -10.5633695 3.14623371 -13.765625 3.3203125 C-14.84328125 3.34738281 -15.9209375 3.37445313 -17.03125 3.40234375 C-17.85109375 3.43714844 -18.6709375 3.47195312 -19.515625 3.5078125 Z " fill="#001434" transform="translate(307.515625,125.4921875)"/>
<path d="M0 0 C0.66 0 1.32 0 2 0 C3.26652896 5.82603323 3.2203733 11.3858854 1 17 C-1.08044113 19.93914853 -2.69367793 21.76645792 -6.33364868 22.41720581 C-9.29918783 22.52867366 -12.22178499 22.47621445 -15.1875 22.3671875 C-16.29101807 22.34606903 -17.39453613 22.32495056 -18.53149414 22.30319214 C-22.02225401 22.22868368 -25.51043087 22.11704312 -29 22 C-31.17185143 21.94085985 -33.34372625 21.8825715 -35.515625 21.82519531 C-40.92184516 21.6707172 -46.32545387 21.47253367 -51.72949219 21.25537109 C-54.9991107 21.12503545 -58.26900343 21.0054257 -61.5390625 20.88671875 C-76.39708773 20.32184758 -91.18906621 19.30412097 -106 18 C-106.33 17.01 -106.66 16.02 -107 15 C-104.53452242 13.76726121 -103.11287041 13.94073421 -100.359375 14.05078125 C-99.33440918 14.08888916 -98.30944336 14.12699707 -97.25341797 14.16625977 C-95.51922607 14.23864868 -95.51922607 14.23864868 -93.75 14.3125 C-91.84834094 14.38459903 -89.9466814 14.4566856 -88.04501343 14.52854919 C-85.80434624 14.61416424 -83.56379167 14.70237506 -81.32324219 14.79101562 C-71.39151985 15.18273751 -61.45897581 15.55316054 -51.52648926 15.92489624 C-47.91829218 16.06086857 -44.31021882 16.1998226 -40.70214844 16.33911133 C-38.42383156 16.42538384 -36.14551138 16.51156904 -33.8671875 16.59765625 C-32.83465851 16.63824158 -31.80212952 16.6788269 -30.73831177 16.72064209 C-17.45125581 18.0307383 -17.45125581 18.0307383 -5 15 C-2.3418326 10.25327251 -1.20487294 5.28290444 0 0 Z " fill="#001434" transform="translate(211,333)"/>
<path d="M0 0 C7.54300139 2.37065758 11.36678083 8.38033543 15 15 C16.2467306 17.90642848 17.23725125 20.8602382 18.1875 23.875 C18.43435547 24.61363281 18.68121094 25.35226562 18.93554688 26.11328125 C21.96908847 35.44849993 23.34653166 44.31026954 23.3125 54.125 C23.32861328 55.06214844 23.34472656 55.99929688 23.36132812 56.96484375 C23.36555608 63.01082295 22.46460921 67.47251232 20 73 C18.68 72.67 17.36 72.34 16 72 C16.165 70.783125 16.33 69.56625 16.5 68.3125 C18.66257343 47.86346007 15.08337714 25.06859558 3 8 C2.195625 7.030625 1.39125 6.06125 0.5625 5.0625 C0.046875 4.381875 -0.46875 3.70125 -1 3 C-0.67 2.01 -0.34 1.02 0 0 Z " fill="#001434" transform="translate(235,231)"/>
<path d="M0 0 C1.27854482 2.55708964 0.72228355 3.28902908 0 6 C-2.08926026 24.47503001 7.08768402 43.49332368 18.31616211 57.58984375 C19.53022554 59.0713816 20.76445777 60.5363266 22 62 C22.56203125 62.67675781 23.1240625 63.35351562 23.703125 64.05078125 C30.66522721 71.69854504 40.81506491 78.13828287 50.9140625 80.46484375 C53.14213003 81.03646407 54.9817492 81.90868339 57 83 C56 84 56 84 52.0625 84.3125 C39.89208616 84.12023438 28.82904785 75.975322 20.375 67.875 C7.23977258 54.14101577 -3.69438528 35.81335633 -4.375 16.375 C-4.23859206 11.43559668 -3.68955887 3.68955887 0 0 Z " fill="#3B97F4" transform="translate(120,164)"/>
<path d="M0 0 C3.1875 0.375 3.1875 0.375 5.5 2.6875 C8.82956592 7.99014202 8.81580298 13.27522522 8.1875 19.375 C6.0517148 23.80477671 3.79737286 26.57113671 -0.8125 28.375 C-7.65686102 29.31784565 -12.25240176 28.45997014 -17.8125 24.375 C-20.17813027 22.08568038 -20.73042181 20.68963307 -21.5625 17.5 C-20.66166196 13.74650816 -19.95205336 13.46738363 -16.8125 11.4375 C-15.9978125 10.95023438 -15.183125 10.46296875 -14.34375 9.9609375 C-9.61756435 6.99977797 -5.49724193 0.73296559 0 0 Z M-0.8125 6.375 C-1.26625 7.096875 -1.72 7.81875 -2.1875 8.5625 C-5.80313981 12.4363998 -10.02612666 14.22843944 -14.8125 16.375 C-14.54766676 18.32243501 -14.54766676 18.32243501 -13.8125 20.375 C-9.66359764 22.86434142 -7.89807941 23.51974392 -3.0625 22.875 C0.22022223 21.60561381 0.22022223 21.60561381 2.1875 19.25 C3.62064201 15.12971673 3.16470331 12.63281441 2.1875 8.375 C1.1975 7.715 0.2075 7.055 -0.8125 6.375 Z " fill="#001434" transform="translate(279.8125,171.625)"/>
<path d="M0 0 C1.98 0.495 1.98 0.495 4 1 C4.21914062 2.01578125 4.43828125 3.0315625 4.6640625 4.078125 C8.16554683 19.58604967 13.86246217 33.41831439 27.8125 42.375 C33.25375898 45.39125694 39.04627158 47.26093843 45 49 C44.67 50.65 44.34 52.3 44 54 C29.47063052 51.92879201 19.47866744 44.84679964 10.1875 33.625 C3.19541976 24.06641501 0.34386644 13.61484565 -1 2 C-0.67 1.34 -0.34 0.68 0 0 Z " fill="#3D9CFB" transform="translate(137,175)"/>
<path d="M0 0 C12.46416776 0.49030888 22.43886653 11.41899615 30.375 19.90625 C38.69351736 29.65451253 46.43125304 42.60242054 46.375 55.625 C46.38273437 57.42324219 46.38273437 57.42324219 46.390625 59.2578125 C46.1427204 62.28370687 45.71519672 63.96325761 44.125 66.5 C43.135 66.005 43.135 66.005 42.125 65.5 C42.21201172 64.44425781 42.21201172 64.44425781 42.30078125 63.3671875 C43.03845329 47.22270807 35.09475597 33.08410151 24.6875 21.1875 C23.18734073 19.60514023 21.66680743 18.04180743 20.125 16.5 C19.3928125 15.7678125 18.660625 15.035625 17.90625 14.28125 C11.48137077 8.21833579 4.16419915 3.21362099 -4.875 2.5 C-2.875 0.5 -2.875 0.5 0 0 Z " fill="#3B96F3" transform="translate(143.875,163.5)"/>
<path d="M0 0 C1.94921875 1.70703125 1.94921875 1.70703125 3.6875 3.8125 C4.26886719 4.49957031 4.85023437 5.18664062 5.44921875 5.89453125 C8.69534661 10.30174263 9.66998127 13.44872658 9 19 C6.01433866 23.56630558 3.05257205 25.97897118 -2 28 C-2.66 28 -3.32 28 -4 28 C-4.375 25.75 -4.375 25.75 -4 23 C-2.04690112 21.59886384 -0.04291182 20.26660533 2 19 C3.43982778 17.19854943 3.43982778 17.19854943 4 15 C3.22868624 12.84861952 3.22868624 12.84861952 1.75 10.875 C1.29109375 10.19179688 0.8321875 9.50859375 0.359375 8.8046875 C-1.01735405 6.88973447 -1.01735405 6.88973447 -3 5 C-6.09620632 5.10676574 -7.25056456 6.21476963 -9.625 8.25 C-13.20544776 12.39578162 -14.31164502 15.54621223 -14 21 C-17.875 19.25 -17.875 19.25 -19 17 C-19.61821054 13.75439466 -19.49856003 11.76929145 -17.68359375 8.96875 C-13.07151553 3.43838328 -7.69818632 -2.53025659 0 0 Z " fill="#3D9CFB" transform="translate(51,246)"/>
<path d="M0 0 C4.76998701 4.07194013 8.23138381 8.46808785 10.0625 14.5 C10 18 10 18 7.875 21.25 C5.30781061 23.70557246 3.23430267 25.55307512 0 27 C-0.99 26.67 -1.98 26.34 -3 26 C-3 24.68 -3 23.36 -3 22 C-1.46875 20.515625 -1.46875 20.515625 0.5 19.25 C1.1496875 18.82203125 1.799375 18.3940625 2.46875 17.953125 C2.9740625 17.63859375 3.479375 17.3240625 4 17 C3.46864683 12.48349806 1.76591425 9.57941844 -1 6 C-4.04998198 4.60719682 -4.04998198 4.60719682 -7.0625 6.375 C-10.96226337 9.85989493 -11.3749458 12.95645924 -12 18 C-15.8359375 17.21875 -15.8359375 17.21875 -17.3125 15.25 C-18.19023799 12.37740295 -17.86513002 10.86790603 -17 8 C-15.29296875 6.05078125 -15.29296875 6.05078125 -13.1875 4.3125 C-12.15689453 3.44044922 -12.15689453 3.44044922 -11.10546875 2.55078125 C-7.1787822 -0.34141645 -4.77499202 -1.7469483 0 0 Z " fill="#3D9CFB" transform="translate(68,272)"/>
<path d="M0 0 C3.03489177 1.28752984 3.74091207 2.90142716 5.0625 5.875 C5.25 9.1875 5.25 9.1875 5.0625 11.875 C4.340625 12.1225 3.61875 12.37 2.875 12.625 C-0.19071959 13.98754204 -2.37579118 15.72870342 -4.9375 17.875 C-7.863416 19.337958 -9.69367347 19.32023109 -12.9375 18.875 C-15.15174332 17.05759509 -16.31131029 15.31428456 -17.9375 12.875 C-17.9375 11.885 -17.9375 10.895 -17.9375 9.875 C-17.34582031 9.56046875 -16.75414062 9.2459375 -16.14453125 8.921875 C-11.74061445 6.53671941 -7.7724154 4.12886761 -3.9375 0.875 C-1.9375 -0.125 -1.9375 -0.125 0 0 Z " fill="#3C9AF8" transform="translate(210.9375,236.125)"/>
<path d="M0 0 C4.02979406 3.79274735 5.97131912 8.63126551 7 14 C6.15947079 18.10925394 3.81260557 20.93170301 1 24 C0.01 24.33 -0.98 24.66 -2 25 C-2.75 22.8125 -2.75 22.8125 -3 20 C-2.34 19.195625 -1.68 18.39125 -1 17.5625 C1.33640052 15.13861155 1.33640052 15.13861155 0.875 11.9375 C0.12333396 9.41404973 -0.6881405 7.2738898 -2 5 C-5.81913463 5.54559066 -7.66946583 6.9461966 -10 10 C-10.39387788 12.32387947 -10.73486085 14.65793749 -11 17 C-11.66 17.33 -12.32 17.66 -13 18 C-13.99 17.34 -14.98 16.68 -16 16 C-16.73724185 12.31379075 -16.66984908 10.01575475 -14.5703125 6.83203125 C-6.65336788 -2.49501295 -6.65336788 -2.49501295 0 0 Z " fill="#3D9CFB" transform="translate(86,296)"/>
<path d="M0 0 C-0.58897498 3.37099115 -1.6773896 5.07913929 -4.02734375 7.5390625 C-4.65020264 8.197854 -5.27306152 8.85664551 -5.91479492 9.53540039 C-6.91603394 10.5697522 -6.91603394 10.5697522 -7.9375 11.625 C-8.61466064 12.33197021 -9.29182129 13.03894043 -9.98950195 13.76733398 C-11.35233319 15.18676792 -12.71842767 16.60307651 -14.08789062 18.01611328 C-15.77146288 19.76288398 -17.42954854 21.52890567 -19.078125 23.30859375 C-19.93921875 24.21738281 -20.8003125 25.12617188 -21.6875 26.0625 C-22.43386719 26.85785156 -23.18023437 27.65320313 -23.94921875 28.47265625 C-26 30 -26 30 -28.26953125 29.74609375 C-28.84058594 29.49988281 -29.41164063 29.25367188 -30 29 C-28.69439574 21.54648709 -21.48368622 16.44253108 -15.98828125 11.80078125 C-13.24225801 9.31371502 -10.90130923 6.55051401 -8.54296875 3.69921875 C-5.68222381 0.54877812 -4.30597203 0 0 0 Z " fill="#001535" transform="translate(109,246)"/>
<path d="M0 0 C-0.33 1.32 -0.66 2.64 -1 4 C-1.62648438 4.07476562 -2.25296875 4.14953125 -2.8984375 4.2265625 C-5.39814142 4.62872307 -7.6347554 5.09095335 -10 6 C-11.9087987 8.72618375 -11.9087987 8.72618375 -12 12 C-11.0333544 15.8665824 -10.38264302 16.74490465 -7 19 C-7 20.32 -7 21.64 -7 23 C-10.87547487 23.45063661 -12.55300187 23.30793205 -15.8125 21.0625 C-18.66614974 17.06739036 -19.29240761 13.8677267 -19 9 C-17.39797469 4.28292547 -15.17849014 1.68617223 -11 -1 C-6.7872076 -2.51228445 -4.09114206 -1.61742826 0 0 Z " fill="#001434" transform="translate(265,150)"/>
<path d="M0 0 C1.32 0 2.64 0 4 0 C2.52807983 5.70707698 -0.40263585 9.80782901 -3.8125 14.5 C-4.59463867 15.60021484 -4.59463867 15.60021484 -5.39257812 16.72265625 C-6.9050351 18.8336761 -8.44220326 20.92225868 -10 23 C-10.69101807 23.92425781 -10.69101807 23.92425781 -11.39599609 24.8671875 C-12.69921875 26.53125 -12.69921875 26.53125 -15 29 C-15.99 29 -16.98 29 -18 29 C-17.65335536 22.91446074 -14.7447514 19.23455606 -11.25 14.5 C-10.7240625 13.76652344 -10.198125 13.03304688 -9.65625 12.27734375 C-8.12940218 10.16470036 -6.57175869 8.07936948 -5 6 C-4.54947266 5.38382812 -4.09894531 4.76765625 -3.63476562 4.1328125 C-2.359375 2.46875 -2.359375 2.46875 0 0 Z " fill="#001434" transform="translate(113,270)"/>
<path d="M0 0 C-0.1796875 2.375 -0.1796875 2.375 -1 5 C-3.2578125 6.1875 -3.2578125 6.1875 -6.125 7 C-9.87541541 8.18536446 -12.78039318 9.31265481 -15.875 11.75 C-19.04783973 14.03444461 -20.21458252 14.5735481 -24 14 C-23.92152313 11.33178648 -23.44984093 9.53953314 -21.7265625 7.47265625 C-15.87085796 2.07056262 -8.06929384 -2.54819805 0 0 Z " fill="#001434" transform="translate(287,112)"/>
<path d="M0 0 C-0.41556795 5.20593307 -1.79115587 7.38495141 -5.5625 10.9375 C-6.46355469 11.78828125 -7.36460938 12.6390625 -8.29296875 13.515625 C-9.18628906 14.33546875 -10.07960938 15.1553125 -11 16 C-11.75925781 16.73734375 -12.51851562 17.4746875 -13.30078125 18.234375 C-13.98527344 18.87890625 -14.66976562 19.5234375 -15.375 20.1875 C-15.98085937 20.75855469 -16.58671875 21.32960937 -17.2109375 21.91796875 C-19 23 -19 23 -21.2265625 22.67578125 C-22.10441406 22.34126953 -22.10441406 22.34126953 -23 22 C-20.60292377 14.87119517 -8.01367765 0 0 0 Z " fill="#001535" transform="translate(83,228)"/>
<path d="M0 0 C0.33 0.99 0.66 1.98 1 3 C0.67 3.66 0.34 4.32 0 5 C-2.42626469 5.59177188 -4.79365451 6.07904437 -7.25 6.5 C-11.71274503 7.28248516 -15.80470818 8.25009218 -20 10 C-22.8125 10.125 -22.8125 10.125 -25 10 C-25 8.68 -25 7.36 -25 6 C-16.96675127 1.60603097 -9.29685765 -2.38380965 0 0 Z " fill="#001434" transform="translate(223,113)"/>
<path d="M0 0 C-0.25104631 5.14644943 -2.00548561 7.8994335 -5.3671875 11.5859375 C-7.47787797 13.41385605 -9.22462868 13.91837143 -12 14 C-12.33 13.01 -12.66 12.02 -13 11 C-11.890625 9.0625 -11.890625 9.0625 -10.25 7 C-9.71890625 6.319375 -9.1878125 5.63875 -8.640625 4.9375 C-8.09921875 4.298125 -7.5578125 3.65875 -7 3 C-6.52046875 2.4225 -6.0409375 1.845 -5.546875 1.25 C-4 0 -4 0 0 0 Z " fill="#001535" transform="translate(101,277)"/>
<path d="M0 0 C-1.02771197 5.63384275 -5.08131091 9.19417497 -9.125 13 C-11 14 -11 14 -13.25 13.6875 C-13.8275 13.460625 -14.405 13.23375 -15 13 C-13.65157445 7.43774461 -9.43310121 4.26557159 -5 1 C-2 0 -2 0 0 0 Z " fill="#001535" transform="translate(70,230)"/>
<path d="M0 0 C0.57492188 0.22945313 1.14984375 0.45890625 1.7421875 0.6953125 C0.34982282 5.42935241 -2.22598869 8.88439308 -6.2578125 11.6953125 C-9.6328125 12.0703125 -9.6328125 12.0703125 -12.2578125 11.6953125 C-11.06503997 6.7751258 -7.93284472 4.22889691 -4.328125 0.953125 C-2.2578125 -0.3046875 -2.2578125 -0.3046875 0 0 Z " fill="#001535" transform="translate(85.2578125,257.3046875)"/>
<path d="M0 0 C0.99 0.33 1.98 0.66 3 1 C2.6684371 4.0945871 1.97117406 5.02804686 -0.3125 7.25 C-3 9 -3 9 -7 9 C-6.875 6.75 -6.875 6.75 -6 4 C-3.125 1.625 -3.125 1.625 0 0 Z " fill="#001535" transform="translate(72,248)"/>
</svg>
