<?xml version="1.0" standalone="no"?>
<!DOCTYPE svg PUBLIC "-//W3C//DTD SVG 20010904//EN"
 "http://www.w3.org/TR/2001/REC-SVG-20010904/DTD/svg10.dtd">
<svg version="1.0" xmlns="http://www.w3.org/2000/svg"
 width="48.000000pt" height="48.000000pt" viewBox="0 0 48.000000 48.000000"
 preserveAspectRatio="xMidYMid meet">

<g transform="translate(0.000000,48.000000) scale(0.100000,-0.100000)"
fill="#000000" stroke="none">
<path d="M125 465 c-27 -8 -53 -14 -57 -15 -4 0 -14 -7 -22 -16 -23 -22 -22
-202 1 -269 20 -61 84 -126 146 -150 45 -17 49 -17 94 0 66 26 128 91 147 156
17 55 22 234 8 256 -26 41 -225 65 -317 38z m205 -15 c25 -6 58 -16 74 -22
l28 -11 -4 -116 c-3 -95 -8 -124 -25 -157 -42 -80 -132 -133 -193 -115 -52 16
-110 68 -136 125 -20 44 -24 67 -24 158 l0 106 43 16 c23 8 51 17 62 19 38 9
130 6 175 -3z"/>
<path d="M285 265 l-59 -86 -48 48 c-26 26 -48 43 -48 37 0 -10 91 -104 102
-104 7 0 116 153 124 175 4 8 2 15 -3 15 -5 0 -36 -38 -68 -85z"/>
</g>
</svg>
