<?xml version="1.0" standalone="no"?>
<!DOCTYPE svg PUBLIC "-//W3C//DTD SVG 20010904//EN"
 "http://www.w3.org/TR/2001/REC-SVG-20010904/DTD/svg10.dtd">
<svg version="1.0" xmlns="http://www.w3.org/2000/svg"
 width="48.000000pt" height="48.000000pt" viewBox="0 0 48.000000 48.000000"
 preserveAspectRatio="xMidYMid meet">

<g transform="translate(0.000000,48.000000) scale(0.100000,-0.100000)"
fill="#000000" stroke="none">
<path d="M85 461 c-58 -7 -75 -16 -75 -39 0 -13 2 -13 14 4 13 18 28 19 212
19 l198 0 7 -25 7 -25 1 28 c1 21 -5 30 -25 37 -27 11 -257 11 -339 1z"/>
<path d="M97 419 c-13 -8 -14 -15 -7 -35 13 -32 13 -34 -3 -34 -7 0 -18 9 -25
20 -7 11 -16 20 -21 20 -16 0 -41 -31 -41 -51 0 -26 35 -59 63 -59 12 0 28 -9
35 -20 11 -18 9 -20 -28 -26 -49 -8 -55 -23 -48 -131 3 -49 10 -78 19 -84 19
-13 395 -7 409 7 16 16 18 180 2 196 -7 7 -34 15 -61 18 l-48 5 16 35 c13 31
15 33 19 13 4 -24 40 -40 66 -30 8 3 20 24 27 46 14 48 2 71 -40 71 -14 0 -35
7 -45 15 -28 21 -95 19 -134 -5 -27 -16 -33 -26 -30 -48 2 -22 8 -28 36 -30
37 -4 37 -4 17 -42 -13 -25 -22 -30 -54 -30 -48 0 -72 34 -52 76 24 54 -27
127 -72 103z m49 -44 c14 -21 14 -30 4 -54 -8 -21 -9 -35 -1 -49 15 -28 14
-32 -7 -32 -10 0 -25 12 -32 26 -8 14 -26 28 -42 31 -35 7 -52 27 -43 50 6 16
8 16 26 -6 17 -21 24 -23 47 -15 27 10 31 23 17 57 -11 26 12 21 31 -8z m244
0 c7 -8 10 -22 6 -30 -8 -22 -156 -22 -156 0 0 37 124 62 150 30z m66 -20 c8
-21 -15 -75 -32 -75 -22 0 -26 18 -13 55 14 36 35 46 45 20z m-106 -40 c0 -3
-4 -13 -9 -23 -5 -9 -12 -25 -15 -34 -5 -17 -36 -26 -36 -10 0 14 40 72 50 72
5 0 10 -2 10 -5z m-70 -95 c34 0 38 -3 44 -31 5 -26 10 -30 33 -27 22 2 29 9
31 31 3 23 8 28 25 25 20 -3 22 -10 25 -78 1 -41 -1 -80 -6 -87 -10 -16 -376
-30 -386 -15 -14 22 -19 138 -7 160 15 29 49 29 53 1 7 -51 69 -49 77 2 l3 24
-21 -25 c-21 -25 -21 -25 -36 -5 -15 19 -14 20 12 27 15 4 48 5 72 2 24 -2 61
-4 81 -4z m100 -9 c0 -13 -26 -32 -33 -24 -14 13 -6 33 13 33 11 0 20 -4 20
-9z"/>
</g>
</svg>
