<?xml version="1.0" standalone="no"?>
<!DOCTYPE svg PUBLIC "-//W3C//DTD SVG 20010904//EN"
 "http://www.w3.org/TR/2001/REC-SVG-20010904/DTD/svg10.dtd">
<svg version="1.0" xmlns="http://www.w3.org/2000/svg"
 width="48.000000pt" height="48.000000pt" viewBox="0 0 48.000000 48.000000"
 preserveAspectRatio="xMidYMid meet">

<g transform="translate(0.000000,48.000000) scale(0.100000,-0.100000)"
fill="#000000" stroke="none">
<path d="M126 410 c-82 -15 -79 -10 -71 -105 5 -61 4 -85 -4 -85 -19 0 -51
-63 -51 -100 0 -49 19 -77 20 -30 1 49 22 105 40 105 12 0 15 17 15 89 l0 90
33 8 c17 5 89 7 160 6 l127 -3 3 -96 3 -96 -29 5 c-37 5 -48 -18 -24 -50 10
-13 23 -35 30 -51 10 -22 32 -38 32 -22 0 10 -26 61 -37 73 -18 18 -16 35 2
28 8 -3 23 -9 32 -13 12 -5 15 -2 10 10 -3 9 -2 19 4 22 13 9 39 -57 39 -102
1 -32 2 -35 11 -19 19 32 4 107 -25 133 -24 20 -26 28 -26 101 0 58 -4 83 -15
92 -19 15 -211 22 -279 10z"/>
<path d="M197 333 c-10 -9 -9 -153 1 -153 18 0 123 73 119 84 -3 11 -94 76
-106 76 -4 0 -11 -3 -14 -7z m56 -39 l39 -26 -33 -24 c-42 -31 -49 -30 -49 4
0 15 -3 37 -6 50 -8 29 3 28 49 -4z"/>
<path d="M74 178 c-20 -23 -20 -23 31 -2 17 7 21 -11 5 -21 -9 -5 -40 -69 -40
-81 0 -2 5 -4 10 -4 6 0 16 12 22 28 7 15 21 37 31 49 11 12 17 29 14 37 -9
23 -51 19 -73 -6z"/>
<path d="M153 123 c-18 -2 -33 -8 -33 -14 0 -12 217 -12 224 0 11 18 -96 26
-191 14z"/>
</g>
</svg>
